<svg width="153" height="40" viewBox="0 0 153 40" fill="none" xmlns="http://www.w3.org/2000/svg">
<g clip-path="url(#clip0_1_1551)">
<path fill-rule="evenodd" clip-rule="evenodd" d="M7.32909 14.4417C8.63301 14.484 9.56643 14.5047 10.13 14.5047C10.2989 14.5047 11.7392 14.484 14.4511 14.4417L10.8869 5.03989L7.32909 14.4417ZM11.0415 0.431152H11.929C13.1969 4.05661 14.7558 8.16809 16.6059 12.7648L19.8882 20.7416C20.0385 21.0238 20.2023 21.2333 20.3813 21.3685C20.5028 21.4629 21.1936 21.714 22.452 22.1208V23.0461C20.7429 22.9308 19.4844 22.8734 18.6765 22.8734C17.8501 22.8734 16.4412 22.9308 14.4503 23.0461V22.1208C15.5868 21.8602 16.2487 21.6508 16.4369 21.494C16.6246 21.3375 16.7186 21.1551 16.7186 20.9456C16.7186 20.7265 16.6202 20.3555 16.4225 19.8332L14.9916 16.0088C13.0007 15.988 11.5518 15.9776 10.6448 15.9776L6.78939 16.0088L5.30815 19.9741C5.06381 20.6112 4.94145 21.0086 4.94145 21.1654C4.94145 21.3014 5.00046 21.4133 5.11758 21.5021C5.23484 21.5908 5.78161 21.7506 6.75923 21.9803C6.86192 22.0114 7.00803 22.0585 7.19544 22.1208V23.0461C5.58987 22.9308 4.45775 22.8734 3.80081 22.8734C2.96431 22.8734 1.89397 22.9308 0.588867 23.0461V22.1208C1.44346 21.9123 2.02998 21.6771 2.34973 21.4156C2.5841 21.2174 2.82844 20.8833 3.08222 20.4129C3.61759 19.3783 4.97882 16.0512 7.16751 10.4301L11.0415 0.431152Z" fill="#7B7B7B"/>
<path fill-rule="evenodd" clip-rule="evenodd" d="M23.8037 1.7321V0.807129C25.5503 0.922156 27.0575 0.979801 28.3253 0.979801C29.65 0.979801 31.1757 0.922156 32.9038 0.807129V1.7321C32.6126 1.80508 32.3919 1.85691 32.2416 1.88878C30.9177 2.11843 30.1711 2.31755 30.0021 2.48374C29.8332 2.65179 29.739 3.0011 29.7204 3.53445C29.6636 4.95536 29.6356 7.63006 29.6356 11.5584C29.6356 14.1812 29.6988 15.9618 29.826 16.9021C29.9526 17.8423 30.2622 18.6475 30.7553 19.316C31.2484 19.9845 31.9269 20.4996 32.7915 20.8592C33.6554 21.2199 34.5754 21.4006 35.5521 21.4006C37.0262 21.4006 38.2215 21.0608 39.1372 20.3819C40.0529 19.7023 40.6587 18.7962 40.9549 17.6626C41.2504 16.5286 41.3983 14.3114 41.3983 11.01C41.3983 6.64255 41.3652 4.06701 41.2999 3.28338C41.2719 2.93869 41.182 2.69568 41.0325 2.55501C40.8816 2.4134 40.1773 2.19194 38.9195 1.88878C38.7872 1.85691 38.586 1.80508 38.3134 1.7321V0.807129C40.1542 0.922156 41.5536 0.979801 42.5117 0.979801C43.5912 0.979801 44.8217 0.922156 46.2023 0.807129V1.7321C45.94 1.81527 45.7438 1.87291 45.6137 1.90411C44.3704 2.18639 43.6638 2.40547 43.4957 2.56228C43.3274 2.71895 43.2246 2.99079 43.1872 3.37778C43.0858 4.20293 43.0249 6.63687 43.0048 10.6805C42.9947 13.8045 42.943 15.7898 42.8495 16.6357C42.7273 17.8064 42.5067 18.749 42.1876 19.4647C41.8677 20.1805 41.3774 20.8592 40.7156 21.5021C40.0529 22.1451 39.2946 22.6175 38.4401 22.9205C37.3131 23.3172 36.1343 23.5163 34.9045 23.5163C33.5333 23.5163 32.3099 23.3275 31.2348 22.9516C30.1587 22.576 29.3258 22.0666 28.7343 21.4237C28.1428 20.7811 27.7008 20.0237 27.4096 19.1512C27.1186 18.2789 26.9733 17.0124 26.9733 15.3509L27.0294 8.236C27.0294 5.59277 27.0201 4.10377 27.0015 3.76966C26.9641 3.25786 26.8935 2.91238 26.7901 2.73482C26.7147 2.58859 26.6017 2.47898 26.4522 2.40547C26.3394 2.34307 25.686 2.1815 24.4938 1.92011C24.3435 1.88878 24.1136 1.82584 23.8037 1.7321Z" fill="#7B7B7B"/>
<path fill-rule="evenodd" clip-rule="evenodd" d="M55.8787 11.3233C56.8552 11.4385 57.6114 11.4952 58.1462 11.4952C59.8553 11.4952 61.1211 11.0715 61.9433 10.2238C62.7647 9.37635 63.1759 8.19859 63.1759 6.69121C63.1759 5.37276 62.8114 4.33171 62.0842 3.56724C61.3561 2.80357 60.2967 2.42134 58.9074 2.42134C58.4093 2.42134 57.4281 2.48467 55.9627 2.61014L55.8787 11.3233ZM49.9756 1.7321V0.807129C52.4646 0.922156 54.4606 0.979801 55.9627 0.979801C56.8266 0.979801 57.6344 0.969356 58.3863 0.948598C59.3811 0.906951 60.0716 0.8854 60.4569 0.8854C62.2884 0.8854 63.6689 1.366 64.5982 2.32786C65.5189 3.29951 65.979 4.61068 65.979 6.26177C65.979 7.36934 65.7697 8.34891 65.3514 9.2013C64.9332 10.0528 64.3302 10.7708 63.5409 11.3561C62.9675 11.7743 62.1503 12.1453 61.0887 12.4691L65.7806 19.2697C66.3626 20.1156 66.7292 20.6121 66.8795 20.7578C67.1145 20.9777 67.42 21.1655 67.7952 21.3222C68.3213 21.5519 69.2097 21.818 70.4587 22.1209V23.0462C68.9746 22.9309 67.895 22.8735 67.2188 22.8735C66.439 22.8735 65.6412 22.9309 64.824 23.0462C64.4012 22.2625 63.8284 21.2774 63.1055 20.0917C62.3816 18.9057 61.9403 18.2029 61.7807 17.9838C61.6868 17.8584 61.5976 17.7281 61.5134 17.5922L58.4142 12.8594C57.5783 12.8387 56.7331 12.7707 55.8787 12.6554L55.9913 20.5539C56.0101 20.8673 56.0941 21.1022 56.2444 21.259C56.47 21.4686 57.1744 21.6933 58.3575 21.9332C58.5272 21.9644 58.7851 22.0274 59.1323 22.1209V23.0462C57.4324 22.9309 55.9345 22.8735 54.6387 22.8735C53.2486 22.8735 51.6949 22.9309 49.9756 23.0462V22.1209L50.5815 21.9804C51.9248 21.698 52.6874 21.4653 52.8707 21.2829C53.0539 21.1001 53.1596 20.7738 53.1875 20.3035C53.2063 20.0005 53.23 17.3154 53.2581 12.2477L53.2019 4.88185C53.1928 3.75353 53.1668 3.10594 53.1244 2.93869C53.0821 2.77171 52.9907 2.6461 52.8498 2.56228C52.3892 2.29097 51.6618 2.06634 50.6662 1.88878C50.5161 1.85691 50.286 1.80508 49.9756 1.7321Z" fill="#7B7B7B"/>
<path fill-rule="evenodd" clip-rule="evenodd" d="M79.4846 10.6181H82.8937C84.2081 10.6181 84.9828 10.5788 85.218 10.5004C85.4521 10.4222 85.6426 10.263 85.7886 10.0224C85.9337 9.78238 86.1141 9.0876 86.3305 7.93786C86.3586 7.82363 86.401 7.64606 86.4577 7.4053H87.387C87.2835 9.12924 87.2325 10.4558 87.2325 11.3856C87.2325 12.3476 87.2835 13.6638 87.387 15.335H86.4577C86.1846 13.8205 86.0158 12.9746 85.9502 12.7962C85.8563 12.5458 85.6916 12.3652 85.4573 12.2557C85.2223 12.1461 84.523 12.0908 83.3586 12.0908H79.4982L79.5687 21.3063H85.4716L85.9927 21.2902C86.7999 21.2902 87.3072 21.2542 87.5142 21.1807C87.8708 21.0455 88.1856 20.8177 88.4578 20.4996C88.7304 20.1805 89.2328 19.2794 89.9652 17.796C90.0398 17.6495 90.1527 17.4354 90.303 17.1531H91.2754C91.1626 17.4873 90.5803 19.4519 89.5282 23.0462C86.1098 22.9309 82.9869 22.8735 80.1602 22.8735C78.188 22.8735 76.0094 22.9309 73.624 23.0462V22.1209L75.906 21.5726C76.2725 21.4581 76.4975 21.343 76.5824 21.2278C76.7233 21.0295 76.7936 20.617 76.7936 19.99V19.7079L76.8642 16.025C76.8733 15.3141 76.8783 13.9196 76.8783 11.8407C76.8783 8.82132 76.8684 6.60897 76.8497 5.20326C76.831 3.79822 76.7844 3.0011 76.7087 2.81322C76.6527 2.68762 76.5658 2.58608 76.4487 2.50794C76.3309 2.4294 75.8966 2.296 75.1457 2.10799L73.624 1.7321V0.807129C75.3892 0.922156 77.4979 0.979801 79.949 0.979801C81.2923 0.979801 84.4855 0.922156 89.5282 0.807129C89.5468 2.61503 89.6597 4.40125 89.8668 6.16671H88.8805C88.5047 4.7466 88.1993 3.80073 87.965 3.33058C87.8047 3.00665 87.6077 2.79246 87.3733 2.68762C87.0629 2.55249 86.3772 2.48374 85.3163 2.48374H79.6255L79.5263 7.53077L79.4846 10.6181Z" fill="#7B7B7B"/>
<path fill-rule="evenodd" clip-rule="evenodd" d="M95.835 1.7321V0.807129C98.1356 0.922156 99.6947 0.979801 100.512 0.979801C101.019 0.979801 102.639 0.922156 105.372 0.807129V1.7321C103.681 2.05603 102.69 2.27022 102.399 2.37427C102.193 2.44778 102.042 2.56228 101.949 2.71895C101.808 2.93869 101.728 3.39298 101.709 4.08301C101.69 4.77238 101.681 8.6382 101.681 15.6802C101.681 17.0699 101.695 18.9244 101.723 21.2438H107.936C108.866 21.2438 109.471 21.1807 109.753 21.0551C110.034 20.9305 110.326 20.6537 110.627 20.2251C110.927 19.7966 111.49 18.7205 112.317 16.9964H113.514L112.388 20.4915C112.19 21.1392 111.95 21.9907 111.669 23.0462C107.784 22.9309 104.402 22.8735 101.521 22.8735C99.4847 22.8735 97.5937 22.9309 95.8487 23.0462V22.1209C97.2797 21.8291 98.1207 21.6276 98.3736 21.518C98.6259 21.4079 98.7963 21.259 98.8853 21.0711C98.9738 20.8834 99.0183 20.3348 99.0183 19.4256L99.0887 9.81848L99.0464 3.62793C99.0464 3.09537 98.9758 2.76126 98.835 2.62521C98.6193 2.41671 97.9245 2.1967 96.7508 1.96731C96.5438 1.92566 96.2383 1.84726 95.835 1.7321Z" fill="#7B7B7B"/>
<path fill-rule="evenodd" clip-rule="evenodd" d="M126.869 0.807129V1.7321C126.539 1.81527 126.295 1.87291 126.135 1.90411C124.886 2.14474 124.163 2.37189 123.966 2.58608C123.769 2.80053 123.67 3.27862 123.67 4.01981V4.5685L123.6 10.8683L123.642 20.0213C123.642 20.753 123.738 21.2175 123.931 21.4157C124.124 21.6148 124.783 21.7868 125.91 21.9332C126.126 21.9644 126.441 22.0274 126.855 22.1209V23.0462C125.342 22.9309 123.887 22.8735 122.487 22.8735C121.041 22.8735 119.453 22.9309 117.726 23.0462V22.1209C117.998 22.0378 118.205 21.9859 118.346 21.9644C119.679 21.7244 120.442 21.5021 120.635 21.2983C120.827 21.0944 120.923 20.5802 120.923 19.7551L120.895 18.9714L120.938 13.2192C120.938 7.30614 120.923 4.03594 120.895 3.40898C120.876 3.0643 120.776 2.79722 120.594 2.60935C120.411 2.42134 119.704 2.1967 118.469 1.93532C118.301 1.8938 118.053 1.82584 117.726 1.7321V0.807129C119.767 0.922156 121.361 0.979801 122.509 0.979801C123.788 0.979801 125.241 0.922156 126.869 0.807129Z" fill="#7B7B7B"/>
<path fill-rule="evenodd" clip-rule="evenodd" d="M137.266 14.4417C138.571 14.484 139.504 14.5047 140.068 14.5047C140.236 14.5047 141.676 14.484 144.389 14.4417L140.826 5.03989L137.266 14.4417ZM140.979 0.431152H141.866C143.134 4.05661 144.694 8.16809 146.544 12.7648L149.826 20.7416C149.976 21.0238 150.14 21.2333 150.319 21.3685C150.441 21.4629 151.131 21.714 152.39 22.1208V23.0461C150.681 22.9308 149.422 22.8734 148.615 22.8734C147.789 22.8734 146.38 22.9308 144.389 23.0461V22.1208C145.525 21.8602 146.187 21.6508 146.374 21.494C146.562 21.3375 146.656 21.1551 146.656 20.9456C146.656 20.7265 146.559 20.3555 146.36 19.8332L144.93 16.0088C142.939 15.988 141.489 15.9776 140.582 15.9776L136.727 16.0088L135.245 19.9741C135.001 20.6112 134.879 21.0086 134.879 21.1654C134.879 21.3014 134.937 21.4133 135.055 21.5021C135.173 21.5908 135.719 21.7506 136.697 21.9803C136.801 22.0114 136.945 22.0585 137.134 22.1208V23.0461C135.527 22.9308 134.395 22.8734 133.738 22.8734C132.902 22.8734 131.831 22.9308 130.526 23.0461V22.1208C131.381 21.9123 131.968 21.6771 132.288 21.4156C132.521 21.2174 132.766 20.8833 133.02 20.4129C133.555 19.3783 134.917 16.0512 137.105 10.4301L140.979 0.431152Z" fill="#7B7B7B"/>
<path fill-rule="evenodd" clip-rule="evenodd" d="M35.6162 32.7061H36.8037V38.3525H39.642V39.4354H35.6162V32.7061Z" fill="#7B7B7B"/>
<path fill-rule="evenodd" clip-rule="evenodd" d="M48.939 36.023C48.939 36.3852 48.9937 36.7174 49.1031 37.0217C49.2137 37.325 49.3686 37.5888 49.5705 37.8106C49.771 38.0325 50.0118 38.207 50.2917 38.333C50.5717 38.4603 50.8841 38.5234 51.2292 38.5234C51.5755 38.5234 51.8893 38.4603 52.1719 38.333C52.4557 38.207 52.6965 38.0325 52.8984 37.8106C53.0989 37.5888 53.2551 37.325 53.3645 37.0217C53.4752 36.7174 53.5299 36.3852 53.5299 36.023C53.5299 35.6882 53.4752 35.3745 53.3645 35.0832C53.2551 34.7918 53.0989 34.536 52.8984 34.3179C52.6965 34.0987 52.4557 33.9282 52.1719 33.8047C51.8893 33.6814 51.5755 33.6184 51.2292 33.6184C50.8841 33.6184 50.5717 33.6814 50.2917 33.8047C50.0118 33.9282 49.771 34.0987 49.5705 34.3179C49.3686 34.536 49.2137 34.7918 49.1031 35.0832C48.9937 35.3745 48.939 35.6882 48.939 36.023ZM47.6943 36.0991C47.6943 35.561 47.7816 35.0713 47.9586 34.6317C48.1344 34.1906 48.3778 33.8152 48.689 33.5056C49.0002 33.1944 49.3713 32.9556 49.8009 32.7875C50.2319 32.6195 50.7044 32.5355 51.22 32.5355C51.7421 32.5289 52.22 32.6064 52.6536 32.768C53.0871 32.9306 53.4609 33.1655 53.7746 33.4766C54.0898 33.7864 54.3345 34.1605 54.5102 34.5974C54.686 35.0347 54.7745 35.5229 54.7745 36.061C54.7745 36.5873 54.686 37.0664 54.5102 37.4969C54.3345 37.9275 54.0898 38.2989 53.7746 38.6086C53.4609 38.9198 53.0871 39.1612 52.6536 39.3357C52.22 39.5104 51.7421 39.5996 51.22 39.6061C50.7044 39.6061 50.2319 39.5223 49.8009 39.3542C49.3713 39.1875 49.0002 38.9499 48.689 38.6415C48.3778 38.3343 48.1344 37.9655 47.9586 37.535C47.7816 37.1045 47.6943 36.6253 47.6943 36.0991Z" fill="#7B7B7B"/>
<path fill-rule="evenodd" clip-rule="evenodd" d="M63.4521 32.7065H65.0264L68.2605 37.706H68.2787V32.7065H69.4675V39.4359H67.9584L64.6592 34.275H64.6396V39.4359H63.4521V32.7065Z" fill="#7B7B7B"/>
<path fill-rule="evenodd" clip-rule="evenodd" d="M80.5706 38.353C80.9405 38.353 81.292 38.3098 81.6201 38.2244C81.9507 38.1391 82.2372 38.0052 82.482 37.8255C82.7294 37.6442 82.9221 37.4106 83.0627 37.1218C83.2033 36.8331 83.2762 36.4839 83.2762 36.0718C83.2762 35.6663 83.211 35.3171 83.086 35.0257C82.9611 34.7345 82.7866 34.4982 82.5627 34.3182C82.3414 34.1371 82.0757 34.0046 81.7711 33.9193C81.4664 33.8326 81.1331 33.7907 80.7685 33.7907H79.6827V38.353H80.5706ZM78.4951 32.7065H81.1253C81.5654 32.7065 81.9898 32.7746 82.3986 32.9113C82.8074 33.0478 83.1694 33.2551 83.4819 33.5334C83.797 33.8129 84.0496 34.1621 84.2371 34.5835C84.4246 35.006 84.5209 35.5009 84.5209 36.0718C84.5209 36.648 84.4116 37.1468 84.1954 37.5681C83.9767 37.9894 83.698 38.3385 83.3543 38.6142C83.0132 38.8898 82.633 39.0959 82.2137 39.2311C81.797 39.3676 81.3856 39.4359 80.9847 39.4359H78.4951V32.7065Z" fill="#7B7B7B"/>
<path fill-rule="evenodd" clip-rule="evenodd" d="M94.0796 36.023C94.0796 36.3852 94.1343 36.7174 94.2463 37.0217C94.3557 37.325 94.5119 37.5888 94.7124 37.8106C94.913 38.0325 95.1524 38.207 95.4338 38.333C95.7125 38.4603 96.0247 38.5234 96.3711 38.5234C96.7175 38.5234 97.0325 38.4603 97.3138 38.333C97.5977 38.207 97.8398 38.0325 98.0404 37.8106C98.2408 37.5888 98.397 37.325 98.5064 37.0217C98.6158 36.7174 98.6731 36.3852 98.6731 36.023C98.6731 35.6882 98.6158 35.3745 98.5064 35.0832C98.397 34.7918 98.2408 34.536 98.0404 34.3179C97.8398 34.0987 97.5977 33.9282 97.3138 33.8047C97.0325 33.6814 96.7175 33.6184 96.3711 33.6184C96.0247 33.6184 95.7125 33.6814 95.4338 33.8047C95.1524 33.9282 94.913 34.0987 94.7124 34.3179C94.5119 34.536 94.3557 34.7918 94.2463 35.0832C94.1343 35.3745 94.0796 35.6882 94.0796 36.023ZM92.835 36.0991C92.835 35.561 92.9235 35.0713 93.1005 34.6317C93.2751 34.1906 93.5198 33.8152 93.8296 33.5056C94.1422 33.1944 94.5119 32.9556 94.9442 32.7875C95.3738 32.6195 95.8478 32.5355 96.3634 32.5355C96.8842 32.5289 97.3607 32.6064 97.7956 32.768C98.2277 32.9306 98.6028 33.1655 98.9178 33.4766C99.2304 33.7864 99.4751 34.1605 99.6523 34.5974C99.8292 35.0347 99.9153 35.5229 99.9153 36.061C99.9153 36.5873 99.8292 37.0664 99.6523 37.4969C99.4751 37.9275 99.2304 38.2989 98.9178 38.6086C98.6028 38.9198 98.2277 39.1612 97.7956 39.3357C97.3607 39.5104 96.8842 39.5996 96.3634 39.6061C95.8478 39.6061 95.3738 39.5223 94.9442 39.3542C94.5119 39.1875 94.1422 38.9499 93.8296 38.6415C93.5198 38.3343 93.2751 37.9655 93.1005 37.535C92.9235 37.1045 92.835 36.6253 92.835 36.0991Z" fill="#7B7B7B"/>
<path fill-rule="evenodd" clip-rule="evenodd" d="M108.589 32.7065H110.164L113.396 37.706H113.417V32.7065H114.604V39.4359H113.096L109.795 34.275H109.776V39.4359H108.589V32.7065Z" fill="#7B7B7B"/>
</g>
<defs>
<clipPath id="clip0_1_1551">
<rect width="151.579" height="40" fill="white" transform="translate(0.706055)"/>
</clipPath>
</defs>
</svg>
