<svg width="142" height="40" viewBox="0 0 142 40" fill="none" xmlns="http://www.w3.org/2000/svg">
<g clip-path="url(#clip0_1_1611)">
<path d="M76.9241 25.8528C76.9241 30.1996 71.5096 29.9416 71.5096 29.9416H66.0952V22.0872H71.5096C77.0817 22.0498 76.9241 25.8528 76.9241 25.8528ZM66.0952 10.1085H70.221C74.5053 10.3346 74.3436 13.5213 74.3436 13.5213C74.3436 17.4814 69.6062 17.546 69.6062 17.546H66.0952V10.1085ZM75.9226 19.0905C75.9226 19.0905 79.6286 17.5128 79.5956 13.3281C79.5956 13.3281 80.1593 6.47004 71.0639 5.63354H60.9716V34.3843H72.5399C72.5399 34.3843 82.2057 34.4131 82.2057 26.2721C82.2056 26.2721 82.4342 20.7321 75.9226 19.0905ZM49.8038 0H92.2947V40.0018H49.8038V0ZM27.9253 25.8528C27.9253 30.1996 22.5108 29.9416 22.5108 29.9416H17.096V22.0872H22.5108C28.0834 22.0498 27.9253 25.8528 27.9253 25.8528ZM17.096 10.1085H21.2227C25.5071 10.3346 25.345 13.5213 25.345 13.5213C25.345 17.4814 20.6079 17.546 20.6079 17.546H17.096V10.1085ZM26.9242 19.0905C26.9242 19.0905 30.6308 17.5128 30.5975 13.3281C30.5975 13.3281 31.1608 6.47004 22.0654 5.63354H11.9727V34.3843H23.5417C23.5417 34.3843 33.2074 34.4131 33.2074 26.2721C33.2074 26.2721 33.4351 20.7321 26.9242 19.0905ZM0.80542 0H43.2964V40.0018H0.80542V0ZM132.625 7.69474V13.0065C132.625 13.0065 127.435 9.82021 121.7 9.75607C121.7 9.75607 111.001 9.54625 110.518 20.0024C110.518 20.0024 110.132 29.6182 121.571 30.1662C121.571 30.1662 126.371 30.7437 132.883 26.5955V32.0966C132.883 32.0966 124.148 37.281 114.03 33.2879C114.03 33.2879 105.524 30.1848 105.2 20.0024C105.2 20.0024 104.846 9.52954 116.19 6.05305C116.19 6.05305 119.219 4.89446 124.663 5.4094C124.664 5.40926 127.917 5.73081 132.625 7.69474ZM98.8023 40.0018H141.293V0H98.8023V40.0018Z" fill="#7B7B7B"/>
</g>
<defs>
<clipPath id="clip0_1_1611">
<rect width="140.488" height="40" fill="white" transform="translate(0.80542)"/>
</clipPath>
</defs>
</svg>
