<svg width="169" height="40" viewBox="0 0 169 40" fill="none" xmlns="http://www.w3.org/2000/svg">
<g clip-path="url(#clip0_1_1613)">
<path fill-rule="evenodd" clip-rule="evenodd" d="M17.9788 0.11021C4.61172 1.48799 -3.51095 16.1564 2.25616 28.5067C8.7575 42.4284 27.4544 43.9644 35.9931 31.2747C36.6882 30.2418 37.7122 28.3218 37.6571 28.1547C37.6375 28.0942 35.8508 26.2364 33.6873 24.0249L29.7531 20.0053L33.7548 15.9022L37.7566 11.7991L37.2037 10.7538C33.3139 3.40799 25.8828 -0.704012 17.9788 0.11021ZM22.5833 3.04176C27.3335 3.87021 31.4971 6.6631 34.0215 10.7182L34.3771 11.2889L31.0917 14.6507L27.8064 18.0124L23.8562 13.9431L19.9059 9.87377L14.9548 14.9387L10.0037 20.0035L14.9388 25.0542L19.8739 30.1049L23.8615 26.0249L27.8491 21.9449L31.1148 25.2871L34.3806 28.6293L34.1335 29.0613C27.8846 39.9715 11.6393 39.6924 5.37616 28.5671C-1.63539 16.1191 8.79661 0.639986 22.5833 3.04176ZM51.6322 13.504C47.1646 14.1209 44.8162 19.0311 46.9637 23.2604C48.9371 27.1449 54.6188 27.6853 57.3815 24.2507C57.9326 23.5662 57.9575 23.6213 56.7859 22.928C55.8331 22.3644 55.7619 22.3378 55.6446 22.5031C53.9806 24.8729 50.1797 24.5173 48.9993 21.8809C48.0926 19.8542 48.8393 17.2569 50.5833 16.3715C52.3717 15.4631 54.6775 15.9609 55.6215 17.4595L55.7602 17.68L56.7806 17.0773C57.9611 16.3804 57.9415 16.4302 57.3353 15.6942C55.9628 14.032 53.8046 13.2035 51.6322 13.504ZM22.9388 16.9227L25.9042 19.9591L22.8891 23.0435L19.8739 26.128L16.8855 23.0684L13.8971 20.0089L16.8855 16.9493C18.5299 15.2658 19.8971 13.8898 19.9237 13.8898C19.9522 13.8862 21.3086 15.2533 22.9388 16.9227ZM81.3691 15.1289L80.3006 15.4755V16.3804V17.2853H79.5415H78.7824V18.4018V19.5182H79.5344H80.2864L80.3184 21.9715C80.3664 25.7849 81.1042 26.6702 83.9806 26.3591L84.5744 26.2951V25.2373V24.1795H83.9148C82.6188 24.1795 82.5815 24.1067 82.5815 21.504V19.5164H83.5788H84.5762V18.4V17.2835H83.5788H82.5815V16.0213C82.5815 15.3262 82.5495 14.7627 82.5104 14.7698C82.4677 14.7769 81.9557 14.9387 81.3691 15.1289ZM108.045 15.1289L106.978 15.4755V16.3804V17.2853H106.219H105.458V18.4018V19.5182H106.21H106.962L106.992 21.9715C107.04 25.7849 107.778 26.6702 110.654 26.3591L111.248 26.2951V25.2373V24.1795H110.589C109.291 24.1795 109.255 24.1067 109.255 21.504V19.5164H110.253H111.25V18.4V17.2835H110.253H109.255V16.0213C109.255 15.3262 109.223 14.7627 109.184 14.7698C109.145 14.7769 108.631 14.9387 108.045 15.1289ZM62.7379 17.0987C59.9859 17.4702 58.2188 20.1973 58.9068 23.0115C59.7868 26.6115 64.3451 27.7618 66.8073 25.0044C69.7353 21.7262 67.0544 16.5173 62.7379 17.0987ZM73.6553 17.1307C73.0135 17.2764 72.5637 17.5075 72.1602 17.9004L71.8508 18.2009V17.744V17.2871H70.7113H69.5717V21.8044V26.3218H70.7113H71.8508V23.6267C71.8508 19.9147 72.1424 19.2409 73.7531 19.2338C75.2517 19.2267 75.4579 19.7351 75.4579 23.4329V26.3289L76.6206 26.3022L77.7833 26.2755L77.8082 23.7493C77.8597 18.7769 77.3086 17.488 74.9691 17.1004C74.2651 16.9795 74.3237 16.9778 73.6553 17.1307ZM89.5557 17.104C84.6099 17.7422 84.1886 25.0862 89.0259 26.368C90.7699 26.8302 92.5602 26.3982 93.7299 25.232L94.3024 24.6613L93.8757 24.3911C93.6411 24.2418 93.2286 23.9947 92.9602 23.8418L92.4713 23.5627L92.1299 23.8293C90.9104 24.7822 88.8322 24.4942 88.2188 23.2889C87.9184 22.6987 87.7726 22.7253 91.3531 22.7253H94.6188L94.6828 22.3413C95.1682 19.4044 92.5406 16.7182 89.5557 17.104ZM100.446 17.104C99.8366 17.2071 99.2482 17.4987 98.8357 17.9004L98.5264 18.2009V17.744V17.2871H97.3868H96.2473V21.8044V26.3218H97.3868H98.5264V23.6267C98.5264 19.9147 98.8179 19.2409 100.427 19.2338C101.925 19.2267 102.132 19.7351 102.132 23.4293V26.3235H103.277H104.42L104.391 22.9475L104.363 19.5715L104.112 19.0258C103.559 17.8204 101.968 16.7911 100.992 17.0098C100.969 17.0133 100.722 17.056 100.446 17.104ZM115.303 17.1022C113.44 17.3813 112.34 18.7911 112.711 20.4284C112.955 21.5022 113.62 22.0622 115.317 22.6275C116.944 23.168 117.133 23.2907 117.133 23.7973C117.133 24.8107 114.61 24.4551 114.263 23.3938C114.228 23.2835 112.939 23.9324 112.445 24.3075C111.956 24.6791 113.374 26.0462 114.59 26.3787C117.397 27.1431 119.877 25.4738 119.405 23.1395C119.177 22.016 118.475 21.4169 116.752 20.8764C115.129 20.368 114.814 20.1262 115.058 19.5769C115.346 18.9298 116.614 19.0169 117.152 19.7191L117.394 20.0355L118.354 19.5129C119.481 18.8995 119.442 19.0009 118.827 18.3111C117.941 17.3155 116.702 16.8924 115.303 17.1022ZM124.091 17.0933C121.506 17.4791 119.828 20.4995 120.642 23.2978C121.509 26.2755 124.939 27.5235 127.172 25.6711L127.575 25.3369V27.6267V29.9164H128.715H129.854V23.6018V17.2871H128.715H127.575V17.7831V18.2791L127.239 17.9769C126.631 17.4311 125.314 16.9315 124.679 17.008C124.629 17.0151 124.363 17.0524 124.091 17.0933ZM145.186 17.104C142.226 17.5431 140.608 21.3031 142.125 24.2169C143.351 26.5707 146.468 27.2924 148.299 25.6462L148.651 25.3298V25.8258V26.3218H149.79H150.93V21.8044V17.2871H149.79H148.651V17.7902V18.2933L148.389 18.048C147.522 17.232 146.45 16.9173 145.186 17.104ZM162.558 17.1004C157.637 17.7529 157.204 25.088 162.009 26.3609C163.958 26.8782 166.464 26.1013 167.163 24.7644C167.287 24.5262 165.598 23.5129 165.364 23.6835C163.888 24.7573 161.865 24.5582 161.214 23.2747C160.93 22.7164 160.88 22.7253 164.404 22.7253H167.63L167.693 22.384C168.228 19.4578 165.552 16.704 162.558 17.1004ZM156.987 17.2284C156.357 17.4009 155.808 17.8044 155.481 18.3307L155.2 18.7822V18.0338V17.2853H154.061H152.921V21.8027V26.32H154.052H155.182L155.214 23.8187C155.259 20.4444 155.67 19.7138 157.52 19.7138H157.858V18.4018C157.86 16.912 157.906 16.9742 156.987 17.2284ZM131.755 20.3715C131.757 23.7387 131.794 24.064 132.301 24.9884C133.205 26.6382 135.805 27.0844 137.198 25.8275L137.627 25.4418L137.657 25.8578L137.686 26.2738L138.848 26.3004L140.011 26.3271V21.8062V17.2853H138.823H137.637V20.0178C137.637 23.7511 137.369 24.3769 135.766 24.3769C134.27 24.3769 134.034 23.7991 134.032 20.1262L134.03 17.2853H132.891H131.751L131.755 20.3715ZM91.2962 19.4169C91.7015 19.6302 91.9877 19.9289 92.2046 20.3662C92.5175 20.9991 92.5868 20.9778 90.1744 20.9778C87.7228 20.9778 87.8331 21.0204 88.2739 20.2347C88.8357 19.2284 90.2242 18.8533 91.2962 19.4169ZM164.279 19.4062C164.702 19.6284 164.987 19.9235 165.206 20.3662C165.518 20.9991 165.588 20.9778 163.175 20.9778C161.726 20.9778 160.992 20.944 160.992 20.8764C160.992 19.6675 163.035 18.7538 164.279 19.4062ZM64.1033 19.4649C66.4339 20.1831 66.2064 23.7458 63.8011 24.2044C61.9522 24.5564 60.5371 22.7218 61.2197 20.8569C61.6517 19.6747 62.8731 19.0862 64.1033 19.4649ZM126.439 19.6747C128.068 20.7929 127.815 23.4364 126.014 24.1404C124.101 24.8889 122.269 23.0987 122.82 21.0187C123.213 19.5271 125.17 18.8018 126.439 19.6747ZM147.07 19.4311C148.669 19.8862 149.163 22.3538 147.904 23.6018C146.333 25.1609 143.86 24.0604 143.86 21.8027C143.86 19.9751 145.282 18.9244 147.07 19.4311Z" fill="#7B7B7B"/>
</g>
<defs>
<clipPath id="clip0_1_1613">
<rect width="168" height="40" fill="white" transform="translate(0.293213)"/>
</clipPath>
</defs>
</svg>
