<svg width="85" height="40" viewBox="0 0 85 40" fill="none" xmlns="http://www.w3.org/2000/svg">
<path d="M0 0V25.2219H6.00937V25.2137L10.5809 0H0ZM11.9993 0V25.2219H18.0101V25.2137L22.5816 0H11.9993Z" fill="#7B7B7B"/>
<path d="M63.8886 33.9315H62.7103V32.3887H63.8886V30.5628H65.8982V32.3887H67.6219V33.9315H65.8982V37.3384C65.8982 37.7255 65.9801 37.9867 66.1425 38.1249C66.3211 38.2657 66.5454 38.338 66.7739 38.3287C66.9107 38.3294 67.0475 38.3221 67.1834 38.3068C67.322 38.2941 67.4591 38.2685 67.5928 38.2302L67.8801 39.6882C67.6151 39.7701 67.3435 39.8291 67.0682 39.8646C66.8183 39.8965 66.5666 39.913 66.3146 39.9138C65.4902 39.9138 64.8823 39.721 64.484 39.3339C64.0857 38.9469 63.8886 38.2958 63.8886 37.3808V33.9315ZM59.8639 35.2609C59.8639 34.7507 59.7376 34.3555 59.4836 34.0724C59.2296 33.7892 58.8452 33.6456 58.3039 33.6456C58.0609 33.6424 57.8199 33.689 57.5961 33.7824C57.4036 33.8612 57.23 33.9791 57.0868 34.1284C56.9469 34.2766 56.8371 34.4497 56.7634 34.6386C56.684 34.8394 56.6403 35.0523 56.6343 35.2677L59.8639 35.2609ZM61.7166 37.467C61.5816 38.2967 61.2438 38.9263 60.7035 39.3558C60.1632 39.7853 59.3767 40 58.3442 40C57.0988 40 56.1629 39.6604 55.5366 38.9811C54.9102 38.3018 54.597 37.3398 54.597 36.0952C54.5891 35.5295 54.6831 34.9668 54.8746 34.4334C55.0406 33.9722 55.3025 33.5501 55.6434 33.1943C55.9756 32.854 56.3804 32.591 56.8286 32.4243C57.3164 32.2437 57.8342 32.1546 58.3553 32.1617C59.5026 32.1617 60.3663 32.4872 60.9464 33.1382C61.5265 33.7892 61.8161 34.6664 61.8152 35.7697V36.5629H56.6094C56.6288 37.1565 56.7819 37.6206 57.0687 37.9553C57.3556 38.2899 57.7863 38.4577 58.3608 38.4586C59.1565 38.4586 59.6256 38.1281 59.7681 37.467H61.7166ZM50.9636 29.6711H52.9732V39.7743H50.9678L50.9636 29.6711ZM46.9999 29.6711H49.0109V39.7743H47.0041L46.9999 29.6711ZM43.2 36.4768L42.3104 36.5205C41.9669 36.5289 41.6251 36.5715 41.2903 36.6478C41.0785 36.6939 40.8768 36.7773 40.6949 36.8939C40.5691 36.9797 40.4724 37.1007 40.4174 37.2413C40.3686 37.3827 40.3447 37.5311 40.3466 37.6804C40.3362 37.9028 40.4316 38.1172 40.6047 38.2603C40.811 38.4122 41.0652 38.4873 41.3222 38.4723C41.7713 38.4923 42.2148 38.3685 42.5866 38.1194C42.7673 37.9829 42.9163 37.8099 43.0237 37.612C43.1464 37.3783 43.2057 37.1172 43.1958 36.8543L43.2 36.4768ZM43.2444 38.8402C42.9585 39.1609 42.6215 39.4334 42.2465 39.6471C41.8052 39.8705 41.3128 39.9775 40.8171 39.9576C40.4943 39.9592 40.173 39.9164 39.8622 39.8304C39.5742 39.7528 39.3055 39.6178 39.0725 39.4338C38.8431 39.2487 38.659 39.0149 38.5341 38.7499C38.393 38.4358 38.3242 38.0949 38.3328 37.7515C38.313 37.3112 38.4338 36.8759 38.6784 36.5069C38.909 36.1845 39.2202 35.9263 39.5819 35.7574C39.9796 35.571 40.4027 35.4425 40.8379 35.3758C41.3064 35.3011 41.7792 35.2555 42.2535 35.239L43.2153 35.1966V34.8219C43.2153 34.3691 43.0876 34.0573 42.835 33.8877C42.5689 33.7149 42.2557 33.6262 41.9371 33.6333C41.1432 33.6333 40.6885 33.9306 40.5728 34.5251L38.7353 34.3555C38.8741 33.5827 39.2141 33.022 39.7692 32.6787C40.3244 32.3354 41.071 32.1617 42.0092 32.1617C42.5054 32.1502 43.0001 32.2195 43.4734 32.3668C43.841 32.4812 44.1746 32.6827 44.4449 32.9536C44.6938 33.217 44.876 33.5348 44.9764 33.8809C45.0917 34.2811 45.1474 34.6958 45.1416 35.1118V39.7812H43.2444V38.8402ZM33.381 38.1194C33.678 38.1258 33.9745 38.0922 34.2623 38.0196C34.4717 37.9669 34.666 37.8672 34.8299 37.7282C34.9696 37.6091 35.0741 37.4551 35.1324 37.2824C35.1925 37.0953 35.2215 36.9 35.2185 36.7038C35.2185 36.2703 35.0978 35.9393 34.859 35.7136C34.6203 35.4879 34.1984 35.3744 33.5961 35.3744H31.5865V38.1194H33.381ZM33.4518 33.6757C34.0166 33.6757 34.4052 33.5718 34.6148 33.3639C34.8391 33.1221 34.9534 32.8004 34.9312 32.4735C34.9312 32.0632 34.7924 31.7637 34.5218 31.5886C34.2512 31.4135 33.7876 31.3274 33.1339 31.3274H31.5865V33.6757H33.4518ZM29.5186 29.6711H33.2075C33.8395 29.6568 34.4704 29.7286 35.0825 29.8844C35.51 29.9932 35.9089 30.1909 36.2524 30.4643C36.5277 30.6925 36.7337 30.9912 36.8478 31.3274C36.9604 31.6748 37.0161 32.0377 37.013 32.4024C37.0151 32.7894 36.9268 33.1718 36.7548 33.5198C36.5818 33.8699 36.258 34.1672 35.7833 34.4115C36.0543 34.548 36.3074 34.7166 36.5369 34.9135C36.7208 35.0733 36.8761 35.2624 36.9963 35.4729C37.1043 35.6628 37.1816 35.8681 37.2253 36.0815C37.269 36.2861 37.2909 36.4947 37.2905 36.7038C37.2927 37.1122 37.2276 37.5182 37.0976 37.906C36.9701 38.2806 36.7474 38.6167 36.4509 38.8826C36.1075 39.1797 35.704 39.4016 35.2671 39.5336C34.6823 39.7071 34.0734 39.7883 33.4629 39.7743H29.5186V29.6711ZM82.6953 15.0694H84.7063V25.1658H82.6953V15.0694ZM79.0217 21.8738L78.1307 21.9162C77.7877 21.9251 77.4464 21.9677 77.112 22.0434C76.8998 22.0904 76.6977 22.1742 76.5152 22.2909C76.3886 22.3758 76.2917 22.4971 76.2377 22.6383C76.1879 22.7789 76.1635 22.9271 76.1655 23.076C76.1549 23.2984 76.2504 23.513 76.4236 23.6559C76.6294 23.8089 76.8838 23.8846 77.1412 23.8692C77.5904 23.8888 78.0339 23.7646 78.4055 23.515C78.5883 23.3809 78.7397 23.2098 78.8496 23.0131C78.9723 22.7798 79.032 22.5193 79.0231 22.2567L79.0217 21.8738ZM79.0633 24.2372C78.7786 24.5581 78.4419 24.8303 78.0668 25.0427C77.6259 25.2673 77.1333 25.3747 76.6374 25.3546C76.3146 25.3562 75.9933 25.3133 75.6825 25.2274C75.395 25.1492 75.1265 25.0148 74.8928 24.8321C74.6634 24.647 74.4794 24.4132 74.3544 24.1483C74.2137 23.8341 74.1455 23.4931 74.1545 23.1498C74.1342 22.7097 74.2546 22.2744 74.4987 21.9052C74.7302 21.5828 75.0417 21.3242 75.4036 21.1543C75.8014 20.9683 76.2245 20.8398 76.6596 20.7728C77.1272 20.6988 77.5991 20.6531 78.0724 20.636L79.0342 20.5936V20.2243C79.0342 19.773 78.9079 19.4611 78.6553 19.2915C78.3894 19.1182 78.0761 19.029 77.7574 19.0358C76.9635 19.0358 76.5088 19.333 76.3931 19.9275L74.5556 19.7579C74.6888 18.9856 75.0335 18.4267 75.5895 18.0811C76.1456 17.7355 76.8923 17.5637 77.8295 17.5655C78.3257 17.5548 78.8203 17.6241 79.2937 17.7706C79.6611 17.8856 79.9945 18.087 80.2652 18.3574C80.5139 18.621 80.696 18.9387 80.7967 19.2847C80.9115 19.6823 80.9671 20.0941 80.9619 20.5074V25.1658H79.0633V24.2372ZM66.0994 17.7802H68.0522V18.7992C68.3133 18.397 68.6777 18.07 69.1083 17.8513C69.5022 17.6559 69.9372 17.5543 70.3782 17.5545C71.2294 17.5545 71.8609 17.7738 72.2726 18.2124C72.6843 18.651 72.8902 19.3421 72.8902 20.2859V25.1658H70.8806V20.558C70.8806 20.0397 70.7793 19.6854 70.5794 19.4967C70.3597 19.301 70.0702 19.1992 69.7745 19.2136C69.547 19.2084 69.3208 19.2469 69.1083 19.3271C68.9159 19.4062 68.7382 19.5162 68.5823 19.6526C68.4448 19.7917 68.3314 19.952 68.2464 20.1272C68.1536 20.314 68.1061 20.5196 68.1077 20.7276V25.1658H66.0994V17.7802ZM60.7438 23.8091C61.3183 23.8091 61.7467 23.6062 62.0289 23.2004C62.3111 22.7947 62.4527 22.2157 62.4536 21.4634C62.4536 20.7094 62.3125 20.134 62.0303 19.7374C61.7481 19.3408 61.3192 19.1443 60.7438 19.1479C60.1692 19.1479 59.7408 19.3458 59.4586 19.7415C59.1764 20.1372 59.0353 20.7126 59.0353 21.4676C59.0353 22.2316 59.1741 22.8143 59.4517 23.2155C59.7292 23.6162 60.1595 23.8173 60.7424 23.8173L60.7438 23.8091ZM60.7424 25.4011C59.5396 25.4011 58.6065 25.0614 57.9431 24.3821C57.2797 23.7028 56.9494 22.7313 56.9522 21.4676C56.9434 20.9094 57.0336 20.3539 57.2186 19.8263C57.379 19.3667 57.6385 18.9468 57.9792 18.5954C58.3174 18.2556 58.7265 17.9924 59.1783 17.824C59.6778 17.6377 60.2083 17.5449 60.7424 17.5504C61.2819 17.5443 61.818 17.637 62.3231 17.824C63.2507 18.1647 63.9698 18.904 64.2758 19.8318C64.4559 20.3604 64.5432 20.9155 64.534 21.473C64.5418 22.0312 64.4517 22.5864 64.2675 23.1143C64.106 23.5731 63.8472 23.9927 63.5083 24.3452C63.1719 24.6887 62.7623 24.9545 62.3092 25.1234C61.8092 25.3097 61.2783 25.4024 60.7438 25.397L60.7424 25.4011ZM53.5075 17.7802H55.5144V25.1658H53.5075V17.7802ZM53.4798 15.0653H55.5477V16.8433H53.4798V15.0653ZM48.3836 19.323H47.2053V17.7802H48.3836V15.9598H50.3932V17.7802H52.1169V19.323H50.3932V22.7327C50.3932 23.1197 50.4737 23.381 50.6375 23.5191C50.8157 23.6607 51.0403 23.7332 51.2689 23.7229C51.4077 23.7229 51.5396 23.7229 51.6783 23.7024C51.8168 23.688 51.9538 23.662 52.0878 23.6244L52.375 25.081C52.1102 25.1635 51.8385 25.223 51.5632 25.2588C51.3133 25.2908 51.0616 25.3073 50.8096 25.3081C49.987 25.3081 49.3768 25.1148 48.979 24.7282C48.5811 24.3416 48.3827 23.6905 48.3836 22.7751V19.323ZM44.2339 21.8697L43.3429 21.9121C43 21.9212 42.6587 21.9638 42.3243 22.0393C42.1125 22.0863 41.9108 22.1701 41.7289 22.2868C41.6028 22.3723 41.5061 22.4934 41.4513 22.6342C41.4027 22.7751 41.3788 22.9231 41.3805 23.0719C41.3661 23.2971 41.4608 23.5158 41.6359 23.6614C41.8417 23.8144 42.0961 23.8901 42.3534 23.8747C42.8021 23.894 43.2452 23.7697 43.6163 23.5205C43.7995 23.3865 43.9515 23.2153 44.0618 23.0185C44.1841 22.7851 44.2433 22.5247 44.2339 22.2622V21.8697ZM44.277 24.2331C43.992 24.5543 43.6548 24.8266 43.2791 25.0386C42.8387 25.2632 42.3465 25.3706 41.851 25.3505C41.5283 25.352 41.2069 25.3092 40.8962 25.2233C40.6087 25.1451 40.3401 25.0107 40.1065 24.828C39.8775 24.6425 39.6935 24.4088 39.568 24.1442C39.4269 23.8301 39.3582 23.4891 39.3668 23.1457C39.3476 22.7055 39.4684 22.2704 39.7123 21.9011C39.9433 21.5787 40.2544 21.3202 40.6158 21.1502C41.0137 20.9643 41.4367 20.8358 41.8718 20.7687C42.3404 20.6947 42.8132 20.649 43.2874 20.6319L44.2478 20.5895V20.2202C44.2478 19.7689 44.1215 19.457 43.8689 19.2874C43.6031 19.114 43.2898 19.0247 42.971 19.0317C42.1753 19.0317 41.7206 19.3289 41.6067 19.9234L39.7692 19.7538C39.9025 18.9815 40.2471 18.4226 40.8032 18.077C41.3592 17.7314 42.1059 17.5596 43.0432 17.5614C43.5393 17.5508 44.0339 17.6201 44.5073 17.7665C44.875 17.881 45.2085 18.0824 45.4788 18.3533C45.7276 18.618 45.9089 18.9373 46.0076 19.2847C46.1223 19.6823 46.178 20.0941 46.1728 20.5074V25.1658H44.2728L44.277 24.2331ZM29.5186 15.0694H31.4422L35.6682 21.6891V15.0694H37.7499V25.1658H35.8361L31.6004 18.6008V25.1658H29.5186V15.0694ZM70.3518 0H72.3628V3.65041C72.6297 3.27943 72.9847 2.97845 73.3967 2.77371C73.7799 2.58708 74.2017 2.49019 74.6292 2.4906C75.4813 2.4906 76.1132 2.70989 76.525 3.14846C76.9367 3.58704 77.1425 4.27774 77.1425 5.22054V10.1019H75.1329V5.48861C75.1329 4.97071 75.0321 4.61738 74.8304 4.42864C74.6111 4.2332 74.3221 4.13139 74.0268 4.14552C73.799 4.14047 73.5723 4.17902 73.3593 4.25904C73.1677 4.33806 72.9908 4.44808 72.8361 4.58456C72.6967 4.72293 72.5826 4.88394 72.4988 5.06052C72.4058 5.2473 72.3583 5.45289 72.36 5.66094V10.1019H70.3518V0ZM64.0635 7.75354C64.1315 8.1871 64.3077 8.47022 64.595 8.60289C64.9209 8.7424 65.2738 8.81008 65.629 8.8012C66.1078 8.8012 66.4492 8.74102 66.6546 8.6234C66.8609 8.50683 66.9812 8.28408 66.9641 8.05033C66.9667 7.86674 66.8971 7.68928 66.7698 7.55522C66.6407 7.41845 66.3937 7.3145 66.0301 7.25843L64.9961 7.08883C64.0875 6.94659 63.4107 6.7036 62.9657 6.35984C62.5207 6.01609 62.2981 5.495 62.2981 4.79655C62.2923 4.46261 62.374 4.13283 62.5355 3.83916C62.6974 3.55018 62.9261 3.3028 63.203 3.11701C63.5155 2.90686 63.8625 2.7514 64.2286 2.65746C64.6573 2.5452 65.0994 2.49045 65.5429 2.4947C66.0455 2.48266 66.5473 2.54068 67.0335 2.66703C67.39 2.763 67.7245 2.9255 68.0188 3.14573C68.2643 3.33289 68.4612 3.57476 68.5934 3.85147C68.7229 4.13154 68.8162 4.42654 68.871 4.72954L67.0751 4.95658C67.0174 4.66241 66.858 4.39705 66.6241 4.2057C66.4103 4.04158 66.062 3.96635 65.5859 3.96635C65.3617 3.96166 65.1377 3.98277 64.9184 4.02927C64.7713 4.05995 64.6305 4.11498 64.502 4.19203C64.4104 4.2471 64.3356 4.32554 64.2855 4.41907C64.246 4.493 64.2241 4.57487 64.2217 4.65842C64.2041 4.85638 64.2873 5.05004 64.4438 5.17541C64.5923 5.28346 64.8823 5.37646 65.3125 5.44895L66.2604 5.6076C66.7057 5.67297 67.1432 5.78202 67.5664 5.93312C67.8736 6.04076 68.1565 6.20664 68.3991 6.42139C68.6011 6.60803 68.7495 6.84394 68.8293 7.10525C68.9158 7.40448 68.9569 7.71464 68.9515 8.02571C68.9709 8.67887 68.6704 9.30136 68.1437 9.69842C67.608 10.1188 66.78 10.3289 65.6595 10.3289C65.2286 10.3302 64.7987 10.2899 64.3757 10.2086C63.9895 10.1379 63.6195 9.99887 63.2835 9.79826C62.9615 9.59764 62.6912 9.32609 62.4938 9.00499C62.2739 8.62521 62.1533 8.19751 62.1427 7.76038L64.0635 7.75354ZM58.68 2.71627H60.691V10.1019H58.68V2.71627ZM58.6509 0H60.7188V1.77802H58.6509V0ZM54.7899 0H56.7995V10.1019H54.7899V0ZM49.8797 3.79129C49.5628 3.78362 49.2517 3.8756 48.9915 4.05389C48.7431 4.22895 48.6195 4.50523 48.6195 4.87451C48.6145 5.04384 48.6511 5.21185 48.7264 5.36415C48.7921 5.49426 48.887 5.60792 49.004 5.69651C49.1247 5.78474 49.2612 5.8497 49.4064 5.88798C49.5606 5.92974 49.7198 5.9509 49.8797 5.9509C50.1913 5.95737 50.498 5.8742 50.7624 5.71155C51.015 5.55016 51.1426 5.27252 51.1426 4.87451C51.1426 4.49976 51.0191 4.22348 50.7693 4.05389C50.5087 3.87523 50.197 3.78323 49.8797 3.79129ZM50.6111 9.62046C50.5542 9.61089 50.4432 9.59721 50.2822 9.57806L49.727 9.51515C49.5161 9.49053 49.2968 9.46591 49.0664 9.43719C48.836 9.40847 48.6265 9.38111 48.4349 9.35239C48.2814 9.56237 48.201 9.81575 48.206 10.0745C48.206 10.4037 48.378 10.6317 48.7222 10.7584C49.1858 10.9031 49.6713 10.9679 50.1573 10.9499C50.7041 10.9499 51.0917 10.8883 51.3203 10.7652C51.539 10.6613 51.6742 10.4394 51.6645 10.2004C51.6723 10.041 51.5857 9.89167 51.4424 9.81741C51.1813 9.70349 50.9017 9.63634 50.6166 9.61909L50.6111 9.62046ZM46.6058 7.78226C46.6026 7.50039 46.6852 7.22406 46.8431 6.98899C46.9949 6.75979 47.1759 6.55065 47.3816 6.36668C47.1618 6.16465 46.9968 5.91172 46.9014 5.63086C46.815 5.3894 46.7682 5.13594 46.7626 4.87998C46.7515 4.48535 46.8473 4.09493 47.0402 3.74889C47.2145 3.44384 47.4606 3.18447 47.7577 2.99255C48.0619 2.79563 48.3993 2.65389 48.7542 2.57403C49.1145 2.49093 49.4832 2.44826 49.8533 2.44683C50.177 2.4385 50.5003 2.47207 50.8151 2.54667C51.0156 2.59938 51.2123 2.66564 51.4036 2.74499C51.4016 2.57449 51.4441 2.40635 51.5271 2.25672C51.6047 2.11367 51.7121 1.98832 51.8421 1.88881C51.9737 1.78924 52.1215 1.71247 52.2793 1.66177C52.5249 1.58261 52.7864 1.56337 53.0412 1.60569C53.126 1.62001 53.2083 1.64627 53.2855 1.68365V3.09786H53.2411C53.2199 3.10028 53.1984 3.10028 53.1772 3.09786C53.1562 3.09384 53.1348 3.09155 53.1134 3.09102C53.0407 3.09131 52.9681 3.09864 52.8969 3.1129C52.8171 3.12757 52.7414 3.15881 52.6748 3.20454C52.5979 3.25663 52.5358 3.32726 52.4944 3.4097C52.4423 3.52288 52.418 3.6466 52.4236 3.77077C52.5652 3.96067 52.6719 4.17363 52.7387 4.39992C52.8077 4.61039 52.8446 4.82979 52.8483 5.05095C52.8561 5.39256 52.7703 5.72992 52.5999 6.02749C52.4321 6.31044 52.2044 6.55442 51.9323 6.7428C51.6426 6.94127 51.3192 7.08717 50.9775 7.17363C50.6095 7.26751 50.2306 7.31349 49.8506 7.3104C49.5996 7.30995 49.3494 7.28382 49.1039 7.23244C48.8703 7.18876 48.6436 7.1152 48.4294 7.01361C48.3832 7.05051 48.3462 7.09728 48.3211 7.15038C48.2888 7.21167 48.2717 7.27963 48.2712 7.3487C48.2598 7.51805 48.3575 7.67622 48.5154 7.74397C48.6976 7.82512 48.8914 7.87773 49.09 7.89988L50.8554 8.11188C51.3133 8.16038 51.7655 8.25198 52.2057 8.38542C52.5109 8.47351 52.7977 8.6148 53.0523 8.80257C53.2538 8.95438 53.4061 9.1606 53.4909 9.39616C53.5748 9.64949 53.6156 9.91476 53.6116 10.1812C53.6298 10.573 53.5113 10.9592 53.2758 11.2754C53.0452 11.5621 52.7502 11.792 52.4139 11.9469C52.0435 12.1174 51.649 12.2317 51.244 12.2861C50.8304 12.3466 50.413 12.3776 49.9949 12.3791C49.4761 12.383 48.9578 12.3473 48.4447 12.2724C48.037 12.2173 47.6415 12.0953 47.2747 11.9114C46.9713 11.7577 46.7161 11.5256 46.5364 11.2398C46.3545 10.9285 46.2646 10.5731 46.2768 10.214C46.2676 9.92478 46.3453 9.63927 46.5003 9.39342C46.6578 9.15549 46.8479 8.9401 47.0651 8.75333C46.9144 8.63704 46.7941 8.487 46.714 8.31567C46.64 8.14598 46.6031 7.96283 46.6058 7.77816V7.78226ZM38.1066 2.71764H40.0593V3.73658C40.3203 3.33484 40.6841 3.00794 41.1141 2.78876C41.5086 2.59375 41.9439 2.49213 42.3853 2.49196C43.2375 2.49196 43.8689 2.71125 44.2797 3.14983C44.6905 3.58841 44.8964 4.2791 44.8973 5.22191V10.1019H42.885V5.48861C42.885 4.97025 42.7836 4.61738 42.5838 4.42864C42.3645 4.2332 42.0755 4.13139 41.7802 4.14552C41.5519 4.14036 41.3247 4.17892 41.1113 4.25904C40.9197 4.33806 40.7429 4.44808 40.5881 4.58456C40.4477 4.72272 40.3327 4.88374 40.248 5.06052C40.155 5.2473 40.1075 5.45289 40.1093 5.66094V10.1019H38.1066V2.71764ZM29.4492 0H36.4412V1.7958H31.5837V4.00465H36.1497V5.8155H31.5837V8.30473H36.7382L36.5286 10.1019H29.4506L29.4492 0Z" fill="#7B7B7B"/>
<path d="M63.8886 33.9315H62.7103V32.3887H63.8886V30.5628H65.8982V32.3887H67.6219V33.9315H65.8982V37.3384C65.8982 37.7255 65.9801 37.9867 66.1425 38.1249C66.3211 38.2657 66.5454 38.338 66.7739 38.3287C66.9107 38.3294 67.0475 38.3221 67.1834 38.3068C67.322 38.2941 67.4591 38.2685 67.5928 38.2302L67.8801 39.6882C67.6151 39.7701 67.3435 39.8291 67.0682 39.8646C66.8183 39.8965 66.5666 39.913 66.3146 39.9138C65.4902 39.9138 64.8823 39.721 64.484 39.3339C64.0857 38.9469 63.8886 38.2958 63.8886 37.3808V33.9315ZM59.8639 35.2609C59.8639 34.7507 59.7376 34.3555 59.4836 34.0724C59.2296 33.7892 58.8452 33.6456 58.3039 33.6456C58.0609 33.6424 57.8199 33.689 57.5961 33.7824C57.4036 33.8612 57.23 33.9791 57.0868 34.1284C56.9469 34.2766 56.8371 34.4497 56.7634 34.6386C56.684 34.8394 56.6403 35.0523 56.6343 35.2677L59.8639 35.2609ZM61.7166 37.467C61.5816 38.2967 61.2438 38.9263 60.7035 39.3558C60.1632 39.7853 59.3767 40 58.3442 40C57.0988 40 56.1629 39.6604 55.5366 38.9811C54.9102 38.3018 54.597 37.3398 54.597 36.0952C54.5891 35.5295 54.6831 34.9668 54.8746 34.4334C55.0406 33.9722 55.3025 33.5501 55.6434 33.1943C55.9756 32.854 56.3804 32.591 56.8286 32.4243C57.3164 32.2437 57.8342 32.1546 58.3553 32.1617C59.5026 32.1617 60.3663 32.4872 60.9464 33.1382C61.5265 33.7892 61.8161 34.6664 61.8152 35.7697V36.5629H56.6094C56.6288 37.1565 56.7819 37.6206 57.0687 37.9553C57.3556 38.2899 57.7863 38.4577 58.3608 38.4586C59.1565 38.4586 59.6256 38.1281 59.7681 37.467H61.7166ZM50.9636 29.6711H52.9732V39.7743H50.9678L50.9636 29.6711ZM46.9999 29.6711H49.0109V39.7743H47.0041L46.9999 29.6711ZM43.2 36.4768L42.3104 36.5205C41.9669 36.5289 41.6251 36.5715 41.2903 36.6478C41.0785 36.6939 40.8768 36.7773 40.6949 36.8939C40.5691 36.9797 40.4724 37.1007 40.4174 37.2413C40.3686 37.3827 40.3447 37.5311 40.3466 37.6804C40.3362 37.9028 40.4316 38.1172 40.6047 38.2603C40.811 38.4122 41.0652 38.4873 41.3222 38.4723C41.7713 38.4923 42.2148 38.3685 42.5866 38.1194C42.7673 37.9829 42.9163 37.8099 43.0237 37.612C43.1464 37.3783 43.2057 37.1172 43.1958 36.8543L43.2 36.4768ZM43.2444 38.8402C42.9585 39.1609 42.6215 39.4334 42.2465 39.6471C41.8052 39.8705 41.3128 39.9775 40.8171 39.9576C40.4943 39.9592 40.173 39.9164 39.8622 39.8304C39.5742 39.7528 39.3055 39.6178 39.0725 39.4338C38.8431 39.2487 38.659 39.0149 38.5341 38.7499C38.393 38.4358 38.3242 38.0949 38.3328 37.7515C38.313 37.3112 38.4338 36.8759 38.6784 36.5069C38.909 36.1845 39.2202 35.9263 39.5819 35.7574C39.9796 35.571 40.4027 35.4425 40.8379 35.3758C41.3064 35.3011 41.7792 35.2555 42.2535 35.239L43.2153 35.1966V34.8219C43.2153 34.3691 43.0876 34.0573 42.835 33.8877C42.5689 33.7149 42.2557 33.6262 41.9371 33.6333C41.1432 33.6333 40.6885 33.9306 40.5728 34.5251L38.7353 34.3555C38.8741 33.5827 39.2141 33.022 39.7692 32.6787C40.3244 32.3354 41.071 32.1617 42.0092 32.1617C42.5054 32.1502 43.0001 32.2195 43.4734 32.3668C43.841 32.4812 44.1746 32.6827 44.4449 32.9536C44.6938 33.217 44.876 33.5348 44.9764 33.8809C45.0917 34.2811 45.1474 34.6958 45.1416 35.1118V39.7812H43.2444V38.8402ZM33.381 38.1194C33.678 38.1258 33.9745 38.0922 34.2623 38.0196C34.4717 37.9669 34.666 37.8672 34.8299 37.7282C34.9696 37.6091 35.0741 37.4551 35.1324 37.2824C35.1925 37.0953 35.2215 36.9 35.2185 36.7038C35.2185 36.2703 35.0978 35.9393 34.859 35.7136C34.6203 35.4879 34.1984 35.3744 33.5961 35.3744H31.5865V38.1194H33.381ZM33.4518 33.6757C34.0166 33.6757 34.4052 33.5718 34.6148 33.3639C34.8391 33.1221 34.9534 32.8004 34.9312 32.4735C34.9312 32.0632 34.7924 31.7637 34.5218 31.5886C34.2512 31.4135 33.7876 31.3274 33.1339 31.3274H31.5865V33.6757H33.4518ZM29.5186 29.6711H33.2075C33.8395 29.6568 34.4704 29.7286 35.0825 29.8844C35.51 29.9932 35.9089 30.1909 36.2524 30.4643C36.5277 30.6925 36.7337 30.9912 36.8478 31.3274C36.9604 31.6748 37.0161 32.0377 37.013 32.4024C37.0151 32.7894 36.9268 33.1718 36.7548 33.5198C36.5818 33.8699 36.258 34.1672 35.7833 34.4115C36.0543 34.548 36.3074 34.7166 36.5369 34.9135C36.7208 35.0733 36.8761 35.2624 36.9963 35.4729C37.1043 35.6628 37.1816 35.8681 37.2253 36.0815C37.269 36.2861 37.2909 36.4947 37.2905 36.7038C37.2927 37.1122 37.2276 37.5182 37.0976 37.906C36.9701 38.2806 36.7474 38.6167 36.4509 38.8826C36.1075 39.1797 35.704 39.4016 35.2671 39.5336C34.6823 39.7071 34.0734 39.7883 33.4629 39.7743H29.5186V29.6711ZM82.6953 15.0694H84.7063V25.1658H82.6953V15.0694ZM79.0217 21.8738L78.1307 21.9162C77.7877 21.9251 77.4464 21.9677 77.112 22.0434C76.8998 22.0904 76.6977 22.1742 76.5152 22.2909C76.3886 22.3758 76.2917 22.4971 76.2377 22.6383C76.1879 22.7789 76.1635 22.9271 76.1655 23.076C76.1549 23.2984 76.2504 23.513 76.4236 23.6559C76.6294 23.8089 76.8838 23.8846 77.1412 23.8692C77.5904 23.8888 78.0339 23.7646 78.4055 23.515C78.5883 23.3809 78.7397 23.2098 78.8496 23.0131C78.9723 22.7798 79.032 22.5193 79.0231 22.2567L79.0217 21.8738ZM79.0633 24.2372C78.7786 24.5581 78.4419 24.8303 78.0668 25.0427C77.6259 25.2673 77.1333 25.3747 76.6374 25.3546C76.3146 25.3562 75.9933 25.3133 75.6825 25.2274C75.395 25.1492 75.1265 25.0148 74.8928 24.8321C74.6634 24.647 74.4794 24.4132 74.3544 24.1483C74.2137 23.8341 74.1455 23.4931 74.1545 23.1498C74.1342 22.7097 74.2546 22.2744 74.4987 21.9052C74.7302 21.5828 75.0417 21.3242 75.4036 21.1543C75.8014 20.9683 76.2245 20.8398 76.6596 20.7728C77.1272 20.6988 77.5991 20.6531 78.0724 20.636L79.0342 20.5936V20.2243C79.0342 19.773 78.9079 19.4611 78.6553 19.2915C78.3894 19.1182 78.0761 19.029 77.7574 19.0358C76.9635 19.0358 76.5088 19.333 76.3931 19.9275L74.5556 19.7579C74.6888 18.9856 75.0335 18.4267 75.5895 18.0811C76.1456 17.7355 76.8923 17.5637 77.8295 17.5655C78.3257 17.5548 78.8203 17.6241 79.2937 17.7706C79.6611 17.8856 79.9945 18.087 80.2652 18.3574C80.5139 18.621 80.696 18.9387 80.7967 19.2847C80.9115 19.6823 80.9671 20.0941 80.9619 20.5074V25.1658H79.0633V24.2372ZM66.0994 17.7802H68.0522V18.7992C68.3133 18.397 68.6777 18.07 69.1083 17.8513C69.5022 17.6559 69.9372 17.5543 70.3782 17.5545C71.2294 17.5545 71.8609 17.7738 72.2726 18.2124C72.6843 18.651 72.8902 19.3421 72.8902 20.2859V25.1658H70.8806V20.558C70.8806 20.0397 70.7793 19.6854 70.5794 19.4967C70.3597 19.301 70.0702 19.1992 69.7745 19.2136C69.547 19.2084 69.3208 19.2469 69.1083 19.3271C68.9159 19.4062 68.7382 19.5162 68.5823 19.6526C68.4448 19.7917 68.3314 19.952 68.2464 20.1272C68.1536 20.314 68.1061 20.5196 68.1077 20.7276V25.1658H66.0994V17.7802ZM60.7438 23.8091C61.3183 23.8091 61.7467 23.6062 62.0289 23.2004C62.3111 22.7947 62.4527 22.2157 62.4536 21.4634C62.4536 20.7094 62.3125 20.134 62.0303 19.7374C61.7481 19.3408 61.3192 19.1443 60.7438 19.1479C60.1692 19.1479 59.7408 19.3458 59.4586 19.7415C59.1764 20.1372 59.0353 20.7126 59.0353 21.4676C59.0353 22.2316 59.1741 22.8143 59.4517 23.2155C59.7292 23.6162 60.1595 23.8173 60.7424 23.8173L60.7438 23.8091ZM60.7424 25.4011C59.5396 25.4011 58.6065 25.0614 57.9431 24.3821C57.2797 23.7028 56.9494 22.7313 56.9522 21.4676C56.9434 20.9094 57.0336 20.3539 57.2186 19.8263C57.379 19.3667 57.6385 18.9468 57.9792 18.5954C58.3174 18.2556 58.7265 17.9924 59.1783 17.824C59.6778 17.6377 60.2083 17.5449 60.7424 17.5504C61.2819 17.5443 61.818 17.637 62.3231 17.824C63.2507 18.1647 63.9698 18.904 64.2758 19.8318C64.4559 20.3604 64.5432 20.9155 64.534 21.473C64.5418 22.0312 64.4517 22.5864 64.2675 23.1143C64.106 23.5731 63.8472 23.9927 63.5083 24.3452C63.1719 24.6887 62.7623 24.9545 62.3092 25.1234C61.8092 25.3097 61.2783 25.4024 60.7438 25.397L60.7424 25.4011ZM53.5075 17.7802H55.5144V25.1658H53.5075V17.7802ZM53.4798 15.0653H55.5477V16.8433H53.4798V15.0653ZM48.3836 19.323H47.2053V17.7802H48.3836V15.9598H50.3932V17.7802H52.1169V19.323H50.3932V22.7327C50.3932 23.1197 50.4737 23.381 50.6375 23.5191C50.8157 23.6607 51.0403 23.7332 51.2689 23.7229C51.4077 23.7229 51.5396 23.7229 51.6783 23.7024C51.8168 23.688 51.9538 23.662 52.0878 23.6244L52.375 25.081C52.1102 25.1635 51.8385 25.223 51.5632 25.2588C51.3133 25.2908 51.0616 25.3073 50.8096 25.3081C49.987 25.3081 49.3768 25.1148 48.979 24.7282C48.5811 24.3416 48.3827 23.6905 48.3836 22.7751V19.323ZM44.2339 21.8697L43.3429 21.9121C43 21.9212 42.6587 21.9638 42.3243 22.0393C42.1125 22.0863 41.9108 22.1701 41.7289 22.2868C41.6028 22.3723 41.5061 22.4934 41.4513 22.6342C41.4027 22.7751 41.3788 22.9231 41.3805 23.0719C41.3661 23.2971 41.4608 23.5158 41.6359 23.6614C41.8417 23.8144 42.0961 23.8901 42.3534 23.8747C42.8021 23.894 43.2452 23.7697 43.6163 23.5205C43.7995 23.3865 43.9515 23.2153 44.0618 23.0185C44.1841 22.7851 44.2433 22.5247 44.2339 22.2622V21.8697ZM44.277 24.2331C43.992 24.5543 43.6548 24.8266 43.2791 25.0386C42.8387 25.2632 42.3465 25.3706 41.851 25.3505C41.5283 25.352 41.2069 25.3092 40.8962 25.2233C40.6087 25.1451 40.3401 25.0107 40.1065 24.828C39.8775 24.6425 39.6935 24.4088 39.568 24.1442C39.4269 23.8301 39.3582 23.4891 39.3668 23.1457C39.3476 22.7055 39.4684 22.2704 39.7123 21.9011C39.9433 21.5787 40.2544 21.3202 40.6158 21.1502C41.0137 20.9643 41.4367 20.8358 41.8718 20.7687C42.3404 20.6947 42.8132 20.649 43.2874 20.6319L44.2478 20.5895V20.2202C44.2478 19.7689 44.1215 19.457 43.8689 19.2874C43.6031 19.114 43.2898 19.0247 42.971 19.0317C42.1753 19.0317 41.7206 19.3289 41.6067 19.9234L39.7692 19.7538C39.9025 18.9815 40.2471 18.4226 40.8032 18.077C41.3592 17.7314 42.1059 17.5596 43.0432 17.5614C43.5393 17.5508 44.0339 17.6201 44.5073 17.7665C44.875 17.881 45.2085 18.0824 45.4788 18.3533C45.7276 18.618 45.9089 18.9373 46.0076 19.2847C46.1223 19.6823 46.178 20.0941 46.1728 20.5074V25.1658H44.2728L44.277 24.2331ZM29.5186 15.0694H31.4422L35.6682 21.6891V15.0694H37.7499V25.1658H35.8361L31.6004 18.6008V25.1658H29.5186V15.0694ZM70.3518 0H72.3628V3.65041C72.6297 3.27943 72.9847 2.97845 73.3967 2.77371C73.7799 2.58708 74.2017 2.49019 74.6292 2.4906C75.4813 2.4906 76.1132 2.70989 76.525 3.14846C76.9367 3.58704 77.1425 4.27774 77.1425 5.22054V10.1019H75.1329V5.48861C75.1329 4.97071 75.0321 4.61738 74.8304 4.42864C74.6111 4.2332 74.3221 4.13139 74.0268 4.14552C73.799 4.14047 73.5723 4.17902 73.3593 4.25904C73.1677 4.33806 72.9908 4.44808 72.8361 4.58456C72.6967 4.72293 72.5826 4.88394 72.4988 5.06052C72.4058 5.2473 72.3583 5.45289 72.36 5.66094V10.1019H70.3518V0ZM64.0635 7.75354C64.1315 8.1871 64.3077 8.47022 64.595 8.60289C64.9209 8.7424 65.2738 8.81008 65.629 8.8012C66.1078 8.8012 66.4492 8.74102 66.6546 8.6234C66.8609 8.50683 66.9812 8.28408 66.9641 8.05033C66.9667 7.86674 66.8971 7.68928 66.7698 7.55522C66.6407 7.41845 66.3937 7.3145 66.0301 7.25843L64.9961 7.08883C64.0875 6.94659 63.4107 6.7036 62.9657 6.35984C62.5207 6.01609 62.2981 5.495 62.2981 4.79655C62.2923 4.46261 62.374 4.13283 62.5355 3.83916C62.6974 3.55018 62.9261 3.3028 63.203 3.11701C63.5155 2.90686 63.8625 2.7514 64.2286 2.65746C64.6573 2.5452 65.0994 2.49045 65.5429 2.4947C66.0455 2.48266 66.5473 2.54068 67.0335 2.66703C67.39 2.763 67.7245 2.9255 68.0188 3.14573C68.2643 3.33289 68.4612 3.57476 68.5934 3.85147C68.7229 4.13154 68.8162 4.42654 68.871 4.72954L67.0751 4.95658C67.0174 4.66241 66.858 4.39705 66.6241 4.2057C66.4103 4.04158 66.062 3.96635 65.5859 3.96635C65.3617 3.96166 65.1377 3.98277 64.9184 4.02927C64.7713 4.05995 64.6305 4.11498 64.502 4.19203C64.4104 4.2471 64.3356 4.32554 64.2855 4.41907C64.246 4.493 64.2241 4.57487 64.2217 4.65842C64.2041 4.85638 64.2873 5.05004 64.4438 5.17541C64.5923 5.28346 64.8823 5.37646 65.3125 5.44895L66.2604 5.6076C66.7057 5.67297 67.1432 5.78202 67.5664 5.93312C67.8736 6.04076 68.1565 6.20664 68.3991 6.42139C68.6011 6.60803 68.7495 6.84394 68.8293 7.10525C68.9158 7.40448 68.9569 7.71464 68.9515 8.02571C68.9709 8.67887 68.6704 9.30136 68.1437 9.69842C67.608 10.1188 66.78 10.3289 65.6595 10.3289C65.2286 10.3302 64.7987 10.2899 64.3757 10.2086C63.9895 10.1379 63.6195 9.99887 63.2835 9.79826C62.9615 9.59764 62.6912 9.32609 62.4938 9.00499C62.2739 8.62521 62.1533 8.19751 62.1427 7.76038L64.0635 7.75354ZM58.68 2.71627H60.691V10.1019H58.68V2.71627ZM58.6509 0H60.7188V1.77802H58.6509V0ZM54.7899 0H56.7995V10.1019H54.7899V0ZM49.8797 3.79129C49.5628 3.78362 49.2517 3.8756 48.9915 4.05389C48.7431 4.22895 48.6195 4.50523 48.6195 4.87451C48.6145 5.04384 48.6511 5.21185 48.7264 5.36415C48.7921 5.49426 48.887 5.60792 49.004 5.69651C49.1247 5.78474 49.2612 5.8497 49.4064 5.88798C49.5606 5.92974 49.7198 5.9509 49.8797 5.9509C50.1913 5.95737 50.498 5.8742 50.7624 5.71155C51.015 5.55016 51.1426 5.27252 51.1426 4.87451C51.1426 4.49976 51.0191 4.22348 50.7693 4.05389C50.5087 3.87523 50.197 3.78323 49.8797 3.79129ZM50.6111 9.62046C50.5542 9.61089 50.4432 9.59721 50.2822 9.57806L49.727 9.51515C49.5161 9.49053 49.2968 9.46591 49.0664 9.43719C48.836 9.40847 48.6265 9.38111 48.4349 9.35239C48.2814 9.56237 48.201 9.81575 48.206 10.0745C48.206 10.4037 48.378 10.6317 48.7222 10.7584C49.1858 10.9031 49.6713 10.9679 50.1573 10.9499C50.7041 10.9499 51.0917 10.8883 51.3203 10.7652C51.539 10.6613 51.6742 10.4394 51.6645 10.2004C51.6723 10.041 51.5857 9.89167 51.4424 9.81741C51.1813 9.70349 50.9017 9.63634 50.6166 9.61909L50.6111 9.62046ZM46.6058 7.78226C46.6026 7.50039 46.6852 7.22406 46.8431 6.98899C46.9949 6.75979 47.1759 6.55065 47.3816 6.36668C47.1618 6.16465 46.9968 5.91172 46.9014 5.63086C46.815 5.3894 46.7682 5.13594 46.7626 4.87998C46.7515 4.48535 46.8473 4.09493 47.0402 3.74889C47.2145 3.44384 47.4606 3.18447 47.7577 2.99255C48.0619 2.79563 48.3993 2.65389 48.7542 2.57403C49.1145 2.49093 49.4832 2.44826 49.8533 2.44683C50.177 2.4385 50.5003 2.47207 50.8151 2.54667C51.0156 2.59938 51.2123 2.66564 51.4036 2.74499C51.4016 2.57449 51.4441 2.40635 51.5271 2.25672C51.6047 2.11367 51.7121 1.98832 51.8421 1.88881C51.9737 1.78924 52.1215 1.71247 52.2793 1.66177C52.5249 1.58261 52.7864 1.56337 53.0412 1.60569C53.126 1.62001 53.2083 1.64627 53.2855 1.68365V3.09786H53.2411C53.2199 3.10028 53.1984 3.10028 53.1772 3.09786C53.1562 3.09384 53.1348 3.09155 53.1134 3.09102C53.0407 3.09131 52.9681 3.09864 52.8969 3.1129C52.8171 3.12757 52.7414 3.15881 52.6748 3.20454C52.5979 3.25663 52.5358 3.32726 52.4944 3.4097C52.4423 3.52288 52.418 3.6466 52.4236 3.77077C52.5652 3.96067 52.6719 4.17363 52.7387 4.39992C52.8077 4.61039 52.8446 4.82979 52.8483 5.05095C52.8561 5.39256 52.7703 5.72992 52.5999 6.02749C52.4321 6.31044 52.2044 6.55442 51.9323 6.7428C51.6426 6.94127 51.3192 7.08717 50.9775 7.17363C50.6095 7.26751 50.2306 7.31349 49.8506 7.3104C49.5996 7.30995 49.3494 7.28382 49.1039 7.23244C48.8703 7.18876 48.6436 7.1152 48.4294 7.01361C48.3832 7.05051 48.3462 7.09728 48.3211 7.15038C48.2888 7.21167 48.2717 7.27963 48.2712 7.3487C48.2598 7.51805 48.3575 7.67622 48.5154 7.74397C48.6976 7.82512 48.8914 7.87773 49.09 7.89988L50.8554 8.11188C51.3133 8.16038 51.7655 8.25198 52.2057 8.38542C52.5109 8.47351 52.7977 8.6148 53.0523 8.80257C53.2538 8.95438 53.4061 9.1606 53.4909 9.39616C53.5748 9.64949 53.6156 9.91476 53.6116 10.1812C53.6298 10.573 53.5113 10.9592 53.2758 11.2754C53.0452 11.5621 52.7502 11.792 52.4139 11.9469C52.0435 12.1174 51.649 12.2317 51.244 12.2861C50.8304 12.3466 50.413 12.3776 49.9949 12.3791C49.4761 12.383 48.9578 12.3473 48.4447 12.2724C48.037 12.2173 47.6415 12.0953 47.2747 11.9114C46.9713 11.7577 46.7161 11.5256 46.5364 11.2398C46.3545 10.9285 46.2646 10.5731 46.2768 10.214C46.2676 9.92478 46.3453 9.63927 46.5003 9.39342C46.6578 9.15549 46.8479 8.9401 47.0651 8.75333C46.9144 8.63704 46.7941 8.487 46.714 8.31567C46.64 8.14598 46.6031 7.96283 46.6058 7.77816V7.78226ZM38.1066 2.71764H40.0593V3.73658C40.3203 3.33484 40.6841 3.00794 41.1141 2.78876C41.5086 2.59375 41.9439 2.49213 42.3853 2.49196C43.2375 2.49196 43.8689 2.71125 44.2797 3.14983C44.6905 3.58841 44.8964 4.2791 44.8973 5.22191V10.1019H42.885V5.48861C42.885 4.97025 42.7836 4.61738 42.5838 4.42864C42.3645 4.2332 42.0755 4.13139 41.7802 4.14552C41.5519 4.14036 41.3247 4.17892 41.1113 4.25904C40.9197 4.33806 40.7429 4.44808 40.5881 4.58456C40.4477 4.72272 40.3327 4.88374 40.248 5.06052C40.155 5.2473 40.1075 5.45289 40.1093 5.66094V10.1019H38.1066V2.71764ZM29.4492 0H36.4412V1.7958H31.5837V4.00465H36.1497V5.8155H31.5837V8.30473H36.7382L36.5286 10.1019H29.4506L29.4492 0Z" fill="#7B7B7B"/>
<path d="M63.8886 33.9315H62.7103V32.3887H63.8886V30.5628H65.8982V32.3887H67.6219V33.9315H65.8982V37.3384C65.8982 37.7255 65.9801 37.9867 66.1425 38.1249C66.3211 38.2657 66.5454 38.338 66.7739 38.3287C66.9107 38.3294 67.0475 38.3221 67.1834 38.3068C67.322 38.2941 67.4591 38.2685 67.5928 38.2302L67.8801 39.6882C67.6151 39.7701 67.3435 39.8291 67.0682 39.8646C66.8183 39.8965 66.5666 39.913 66.3146 39.9138C65.4902 39.9138 64.8823 39.721 64.484 39.3339C64.0857 38.9469 63.8886 38.2958 63.8886 37.3808V33.9315ZM59.8639 35.2609C59.8639 34.7507 59.7376 34.3555 59.4836 34.0724C59.2296 33.7892 58.8452 33.6456 58.3039 33.6456C58.0609 33.6424 57.8199 33.689 57.5961 33.7824C57.4036 33.8612 57.23 33.9791 57.0868 34.1284C56.9469 34.2766 56.8371 34.4497 56.7634 34.6386C56.684 34.8394 56.6403 35.0523 56.6343 35.2677L59.8639 35.2609ZM61.7166 37.467C61.5816 38.2967 61.2438 38.9263 60.7035 39.3558C60.1632 39.7853 59.3767 40 58.3442 40C57.0988 40 56.1629 39.6604 55.5366 38.9811C54.9102 38.3018 54.597 37.3398 54.597 36.0952C54.5891 35.5295 54.6831 34.9668 54.8746 34.4334C55.0406 33.9722 55.3025 33.5501 55.6434 33.1943C55.9756 32.854 56.3804 32.591 56.8286 32.4243C57.3164 32.2437 57.8342 32.1546 58.3553 32.1617C59.5026 32.1617 60.3663 32.4872 60.9464 33.1382C61.5265 33.7892 61.8161 34.6664 61.8152 35.7697V36.5629H56.6094C56.6288 37.1565 56.7819 37.6206 57.0687 37.9553C57.3556 38.2899 57.7863 38.4577 58.3608 38.4586C59.1565 38.4586 59.6256 38.1281 59.7681 37.467H61.7166ZM50.9636 29.6711H52.9732V39.7743H50.9678L50.9636 29.6711ZM46.9999 29.6711H49.0109V39.7743H47.0041L46.9999 29.6711ZM43.2 36.4768L42.3104 36.5205C41.9669 36.5289 41.6251 36.5715 41.2903 36.6478C41.0785 36.6939 40.8768 36.7773 40.6949 36.8939C40.5691 36.9797 40.4724 37.1007 40.4174 37.2413C40.3686 37.3827 40.3447 37.5311 40.3466 37.6804C40.3362 37.9028 40.4316 38.1172 40.6047 38.2603C40.811 38.4122 41.0652 38.4873 41.3222 38.4723C41.7713 38.4923 42.2148 38.3685 42.5866 38.1194C42.7673 37.9829 42.9163 37.8099 43.0237 37.612C43.1464 37.3783 43.2057 37.1172 43.1958 36.8543L43.2 36.4768ZM43.2444 38.8402C42.9585 39.1609 42.6215 39.4334 42.2465 39.6471C41.8052 39.8705 41.3128 39.9775 40.8171 39.9576C40.4943 39.9592 40.173 39.9164 39.8622 39.8304C39.5742 39.7528 39.3055 39.6178 39.0725 39.4338C38.8431 39.2487 38.659 39.0149 38.5341 38.7499C38.393 38.4358 38.3242 38.0949 38.3328 37.7515C38.313 37.3112 38.4338 36.8759 38.6784 36.5069C38.909 36.1845 39.2202 35.9263 39.5819 35.7574C39.9796 35.571 40.4027 35.4425 40.8379 35.3758C41.3064 35.3011 41.7792 35.2555 42.2535 35.239L43.2153 35.1966V34.8219C43.2153 34.3691 43.0876 34.0573 42.835 33.8877C42.5689 33.7149 42.2557 33.6262 41.9371 33.6333C41.1432 33.6333 40.6885 33.9306 40.5728 34.5251L38.7353 34.3555C38.8741 33.5827 39.2141 33.022 39.7692 32.6787C40.3244 32.3354 41.071 32.1617 42.0092 32.1617C42.5054 32.1502 43.0001 32.2195 43.4734 32.3668C43.841 32.4812 44.1746 32.6827 44.4449 32.9536C44.6938 33.217 44.876 33.5348 44.9764 33.8809C45.0917 34.2811 45.1474 34.6958 45.1416 35.1118V39.7812H43.2444V38.8402ZM33.381 38.1194C33.678 38.1258 33.9745 38.0922 34.2623 38.0196C34.4717 37.9669 34.666 37.8672 34.8299 37.7282C34.9696 37.6091 35.0741 37.4551 35.1324 37.2824C35.1925 37.0953 35.2215 36.9 35.2185 36.7038C35.2185 36.2703 35.0978 35.9393 34.859 35.7136C34.6203 35.4879 34.1984 35.3744 33.5961 35.3744H31.5865V38.1194H33.381ZM33.4518 33.6757C34.0166 33.6757 34.4052 33.5718 34.6148 33.3639C34.8391 33.1221 34.9534 32.8004 34.9312 32.4735C34.9312 32.0632 34.7924 31.7637 34.5218 31.5886C34.2512 31.4135 33.7876 31.3274 33.1339 31.3274H31.5865V33.6757H33.4518ZM29.5186 29.6711H33.2075C33.8395 29.6568 34.4704 29.7286 35.0825 29.8844C35.51 29.9932 35.9089 30.1909 36.2524 30.4643C36.5277 30.6925 36.7337 30.9912 36.8478 31.3274C36.9604 31.6748 37.0161 32.0377 37.013 32.4024C37.0151 32.7894 36.9268 33.1718 36.7548 33.5198C36.5818 33.8699 36.258 34.1672 35.7833 34.4115C36.0543 34.548 36.3074 34.7166 36.5369 34.9135C36.7208 35.0733 36.8761 35.2624 36.9963 35.4729C37.1043 35.6628 37.1816 35.8681 37.2253 36.0815C37.269 36.2861 37.2909 36.4947 37.2905 36.7038C37.2927 37.1122 37.2276 37.5182 37.0976 37.906C36.9701 38.2806 36.7474 38.6167 36.4509 38.8826C36.1075 39.1797 35.704 39.4016 35.2671 39.5336C34.6823 39.7071 34.0734 39.7883 33.4629 39.7743H29.5186V29.6711ZM82.6953 15.0694H84.7063V25.1658H82.6953V15.0694ZM79.0217 21.8738L78.1307 21.9162C77.7877 21.9251 77.4464 21.9677 77.112 22.0434C76.8998 22.0904 76.6977 22.1742 76.5152 22.2909C76.3886 22.3758 76.2917 22.4971 76.2377 22.6383C76.1879 22.7789 76.1635 22.9271 76.1655 23.076C76.1549 23.2984 76.2504 23.513 76.4236 23.6559C76.6294 23.8089 76.8838 23.8846 77.1412 23.8692C77.5904 23.8888 78.0339 23.7646 78.4055 23.515C78.5883 23.3809 78.7397 23.2098 78.8496 23.0131C78.9723 22.7798 79.032 22.5193 79.0231 22.2567L79.0217 21.8738ZM79.0633 24.2372C78.7786 24.5581 78.4419 24.8303 78.0668 25.0427C77.6259 25.2673 77.1333 25.3747 76.6374 25.3546C76.3146 25.3562 75.9933 25.3133 75.6825 25.2274C75.395 25.1492 75.1265 25.0148 74.8928 24.8321C74.6634 24.647 74.4794 24.4132 74.3544 24.1483C74.2137 23.8341 74.1455 23.4931 74.1545 23.1498C74.1342 22.7097 74.2546 22.2744 74.4987 21.9052C74.7302 21.5828 75.0417 21.3242 75.4036 21.1543C75.8014 20.9683 76.2245 20.8398 76.6596 20.7728C77.1272 20.6988 77.5991 20.6531 78.0724 20.636L79.0342 20.5936V20.2243C79.0342 19.773 78.9079 19.4611 78.6553 19.2915C78.3894 19.1182 78.0761 19.029 77.7574 19.0358C76.9635 19.0358 76.5088 19.333 76.3931 19.9275L74.5556 19.7579C74.6888 18.9856 75.0335 18.4267 75.5895 18.0811C76.1456 17.7355 76.8923 17.5637 77.8295 17.5655C78.3257 17.5548 78.8203 17.6241 79.2937 17.7706C79.6611 17.8856 79.9945 18.087 80.2652 18.3574C80.5139 18.621 80.696 18.9387 80.7967 19.2847C80.9115 19.6823 80.9671 20.0941 80.9619 20.5074V25.1658H79.0633V24.2372ZM66.0994 17.7802H68.0522V18.7992C68.3133 18.397 68.6777 18.07 69.1083 17.8513C69.5022 17.6559 69.9372 17.5543 70.3782 17.5545C71.2294 17.5545 71.8609 17.7738 72.2726 18.2124C72.6843 18.651 72.8902 19.3421 72.8902 20.2859V25.1658H70.8806V20.558C70.8806 20.0397 70.7793 19.6854 70.5794 19.4967C70.3597 19.301 70.0702 19.1992 69.7745 19.2136C69.547 19.2084 69.3208 19.2469 69.1083 19.3271C68.9159 19.4062 68.7382 19.5162 68.5823 19.6526C68.4448 19.7917 68.3314 19.952 68.2464 20.1272C68.1536 20.314 68.1061 20.5196 68.1077 20.7276V25.1658H66.0994V17.7802ZM60.7438 23.8091C61.3183 23.8091 61.7467 23.6062 62.0289 23.2004C62.3111 22.7947 62.4527 22.2157 62.4536 21.4634C62.4536 20.7094 62.3125 20.134 62.0303 19.7374C61.7481 19.3408 61.3192 19.1443 60.7438 19.1479C60.1692 19.1479 59.7408 19.3458 59.4586 19.7415C59.1764 20.1372 59.0353 20.7126 59.0353 21.4676C59.0353 22.2316 59.1741 22.8143 59.4517 23.2155C59.7292 23.6162 60.1595 23.8173 60.7424 23.8173L60.7438 23.8091ZM60.7424 25.4011C59.5396 25.4011 58.6065 25.0614 57.9431 24.3821C57.2797 23.7028 56.9494 22.7313 56.9522 21.4676C56.9434 20.9094 57.0336 20.3539 57.2186 19.8263C57.379 19.3667 57.6385 18.9468 57.9792 18.5954C58.3174 18.2556 58.7265 17.9924 59.1783 17.824C59.6778 17.6377 60.2083 17.5449 60.7424 17.5504C61.2819 17.5443 61.818 17.637 62.3231 17.824C63.2507 18.1647 63.9698 18.904 64.2758 19.8318C64.4559 20.3604 64.5432 20.9155 64.534 21.473C64.5418 22.0312 64.4517 22.5864 64.2675 23.1143C64.106 23.5731 63.8472 23.9927 63.5083 24.3452C63.1719 24.6887 62.7623 24.9545 62.3092 25.1234C61.8092 25.3097 61.2783 25.4024 60.7438 25.397L60.7424 25.4011ZM53.5075 17.7802H55.5144V25.1658H53.5075V17.7802ZM53.4798 15.0653H55.5477V16.8433H53.4798V15.0653ZM48.3836 19.323H47.2053V17.7802H48.3836V15.9598H50.3932V17.7802H52.1169V19.323H50.3932V22.7327C50.3932 23.1197 50.4737 23.381 50.6375 23.5191C50.8157 23.6607 51.0403 23.7332 51.2689 23.7229C51.4077 23.7229 51.5396 23.7229 51.6783 23.7024C51.8168 23.688 51.9538 23.662 52.0878 23.6244L52.375 25.081C52.1102 25.1635 51.8385 25.223 51.5632 25.2588C51.3133 25.2908 51.0616 25.3073 50.8096 25.3081C49.987 25.3081 49.3768 25.1148 48.979 24.7282C48.5811 24.3416 48.3827 23.6905 48.3836 22.7751V19.323ZM44.2339 21.8697L43.3429 21.9121C43 21.9212 42.6587 21.9638 42.3243 22.0393C42.1125 22.0863 41.9108 22.1701 41.7289 22.2868C41.6028 22.3723 41.5061 22.4934 41.4513 22.6342C41.4027 22.7751 41.3788 22.9231 41.3805 23.0719C41.3661 23.2971 41.4608 23.5158 41.6359 23.6614C41.8417 23.8144 42.0961 23.8901 42.3534 23.8747C42.8021 23.894 43.2452 23.7697 43.6163 23.5205C43.7995 23.3865 43.9515 23.2153 44.0618 23.0185C44.1841 22.7851 44.2433 22.5247 44.2339 22.2622V21.8697ZM44.277 24.2331C43.992 24.5543 43.6548 24.8266 43.2791 25.0386C42.8387 25.2632 42.3465 25.3706 41.851 25.3505C41.5283 25.352 41.2069 25.3092 40.8962 25.2233C40.6087 25.1451 40.3401 25.0107 40.1065 24.828C39.8775 24.6425 39.6935 24.4088 39.568 24.1442C39.4269 23.8301 39.3582 23.4891 39.3668 23.1457C39.3476 22.7055 39.4684 22.2704 39.7123 21.9011C39.9433 21.5787 40.2544 21.3202 40.6158 21.1502C41.0137 20.9643 41.4367 20.8358 41.8718 20.7687C42.3404 20.6947 42.8132 20.649 43.2874 20.6319L44.2478 20.5895V20.2202C44.2478 19.7689 44.1215 19.457 43.8689 19.2874C43.6031 19.114 43.2898 19.0247 42.971 19.0317C42.1753 19.0317 41.7206 19.3289 41.6067 19.9234L39.7692 19.7538C39.9025 18.9815 40.2471 18.4226 40.8032 18.077C41.3592 17.7314 42.1059 17.5596 43.0432 17.5614C43.5393 17.5508 44.0339 17.6201 44.5073 17.7665C44.875 17.881 45.2085 18.0824 45.4788 18.3533C45.7276 18.618 45.9089 18.9373 46.0076 19.2847C46.1223 19.6823 46.178 20.0941 46.1728 20.5074V25.1658H44.2728L44.277 24.2331ZM29.5186 15.0694H31.4422L35.6682 21.6891V15.0694H37.7499V25.1658H35.8361L31.6004 18.6008V25.1658H29.5186V15.0694ZM70.3518 0H72.3628V3.65041C72.6297 3.27943 72.9847 2.97845 73.3967 2.77371C73.7799 2.58708 74.2017 2.49019 74.6292 2.4906C75.4813 2.4906 76.1132 2.70989 76.525 3.14846C76.9367 3.58704 77.1425 4.27774 77.1425 5.22054V10.1019H75.1329V5.48861C75.1329 4.97071 75.0321 4.61738 74.8304 4.42864C74.6111 4.2332 74.3221 4.13139 74.0268 4.14552C73.799 4.14047 73.5723 4.17902 73.3593 4.25904C73.1677 4.33806 72.9908 4.44808 72.8361 4.58456C72.6967 4.72293 72.5826 4.88394 72.4988 5.06052C72.4058 5.2473 72.3583 5.45289 72.36 5.66094V10.1019H70.3518V0ZM64.0635 7.75354C64.1315 8.1871 64.3077 8.47022 64.595 8.60289C64.9209 8.7424 65.2738 8.81008 65.629 8.8012C66.1078 8.8012 66.4492 8.74102 66.6546 8.6234C66.8609 8.50683 66.9812 8.28408 66.9641 8.05033C66.9667 7.86674 66.8971 7.68928 66.7698 7.55522C66.6407 7.41845 66.3937 7.3145 66.0301 7.25843L64.9961 7.08883C64.0875 6.94659 63.4107 6.7036 62.9657 6.35984C62.5207 6.01609 62.2981 5.495 62.2981 4.79655C62.2923 4.46261 62.374 4.13283 62.5355 3.83916C62.6974 3.55018 62.9261 3.3028 63.203 3.11701C63.5155 2.90686 63.8625 2.7514 64.2286 2.65746C64.6573 2.5452 65.0994 2.49045 65.5429 2.4947C66.0455 2.48266 66.5473 2.54068 67.0335 2.66703C67.39 2.763 67.7245 2.9255 68.0188 3.14573C68.2643 3.33289 68.4612 3.57476 68.5934 3.85147C68.7229 4.13154 68.8162 4.42654 68.871 4.72954L67.0751 4.95658C67.0174 4.66241 66.858 4.39705 66.6241 4.2057C66.4103 4.04158 66.062 3.96635 65.5859 3.96635C65.3617 3.96166 65.1377 3.98277 64.9184 4.02927C64.7713 4.05995 64.6305 4.11498 64.502 4.19203C64.4104 4.2471 64.3356 4.32554 64.2855 4.41907C64.246 4.493 64.2241 4.57487 64.2217 4.65842C64.2041 4.85638 64.2873 5.05004 64.4438 5.17541C64.5923 5.28346 64.8823 5.37646 65.3125 5.44895L66.2604 5.6076C66.7057 5.67297 67.1432 5.78202 67.5664 5.93312C67.8736 6.04076 68.1565 6.20664 68.3991 6.42139C68.6011 6.60803 68.7495 6.84394 68.8293 7.10525C68.9158 7.40448 68.9569 7.71464 68.9515 8.02571C68.9709 8.67887 68.6704 9.30136 68.1437 9.69842C67.608 10.1188 66.78 10.3289 65.6595 10.3289C65.2286 10.3302 64.7987 10.2899 64.3757 10.2086C63.9895 10.1379 63.6195 9.99887 63.2835 9.79826C62.9615 9.59764 62.6912 9.32609 62.4938 9.00499C62.2739 8.62521 62.1533 8.19751 62.1427 7.76038L64.0635 7.75354ZM58.68 2.71627H60.691V10.1019H58.68V2.71627ZM58.6509 0H60.7188V1.77802H58.6509V0ZM54.7899 0H56.7995V10.1019H54.7899V0ZM49.8797 3.79129C49.5628 3.78362 49.2517 3.8756 48.9915 4.05389C48.7431 4.22895 48.6195 4.50523 48.6195 4.87451C48.6145 5.04384 48.6511 5.21185 48.7264 5.36415C48.7921 5.49426 48.887 5.60792 49.004 5.69651C49.1247 5.78474 49.2612 5.8497 49.4064 5.88798C49.5606 5.92974 49.7198 5.9509 49.8797 5.9509C50.1913 5.95737 50.498 5.8742 50.7624 5.71155C51.015 5.55016 51.1426 5.27252 51.1426 4.87451C51.1426 4.49976 51.0191 4.22348 50.7693 4.05389C50.5087 3.87523 50.197 3.78323 49.8797 3.79129ZM50.6111 9.62046C50.5542 9.61089 50.4432 9.59721 50.2822 9.57806L49.727 9.51515C49.5161 9.49053 49.2968 9.46591 49.0664 9.43719C48.836 9.40847 48.6265 9.38111 48.4349 9.35239C48.2814 9.56237 48.201 9.81575 48.206 10.0745C48.206 10.4037 48.378 10.6317 48.7222 10.7584C49.1858 10.9031 49.6713 10.9679 50.1573 10.9499C50.7041 10.9499 51.0917 10.8883 51.3203 10.7652C51.539 10.6613 51.6742 10.4394 51.6645 10.2004C51.6723 10.041 51.5857 9.89167 51.4424 9.81741C51.1813 9.70349 50.9017 9.63634 50.6166 9.61909L50.6111 9.62046ZM46.6058 7.78226C46.6026 7.50039 46.6852 7.22406 46.8431 6.98899C46.9949 6.75979 47.1759 6.55065 47.3816 6.36668C47.1618 6.16465 46.9968 5.91172 46.9014 5.63086C46.815 5.3894 46.7682 5.13594 46.7626 4.87998C46.7515 4.48535 46.8473 4.09493 47.0402 3.74889C47.2145 3.44384 47.4606 3.18447 47.7577 2.99255C48.0619 2.79563 48.3993 2.65389 48.7542 2.57403C49.1145 2.49093 49.4832 2.44826 49.8533 2.44683C50.177 2.4385 50.5003 2.47207 50.8151 2.54667C51.0156 2.59938 51.2123 2.66564 51.4036 2.74499C51.4016 2.57449 51.4441 2.40635 51.5271 2.25672C51.6047 2.11367 51.7121 1.98832 51.8421 1.88881C51.9737 1.78924 52.1215 1.71247 52.2793 1.66177C52.5249 1.58261 52.7864 1.56337 53.0412 1.60569C53.126 1.62001 53.2083 1.64627 53.2855 1.68365V3.09786H53.2411C53.2199 3.10028 53.1984 3.10028 53.1772 3.09786C53.1562 3.09384 53.1348 3.09155 53.1134 3.09102C53.0407 3.09131 52.9681 3.09864 52.8969 3.1129C52.8171 3.12757 52.7414 3.15881 52.6748 3.20454C52.5979 3.25663 52.5358 3.32726 52.4944 3.4097C52.4423 3.52288 52.418 3.6466 52.4236 3.77077C52.5652 3.96067 52.6719 4.17363 52.7387 4.39992C52.8077 4.61039 52.8446 4.82979 52.8483 5.05095C52.8561 5.39256 52.7703 5.72992 52.5999 6.02749C52.4321 6.31044 52.2044 6.55442 51.9323 6.7428C51.6426 6.94127 51.3192 7.08717 50.9775 7.17363C50.6095 7.26751 50.2306 7.31349 49.8506 7.3104C49.5996 7.30995 49.3494 7.28382 49.1039 7.23244C48.8703 7.18876 48.6436 7.1152 48.4294 7.01361C48.3832 7.05051 48.3462 7.09728 48.3211 7.15038C48.2888 7.21167 48.2717 7.27963 48.2712 7.3487C48.2598 7.51805 48.3575 7.67622 48.5154 7.74397C48.6976 7.82512 48.8914 7.87773 49.09 7.89988L50.8554 8.11188C51.3133 8.16038 51.7655 8.25198 52.2057 8.38542C52.5109 8.47351 52.7977 8.6148 53.0523 8.80257C53.2538 8.95438 53.4061 9.1606 53.4909 9.39616C53.5748 9.64949 53.6156 9.91476 53.6116 10.1812C53.6298 10.573 53.5113 10.9592 53.2758 11.2754C53.0452 11.5621 52.7502 11.792 52.4139 11.9469C52.0435 12.1174 51.649 12.2317 51.244 12.2861C50.8304 12.3466 50.413 12.3776 49.9949 12.3791C49.4761 12.383 48.9578 12.3473 48.4447 12.2724C48.037 12.2173 47.6415 12.0953 47.2747 11.9114C46.9713 11.7577 46.7161 11.5256 46.5364 11.2398C46.3545 10.9285 46.2646 10.5731 46.2768 10.214C46.2676 9.92478 46.3453 9.63927 46.5003 9.39342C46.6578 9.15549 46.8479 8.9401 47.0651 8.75333C46.9144 8.63704 46.7941 8.487 46.714 8.31567C46.64 8.14598 46.6031 7.96283 46.6058 7.77816V7.78226ZM38.1066 2.71764H40.0593V3.73658C40.3203 3.33484 40.6841 3.00794 41.1141 2.78876C41.5086 2.59375 41.9439 2.49213 42.3853 2.49196C43.2375 2.49196 43.8689 2.71125 44.2797 3.14983C44.6905 3.58841 44.8964 4.2791 44.8973 5.22191V10.1019H42.885V5.48861C42.885 4.97025 42.7836 4.61738 42.5838 4.42864C42.3645 4.2332 42.0755 4.13139 41.7802 4.14552C41.5519 4.14036 41.3247 4.17892 41.1113 4.25904C40.9197 4.33806 40.7429 4.44808 40.5881 4.58456C40.4477 4.72272 40.3327 4.88374 40.248 5.06052C40.155 5.2473 40.1075 5.45289 40.1093 5.66094V10.1019H38.1066V2.71764ZM29.4492 0H36.4412V1.7958H31.5837V4.00465H36.1497V5.8155H31.5837V8.30473H36.7382L36.5286 10.1019H29.4506L29.4492 0Z" fill="#7B7B7B"/>
</svg>
