<svg width="257" height="40" viewBox="0 0 257 40" fill="none" xmlns="http://www.w3.org/2000/svg">
<g clip-path="url(#clip0_1_1566)">
<path fill-rule="evenodd" clip-rule="evenodd" d="M7.72297 15.8419C7.69657 15.9446 7.5043 16.1803 7.43675 16.2136C7.43675 16.3745 7.33991 16.5273 7.19229 16.6267C7.19229 16.8794 6.76917 16.9911 6.71603 17.2604C6.66746 17.506 6.5634 17.7385 6.37571 17.8659C6.37571 18.0934 6.00871 18.1802 6.00871 18.403C5.89893 18.4595 5.79817 18.8162 5.72325 18.8162C5.72325 18.9702 5.55664 19.0776 5.5188 19.2704C5.43188 19.3152 5.31468 19.5192 5.31468 19.6426C5.12171 19.7392 5.18293 19.9978 4.98808 20.0963C4.98808 20.2356 4.82478 20.4074 4.82478 20.5513C4.75207 20.5513 4.57991 21.3086 4.57991 21.4188C4.42103 21.4188 4.48045 22.8022 4.53876 23.0259C4.66165 23.4994 4.69099 24.0096 4.98808 24.3103C5.06577 24.3888 5.11358 24.5266 5.15137 24.6411C5.2108 24.6704 5.42673 24.8861 5.47784 24.9505C5.59613 25.1 6.37571 25.2914 6.37571 25.3431C6.76898 25.4001 6.98189 25.6323 7.3144 25.6323C7.3144 25.6304 8.42603 25.9853 8.53875 26.004C8.53875 26.1674 9.06967 26.1126 9.06967 26.2518C9.41952 26.2878 9.76918 26.3228 10.1191 26.3582C10.4708 26.3943 10.8288 26.6134 11.1919 26.7062C11.1919 26.8434 11.9487 26.9023 12.1372 26.8793C12.5886 26.8248 12.9457 26.954 13.3245 26.954C13.9353 26.954 14.497 27.1193 15.1106 27.1193C15.1106 27.329 16.5441 27.0779 16.6611 27.0779C16.6611 26.9415 18.1682 26.7818 18.364 26.7506C18.6653 26.7024 18.9668 26.6543 19.2679 26.6044C19.5615 26.5559 19.6676 26.3467 19.9804 26.2518C20.3816 26.13 20.5502 25.9703 20.9056 25.8801C20.9056 25.8853 21.6591 25.5081 21.7222 25.5081C21.8327 25.3394 22.0366 25.2905 22.1508 25.1364C22.2616 24.9876 22.5121 24.7778 22.681 24.6411C22.8725 24.4859 23.069 23.9557 23.069 23.7319C23.2359 23.7319 23.1883 22.8855 23.069 22.7406C22.8441 22.6649 22.7675 22.5702 22.5249 22.5889C22.1661 22.6169 21.8657 22.6763 21.4771 22.6991C21.4771 22.8177 20.6201 22.8709 20.6201 22.9886C20.3716 22.9886 20.122 23.0297 19.9265 23.0297C19.9265 23.1299 19.4798 23.1538 19.3548 23.1538C19.3548 23.2842 18.1715 23.251 18.1715 23.3603C18.0859 23.3603 17.6812 23.4247 17.6812 23.4844C17.5338 23.4928 16.8244 23.4966 16.8244 23.6081C16.5377 23.589 15.7811 23.7319 15.7224 23.7319C15.7224 23.8197 13.0695 24.2627 12.8584 24.3193C12.591 24.3912 12.486 24.2791 12.2175 24.2954C11.9855 24.3103 11.918 24.1867 11.7632 24.1867C11.6979 24.0522 11.6656 24.1559 11.6003 24.021C11.4713 24.021 11.4359 23.8963 11.3349 23.8145C11.1677 23.6796 11.1659 23.4988 11.0286 23.3603C10.9454 23.2756 10.8258 22.7406 10.661 22.7406C10.5997 22.5534 10.2392 21.5841 10.1309 21.5841C10.1309 21.3805 10.0685 21.3248 10.1285 21.1091C10.182 20.9164 10.2126 20.6848 10.2126 20.5305C10.2126 20.4609 10.2903 20.0963 10.335 20.0963C10.3494 19.8126 10.4164 19.4521 10.4164 19.2289C10.5623 19.2289 10.5638 18.3614 10.7841 18.3614C10.7841 18.24 10.8323 18.0896 10.9472 18.0312C11.0114 17.774 11.1425 17.6573 11.2942 17.4526C11.4484 17.2445 11.8654 17.159 12.1035 17.0606C12.2133 17.0148 12.8652 17.0017 12.8652 16.9569C13.0282 16.9569 14.0491 16.8383 14.0491 16.7094C14.3038 16.7094 14.6147 16.6525 14.9196 16.6403C15.1757 16.6303 15.2908 16.5441 15.4776 16.5441C15.4776 16.2967 16.6425 16.2444 16.9058 16.2136C16.9058 16.165 17.2413 16.0897 17.3142 16.0897C17.3142 15.9898 17.8685 15.9883 17.9918 15.982C18.4542 15.9599 18.7339 15.7592 19.1508 15.7592C19.5556 15.7592 19.8345 15.5986 20.2799 15.5757C20.6337 15.5571 20.9878 15.5388 21.3411 15.5207C21.567 15.5089 21.6927 15.4286 21.9263 15.4286C21.9263 15.4149 23.1445 15.2639 23.2731 15.2639C23.2731 15.2648 23.83 15.1312 23.928 15.0965C24.2229 14.994 24.5995 14.9333 24.8649 14.9333C24.8649 14.9296 25.173 14.7969 25.2352 14.7699C25.4902 14.6597 25.6172 14.7241 25.8189 14.7437C26.0464 14.7658 26.2879 14.7213 26.5072 14.6643C26.6939 14.6158 26.9266 14.516 27.1049 14.5803C27.2172 14.6208 27.844 14.5599 27.844 14.6436C28.0681 14.6436 28.1234 14.7264 28.334 14.7264C28.334 14.7487 29.1546 14.9333 29.2317 14.9333C29.2317 15.0238 29.5285 15.0074 29.5995 15.0154C29.7323 15.1089 29.865 15.2015 29.9973 15.2947C30.1634 15.4106 30.2878 15.6112 30.3339 15.8142C30.4002 16.1024 30.5167 16.2515 30.5791 16.5031C30.7513 16.5899 30.7646 16.8667 30.946 16.9569C31.0687 17.3258 31.2324 17.535 31.2324 17.9076C31.3436 17.9076 31.3689 18.7751 31.4771 18.7751C31.4771 18.901 31.7053 19.601 31.7625 19.601C31.7867 19.9003 31.838 20.142 31.9142 20.4276C32.0103 20.7881 31.8452 21.1844 31.7625 21.5346C31.7271 21.6853 31.6208 21.9636 31.4771 22.0383C31.4771 22.1457 31.3861 22.3371 31.3138 22.41C31.2342 22.4908 31.0687 22.7116 31.0687 22.8233C31.027 22.8233 30.8646 23.1679 30.8646 23.236C30.757 23.236 30.7388 23.7734 30.6201 23.7734C30.5932 23.8804 30.4633 24.2278 30.3749 24.2278C30.3749 24.5167 30.1302 24.8488 30.1302 25.219C30.125 25.219 29.7665 25.9647 29.7765 26.0725C29.8209 26.5665 29.6201 26.7458 29.5583 27.2435C29.5269 27.4981 29.436 27.6563 29.436 27.8632C29.3873 27.8632 29.3138 28.1247 29.3138 28.1938C29.1703 28.1938 29.3347 28.9371 29.1915 28.9371C29.1374 29.2052 29.0625 29.2827 29.0282 29.5977C29.0109 29.7555 28.8568 30.6305 28.7831 30.6305C28.7831 30.7105 28.7137 31.085 28.6606 31.085C28.6606 31.4604 28.6938 31.7022 28.6707 32.0767C28.655 32.3311 28.5792 32.4628 28.5792 32.7644C28.5792 32.8589 28.5335 33.2337 28.4563 33.2337C28.4563 33.4345 28.3829 33.6073 28.4454 33.8669C28.5194 34.1769 28.5385 34.4132 28.5385 34.7204C28.69 34.7204 28.6196 36.0464 28.6196 36.2285C28.6196 36.7291 28.4595 37.111 28.4261 37.653C28.394 38.1741 28.0461 38.444 27.9672 38.8517C27.747 38.9623 25.6413 40.1273 25.1664 39.9891C25.0557 39.957 25.1182 39.8845 24.9874 39.8845C24.9874 39.7949 24.7593 39.7588 24.6881 39.7327C24.5477 39.6813 24.3109 39.5497 24.253 39.4297C24.181 39.4297 23.3545 39.1085 23.3545 39.1406C23.2693 39.1406 23.0281 39.0585 23.0281 38.9753C22.9484 38.9753 22.8087 38.918 22.742 38.8517C22.5378 38.6463 22.0855 38.5476 22.1191 38.1588C22.1383 37.9378 22.2056 37.8006 22.0896 37.5708C22.0061 37.4967 21.9794 37.1166 21.9263 37.1166C21.951 36.4596 22.0488 35.9587 22.0488 35.3651C22.0488 34.7422 22.0078 34.0854 22.0078 33.5227C21.9859 33.5227 22.2237 32.2242 22.1711 32.035C22.1027 31.7913 22.0958 31.3054 21.9289 31.1479C21.739 30.9686 21.6196 31.0168 21.3548 31.0439C21.3548 31.0909 20.7165 31.3459 20.5792 31.3745C20.5792 31.4604 20.1161 31.527 20.0282 31.5392C19.7894 31.5724 19.6317 31.7045 19.4368 31.7045C19.4368 31.8753 18.4162 31.7642 18.4162 31.9945C18.0331 31.9945 17.7405 32.1785 17.3821 32.2143C16.9448 32.2582 16.7877 32.4478 16.3484 32.4478C15.988 32.4478 15.6486 32.5785 15.2314 32.5595C14.8631 32.5427 14.602 32.3914 14.2398 32.4982C13.843 32.615 13.5749 32.4478 13.2328 32.4478C12.9826 32.3936 12.5447 32.5315 12.1718 32.5315C12.1718 32.6641 9.43964 32.242 9.19202 32.242C9.19202 32.1542 8.17193 32.0743 8.17193 31.9118C7.65008 31.8447 7.36944 31.626 6.78429 31.5812C6.53666 31.4697 6.21798 31.2502 5.94726 31.2502C5.86553 31.2502 5.60014 31.2054 5.60014 31.1261C5.46839 31.1261 4.82478 30.9415 4.82478 30.7964C4.51329 30.7964 4.20809 30.3827 3.88609 30.3827C3.88609 30.3401 3.34782 30.011 3.23341 30.011C3.07398 29.8358 2.74773 29.6011 2.66156 29.433C2.5036 29.433 2.27497 29.1444 2.17219 29.0199C2.06904 29.0199 1.84835 28.8161 1.80461 28.7308C1.62322 28.5826 1.51896 28.473 1.51896 28.276C1.5042 28.276 1.29901 27.9388 1.27373 27.8632C1.22224 27.8632 1.05451 27.527 1.02923 27.4501C0.920537 27.1199 0.828827 26.7501 0.776236 26.441C0.744684 26.2542 0.688957 26.0712 0.638027 25.8891C0.618836 25.8194 0.49797 25.6323 0.495203 25.6084C0.485607 25.5277 0.440767 24.7236 0.416963 24.7236C0.416963 24.239 0.242953 19.601 0.294252 19.601C0.294252 19.4714 0.371569 18.6509 0.498524 18.6509C0.498524 18.5863 0.702796 17.6931 0.729922 17.3706C0.741732 17.2268 0.906517 16.2546 1.07001 16.2546C1.07001 15.9222 1.42965 15.629 1.51896 15.2639C1.8214 15.1092 1.87049 14.6106 2.13141 14.4783C2.13141 14.2562 2.49825 14.1694 2.49825 13.9415C2.704 13.8028 2.7219 13.5394 2.9068 13.4456C2.9068 13.3065 3.15148 13.2365 3.15148 13.0738C3.3683 12.8857 3.51334 12.7229 3.68218 12.4959C3.8394 12.416 3.87114 12.185 4.04958 12.1235C4.0994 11.9708 4.17247 11.9329 4.29463 11.8346C4.29463 11.762 4.3629 11.6415 4.41697 11.5867C4.54891 11.4538 5.07428 10.5541 5.19237 10.5541C5.25936 10.2799 5.42432 10.0288 5.65499 9.82423C5.77138 9.72057 5.86553 9.43838 6.04929 9.43838C6.09601 9.34333 6.17183 9.38234 6.17183 9.31454C6.3126 9.31454 6.25138 9.21256 6.37571 9.14964C6.37571 8.99387 6.75292 8.65416 6.90645 8.65416C7.03725 8.47783 7.15483 8.42236 7.34398 8.31048C7.64508 8.13247 8.86777 6.61872 9.1512 6.54739C9.20345 6.44244 9.42061 6.3821 9.51863 6.3821C9.51863 6.35017 9.9229 6.0926 10.0085 6.0926C10.0658 5.9768 11.6145 4.74137 12.0085 4.27481C12.1289 4.27481 12.3474 4.08896 12.4164 3.98588C12.5797 3.93171 12.6344 3.82805 12.7429 3.69656C12.8331 3.69656 12.9508 3.60878 13.0084 3.53109C13.0953 3.41361 13.206 3.32602 13.3143 3.22834C13.455 3.10245 13.3825 3.09126 13.4776 2.99415C13.6788 2.79057 14.0107 2.74333 14.2124 2.54027C14.3187 2.43288 14.4335 2.12659 14.6205 2.12659C14.7922 1.91741 14.9336 1.7876 15.1511 1.71383C15.3588 1.39822 15.8096 1.37708 16.0081 1.17689C16.0832 1.1003 16.3545 0.887386 16.4569 0.887386C16.5223 0.755184 16.8211 0.673519 16.9877 0.639908C16.9877 0.550259 17.3957 0.53252 17.3957 0.432976C17.4852 0.411125 17.7633 0.331757 17.7633 0.267689C18.0434 0.173927 18.1744 0.144043 18.4981 0.144043C18.4981 0.0355568 19.0725 0.0263786 19.1962 0.029007C19.568 0.0385208 19.9402 0.0473213 20.3118 0.0566444C20.52 0.0619011 20.6812 -0.0221519 20.9324 0.00997925C21.4131 0.0721321 21.7305 0.267689 22.1575 0.267689C22.2372 0.267689 22.6201 0.338306 22.6201 0.391907C22.8286 0.443832 23.1266 0.514782 23.3302 0.648323C23.895 1.01758 24.3021 1.43087 24.7966 1.90661C25.1033 2.20132 25.4644 2.57766 25.5587 2.95303C25.7392 3.04493 25.9008 3.69656 25.9665 3.69656C25.9665 4.15117 26.1676 4.60218 26.2118 5.10087C26.364 5.10087 26.5791 5.93386 26.5791 6.05133C26.6481 6.05133 26.6607 6.8774 26.824 6.8774C26.824 7.14692 26.9104 7.30006 26.8768 7.5746C26.8438 7.84168 26.7017 8.09925 26.7017 8.36465C26.6588 8.36465 26.5384 8.628 26.5384 8.69504C26.3401 8.84689 26.2023 9.0411 26.0192 9.20883C25.8294 9.38292 24.8241 9.545 24.8241 9.68695C24.4682 9.68695 24.1845 9.86291 23.7771 9.82891C23.5848 9.81247 23.3774 9.78407 23.1977 9.70976C23.0373 9.64402 22.9961 9.46377 22.8651 9.39745C22.8651 9.20041 22.5795 9.13788 22.5795 8.94271C22.4448 8.8762 22.3345 8.58 22.3345 8.44775C22.1743 8.44775 22.1531 7.73338 21.9263 7.62112C21.9263 7.56527 21.6179 6.8774 21.5589 6.8774C21.5589 6.61184 21.1186 6.24388 20.9265 6.01007C20.773 5.82365 20.5041 5.85918 20.4165 5.67988C20.1526 5.62662 19.9587 5.52745 19.8038 5.76202C19.6654 5.76202 19.5176 5.91928 19.3755 5.94768C19.1482 5.99363 19.0183 6.19573 18.8037 6.25788C18.7339 6.27845 18.4162 6.45119 18.4162 6.46429C18.2722 6.46429 18.1482 6.56833 17.967 6.62939C17.967 6.74165 17.5323 6.82193 17.4367 6.91904C17.27 7.08715 17.0263 7.17589 16.8244 7.29054C16.687 7.29054 16.4555 7.49896 16.3755 7.62112C16.1338 7.68146 16 7.86879 15.7634 7.86879C15.7634 7.90331 15.4591 8.03408 15.3962 8.03408C15.2501 8.19654 14.9398 8.41787 14.8653 8.57101C14.3807 8.73443 13.9495 9.17374 13.6406 9.56274C13.373 9.63001 13.1924 9.86047 12.996 10.0749C12.7894 10.3005 12.5871 10.4378 12.3758 10.6778C12.2349 10.8384 12.0396 11.1325 11.8452 11.1325C11.7021 11.3057 11.1919 11.6693 11.1919 11.8759C11.0262 12.0066 10.743 12.1728 10.743 12.3717C10.6133 12.4885 10.3315 12.8676 10.1717 12.8676C10.1251 12.9629 10.0495 12.924 10.0495 12.9918C9.90022 13.0917 9.94728 13.2073 9.80428 13.2807C9.80428 13.5054 9.56308 13.5512 9.45736 13.6941C9.31196 13.8893 8.90655 14.1249 8.90655 14.3547C8.85341 14.3547 8.76852 14.6143 8.7021 14.6643C8.54432 14.7839 8.38895 15.0407 8.33524 15.2639C8.15493 15.4002 7.94608 15.8419 7.72297 15.8419Z" fill="#7B7B7B"/>
<path fill-rule="evenodd" clip-rule="evenodd" d="M66.4541 12.5782C66.4068 12.7534 66.1995 12.9532 66.0455 13.0326C65.951 13.3193 65.8707 13.4513 65.8414 13.7759C65.6883 14.3073 65.5117 14.8225 66.0048 15.2219C66.0048 15.3102 66.3275 15.4342 66.4267 15.4419C66.7186 15.4652 66.8873 15.511 67.1886 15.511C67.1886 15.5707 68.6984 15.5291 68.6984 15.4282C68.7712 15.4282 69.1066 15.3532 69.1066 15.3046C69.3928 15.2626 69.5681 15.2219 69.8822 15.2219C69.971 15.2219 70.8615 15.1459 70.8615 15.0566C71.1926 15.017 72.3306 14.8082 72.4941 14.7677C72.6533 14.4481 73.3137 14.3954 73.6642 14.3954C74.0685 14.3954 74.4687 14.2783 74.8806 14.288C75.155 14.2951 75.7186 14.4421 75.7186 14.7677C75.8589 14.8619 75.9907 15.0566 76.045 15.2219C76.1173 15.441 76.2534 15.5642 76.3308 15.8005C76.3729 15.8005 76.704 16.5802 76.7187 16.668C76.782 17.0509 76.9771 17.1534 77.0111 17.6037C77.03 17.8531 77.1145 17.9838 77.1471 18.2789C77.1599 18.2789 77.3228 19.1473 77.3512 19.2701C77.465 19.2701 77.6975 20.323 77.7022 20.5283C77.7102 20.8815 77.3724 21.1704 77.1065 21.1704C76.9534 21.4026 76.6842 21.41 76.4125 21.4596C76.4125 21.5031 76.1452 21.6295 76.0653 21.6454C75.8339 21.6921 75.5561 21.7313 75.2698 21.749C74.9675 21.8396 74.6359 21.9554 74.3208 21.9554C73.7846 21.9554 73.3259 22.0796 72.8413 22.0796C72.6306 22.0796 72.3552 22.0815 72.0859 22.0538C71.8308 22.0288 71.5956 22.1207 71.2696 22.1207C71.0896 22.1207 69.637 22.1904 69.637 22.2449C69.0655 22.286 68.8033 22.4513 68.2907 22.4513C68.2907 22.5222 67.4603 22.6726 67.3105 22.6851C67.088 22.7034 66.8561 22.7819 66.6374 22.7819C66.3497 22.7819 66.0327 22.772 65.746 22.8024C65.575 22.8202 65.4564 22.9051 65.2698 22.9051C65.0279 22.9051 64.8758 22.9882 64.6987 22.9882C64.6987 23.1124 64.3311 23.0498 64.3311 23.1946C64.1805 23.1946 63.9976 23.3229 63.8824 23.4424C63.8824 23.5775 63.6306 23.8604 63.5149 23.9383C63.3637 24.113 63.4331 24.3068 63.3798 24.5076C63.2366 25.0511 63.41 25.2425 63.7189 25.6319C63.8663 25.6319 64.0118 25.8383 64.1677 25.8383C64.1677 25.8728 64.4724 26.0036 64.5352 26.0036C64.5352 26.139 65.2282 26.3342 65.4332 26.3758C65.4332 26.4696 66.5759 26.4746 66.5759 26.6648C66.7866 26.6648 66.9246 26.7473 67.1886 26.7473C67.1886 26.9813 67.8594 26.7385 67.9638 26.7058C68.381 26.6825 68.7702 26.582 69.1066 26.582C69.1066 26.4839 69.7003 26.3911 69.8411 26.3758C69.8411 26.2264 70.4288 25.998 70.5351 25.8383C70.6721 25.8383 70.7642 25.7141 70.9229 25.7141C71.1213 25.7141 71.2607 25.6721 71.4194 25.687C71.6603 25.7094 71.6938 25.7365 71.8752 25.8719C71.9503 25.928 72.1676 26.1394 72.1676 26.1689C72.3401 26.3252 72.8389 27.1349 72.9636 27.2428C73.1304 27.387 73.6462 28.3158 73.6779 28.7304C73.6642 28.7304 73.856 29.6157 73.8626 29.7446C73.8668 29.8336 73.8083 30.1343 73.7596 30.1343C73.7596 30.3249 73.7185 30.5542 73.7185 30.7961C73.651 30.7961 73.5966 31.5814 73.5966 31.7041C73.5163 31.7041 73.3926 32.5264 73.3926 32.6544C73.1894 32.7562 73.3075 33.0064 73.1068 33.1086C73.1068 33.5849 72.0363 34.2699 72.0363 34.0822C72.5701 34.0822 69.1066 35.1285 69.1066 34.9268C68.8855 34.9965 68.6582 34.8685 68.4537 34.8032C68.1764 34.7752 68.0092 34.7163 67.7461 34.6924C67.3932 34.6603 66.9699 34.3895 66.617 34.3895C66.617 34.3736 65.8834 34.17 65.8008 34.142C65.472 34.0309 65.1701 33.8529 64.821 33.8529C64.821 33.7361 64.4946 33.8068 64.4946 33.6872C64.2272 33.6428 64.0156 33.5681 63.7189 33.5223C63.7189 33.2819 62.6579 33.4257 62.6579 33.1503C62.5639 33.1503 61.8421 32.8714 61.8421 32.7786C61.656 32.731 61.4552 32.6055 61.3518 32.4475C61.1373 32.4475 61.0362 32.1175 60.8213 32.1175C60.7759 32.0268 60.4675 31.8285 60.3725 31.8285C60.3012 31.7215 60.0442 31.4983 59.9233 31.4983C59.7938 31.3409 59.7192 31.2957 59.7192 31.0846C59.6951 31.0846 59.6351 30.9315 59.5557 30.8782C59.5557 30.8624 59.1977 30.7329 59.1481 30.6302C59.0451 30.5439 58.9034 30.4851 58.9034 30.3413C58.7716 30.274 58.8717 30.2417 58.7399 30.176C58.7399 29.9481 58.3724 29.8622 58.3724 29.6385C58.2694 29.5877 58.2104 29.4386 58.1886 29.329C58.1438 29.1015 58.1277 29.3691 58.1277 29.0604C58.1187 29.0604 58.0049 28.8285 58.0049 28.7715C57.8122 28.6701 57.7375 27.9871 57.6378 27.9871C57.6378 27.663 57.3927 27.3128 57.3927 26.9953C57.2382 26.9953 57.3861 25.4256 57.1886 25.4256C57.1886 25.1995 57.1073 25.1262 57.1073 24.8469C57.0313 24.8469 57.0662 23.9576 57.0662 23.8249C57.0662 23.6629 57.2514 22.6988 57.1886 22.6988C57.1886 22.4102 57.2297 22.0809 57.2297 21.8521C57.2297 21.6793 57.3525 21.5725 57.3525 21.3774C57.3525 20.5559 57.7262 19.979 57.8688 19.2566C57.9496 18.8495 58.2094 18.5814 58.2094 18.1547C58.3044 18.1065 58.4135 17.8857 58.4135 17.783C58.4518 17.783 58.5765 17.5411 58.5765 17.4522C58.6573 17.4117 58.722 17.1633 58.7806 17.1633C58.7806 17.0918 58.9591 16.7091 59.0257 16.7091C59.1325 16.2823 59.3621 16.0283 59.4334 15.5937C59.5477 15.5937 59.5378 14.6432 59.6781 14.6432C59.8264 14.1457 59.4948 13.6269 59.1481 13.363C59.1481 13.3015 59.0772 13.1151 59.0257 13.1151C59.0257 12.8729 58.8141 12.933 58.7395 12.7459C58.6625 12.5514 58.3724 12.3752 58.3724 12.2061C58.2822 12.2061 58.3313 11.9447 58.3313 11.8755C58.1631 11.7392 58.0757 11.6232 57.9643 11.4348C57.7489 11.0717 57.8013 10.35 57.8013 9.98917C57.8013 9.55962 57.7281 9.14404 57.8145 8.65845C57.8618 8.39233 57.8825 8.09441 57.8825 7.86844C57.8986 7.86844 58.1277 7.4028 58.1277 7.33146C58.3006 7.21513 58.4518 6.75341 58.6988 6.75341C58.7503 6.64975 58.8864 6.57172 58.9846 6.50502C58.9846 6.36962 59.1481 6.29904 59.2407 6.20375C59.4891 5.94939 59.748 5.71779 60.0867 5.59639C60.424 5.47595 60.8081 5.56001 61.1572 5.54222C61.6872 5.51611 61.9758 5.13863 62.4539 4.97727C62.9551 4.80729 63.1856 4.64798 63.8417 4.56359C63.8417 4.49632 64.2645 4.39812 64.3585 4.39812C64.6812 4.39812 64.7681 4.4039 65.1276 4.42929C65.3595 4.44631 65.4809 4.32357 65.6916 4.30191C65.9874 4.27203 68.5505 3.65496 68.6167 3.65496C68.6167 3.49006 69.7003 3.34437 69.8822 3.28327C70.1019 3.20897 70.117 3.1591 70.4127 3.1591C70.6106 3.1591 70.7708 3.07672 70.964 3.07672C71.2725 3.07672 71.9258 2.8214 72.0047 2.80777C72.2064 2.77435 72.2668 2.70148 72.5352 2.68824C72.8767 2.67107 73.0595 2.61408 73.3784 2.5394C73.4492 2.52314 73.882 2.39242 73.882 2.37411C74.3336 2.37411 74.6784 2.25047 75.1069 2.25047C75.1069 2.31865 76.4159 2.16661 76.618 2.14495C76.7654 2.12907 77.8 2.04129 77.8 2.25047C78.0517 2.31396 78.1136 2.51659 78.3716 2.58104C78.5355 2.7874 78.6677 3.02929 78.861 3.1591C78.9115 3.36302 79.1038 3.62637 79.2696 3.73749C79.2696 3.80528 79.451 4.10971 79.5143 4.10971C79.5355 4.19658 79.6683 4.48121 79.7183 4.48121C79.7731 4.74566 79.9224 5.1349 79.9224 5.34892C80.1057 5.34892 80.221 6.09226 80.3717 6.09226C80.4274 6.33132 80.5757 6.68618 80.5757 6.87705C80.6315 6.87705 80.8044 7.2661 80.8209 7.33146C81.0061 7.42766 80.9754 7.70689 80.9636 7.88934C80.9503 8.08791 80.99 8.16541 80.8209 8.28212C80.7538 8.4814 80.6575 8.36431 80.6575 8.58468C80.6575 8.92013 80.5738 8.98473 80.2895 9.16967C80.0755 9.30933 79.8251 9.43804 79.6366 9.43804C79.6366 9.55905 78.9554 9.6235 78.8 9.63469C78.5303 9.65391 78.3668 9.81045 78.0655 9.81045C77.9209 9.81045 76.8613 9.99759 76.8613 10.0166C76.5892 10.0166 76.337 10.2236 76.0181 10.2236C75.7153 10.2236 75.5263 10.3472 75.2902 10.3472C74.9344 10.3472 74.5173 10.471 74.1678 10.471C73.8215 10.471 73.6368 10.5952 73.3241 10.5952C72.9551 10.5952 72.8025 10.7605 72.4945 10.7605C72.2569 10.7605 72.093 10.9258 71.8818 10.9258C71.8818 11.1401 71.1227 11.1552 70.9356 11.1655C70.8062 11.1723 70.1274 11.2964 70.1274 11.3797C69.8128 11.3797 69.6909 11.5453 69.3923 11.5453C69.3923 11.6748 68.9436 11.6391 68.9436 11.7517C68.8486 11.7586 68.372 11.7523 68.372 11.8343C68.2463 11.8343 68.1882 11.917 68.0456 11.917C68.0456 12.0468 67.397 12.0702 67.2293 12.0819C67.2293 12.1271 66.5901 12.5386 66.4541 12.5782Z" fill="#7B7B7B"/>
<path fill-rule="evenodd" clip-rule="evenodd" d="M85.7189 23.6492C85.6381 23.947 85.3466 23.9962 85.2408 24.2418C85.1227 24.5154 85.1019 24.8814 85.1445 25.1732C85.1917 25.5006 85.4567 25.593 85.5965 25.8801C85.734 25.9264 86.3311 26.1393 86.3311 26.2109C86.4355 26.2109 87.1063 26.3209 87.1063 26.417C87.3623 26.417 87.7114 26.5823 87.9231 26.5823C87.9231 26.8285 90.3719 26.8168 90.3719 26.6651C90.4215 26.6623 90.6795 26.7211 90.7796 26.7267C90.8462 26.7299 91.1471 26.7986 91.1471 26.7062C91.3852 26.7062 91.1675 26.6651 91.3512 26.6651C91.3512 26.4759 92.1661 26.4587 92.3305 26.4587C92.3305 26.2878 92.9668 26.369 93.0655 26.1692C93.2025 26.1692 93.4288 25.9139 93.5143 25.7975C93.707 25.7975 93.7689 25.5081 93.9635 25.5081C94.0112 25.4128 94.2819 25.2606 94.3712 25.2606C94.3712 25.2565 94.7491 25.1321 94.828 25.1177C95.2617 25.0383 95.3439 25.4231 95.7185 25.5495C95.7185 25.6472 95.8059 25.8162 95.8762 25.923C95.9882 26.0945 96.1535 26.2028 96.2962 26.3457C96.411 26.4609 96.4124 26.4957 96.4124 26.6651C96.4124 26.8948 96.5097 26.8373 96.5754 27.0367C96.633 27.2114 96.7913 27.3599 96.8021 27.5093C96.8135 27.6593 97.147 28.036 97.147 28.2759C97.4101 28.4095 97.4734 29.6715 97.4734 29.9288C97.5315 30.2762 97.4068 30.5106 97.3714 30.7964C97.3388 31.0606 97.2873 31.3492 97.2693 31.6636C97.2448 31.6636 97.1347 32.015 97.1196 32.0907C97.0553 32.4185 96.8872 32.9059 96.5348 33.0273C96.393 33.4494 95.9972 33.574 95.5796 33.6627C95.4577 33.6889 94.6981 33.8958 94.6981 34.0181C94.4784 34.0732 94.315 34.1732 94.0471 34.1866C93.7609 34.2021 91.6932 34.5075 91.4537 34.5346C91.1604 34.5672 89.9137 34.8748 89.7597 34.6787C89.6223 34.6787 89.6926 34.5965 89.5557 34.5965C89.5557 34.5168 89.1494 34.5812 89.0658 34.5863C88.8423 34.6003 88.7668 34.6503 88.5112 34.5355C88.2878 34.4359 88.2164 34.4309 87.9868 34.5047C87.7464 34.5822 87.1639 34.3836 87.0657 34.1834C86.9306 34.1834 86.829 34.0938 86.6301 34.0732C86.4355 34.0542 86.2376 33.9886 86.0453 33.9565C85.9787 33.9453 85.6376 33.7701 85.6376 33.7286C85.4903 33.7202 84.7802 33.7165 84.7802 33.6048C84.614 33.5811 83.8822 33.4195 83.8822 33.3159C83.6659 33.2651 83.3191 33.2505 83.2289 33.0684C83.0537 33.0684 82.9077 32.7145 82.6984 32.6547C82.6502 32.453 82.4948 32.4493 82.4948 32.242C82.4457 32.242 82.372 31.9805 82.372 31.9118C82.3555 31.9118 82.0871 31.569 82.0049 31.4987C82.0049 31.3178 81.8415 31.1942 81.8415 31.0027C81.6464 31.0027 81.5066 30.1763 81.3516 30.1763C81.3086 30.003 81.1811 29.7972 81.0658 29.6804C80.9421 29.5547 80.5353 29.4651 80.5353 29.226C80.4432 29.1557 80.3724 29.142 80.3724 29.0199C80.2118 28.9113 80.3124 28.8447 80.1678 28.7718C80.1678 28.7012 80.0086 28.4412 79.9637 28.4412C79.9637 28.2997 79.7096 27.3673 79.6373 27.3673C79.6373 27.2482 79.4885 26.0865 79.4739 26.0865C79.3775 25.7667 79.3785 25.3064 79.4243 24.9771C79.4876 24.5223 79.5575 24.1073 79.5764 23.6081C79.6038 22.8765 79.9042 22.2293 79.9637 21.5013C79.9803 21.3024 80.0715 20.5101 80.2089 20.5101C80.2089 20.343 80.3294 19.4357 80.4536 19.4357C80.4536 19.2663 80.4947 19.0033 80.4947 18.7751C80.5358 18.7751 80.6171 18.4333 80.6171 18.3614C80.6624 18.3614 80.8216 17.4453 80.8216 17.3155C80.8216 17.1469 80.8972 16.0897 81.0247 16.0897C81.0635 15.9368 81.3044 15.0986 81.3516 15.0986C81.3516 14.7427 81.6781 14.3931 81.8009 14.0241C81.8689 14.0241 81.9516 13.554 82.0867 13.4871C82.0867 13.3149 82.2175 13.184 82.2501 12.9918C82.346 12.9918 82.424 12.593 82.5354 12.537C82.5354 12.3885 82.7211 12.1788 82.7801 12.0001C82.8364 12.0001 83.1066 11.1727 83.1066 11.0909C83.1359 11.0909 83.3513 10.5451 83.3513 10.4714C83.4349 10.4714 83.7193 9.42359 83.7193 9.31453C83.7703 9.31453 83.8293 7.9612 83.8237 7.79218C83.8142 7.49522 83.8142 7.21977 83.8619 6.98071C83.8893 6.84152 83.9635 6.88489 83.9635 6.75374C84.0896 6.65199 84.1194 6.55484 84.2091 6.46428C84.3405 6.33055 84.5228 6.27284 84.6579 6.11315C84.8015 5.94355 84.9914 5.82814 85.1879 5.76201C85.4794 5.66395 86.6164 5.14661 86.6164 5.10086C86.881 5.10086 86.5843 5.05979 86.9027 5.05979C86.9027 4.93275 87.0468 5.0682 87.1063 5.05979C87.1063 4.97592 87.5144 4.9961 87.5144 4.85338C87.6165 4.85338 88.1271 4.7656 88.1271 4.68809C88.5627 4.68809 89.0412 4.55364 89.4942 4.50229C89.7654 4.47145 89.8585 4.4005 90.1674 4.42665C90.4154 4.44716 90.6422 4.33046 90.9431 4.2748C90.9431 4.15283 92.0452 4.25109 92.0452 4.06806C92.2247 4.06806 93.2285 4.01479 93.2285 3.86165C93.6532 3.80021 94.1246 3.7524 94.5347 3.61417C94.6083 3.58898 94.8204 3.49502 94.8204 3.44888C94.9461 3.43301 95.4327 3.36674 95.4327 3.2836C95.6056 3.2836 96.6571 3.34432 96.6571 3.11831C96.8456 3.11831 96.932 3.03559 97.1876 3.03559C97.1876 3.02025 97.6553 2.91195 97.7181 2.91195C97.925 2.91195 98.054 2.82885 98.31 2.82885C98.6128 2.82885 98.8849 2.76999 99.1797 2.69847C99.3842 2.64956 101.065 2.71716 101.065 2.78773C101.404 2.78773 101.663 3.03559 102.045 3.03559C102.045 3.13643 102.126 3.01728 102.126 3.11831C102.311 3.11831 102.391 3.23784 102.528 3.3546C102.659 3.46423 103.195 4.02694 103.27 4.02694C103.387 4.51329 103.562 5.0508 104.004 5.34925C104.004 5.44081 104.14 5.65185 104.208 5.72094C104.282 5.79601 104.298 5.9109 104.33 6.01044C104.41 6.04965 104.494 6.1677 104.494 6.25787C104.525 6.25787 104.864 6.94427 104.879 7.02455C104.973 7.55685 104.689 8.96789 104.371 9.23215C104.229 9.31621 104.095 9.38907 103.925 9.40586C103.398 9.45797 103.004 9.57526 102.412 9.50057C102.151 9.46749 100.321 9.85223 100.188 9.85223C100.009 9.85223 99.7787 9.93442 99.5959 9.93442C99.5959 9.9796 99.328 10.0586 99.2694 10.0586C99.2694 10.1623 98.7753 10.1412 98.6572 10.1412C98.6572 10.0715 98.2585 10.2239 98.147 10.2239C97.1394 10.2239 96.2149 10.4301 95.2286 10.4301C94.6995 10.4301 92.6574 10.7282 92.6574 10.8019C92.5634 10.8019 92.2081 10.9317 92.2081 11.0087C92.0381 11.0087 91.945 11.103 91.732 11.1465C91.5449 11.1842 91.441 11.422 91.2695 11.422C91.2123 11.5384 90.9313 11.7109 90.8207 11.7109C90.7612 11.829 90.6757 11.8105 90.5963 11.9174C90.4985 12.0485 90.3658 12.1243 90.2491 12.2888C90.1135 12.3997 89.977 12.5094 89.841 12.6196C89.7838 12.8013 89.7267 12.9834 89.6695 13.1645C89.5925 13.412 89.4848 13.7538 89.2699 13.9004C89.2699 13.9994 89.0696 14.2691 88.9841 14.3338C88.7181 14.5358 88.78 14.8225 88.78 15.0569C89.0294 15.182 89.0696 15.4067 89.3837 15.4405C89.6553 15.4702 89.7989 15.3875 90.045 15.3875C90.045 15.3049 91.2695 15.3356 91.2695 15.1807C91.5123 15.1807 93.3919 14.8808 93.3919 14.768C93.7552 14.768 94.101 14.6083 94.4529 14.5199C94.4529 14.3963 95.1469 14.3029 95.1469 14.1894C95.4086 14.1647 95.6613 14.1927 95.8002 13.983C95.889 13.983 96.171 13.8102 96.2083 13.7351C96.3236 13.6959 96.9434 13.5493 96.9434 13.4456C97.0705 13.4456 97.2925 13.292 97.4829 13.2757C97.6638 13.2602 97.753 13.3633 97.9222 13.3633C97.9222 13.3775 98.2283 13.5699 98.2897 13.5699C98.3558 13.7053 98.4923 13.6968 98.6303 13.7351C98.84 13.793 98.7262 13.7743 98.8816 13.9004C99.0148 14.008 99.0299 14.1115 99.1669 14.231C99.259 14.3104 99.4324 14.4861 99.4324 14.6027C99.6705 14.7627 99.9634 15.3694 99.9634 15.6355C100.169 15.6355 100.304 16.4614 100.412 16.4614C100.412 16.5787 100.495 16.7724 100.617 16.8333C100.617 16.8906 100.76 17.2053 100.78 17.2053C100.78 17.4042 100.861 17.5928 100.861 17.7833C100.861 18.0065 100.861 18.1838 100.861 18.4445C100.68 18.4445 100.939 19.7248 100.78 19.7248C100.78 19.9284 100.598 20.3518 100.372 20.4685C100.372 20.7483 99.7607 20.9229 99.5552 20.9229C99.5552 21.0381 99.2283 20.9687 99.2283 21.0882C98.9581 21.1568 98.7744 21.2535 98.4735 21.274C98.0332 21.3039 97.8688 21.5517 97.4323 21.6252C97.4323 21.642 96.9576 21.7326 96.8612 21.7493C96.8612 21.8773 96.4941 21.8707 96.4941 21.9557C96.154 21.9834 95.1804 22.1621 95.1067 22.1621C95.1067 22.325 91.7466 22.658 91.5959 22.658C91.5959 22.7271 91.2709 22.7822 91.1882 22.7822C91.1882 22.7803 89.8008 22.9988 89.8008 22.8233C89.7276 22.8233 89.6865 22.911 89.5627 22.9335C89.4059 22.9609 89.2495 22.9885 89.0932 23.016C88.7502 23.0763 88.4328 23.0506 88.086 23.0297C88.086 23.1843 87.0246 23.1576 87.0246 23.3191C86.8243 23.3191 86.6949 23.4013 86.4946 23.4013C86.3311 23.4013 86.1677 23.4013 86.0042 23.4013C86.0042 23.4994 85.8058 23.6245 85.7189 23.6492Z" fill="#7B7B7B"/>
<path fill-rule="evenodd" clip-rule="evenodd" d="M147.677 11.5039C147.677 11.5601 147.327 11.7936 147.269 11.7936C147.202 11.9327 146.887 12.0858 146.738 12.1234C146.697 12.2063 146.504 12.3305 146.412 12.3305C146.354 12.4461 146.206 12.4958 146.085 12.4958C146.085 12.5537 145.676 12.7229 145.595 12.7432C145.427 13.0029 145.079 13.0925 144.779 13.1878C144.447 13.2923 144.151 13.4455 143.8 13.4455C143.8 13.5847 143.221 13.5736 143.114 13.5753C142.827 13.5781 142.61 13.5762 142.371 13.4044C142.291 13.2843 142.249 13.3105 142.249 13.198C142.089 13.0887 142.189 13.0238 142.045 12.95C142.018 12.7983 141.947 12.1234 141.84 12.1234C141.84 11.9747 141.69 11.0492 141.596 11.0492C141.596 10.9507 141.567 10.4712 141.514 10.4712C141.524 10.2854 141.535 10.0994 141.545 9.9137C141.555 9.71949 141.472 9.63132 141.476 9.41205C141.482 9.09754 141.5 8.74062 141.857 8.67545C142.17 8.61755 142.46 8.61229 142.779 8.61229C143.019 8.57084 143.105 8.61229 143.351 8.61229C143.351 8.71074 143.8 8.67918 143.8 8.77758C144.104 8.77758 144.288 8.81927 144.575 8.81927C144.765 8.81927 144.926 8.90141 145.106 8.90141C145.342 8.90141 145.671 8.96773 145.963 8.98418C145.963 8.98676 146.37 9.11977 146.432 9.12871C146.737 9.17299 146.961 9.3562 147.229 9.3562C147.229 9.56256 148.062 9.54244 148.239 9.82219C148.315 9.94081 148.47 10.554 148.248 10.554C148.125 10.9307 148.022 11.2183 147.677 11.5039ZM179.92 5.18379C180.161 5.18379 180.409 7.16634 180.288 7.16634C180.288 7.24107 180.3 8.01334 180.282 8.28229C180.264 8.56581 180.202 8.86876 180.043 9.10782C179.961 9.17485 179.553 9.49348 179.553 9.47966C179.455 9.47966 178.86 9.82501 178.86 9.85207C178.489 9.85207 178.127 10.0994 177.717 10.0994C177.717 10.1145 176.608 10.2256 176.467 10.2733C175.825 10.4903 175.166 10.5713 174.533 10.6365C174.533 10.7975 173.512 10.6976 173.512 10.8433C173.093 10.8433 172.697 11.081 172.186 11.1116C172.008 11.1221 171.104 11.2613 171.104 11.3798C170.85 11.3976 170.573 11.463 170.37 11.463C170.37 11.5507 169.923 11.5984 169.799 11.6077C169.324 11.6413 169.102 11.7926 168.574 11.8757C168.574 11.9551 167.718 12.1234 167.595 12.1234C167.595 12.309 166.405 12.4 166.178 12.4302C165.979 12.4575 165.825 12.6194 165.635 12.6194C165.635 12.7143 165.105 12.7432 164.983 12.7432C164.983 12.8118 164.043 12.9229 164.043 13.0736C163.962 13.0736 163.635 13.1326 163.635 13.198C163.47 13.198 163.399 13.4044 163.228 13.4044C163.133 13.599 162.86 13.6958 162.86 13.9003C162.719 13.9946 162.588 14.1898 162.533 14.3545C162.507 14.4329 162.365 14.6847 162.33 14.6847C162.271 14.8631 162.215 14.8154 162.167 15.0153C162.086 15.0562 161.962 15.2077 161.962 15.3048C161.847 15.3825 161.595 15.6652 161.595 15.8006C161.48 15.8585 161.394 16.2545 161.35 16.2545C161.364 16.4061 161.377 16.558 161.391 16.7093C161.514 16.7503 161.636 16.7918 161.758 16.8331C161.899 17.0118 162.061 17.1635 162.248 17.1635C162.248 17.3518 163.423 17.1612 163.609 17.165C164.239 17.1771 164.822 17.1237 165.436 16.986C165.739 16.9179 166.017 16.9157 166.33 16.9157C166.33 16.812 166.824 16.8331 166.942 16.8331C166.942 16.7821 168.207 16.7587 168.207 16.585C168.335 16.5654 168.86 16.518 168.86 16.4198C169.092 16.3608 169.315 16.2134 169.554 16.2134C169.554 16.1859 170.253 15.8408 170.391 15.8212C170.535 15.8001 170.755 15.7231 170.82 15.5939C170.894 15.5939 171.089 15.4859 171.145 15.429C171.246 15.3276 171.443 15.2198 171.594 15.1805C171.678 15.053 172.084 14.8995 172.084 14.8089C172.469 14.8089 172.745 14.9546 173.097 15.1062C173.285 15.1881 173.676 15.4364 173.676 15.6765C173.805 15.6765 173.833 16.1721 173.961 16.1721C174.089 16.558 174.245 16.8727 174.329 17.2051C174.382 17.2051 174.615 17.9546 174.635 18.0727C174.65 18.1605 174.937 18.8985 174.942 18.8985C174.942 19.0422 175.111 20.51 174.942 20.51C174.942 20.6323 174.788 21.088 174.696 21.088C174.696 21.1521 174.568 21.4597 174.533 21.4597C174.533 21.6446 174.428 21.823 174.288 22.0107C174.196 22.1339 173.635 22.3795 173.635 22.4515C173.584 22.4515 173.268 22.6266 173.268 22.6578C173.075 22.6578 172.951 22.782 172.758 22.782C172.693 22.782 172.247 22.8866 172.247 22.9467C171.944 22.9467 171.674 22.989 171.373 23.0239C170.692 23.1033 168.754 23.466 168.423 23.4544C168.062 23.4422 161.656 24.434 161.156 24.434C160.594 24.434 160.29 24.5619 159.685 24.5909C159.309 24.609 159.073 24.8308 158.739 24.9439C158.597 24.9915 158.441 24.9961 158.37 25.1362C158.227 25.1362 158.27 25.2604 158.126 25.2604C157.994 25.4154 157.858 25.6312 157.718 25.7563C157.69 26.0047 157.718 26.1774 157.718 26.4169C157.799 26.4169 158.024 26.8984 158.126 26.975C158.238 27.0599 158.409 27.2402 158.493 27.3672C158.669 27.3672 158.924 27.5468 159.024 27.6977C159.143 27.6977 159.402 27.9213 159.472 28.0283C159.649 28.0283 159.691 28.1936 159.88 28.1936C159.88 28.2898 160.914 28.3981 161.108 28.4093C161.728 28.4458 162.364 28.3328 162.955 28.1464C163.061 28.1124 163.635 28.0666 163.635 27.9872C163.718 27.9662 164.085 27.8565 164.085 27.7799C164.338 27.7183 164.371 27.6152 164.656 27.5736C164.656 27.469 165.023 27.5128 165.023 27.4086C165.098 27.4086 165.391 27.3414 165.391 27.2844C165.683 27.2517 165.793 27.2635 165.962 27.0366C166.22 27.0366 166.462 26.7475 166.737 26.7475C166.737 26.7303 167.413 26.4585 167.513 26.4585C167.513 26.395 168.503 26.2372 168.656 26.2242C168.966 26.198 169.221 26.5603 169.452 26.7475C169.589 26.8586 169.649 27.0861 169.799 27.1608C169.829 27.285 169.96 27.7799 170.043 27.7799C170.128 28.1665 170.33 28.3742 170.33 28.6895C170.507 28.6895 170.452 30.2163 170.452 30.4651C170.592 30.4651 170.452 31.6342 170.452 31.7043C170.394 31.7043 170.357 32.4893 170.316 32.6135C170.241 32.8398 170.11 33.2214 169.921 33.3157C169.921 33.5384 169.417 33.8626 169.268 34.0385C169.18 34.1407 168.938 34.3075 168.819 34.3075C168.819 34.3401 168.586 34.4311 168.533 34.4311C168.46 34.5839 168.123 34.7212 167.962 34.7613C167.856 34.9751 167.292 35.133 167.105 35.133C167.105 35.2665 166.324 35.344 166.207 35.5878C166.017 35.5878 165.645 35.7979 165.417 35.8772C165.068 35.9996 164.779 36.0014 164.411 36.0014C164.411 36.1098 164.085 35.9996 164.085 36.1251C163.835 36.2026 162.636 36.0453 162.411 36.0354C162.082 36.0214 161.753 36.0127 161.423 35.9972C161.122 35.9831 160.832 35.8772 160.534 35.8772C160.423 35.8772 159.84 35.8922 159.84 35.7945C159.507 35.7945 159.191 35.612 158.881 35.5672C158.705 35.542 157.839 35.4378 157.839 35.2992C157.698 35.2992 157.581 35.2067 157.39 35.175C157.39 35.1427 157.075 34.9686 157.024 34.9686C156.941 34.7996 156.412 34.7651 156.412 34.6377C156.341 34.6377 155.963 34.4158 155.963 34.3896C155.762 34.3401 155.549 34.2356 155.432 34.06C155.227 34.06 155.152 33.7285 154.942 33.7285C154.782 33.5346 154.464 33.3839 154.371 33.1915C153.98 33.1915 153.805 32.5201 153.567 32.3109C153.377 32.1422 153.292 31.8412 153.105 31.7459C153.105 31.6218 153.021 31.6119 152.983 31.4568C152.834 31.3784 152.93 31.2435 152.779 31.1679C152.736 30.9924 152.575 30.8906 152.575 30.7131C152.53 30.7131 152.371 30.4152 152.371 30.3414C152.206 30.3414 152.044 29.0858 152.044 28.9164C152.044 28.5793 151.917 28.1039 151.85 27.6772C151.807 27.4008 151.78 27.1061 151.84 26.8296C151.791 26.4399 151.776 26.042 151.848 25.6526C151.905 25.3491 151.881 25.0326 151.881 24.7235C151.934 24.7235 151.962 24.2435 151.962 24.1449C152.032 24.1449 152.178 23.2368 152.188 23.0915C152.211 22.6765 152.452 22.3211 152.452 21.9556C152.424 21.9556 152.779 20.9461 152.779 20.8817C152.94 20.8817 152.959 20.0552 153.065 20.0552C153.065 19.9786 153.138 19.6008 153.188 19.6008C153.188 19.4191 153.197 19.1429 153.351 19.0638C153.39 18.8687 153.473 18.8197 153.473 18.6507C153.507 18.6507 153.636 18.3425 153.636 18.279C153.792 18.279 153.869 17.5357 154.003 17.5357C154.065 17.1551 154.178 16.9651 154.29 16.6265C154.335 16.4852 154.453 16.3501 154.453 16.2134C154.547 16.2134 154.635 15.3561 154.656 15.222C154.505 15.222 154.439 15.2112 154.371 15.4701C154.18 15.516 154.046 15.6765 153.881 15.6765C153.881 15.7151 153.554 15.8482 153.473 15.8623C153.274 15.8959 149.83 18.6586 149.738 18.7333C149.578 18.8627 149.515 18.9402 149.31 18.9402C149.31 19.0383 148.72 19.2287 148.616 19.2287C148.616 19.3455 148.208 19.2726 148.208 19.394C148.072 19.408 147.936 19.422 147.799 19.4355C147.764 19.508 147.68 19.5706 147.606 19.6092C147.496 19.6671 147.346 19.8152 147.269 19.9314C147.229 19.9314 146.82 20.1191 146.82 20.1383C146.683 20.1383 145.922 20.3242 145.922 20.4269C145.831 20.4403 145.351 20.5221 145.351 20.5922C145.185 20.6342 145.012 20.7575 144.861 20.7575C144.861 20.8807 144.249 20.9545 144.249 21.088C143.727 21.2203 143.123 21.4093 142.536 21.4821C142.322 21.5092 142.301 21.5858 142.167 21.7492C142.075 21.7492 142.112 21.8996 142.004 21.9556C141.938 22.2236 141.807 22.3538 141.786 22.6304C141.746 23.1499 141.659 23.5584 141.596 24.0623C141.443 24.0623 141.392 24.8331 141.392 25.012C141.342 25.012 141.355 26.6233 141.187 26.6233C141.187 26.7867 141.101 27.6977 140.943 27.6977C140.943 27.8724 140.892 29.4328 140.861 29.4328C140.861 29.5919 140.677 30.9195 140.779 30.9195C140.833 31.1134 140.793 31.3593 140.755 31.5526C140.716 31.7478 140.738 31.8757 140.738 32.1456C140.738 32.2306 140.493 33.8985 140.504 34.1085C140.516 34.2991 140.453 34.4115 140.453 34.5549C140.425 34.5549 140.313 34.7706 140.248 34.8239C140.106 34.9447 139.939 35.0265 139.841 35.175C139.707 35.175 139.569 35.3397 139.433 35.3397C139.433 35.4486 139.07 35.4636 138.984 35.4636C138.984 35.5807 137.753 35.6294 137.545 35.6294C137.325 35.6294 137.215 35.5414 136.983 35.4636C136.983 35.4187 136.727 35.2566 136.658 35.2566C136.589 35.1227 136.392 35.0719 136.29 34.9686C136.17 34.8476 135.936 34.8715 135.841 34.6786C135.644 34.6786 134.984 34.0161 134.984 33.8116C134.838 33.7378 134.855 32.804 134.658 32.7377C134.63 32.5307 134.603 32.324 134.575 32.1176C134.428 32.1176 134.647 30.3527 134.617 30.2589C134.518 29.9511 134.739 28.9411 134.739 28.6581C134.739 28.4607 134.652 28.3253 134.671 28.1385C134.692 27.9241 134.78 27.8341 134.78 27.6772C134.78 27.4736 134.703 25.7974 134.902 25.7974C134.902 25.5942 134.984 25.4818 134.984 25.2188C135.012 25.2188 135.116 23.7304 135.065 23.5254C134.983 23.4749 134.412 23.2023 134.412 23.1948C134.244 23.1948 134.107 22.9467 133.923 22.9467C133.795 22.7544 133.56 22.6718 133.412 22.4925C133.294 22.3487 132.943 22.1956 132.943 21.9967C132.9 21.9967 132.721 21.6325 132.658 21.5428C132.491 21.5428 132.3 21.2845 132.249 21.1291C132.038 21.0221 131.881 20.5589 131.881 20.3442C131.871 20.3442 131.637 19.6615 131.637 19.6008C131.58 19.6008 132.168 16.464 132.168 16.3376C132.275 16.3376 132.316 15.6765 132.453 15.6765C132.453 15.3804 133.053 15.0199 133.31 14.9331C133.555 14.85 133.692 14.8378 133.993 14.8715C134.115 14.8855 134.575 14.8027 134.575 14.7262C134.787 14.7262 135.015 14.615 135.229 14.5609C135.339 14.4301 135.429 14.2988 135.575 14.2098C135.717 14.1235 135.626 14.0897 135.759 14.0239C135.832 13.8041 135.973 13.5548 136.069 13.3054C136.188 12.9957 136.086 12.5708 136.097 12.2361C136.123 11.5087 136.164 10.784 136.208 10.0585C136.226 10.0585 135.868 9.61712 135.841 9.56257C135.727 9.54578 135.31 9.47182 135.31 9.39728C135.086 9.39728 134.975 9.34502 134.71 9.4524C134.447 9.55884 134.163 9.53455 133.881 9.54483C133.761 9.54894 133.23 9.54483 133.23 9.64495C133.038 9.64495 132.942 9.76897 132.76 9.76897C132.48 9.76897 132.195 10.141 131.881 10.141C131.881 10.1995 131.554 10.3891 131.474 10.3891C131.344 10.5864 131.175 10.6383 130.943 10.678C130.943 10.8205 130.047 10.9095 129.842 10.926C129.842 11.0483 128.64 10.8018 128.556 10.8018C128.277 10.8018 127.956 10.554 127.719 10.554C127.497 10.3452 127.236 10.1477 127.066 9.89314C126.745 9.86551 126.587 9.82348 126.381 9.98934C126.204 10.1322 126.197 10.4114 126.197 10.6178C126.197 10.8601 126.095 11.0427 126.029 11.2697C125.886 11.7618 126.426 11.9411 126.405 12.3716C126.381 12.8544 126.453 13.2002 126.425 13.6877C126.416 13.8506 126.416 14.031 126.372 14.1892C126.29 14.4852 126.413 14.8023 126.331 15.0984C126.346 15.7252 126.433 16.3899 126.309 17.0034C126.261 17.2438 126.331 17.3685 126.331 17.6179C126.331 17.9597 126.344 18.2925 126.348 18.6324C126.351 18.9028 126.232 19.1927 126.204 19.4654C126.172 19.7844 126.168 20.1066 126.168 20.4269C126.173 20.5427 126.241 21.2533 126.168 21.2533C126.168 21.5811 126.087 21.8519 126.087 22.1414C126.087 22.542 125.917 22.7852 125.95 23.2228C125.99 23.7392 125.931 24.377 125.869 25.0124C125.813 25.5923 125.732 26.1083 125.77 26.6444C125.784 26.8433 125.872 27.6561 126.004 27.6561C126.004 28.1697 126.087 28.8986 126.087 29.4123C126.087 29.5789 126.168 29.7102 126.168 29.8665C126.168 30.1313 126.169 30.5067 126.16 30.8349C126.155 31.0231 126.044 32.4476 125.964 32.4476C125.964 32.5849 125.812 33.4394 125.719 33.4394C125.719 33.51 125.439 34.1833 125.433 34.1833C125.433 34.258 125.368 34.5549 125.311 34.5549C125.311 34.7389 125.026 34.8949 125.026 35.0923C124.968 35.1408 124.495 35.4677 124.495 35.4225C124.307 35.4225 124.168 35.5579 123.941 35.5588C123.875 35.5592 121.998 35.5467 121.821 35.5467C121.376 35.5467 121.111 35.4439 120.699 35.3397C120.524 35.119 120.403 34.9664 120.189 34.7822C119.975 34.5992 119.847 34.3214 119.638 34.1627C119.535 34.0852 119.433 33.9199 119.433 33.8116C119.289 33.8116 119.343 33.1915 119.189 33.1915C119.189 33.0991 118.967 32.5313 118.903 32.5313C118.883 32.4109 118.814 31.8696 118.739 31.8696C118.739 31.4705 118.739 31.0717 118.739 30.672C118.628 30.672 118.601 29.7634 118.495 29.7634C118.495 29.6582 118.303 28.9369 118.209 28.9369C118.175 28.8333 118.004 28.3172 117.964 28.3172C117.905 28.0816 117.762 27.948 117.678 27.6977C117.557 27.6165 117.352 27.3821 117.352 27.243C117.173 27.1524 117.156 26.5822 116.985 26.5822C116.985 26.3805 116.713 26.2736 116.658 26.0449C116.485 25.9138 116.46 25.6773 116.291 25.591C116.291 25.507 116.042 25.1344 115.964 25.0952C115.964 24.866 115.779 24.8402 115.638 24.6613C115.588 24.5974 115.317 24.2276 115.312 24.2276C115.312 24.166 115.241 23.9796 115.188 23.9796C115.188 23.8531 115.072 23.6542 114.944 23.5459C114.686 23.3287 114.733 23.1107 114.576 22.8539C114.469 22.6784 114.291 22.4505 114.291 22.2862C114.204 22.2862 114.216 21.9393 114.087 21.8728C114.087 21.6319 113.679 21.5325 113.679 21.2944C113.503 21.2044 113.265 20.8533 113.108 20.6753C112.988 20.6753 112.985 20.5856 112.88 20.5128C112.743 20.4166 112.677 20.4123 112.507 20.4399C112.437 20.4512 112.291 20.4624 112.291 20.5511C112.11 20.5511 112.164 20.6753 112.005 20.6753C112.005 20.7864 111.883 20.7485 111.883 20.8817C111.748 20.9513 111.801 21.0703 111.801 21.2119C111.801 21.305 111.768 21.9145 111.679 21.9145C111.679 22.0895 111.346 23.5254 111.312 23.5254C111.312 23.9185 111.026 24.4564 111.026 24.8887C110.986 24.8887 110.781 25.4167 110.781 25.5079C110.606 25.5079 110.745 26.5822 110.576 26.5822C110.576 26.6808 110.69 27.6152 110.618 27.6152C110.618 28.273 110.495 28.6045 110.495 29.2156C110.495 29.5496 110.495 29.8833 110.495 30.2169C110.495 30.5263 110.346 30.834 110.25 31.1259C110.238 31.2402 110.212 31.9116 110.128 31.9116C110.128 32.1021 110.005 32.1662 110.005 32.366C109.964 32.366 109.761 32.9488 109.761 33.0272C109.407 33.198 109.42 33.7979 108.84 33.6519C108.71 33.6187 107.436 33.481 107.22 33.481C106.939 33.481 106.68 33.4394 106.414 33.4394C106.414 33.3493 105.368 33.3899 105.23 33.1088C105.029 33.0645 104.898 33.0808 104.781 32.9029C104.663 32.9029 104.64 32.7629 104.536 32.6755C104.274 32.4532 104.285 32.1124 104.234 31.7543C104.189 31.4353 103.993 31.2841 103.982 30.9512C103.976 30.7411 104.005 30.5291 104.036 30.3218C104.083 30.0187 103.978 29.7619 103.948 29.4659C103.927 29.2493 104.026 29.0425 104.068 28.8342C104.12 28.5793 104.042 28.4508 104.026 28.1936C104.016 28.0321 104.185 27.0777 104.128 27.0777C104.134 26.9647 104.129 26.2932 104.21 26.2932C104.21 26.2017 104.246 25.9216 104.332 25.9216C104.465 25.323 104.538 24.7776 104.591 24.0897C104.653 23.2704 104.985 22.8888 104.985 22.0381C105.135 22.0381 105.069 21.047 105.23 21.047C105.23 20.6775 105.475 20.278 105.475 19.8899C105.547 19.8899 105.742 18.6802 105.801 18.4854C105.801 18.0222 105.928 17.4937 106.051 16.9595C106.129 16.6252 106.2 16.289 106.285 15.9564C106.375 15.6049 106.358 15.3039 106.341 14.9415C106.325 14.6003 106.344 14.258 106.418 13.9236C106.486 13.6126 106.448 13.3273 106.477 13.0139C106.507 12.6947 106.496 12.3701 106.496 12.0477C106.496 11.8378 106.611 11.5741 106.584 11.3782C106.498 10.7345 106.456 10.1416 106.414 9.52092C106.346 9.52092 106.169 8.96491 106.169 8.86015C106.037 8.86015 105.991 7.45565 106.128 7.45565C106.128 7.30084 106.217 7.1628 106.237 6.94636C106.257 6.72446 106.247 6.69945 106.23 6.40249C106.198 5.84872 106.373 5.40512 106.373 4.87378C106.373 4.54506 106.536 4.19393 106.536 3.82023C106.511 3.82023 107.026 2.9706 107.026 2.87014C107.163 2.87014 107.236 2.62228 107.393 2.62228C107.483 2.50873 107.842 2.30944 107.842 2.25064C108.011 2.25064 108.094 2.15162 108.291 2.08535C108.291 2.04088 108.683 1.93631 108.781 1.92006C108.781 1.64829 110.052 1.87655 110.26 1.88922C110.584 1.90882 110.746 1.94918 111.026 2.04423C111.301 2.13651 111.472 2.38417 111.76 2.45699C111.76 2.61893 112.414 2.67311 112.414 2.78757C112.548 2.78757 112.76 2.86957 112.822 2.99398C112.969 2.99398 113.189 3.41645 113.189 3.53091C113.481 3.53091 113.417 4.85173 113.424 5.09041C113.426 5.18943 113.417 5.6797 113.515 5.6797C113.515 6.10925 113.523 6.53135 113.556 6.95998C113.567 7.10156 113.642 8.32336 113.638 8.32336C113.49 8.76883 113.638 9.29438 113.638 9.68678C113.703 9.68678 113.883 10.2755 113.883 10.3891C114.003 10.3891 113.895 10.7885 113.884 10.8755C113.864 11.0427 114.169 11.2187 114.169 11.3798C114.322 11.4592 114.413 11.7618 114.413 11.9172C114.43 11.9172 114.658 12.2903 114.658 12.3305C114.842 12.422 114.841 12.6452 115.025 12.7847C115.025 12.9618 115.282 13.1485 115.352 13.3631C115.497 13.8048 116.209 14.0787 116.209 14.5198C116.243 14.5198 116.373 14.7454 116.373 14.8089C116.57 14.9088 116.724 15.2571 116.903 15.4078C117 15.4897 117.189 15.7222 117.189 15.8417C117.35 15.9941 117.841 16.3236 117.841 16.544C117.982 16.6138 118.127 16.8736 118.168 17.0398C118.309 17.1622 118.781 17.5561 118.781 17.7421C119.082 17.9456 119.181 18.5577 119.636 18.5713C119.817 18.5766 119.859 18.6031 119.964 18.4443C120.064 18.4443 119.946 18.3612 120.046 18.3612C120.11 18.0792 120.229 17.8461 120.27 17.6384C120.288 17.5497 120.419 17.3288 120.331 17.3288C120.315 17.024 120.331 16.7074 120.331 16.4613C120.415 16.4613 120.522 15.1507 120.536 14.9331C120.699 14.9331 120.543 14.4101 120.516 14.3158C120.44 14.0422 120.536 13.8782 120.536 13.6523C120.559 13.6523 120.658 12.0102 120.658 11.8344C120.658 11.6366 120.678 10.3474 120.78 10.3474C120.78 10.1686 120.851 8.94253 120.944 8.94253C120.944 8.7477 120.993 7.95171 121.148 7.95171C121.183 7.66522 121.285 7.5313 121.146 7.25599C121.089 7.14095 121.108 6.29883 121.189 6.29883C121.153 5.65542 121.229 5.235 121.229 4.60522C121.365 4.60522 121.175 3.94459 121.311 3.94459C121.354 3.59575 121.439 3.46646 121.658 3.20072C121.921 2.8819 122.318 2.69548 122.739 2.53957C122.829 2.53957 123.352 2.45982 123.352 2.53957C123.521 2.53957 123.875 2.60923 123.964 2.78757C124.412 2.78757 124.851 3.036 125.147 3.38657C125.233 3.48702 125.392 3.56863 125.392 3.69639C125.471 3.69639 125.463 3.81482 125.556 3.86149C125.556 4.01559 125.733 4.09778 125.841 4.19206C125.841 4.30395 125.949 4.41621 126.045 4.48138C126.045 4.53574 126.135 4.7705 126.168 4.7705C126.168 4.97839 126.249 5.21554 126.249 5.41071C126.249 5.65542 126.586 6.23347 126.929 6.19235C127.162 6.16376 127.19 5.96639 127.352 5.845C127.352 5.77533 127.521 5.51437 127.556 5.51437C127.556 5.33359 127.74 5.15205 127.858 5.01851C128.04 4.81588 128.259 4.4427 128.519 4.35176C128.97 4.19393 130.034 4.06694 130.249 3.90294C130.287 3.7541 130.513 3.36601 130.698 3.36601C130.775 3.20593 131.759 3.00235 131.759 2.99398C132.103 3.02328 132.948 2.74445 133.188 2.66374C133.621 2.51772 138.657 1.97046 138.657 2.20952C138.87 2.20952 141.18 2.21516 141.408 2.22577C141.695 2.23978 144.861 2.37108 144.861 2.41592C144.982 2.41592 145.067 2.50275 145.195 2.4897C145.383 2.47043 146.934 2.7465 147.218 2.7465C147.666 2.7465 147.876 2.87722 148.341 2.89142C148.517 2.89721 150.289 3.22181 150.289 3.28344C150.437 3.28344 150.642 3.47115 150.82 3.53091C150.82 3.54961 151.537 3.671 151.637 3.69639C151.637 3.77557 152.239 4.02678 152.329 4.02678C152.329 4.13828 152.738 4.28119 152.738 4.48138C152.894 4.55946 153.228 4.84107 153.228 5.01851C153.549 5.1782 153.539 5.68157 153.84 5.88587C153.84 6.04576 153.963 5.9925 153.963 6.17519C154.043 6.17519 153.975 6.28482 154.085 6.34048C154.123 6.53416 154.251 6.83949 154.411 6.91834C154.411 7.05805 154.534 7.08363 154.574 7.24949C154.663 7.24949 154.668 7.49415 154.684 7.56586C154.731 7.78829 154.861 8.10806 154.861 8.28229C155.02 8.28229 155.146 8.88052 155.146 9.02544C155.146 9.43653 155.31 9.85078 155.31 10.2238C155.31 10.4227 155.391 10.6119 155.391 10.8018C155.391 11.0194 155.391 11.2995 155.391 11.5866C155.259 11.5866 155.26 12.6947 155.19 12.9042C155.065 13.274 154.825 14.3121 155.53 14.017C155.658 13.9638 155.881 13.7873 155.881 13.6523C156.038 13.5112 156.371 13.2722 156.371 13.0736C156.542 12.9855 156.515 12.7109 156.697 12.6194C156.697 12.4276 156.86 12.3856 156.86 12.2063C157.041 12.0853 157.04 11.8038 157.228 11.7108C157.228 11.6299 157.415 11.2977 157.473 11.2977C157.473 11.1762 157.74 10.554 157.799 10.554C157.799 10.4488 157.996 9.72785 158.044 9.72785C158.105 9.29085 158.339 9.1302 158.411 8.69486C158.486 8.69486 158.534 8.44758 158.534 8.36448C158.669 8.29539 158.648 8.16462 158.779 8.05441C158.938 7.92087 158.916 7.84246 158.942 7.6417C158.971 7.42578 159.105 7.24385 159.105 7.08415C159.271 6.99919 159.238 6.82549 159.35 6.71193C159.488 6.57241 159.525 6.41927 159.717 6.25771C159.717 6.18116 159.772 5.96826 159.84 5.96826C159.84 5.58576 160.377 5.36123 160.656 5.26598C160.656 5.18943 161.559 5.05962 161.676 5.05962C161.676 5.03476 162.638 4.81157 162.738 4.81157C162.936 4.81157 164.125 4.73182 164.125 4.64667C164.49 4.64667 166.056 4.19206 166.125 4.19206C166.125 4.06694 171.855 2.66374 172.084 2.66374C172.084 2.55075 174.533 2.01382 174.533 1.96113C174.645 1.95123 175.227 1.91389 175.227 1.79584C175.425 1.79584 175.518 1.67239 175.717 1.67239C175.717 1.681 177.105 1.3433 177.105 1.46565C177.229 1.46565 177.595 1.47368 177.595 1.58929C177.787 1.58929 177.9 1.8373 178.084 1.8373C178.266 2.04796 178.449 2.25064 178.697 2.25064C178.697 2.28554 178.842 2.32254 178.9 2.39536C178.996 2.51585 179.525 3.79053 179.568 4.07722C179.595 4.25819 179.896 5.08855 179.92 5.18379Z" fill="#7B7B7B"/>
<path fill-rule="evenodd" clip-rule="evenodd" d="M235.673 25.4259C235.832 25.4259 236.596 25.5496 236.795 25.5496C236.872 25.5496 237.102 25.4041 237.102 25.5496C237.365 25.6383 237.523 25.7565 237.755 25.7565C238.003 25.7565 238.149 25.8682 238.34 25.8493C238.528 25.8316 238.692 25.7718 238.879 25.891C239.017 25.9782 239.104 26.1889 239.102 26.3323C239.098 26.4662 239.096 26.6306 239.02 26.7477C238.947 26.809 235.682 27.2432 235.551 27.2432C235.551 27.4505 232.028 27.6344 231.625 27.6722C231.516 27.683 231.183 27.6643 231.183 27.5738C230.935 27.5569 230.429 27.6373 230.367 27.4501C230.258 27.4501 230.294 27.3263 230.164 27.3263C230.164 27.2379 229.961 27.2441 229.891 27.2295C229.816 27.2142 229.429 26.9966 229.429 26.9541C229.158 26.8874 228.412 26.4597 228.508 26.0959C228.573 25.8493 228.769 25.645 228.969 25.501C229.241 25.3045 229.474 25.359 229.796 25.3848C229.796 25.2592 230.401 25.4381 230.49 25.453C230.561 25.4651 230.817 25.4599 230.817 25.5496C230.977 25.5333 233.279 25.3848 233.836 25.3848C233.836 25.5309 235.28 25.2236 235.673 25.4259ZM190.288 11.339C190.587 11.4222 190.596 11.9497 190.632 12.1971C190.659 12.3783 190.751 13.7763 190.818 13.7763C190.809 13.9435 190.827 15.2639 190.736 15.2639C190.736 15.7031 190.614 16.0147 190.614 16.3789C190.451 16.4611 190.573 16.5841 190.41 16.6684C190.41 16.7861 190.138 17.0709 190.042 17.1431C189.766 17.3529 189.537 17.3897 189.168 17.3275C188.853 17.2748 188.542 17.4965 188.224 17.5342C188.07 17.5531 187.471 17.5415 187.471 17.3706C187.035 17.0167 187.328 16.578 187.43 16.1723C187.483 16.1723 187.553 15.8942 187.553 15.8419C187.674 15.8419 187.692 15.4286 187.798 15.4286C187.798 15.3003 188.009 14.8464 188.165 14.768C188.165 14.5486 188.369 14.3497 188.369 14.1069C188.507 14.1069 188.498 13.5665 188.655 13.4872C188.655 13.3069 188.88 13.174 188.94 12.9918C189.016 12.7631 189.094 12.7052 189.144 12.496C189.162 12.496 189.485 11.9011 189.512 11.7938C189.637 11.7938 189.509 11.5457 189.634 11.5457C189.634 11.2911 190.108 11.1507 190.288 11.339ZM192.695 3.24199C192.89 3.24199 192.996 3.57816 193.144 3.65533C193.163 3.72834 194.079 5.04768 194.274 5.22512C194.388 5.33006 194.573 5.54206 194.573 5.67991C194.678 5.73217 194.9 6.10664 194.9 6.21665C195.024 6.27943 195.071 6.46169 195.103 6.60905C195.154 6.83731 195.43 6.96372 195.43 7.16654C195.54 7.22167 195.634 7.49712 195.634 7.62115C195.708 7.62115 195.797 7.90147 195.797 7.99298C195.933 7.99298 196.004 9.6614 196.022 9.81082C196.073 10.228 196.287 10.5484 196.287 10.9262C196.439 10.9262 196.455 11.8759 196.573 11.8759C196.573 11.974 196.823 13.033 196.859 13.033C196.859 13.2132 196.949 14.1069 197.063 14.1069C197.072 14.19 197.125 14.6849 197.184 14.6849C197.184 14.8872 197.266 14.9538 197.266 15.1191C197.266 15.3808 197.313 16.0698 197.745 16.1239C197.984 16.1538 198.205 15.705 198.205 15.5528C198.264 15.5528 198.348 15.3059 198.368 15.2222C198.589 15.1089 198.562 14.7092 198.777 14.6027C198.858 14.3497 199.027 14.2152 199.104 13.983C199.178 13.7539 199.246 13.6276 199.429 13.4872C199.429 13.3906 199.592 13.1566 199.675 13.1155C199.714 12.962 199.797 12.9498 199.797 12.8265C199.86 12.784 200.041 12.6035 200.041 12.537C200.298 12.537 200.358 12.0823 200.614 12.0823C200.683 11.9416 201.178 11.5248 201.239 11.353C201.301 11.1806 201.291 11.0681 201.47 11.0088C201.47 10.9944 201.767 10.7609 201.838 10.7609C201.838 10.6978 202.21 10.4559 202.287 10.4301C202.484 10.364 202.695 10.3246 202.695 10.224C202.846 10.224 203.578 9.67804 203.634 9.56277C203.843 9.56277 203.918 9.23219 204.123 9.23219C204.185 9.13791 204.613 8.94833 204.613 8.90162C204.82 8.85084 204.842 8.7806 205.062 8.73671C205.12 8.61679 205.552 8.47862 205.552 8.40575C205.612 8.40575 205.797 8.33479 205.797 8.28249C205.954 8.24233 206.295 8.09741 206.369 7.95191C206.676 7.95191 207.044 7.56439 207.368 7.51768C207.684 7.47173 207.928 7.2889 208.246 7.208C208.246 7.16377 208.739 7.02086 208.817 7.00126C208.817 6.98074 209.503 6.84625 209.62 6.82292C209.798 6.78706 209.912 6.72858 210.083 6.67068C210.168 6.64175 210.45 6.50558 210.45 6.46432C211.069 6.35971 212.374 5.96846 212.449 5.96846C212.449 5.92084 212.884 5.88608 212.98 5.88608C212.98 5.83769 213.316 5.76205 213.388 5.76205C213.388 5.71629 214.054 5.67991 214.164 5.67991C214.164 5.49444 216.13 5.37807 216.297 5.37769C216.498 5.3773 216.637 5.3904 216.797 5.3904C217.022 5.3904 217.155 5.30764 217.429 5.30764C217.648 5.30764 218.008 5.35005 218.236 5.47293C218.388 5.55569 218.541 5.63822 218.694 5.72098C218.747 5.82928 218.939 5.80408 218.939 5.88608C219.199 5.95239 219.382 6.22526 219.538 6.4507C219.682 6.65949 219.888 6.72337 220.069 6.93255C220.218 7.10587 220.322 7.30047 220.49 7.41498C220.49 7.56736 220.572 7.48034 220.572 7.66241C220.572 7.86972 220.788 7.96908 220.939 8.09612C221.195 8.31237 221.182 8.75875 221.47 8.90162C221.59 9.0998 221.608 9.38161 221.633 9.60389C221.757 9.60389 221.887 10.1907 221.918 10.3061C222.059 10.3061 222.114 11.2428 222.141 11.4435C222.196 11.8563 222.122 12.2756 222.122 12.6196C222.122 12.8359 222.171 13.983 222 13.983C222 14.0695 221.98 14.4783 221.918 14.4783C221.918 14.6634 221.796 14.7662 221.796 14.9333C221.708 14.9333 221.537 15.9073 221.388 16.0072C221.388 16.1295 221.317 16.1435 221.224 16.2136C221.127 16.5156 220.908 16.6348 220.817 16.9438C220.762 17.1299 220.704 17.0877 220.653 17.2873C220.541 17.3872 220.327 17.5032 220.327 17.6592C220.235 17.7057 220.082 17.9285 220.082 18.0312C219.853 18.147 219.768 18.4445 219.511 18.4445C219.511 18.4996 218.282 18.5265 218.163 18.5265C218.163 18.6603 217.628 18.463 217.552 18.4445C217.46 18.2634 217.378 18.3203 217.246 18.3203C217.081 18.3203 216.245 18.368 216.245 18.155C216.063 18.155 215.962 17.9188 215.756 17.8659C215.704 17.7554 215.451 17.6592 215.348 17.6592C215.348 17.6396 215.116 17.4743 215.048 17.4378C214.953 17.3865 214.849 17.343 214.767 17.2688C214.711 17.218 214.673 17.1553 214.654 17.0812C214.571 17.0637 214.505 17.0199 214.457 16.9493C214.277 16.6712 214.214 16.1876 214.269 15.8681C214.28 15.8036 214.327 15.1154 214.327 14.8502C214.386 14.8502 214.329 14.4375 214.286 14.4375C214.286 14.2582 214.404 13.3129 214.538 13.0535C214.671 12.798 214.654 12.5613 214.654 12.2685C214.654 12.0869 214.534 11.6704 214.368 11.5868C214.368 11.4318 214.053 11.2979 213.919 11.2979C213.703 11.2979 213.309 11.2708 213.103 11.339C213.103 11.3851 212.762 11.5119 212.675 11.5248C212.469 11.5547 212.242 11.6285 212.042 11.6285C212.042 11.6636 211.747 11.7749 211.674 11.7938C211.674 11.8626 211.221 11.9193 211.103 11.959C210.851 12.0438 210.788 12.2644 210.531 12.3307C210.531 12.4735 210.123 12.453 210.123 12.537C209.892 12.5838 209.845 12.6902 209.634 12.7435C209.442 12.9868 209.266 13.033 209.062 13.2808C208.751 13.385 208.66 13.4774 208.408 13.6933C208.408 13.8771 208.105 14.0051 208.001 14.1274C207.827 14.3328 207.645 14.3806 207.47 14.6027C207.344 14.6027 206.899 15.0528 206.899 15.1807C206.712 15.307 206.68 15.4912 206.491 15.6355C206.491 15.8158 206.205 15.9054 206.205 16.0898C205.993 16.2771 205.837 16.4265 205.756 16.6684C205.651 16.7216 205.389 17.0425 205.389 17.1637C205.238 17.2408 205.102 17.5365 205.062 17.7012C204.902 17.831 204.852 17.9926 204.695 18.0729C204.695 18.2167 204.572 18.2802 204.572 18.4031C204.536 18.4031 204.244 18.7841 204.225 18.8779C204.206 18.9813 204.023 19.5595 203.96 19.5595C203.96 19.8731 203.69 20.1282 203.661 20.5653C203.642 20.843 203.705 21.1119 203.684 21.3983C203.68 21.4659 203.586 21.7077 203.716 21.7077C203.716 21.9455 204.006 22.0253 204.123 22.2036C204.383 22.2695 204.444 22.4404 204.673 22.5478C204.782 22.5992 204.847 22.6431 204.92 22.7406C205.009 22.861 205.117 22.813 205.184 22.9469C205.377 22.9469 205.466 23.2775 205.633 23.2775C205.725 23.4602 205.996 23.469 206.143 23.6497C206.275 23.8085 207.144 24.239 207.144 24.4342C207.282 24.4342 207.512 24.6424 207.593 24.7648C207.733 24.7648 207.644 24.9301 207.837 24.9301C207.9 24.9301 208.123 24.9571 208.123 25.0122C208.237 25.0122 208.434 25.1457 208.491 25.2606C208.656 25.2606 208.795 25.5025 208.981 25.5496C208.981 25.7233 209.715 25.797 209.715 25.9218C209.957 25.9218 210.181 26.1693 210.41 26.1693C210.41 26.305 211.144 26.3603 211.144 26.4998C211.49 26.5217 211.792 26.5396 212.123 26.6505C212.45 26.7617 212.73 26.8715 213.075 26.8715C213.286 26.8715 214.205 26.9117 214.205 26.8298C214.366 26.8298 215.51 26.8453 215.51 26.7477C215.735 26.7477 215.829 26.6651 216.041 26.6651C216.041 26.5512 216.596 26.5506 216.735 26.5409C216.735 26.4778 217.292 26.2109 217.388 26.2109C217.434 26.1164 217.552 26.1254 217.552 26.0451C217.745 26.0451 217.799 25.8975 217.919 25.7565C218.049 25.7565 218.468 25.4969 218.551 25.3848C218.683 25.2083 218.956 24.9301 219.185 24.9301C219.227 24.8423 219.488 24.7237 219.592 24.7237C219.592 24.6026 219.997 24.6499 220.082 24.682C220.082 24.7834 220.163 24.6639 220.163 24.7648C220.355 24.7648 220.394 24.9403 220.49 25.0954C220.651 25.1495 220.721 25.1312 220.776 25.3017C220.869 25.3488 220.833 25.4259 220.899 25.4259C220.899 25.5542 221.143 25.651 221.143 25.7145C221.485 25.9825 222 25.5539 222 25.2606C222.32 25.2606 222.012 22.658 222.163 22.658C222.163 22.342 222.409 21.9688 222.409 21.6252C222.538 21.6252 222.531 20.6755 222.694 20.6755C222.694 20.3559 222.867 20.1128 222.979 19.7663C223.093 19.7663 223.097 18.8987 223.265 18.8987C223.265 18.7686 223.557 17.8244 223.633 17.8244C223.633 17.7162 223.942 16.7505 224 16.7505C224 16.6917 224.078 16.42 224.123 16.42C224.123 16.364 224.279 16.0072 224.327 16.0072C224.355 15.8354 224.637 15.0986 224.735 15.0986C224.735 14.8464 224.991 14.5872 225.041 14.3341C225.07 14.19 225.224 14.0404 225.224 13.9005C225.294 13.9005 225.419 13.4943 225.551 13.4046C225.551 13.2767 225.587 13.3374 225.633 13.1566C225.687 13.1566 225.7 12.91 225.717 12.8393C225.794 12.526 225.802 12.1876 225.714 11.8759C225.714 11.6312 225.652 11.4417 225.63 11.2052C225.615 11.0392 225.714 10.8244 225.714 10.5956C225.765 10.5956 225.882 9.85227 226 9.85227C226 9.69631 226.269 9.02564 226.408 9.02564C226.461 8.81756 226.534 8.38615 226.714 8.24065C226.851 8.1303 226.984 7.78662 227.184 7.78662C227.31 7.59518 227.489 7.55598 227.654 7.3522C227.837 7.12452 227.948 7.04271 228.205 7.04271C228.205 6.91443 229.044 6.84156 229.225 6.78256C229.551 6.67666 229.878 6.57075 230.204 6.46432C230.571 6.46432 230.806 6.4178 231.163 6.39241C231.574 6.36253 234.694 5.77979 234.694 5.8452C235.062 5.8452 237.772 5.27274 238.398 5.2352C238.97 5.20178 239.57 4.89994 240.204 4.86743C240.408 4.85605 241.755 4.81608 241.755 4.68813C242.308 4.68813 242.687 4.64687 243.142 4.64687C243.142 4.53499 244.098 4.48158 244.265 4.48158C244.714 4.48158 246.827 4.07369 246.979 4.04754C247.172 4.01484 247.679 4.0003 247.888 3.90468C248.09 3.81125 249.84 3.46145 250.04 3.44893C250.04 3.31165 250.774 3.21307 250.774 3.07709C250.925 3.07709 251.959 2.98576 251.959 2.91199C252.285 2.86418 252.508 2.82139 252.823 2.92825C252.97 2.97831 253.117 3.02779 253.264 3.07709C253.376 3.2024 253.541 3.49005 253.714 3.49005C253.793 3.59743 253.998 3.7599 253.998 3.86169C254.214 4.04381 254.411 4.30563 254.612 4.44013C254.612 4.58208 254.774 4.65079 254.774 4.81178C254.88 4.81178 255.004 5.23912 255.142 5.30764C255.227 5.5697 255.436 5.72002 255.509 6.01048C255.553 6.01048 255.754 6.49009 255.754 6.58849C255.805 6.58849 255.905 7.16654 255.999 7.16654C255.985 7.33131 256.233 10.5542 255.999 10.5542C255.999 10.7939 255.981 10.9635 255.755 11.1111C255.549 11.2456 255.261 11.3884 255.041 11.3178C254.816 11.2465 254.821 11.2979 254.612 11.2979C254.252 11.2979 253.95 11.257 253.601 11.1737C253.194 11.0766 251.591 10.9673 251.061 10.9673C250.773 11.0495 250.472 11.0495 250.175 11.0495C249.896 11.0495 249.719 11.1325 249.469 11.1325C249.216 11.1325 249.016 11.1793 248.77 11.2185C248.517 11.2586 248.385 11.183 248.183 11.1531C248.115 11.1432 247.795 11.1961 247.795 11.2562C247.479 11.2562 247.041 11.1772 246.743 11.2805C246.526 11.3557 245.147 11.3445 244.928 11.4015C244.775 11.4411 244.532 11.5192 244.407 11.5041C244.127 11.4692 243.962 11.4529 243.69 11.5391C243.413 11.6265 243.214 11.5457 242.999 11.5457C242.763 11.5457 242.459 11.578 242.162 11.6285C242.162 11.7143 241.307 11.7106 241.178 11.7132C241.002 11.7181 239.592 11.8806 239.592 11.8759C239.385 11.8955 237.714 11.9977 237.714 12.0001C237.214 12.0496 237.037 12.2009 236.545 12.2205C236.349 12.2278 233.469 12.5912 233.469 12.7023C233.191 12.7728 233.235 12.8723 233.02 13.0535C232.727 13.3009 232.543 13.4261 232.244 13.6525C232.244 13.7981 232.02 14.0062 231.959 14.1894C231.862 14.1894 231.893 14.4375 231.796 14.4375C231.796 14.6625 231.185 15.4927 231.17 15.6906C231.138 16.1165 231.181 16.3509 231.51 16.6267C231.969 16.6267 232.366 16.7505 232.857 16.7505C232.857 16.8378 233.421 16.8178 233.51 16.8125C233.852 16.7933 234.124 16.8494 234.49 16.8747C234.962 16.8747 235.393 16.9237 235.888 16.9999C236.135 17.0373 236.29 16.9569 236.49 16.9569C236.49 16.8895 237.169 16.8835 237.259 16.8863C237.38 16.8906 238.508 16.7095 238.694 16.7095C238.694 16.7505 239.643 16.4801 239.755 16.4615C240.028 16.0462 240.458 16.0595 240.897 16.1723C240.897 16.1691 241.255 16.3378 241.306 16.3378C241.361 16.4114 241.673 16.5987 241.673 16.6267C241.748 16.6267 242 16.715 242 16.792C242.2 16.792 242.271 17.0932 242.407 17.1637C242.407 17.2604 243.755 19.3466 243.755 19.5184C243.95 19.6208 243.958 19.9919 243.958 20.1796C243.958 20.439 244.04 20.5586 244.04 20.7782C244.04 21.0845 244.044 21.3908 244.044 21.6971C244.045 21.9287 244.01 23.0297 243.795 23.0297C243.795 23.1866 243.728 23.3065 243.592 23.4223C243.411 23.5736 242.979 24.0386 242.979 24.3104C242.894 24.5163 242.121 24.9795 242.121 25.0542C241.782 25.0542 241.504 25.1663 241.183 25.2746C240.969 25.3466 240.779 25.5081 240.612 25.5081C240.612 25.5916 240.295 25.7014 240.224 25.7976C239.942 26.1776 240.443 26.6633 240.734 26.9335C240.89 27.0779 241.05 27.2123 241.101 27.4088C241.387 27.4654 241.589 27.7185 241.673 27.9874C241.673 28.5505 241.577 31.2503 241.469 31.2503C241.469 31.3991 240.983 32.9614 240.641 33.0964C240.464 33.1665 238.852 33.9771 238.531 33.9771C238.531 34.3161 232.244 34.9352 231.47 34.9314C231.356 34.9309 230.204 34.9978 230.204 34.844C229.811 34.844 229.337 34.7167 228.979 34.5966C228.817 34.5421 226.99 34.1312 226.816 33.7701C226.708 33.7701 226.443 33.5568 226.367 33.4607C226.292 33.3645 225.941 33.1506 225.837 33.1506C225.775 33.0268 225.677 33.0283 225.551 32.9853C225.473 32.8864 225.438 32.779 225.306 32.779C225.18 32.5851 224.914 32.3998 224.735 32.2009C224.665 32.2009 224.408 32.0385 224.408 31.9946C224.261 31.8946 224.336 31.853 224.204 31.7876C224.204 31.5709 224.009 31.5551 223.918 31.3745C223.747 31.3745 223.499 31.0508 223.388 30.9197C223.297 30.8726 223.102 30.5975 223.102 30.5069C222.921 30.3607 222.906 30.2262 222.775 30.0942C222.712 30.0288 222.368 29.8807 222.368 29.9289C222.047 29.9289 221.885 30.6722 221.755 30.6722C221.755 30.8174 221.598 30.9714 221.572 31.127C221.559 31.2008 221.437 31.622 221.348 31.622C221.348 31.7508 221.113 32.2592 220.98 32.3242C220.98 32.4036 220.592 33.0274 220.572 33.0274C220.572 33.1441 220.406 33.3593 220.307 33.4396C220.108 33.6007 220.122 33.8398 219.918 33.9771C219.708 34.2264 219.507 34.3058 219.307 34.5225C219.079 34.7675 218.82 35.1323 218.511 35.1958C218.204 35.2583 218.013 35.4638 217.694 35.4638C217.517 35.4638 217.383 35.5525 217.143 35.5674C216.782 35.5893 216.462 35.6449 216.065 35.6627C215.582 35.6832 214.979 35.5646 214.441 35.5385C214.164 35.5254 213.857 35.4638 213.634 35.4638C213.435 35.4638 213.342 35.3399 213.144 35.3399C213.077 35.3399 212.613 35.4348 212.613 35.2994C212.394 35.262 212.343 35.1845 212.164 35.1546C211.845 35.1005 211.625 34.9057 211.294 34.8721C211.032 34.8456 210.928 34.7325 210.695 34.6928C210.598 34.6765 210.123 34.5981 210.123 34.473C210.037 34.4617 209.593 34.4098 209.593 34.3077C209.41 34.3077 209.304 34.1517 209.103 34.1007C209.103 33.9929 208.286 33.8136 208.286 33.7701C208.211 33.7701 207.878 33.6982 207.878 33.6048C207.664 33.6048 207.509 33.2743 207.266 33.2743C207.266 33.2029 206.787 32.9853 206.695 32.9853C206.695 32.9414 206.4 32.779 206.328 32.779C206.219 32.562 205.943 32.6258 205.838 32.4073C205.737 32.4073 205.515 32.2523 205.471 32.1589C205.391 32.1589 205.251 32.1023 205.184 32.0351C205.096 31.9454 204.908 31.832 204.777 31.7876C204.599 31.5709 204.448 31.4934 204.246 31.3745C204.092 31.3745 203.824 31.1526 203.716 31.0233C203.582 30.8665 203.44 30.7721 203.267 30.7133C203.191 30.563 202.968 30.5023 202.858 30.3616C202.684 30.1418 202.437 30.1138 202.287 29.8869C201.942 29.6403 201.67 29.2351 201.307 29.1435C201.009 28.7644 200.649 28.6187 200.341 28.262C200.212 28.1135 200.132 28.106 200.083 27.9043C199.986 27.825 199.879 27.7898 199.879 27.6563C199.797 27.5551 199.7 27.6251 199.634 27.491C199.513 27.491 198.94 26.7352 198.94 26.5409C198.618 26.2976 198.579 25.8592 198.247 25.6323C198.247 25.4937 198.165 25.5641 198.165 25.4259C198.004 25.3176 198.02 25.199 197.89 25.0542C197.777 24.9301 197.665 24.8058 197.553 24.682C197.43 24.682 197.307 24.682 197.184 24.682C197.197 24.7778 197.169 24.8193 197.103 24.8064C197.103 24.9342 196.841 25.7976 196.777 25.7976C196.746 26.4671 196.607 27.1296 196.628 27.7997C196.646 28.3815 196.859 28.9596 196.859 29.5292C196.859 30.2421 196.94 30.9126 196.94 31.5812C196.811 31.5812 196.87 32.6361 196.845 32.8298C196.821 33.0124 196.781 33.287 196.613 33.3987C196.613 33.5223 196.455 33.8715 196.423 34.0335C196.36 34.3478 196.185 34.577 195.975 34.8562C195.852 35.0202 195.654 35.15 195.471 35.2568C195.471 35.3661 195.144 35.396 195.144 35.4638C195.045 35.4638 194.491 35.5015 194.491 35.4227C194.252 35.4227 194.471 35.3816 194.288 35.3816C194.288 35.2873 194.023 35.3844 193.961 35.395C193.756 35.4296 193.644 35.3498 193.444 35.3125C193.315 35.2891 192.777 35.1216 192.777 35.0099C192.524 35.0099 192.06 34.8549 191.9 34.6383C191.794 34.4944 191.554 34.2049 191.43 34.1424C191.375 33.9706 191.144 33.8196 191.144 33.6465C190.76 33.4457 190.797 32.6893 190.777 32.2831C190.579 31.5743 190.649 30.7759 190.625 30.0465C190.61 29.5563 190.603 29.0178 190.682 28.5789C190.78 28.0369 190.736 27.5069 190.736 26.9266C190.736 26.5801 190.366 26.0964 190.001 26.004C190.001 25.7751 188.574 25.8293 188.574 25.9218C187.962 25.9068 187.26 25.9218 186.716 25.9218C186.641 25.9218 185.92 26.1413 185.92 26.1693C185.588 26.1693 185.318 26.3346 185.022 26.3346C185.022 26.3476 183.954 26.6044 183.798 26.6235C183.798 26.7025 182.94 26.7137 182.94 26.8715C182.872 26.8715 182.655 26.9752 182.655 27.0368C182.458 27.0857 182.338 27.2021 182.165 27.2021C181.951 27.4551 181.706 27.6643 181.484 27.9081C181.405 27.9949 181.198 28.5235 181.145 28.5235C181.114 28.6178 180.946 28.9371 180.9 28.9371C180.9 29.0903 180.736 29.184 180.736 29.3505C180.586 29.4507 180.596 29.6497 180.451 29.7219C180.451 29.7729 180.285 30.1347 180.288 30.1347C180.256 30.3672 180.165 30.4845 180.165 30.6722C180.06 30.6722 179.627 32.0767 179.512 32.0767C179.461 32.2863 179.401 32.2386 179.349 32.4478C179.2 32.5479 179.247 32.665 179.104 32.7379C178.981 33.081 178.808 33.3056 178.697 33.6465C178.604 33.6926 178.639 33.7701 178.574 33.7701C178.574 33.9158 178.43 33.9864 178.329 34.0802C178.094 34.2983 177.895 34.4291 177.676 34.6788C177.433 34.7606 177.121 35.2098 176.833 34.9557C176.652 34.7951 174.608 33.7478 174.369 33.6876C174.258 33.5372 174.002 33.4414 174.002 33.2743C173.772 33.16 173.638 32.2831 173.554 32.2831C173.495 31.8582 173.348 31.4197 173.328 30.949C173.324 30.844 173.351 30.5484 173.431 30.5484C173.431 30.4009 173.384 29.7636 173.512 29.7636C173.614 29.3587 173.757 29.0548 173.88 28.5323C173.963 28.1779 174.369 27.8707 174.369 27.491C174.431 27.491 174.532 27.2727 174.532 27.2021C174.713 27.0807 174.715 26.93 174.9 26.7888C174.9 26.6997 175.023 26.4167 175.104 26.3762C175.104 26.2593 175.444 25.8387 175.513 25.8387C175.513 25.6622 175.792 25.1813 175.961 25.0954C176.074 24.7474 176.41 24.4099 176.41 24.0625C176.585 24.0625 176.606 23.3603 176.737 23.3603C176.737 23.2099 176.868 23.0577 176.9 22.8644C176.989 22.8644 177.063 22.5049 177.063 22.41C177.293 22.41 177.312 21.4188 177.471 21.4188C177.471 21.2563 177.553 21.1396 177.553 20.9089C177.553 20.6867 177.488 20.479 177.536 20.1992C177.579 19.9564 177.613 19.7233 177.635 19.4774C177.748 19.2596 178.004 19.1075 178.166 18.9264C178.307 18.7667 178.364 18.6623 178.574 18.6098C178.671 18.4585 178.789 18.5071 178.859 18.3614C179.047 18.3614 179.25 18.0593 179.417 17.9076C179.631 17.7124 179.775 17.4825 179.872 17.1883C179.915 17.0569 180.023 16.5852 180.124 16.5852C180.124 16.4452 180.435 15.8914 180.533 15.8419C180.533 15.6206 180.774 15.4404 180.86 15.1807C180.962 14.8689 181.136 14.7568 181.226 14.3958C181.337 14.3403 181.431 14.0667 181.431 13.9415C181.477 13.9415 181.634 13.5845 181.716 13.5281C181.716 13.348 181.953 13.2546 181.982 13.0535C181.992 12.9797 182.172 12.496 182.247 12.496C182.247 12.3344 182.385 12.199 182.451 12.0001C182.584 11.9314 182.547 11.6285 182.655 11.6285C182.655 11.4407 182.812 11.282 182.86 11.0909C182.97 11.0354 183.056 10.7198 183.145 10.7198C183.145 10.5035 183.471 10.2846 183.471 10.0587C183.582 10.0587 183.59 9.70793 183.716 9.64515C183.837 9.15038 184.41 8.92122 184.41 8.40575C184.501 8.35999 184.655 8.17228 184.655 8.07537C184.792 7.9818 184.857 7.87197 184.9 7.70353C185.153 7.57539 185.195 7.12079 185.43 7.00126C185.43 6.91347 185.703 6.46432 185.757 6.46432C185.863 6.14775 186.533 5.83209 186.533 5.51457C186.586 5.51457 186.696 5.32782 186.696 5.26618C186.848 5.12332 187.001 4.98008 187.152 4.83645C187.312 4.68627 187.456 4.52045 187.603 4.35756C187.762 4.18333 188.007 4.1325 188.083 3.90314C188.265 3.75617 188.599 3.56009 188.696 3.36621C188.841 3.36621 188.946 3.11405 189.063 3.01508C189.239 2.86623 189.287 2.76296 189.512 2.70487C189.767 2.20135 190.679 2.51175 191.063 2.56086C191.125 2.5687 191.349 2.60886 191.349 2.66394C191.477 2.66394 191.725 2.68167 191.89 2.7336C192.146 2.81488 192.615 2.93532 192.695 3.24199Z" fill="#7B7B7B"/>
<path d="M46.782 10.7605C46.7512 11.0342 46.6595 11.1606 46.6595 11.3797C46.6172 11.3797 46.4142 11.776 46.4142 11.8343C46.3246 11.8793 46.1287 12.1921 46.1287 12.2885C46.0405 12.3563 45.8828 12.6193 45.8431 12.6193C45.7656 12.8589 45.5525 13.0232 45.3532 13.2081C45.2041 13.3458 44.9733 13.8174 44.7821 13.8174C44.7354 13.9098 44.6188 13.9038 44.6188 13.9827C44.4667 13.9827 44.3848 14.162 44.292 14.2718C44.1879 14.2718 43.8844 14.5192 43.8231 14.6024C43.7454 14.706 43.6116 14.7649 43.4965 14.7882C43.2922 14.8293 43.0745 14.8792 42.8139 14.837C42.6146 14.805 42.6191 14.5622 42.6191 14.3954C42.4951 14.3954 42.705 13.0875 42.7274 12.9498C42.7654 12.7179 42.8637 12.59 42.8637 12.4129C43.0068 12.4129 42.8429 11.669 42.9861 11.669C42.9861 11.4077 43.0678 11.3395 43.0678 11.0906C43.144 11.0906 43.1084 10.4184 43.1084 10.3058C43.2208 9.91264 43.113 9.59904 43.0874 9.19545C43.0745 8.99746 43.1885 8.15792 43.2719 8.15792C43.2719 7.95252 43.5625 7.58178 43.7615 7.41463C44.21 7.42113 44.4208 7.66205 44.8227 7.66205C44.8227 7.7125 45.4868 7.9824 45.6386 8.03375C45.8001 8.25097 46.068 8.35309 46.2103 8.57069C46.3867 8.57069 46.4528 8.81721 46.5775 8.90126C46.5775 8.9704 46.713 9.27296 46.741 9.27296C46.8309 9.54936 46.8745 9.69935 46.894 10.0166C46.8997 10.107 46.9531 10.7605 46.782 10.7605ZM56.006 27.5734C55.9899 27.5734 55.8321 27.0878 55.8019 26.9954C55.68 26.8964 55.4906 26.7769 55.4344 26.6648C55.2251 26.5938 55.2558 26.2514 55.0262 26.2514C54.9034 26.1418 54.8165 25.9859 54.6998 25.8383C54.2737 25.7309 54.2057 25.1897 53.8023 25.0539C53.5958 24.9839 53.5169 24.8568 53.3119 24.8061C53.2756 24.7308 52.9926 24.558 52.9038 24.558C52.7833 24.375 52.6355 24.3741 52.4956 24.1864C52.4243 24.1864 52.0469 23.9454 52.0469 23.8969C51.8178 23.839 51.7743 23.773 51.5164 23.773C51.3832 23.6176 51.1059 23.1535 50.9041 23.1535C50.864 23.0732 50.5423 22.8641 50.4549 22.8641C50.2896 22.6633 50.1379 22.5811 49.965 22.3887C49.7808 22.1842 49.7099 21.9741 49.5163 21.8107C49.3552 21.6753 49.0264 21.453 49.0264 21.2532C48.8965 21.2532 48.9248 20.818 48.9659 20.7293C49.0373 20.5761 49.1672 20.4762 49.2876 20.366C49.426 20.2396 49.5163 20.0775 49.5163 19.9312C49.6306 19.9312 50.2773 19.2434 50.3708 19.0839C50.4903 18.8808 50.6018 18.7652 50.7813 18.6095C50.8234 18.481 50.8224 18.3827 50.9448 18.32C50.9632 18.227 51.0591 17.8656 51.1493 17.8656C51.1493 17.6794 51.4564 17.5085 51.4961 17.3081C51.5513 17.0266 51.8428 16.8342 51.8428 16.5438C51.9292 16.5438 52.1286 15.7448 52.1286 15.6352C52.2722 15.6352 52.1073 14.8913 52.2514 14.8913C52.2514 14.8199 52.3317 14.478 52.3733 14.478C52.4286 14.254 52.5367 14.1769 52.5367 13.9617C52.5367 13.7535 52.6482 13.5701 52.6997 13.363C52.728 13.363 52.8225 13.0469 52.8225 12.9915C52.9354 12.9915 52.9038 12.5263 52.9038 12.4021C52.9038 12.1172 52.883 11.7644 52.8972 11.4211C52.9066 11.2022 52.8225 11.1303 52.8225 10.8848C52.8055 10.8848 52.9194 10.0583 52.6997 10.0583C52.6997 9.68195 52.5367 9.40927 52.5367 9.06655C52.4805 9.06655 52.2916 8.46703 52.2916 8.36433C52.2094 8.36433 52.1432 7.90485 52.1286 7.78627C52.071 7.78627 51.9651 7.49863 51.9651 7.41463C51.754 7.41463 51.797 6.46397 51.557 6.46397C51.557 6.25197 51.2306 6.13263 51.2306 5.92698C51.1517 5.92698 50.5106 4.82787 50.4549 4.52249C50.3968 4.52249 50.2645 4.20033 50.1899 4.1092C50.0666 3.95921 49.6386 3.6152 49.6386 3.44857C49.4917 3.34754 49.3566 2.99383 49.1492 2.99383C48.9078 2.71011 48.8157 2.66134 48.4685 2.55342C48.1137 2.44283 48.2484 2.2645 48.0263 2.0852C47.7878 1.89093 47.7146 1.83714 47.3941 1.79569C47.3941 1.63786 46.4964 1.68644 46.4964 1.54821C46.0282 1.54821 45.5903 1.30021 45.1487 1.30021C45.1487 1.23537 44.7841 1.08878 44.7107 1.08319C44.5575 1.07291 44.4044 1.06263 44.251 1.05235C44.1935 0.934155 44.1287 0.952805 44.0067 0.928516C44.0067 0.785271 43.2562 0.639584 43.1084 0.639584C43.1084 0.63681 42.0513 0.474297 41.9455 0.474297C41.6997 0.474297 40.4964 0.534443 40.4964 0.763226C40.3198 0.763226 40.2983 0.845989 40.0879 0.845989C40.0879 0.879986 39.5518 0.928516 39.4758 0.928516C39.4758 1.06822 38.7414 1.08596 38.7414 1.21764C38.5061 1.21764 38.1963 1.40253 37.9658 1.63136C37.8833 1.75462 37.6158 2.00243 37.4759 2.00243C37.379 2.201 37.0679 2.32703 37.0679 2.53942C36.5907 2.86679 36.5704 3.58532 36.2718 4.08864C36.0115 4.52809 35.9172 4.85775 35.9413 5.34893C35.9648 5.82706 35.8899 6.1879 36.029 6.68807C36.0864 6.89538 36.1294 7.11728 36.1294 7.29022C36.1785 7.29022 36.2927 7.62079 36.2927 7.70318C36.3384 7.70318 36.4958 8.06081 36.5782 8.11685C36.5782 8.21434 36.724 8.4381 36.8228 8.48854C36.8228 8.57069 37.1646 9.03294 37.2312 9.06655C37.3085 9.18331 37.5565 9.35998 37.5818 9.49615C37.5975 9.58168 37.7294 10.0583 37.5982 10.0583C37.5982 10.2296 37.511 10.3015 37.4759 10.5125C37.307 10.5125 37.1493 11.325 37.1493 11.4628C37.0371 11.4628 37.0033 12.3303 36.8638 12.3303C36.8638 12.9532 36.4005 13.3451 36.313 13.9617C36.2768 14.2185 36.1696 14.4156 36.1696 14.6024C36.1178 14.6024 36.0474 14.7891 36.0474 14.8498C35.9882 14.8498 35.9248 15.0983 35.8436 15.1393C35.8436 15.313 35.6219 15.4335 35.5171 15.5937C35.4143 15.5937 35.2918 15.6557 35.1495 15.6763C35.1495 15.7674 34.8506 15.7172 34.7825 15.7172C34.7825 15.7912 34.3757 15.8005 34.2926 15.8005C34.2926 15.798 33.9309 16.061 33.8822 16.1862C33.7887 16.4271 33.8416 16.6326 33.5888 16.7835C33.3617 16.9192 33.2508 16.965 33.2107 17.205C33.1705 17.4496 33.1262 17.733 33.1087 18.0309C33.038 18.2871 33.0886 18.5697 33.0874 18.8317C33.0865 19.1238 33.0142 19.406 33.0406 19.7002C33.067 19.9968 33.1652 20.2753 33.272 20.5509C33.3032 20.7349 33.3949 20.8335 33.3949 20.9637C33.5445 21.0397 33.6667 21.3774 33.7209 21.5427C33.8992 21.6855 33.9933 21.812 34.1293 21.9965C34.1872 21.9965 34.3223 22.3271 34.4151 22.3271C34.4151 22.6138 34.4408 22.799 34.4151 23.1125C34.3524 23.1125 34.3212 24.6 34.3085 24.7812C34.2662 25.3662 34.0885 25.9102 34.0885 26.4167C34.0885 26.526 33.9292 27.6151 33.8846 27.6151C33.8846 28.0627 33.8765 28.6561 33.8228 29.1575C33.8154 29.2257 33.6626 29.7216 33.8029 29.7216C33.8165 30.0798 33.8302 30.4375 33.8438 30.7961C33.8879 30.7961 34.097 31.6136 34.1293 31.7458C34.1614 31.7458 34.2518 32.0521 34.2518 32.1175C34.268 32.1175 34.4965 32.4531 34.4965 32.5311C34.6923 32.6604 34.6632 32.8836 34.8639 32.985C34.8639 33.1226 35.1018 33.2679 35.2108 33.3567C35.5943 33.6677 35.8203 34.1579 36.3329 34.2554C36.7171 34.3278 37.5578 34.3213 37.5578 34.4309C37.7121 34.4465 37.899 34.4455 38.0068 34.4309C38.3947 34.4571 38.5812 34.4987 38.9047 34.2656C38.9047 34.1387 39.1191 33.7862 39.2311 33.7283C39.2311 33.5606 39.4348 33.5173 39.4348 33.357C39.574 33.2875 39.5386 32.9028 39.6391 32.9028C39.6391 32.7413 39.8024 32.5928 39.8024 32.4069C39.8696 32.4069 39.7618 31.1556 39.7618 31.0024C39.5985 31.0024 39.6576 29.9332 39.6494 29.7838C39.6353 29.5204 39.5577 29.1908 39.5577 28.9368C39.5577 28.7214 39.4348 28.4858 39.4348 28.2598C39.4348 27.96 39.46 27.6602 39.3926 27.3689C39.3419 27.1494 39.2872 26.887 39.3535 26.6648C39.4101 26.6648 39.5985 25.6469 39.5985 25.5492C39.7166 25.5492 40.0471 24.7463 40.0471 24.6408C40.2002 24.5636 40.2765 24.2807 40.4724 24.2443C40.7531 24.192 40.7804 24.1841 41.0269 24.4067C41.1771 24.5421 41.3761 24.9708 41.5982 24.9708C41.6763 25.1286 41.9948 25.3518 42.1452 25.5161C42.3046 25.6898 42.4663 25.6432 42.6187 25.7972C42.7004 25.8804 42.8948 25.9704 43.027 26.0036C43.1861 26.332 43.6823 26.4009 43.8842 26.7059C44.019 26.7059 44.3394 27.0034 44.4352 27.119C44.5756 27.2895 44.7867 27.423 44.9858 27.4906C45.062 27.6468 45.2916 27.706 45.394 27.8629C45.6123 28.0282 45.7525 28.1561 45.9418 28.3236C46.0826 28.4479 46.2877 28.7715 46.4554 28.7715C46.5967 28.9343 46.7896 29.2319 46.9453 29.3085C47.0582 29.4629 47.2509 29.554 47.3121 29.6801C47.5094 29.8295 47.5426 30.0023 47.7207 30.1624C47.8619 30.2894 48.101 30.713 48.2914 30.713C48.2914 30.8829 48.6362 31.0579 48.7 31.2499C48.9168 31.4492 49.1294 31.6375 49.3122 31.8694C49.4964 31.8694 49.7114 32.1726 49.8427 32.3238C50.0789 32.3238 50.18 32.7375 50.4143 32.7375C50.4143 32.7958 50.7478 32.9224 50.8427 32.9433C51.2216 33.0283 51.4195 33.2349 51.8806 33.2185C52.0308 33.2123 52.9038 33.2838 52.9038 33.1086C53.1282 33.1086 53.7239 32.7935 53.8023 32.4891C53.9322 32.4499 54.0621 32.3659 54.1693 32.3659C54.2558 32.1856 54.4957 32.0683 54.4957 31.8694C54.5354 31.8009 54.6252 31.6216 54.6587 31.6216C54.7088 31.4208 54.9856 31.2975 54.9856 31.1257C55.115 31.0131 55.4344 30.7619 55.4344 30.5893C55.5397 30.4967 55.6791 30.5103 55.6791 30.3413C55.9781 30.1392 56.0466 29.725 56.0466 29.391C56.0466 28.827 56.006 28.1272 56.006 27.5734Z" fill="#7B7B7B"/>
</g>
<defs>
<clipPath id="clip0_1_1566">
<rect width="255.814" height="40" fill="white" transform="translate(0.28479)"/>
</clipPath>
</defs>
</svg>
