<svg width="87" height="40" viewBox="0 0 87 40" fill="none" xmlns="http://www.w3.org/2000/svg">
<g clip-path="url(#clip0_1_1521)">
<path d="M0.706055 0.0230374C3.06758 0.00794588 5.43662 0.00794588 7.79814 0.0230374C7.73797 3.05643 7.79814 6.09736 7.76806 9.13075C7.75302 9.38731 7.79062 9.64386 7.88839 9.88533C10.8741 9.92306 13.8599 9.88533 16.8456 9.90797C17.0637 9.91551 17.4097 9.90042 17.3796 9.59859C17.4022 6.40674 17.3796 3.21489 17.3871 0.0230374C19.7336 0.0154916 22.0801 0.0230374 24.4266 0.0230374C24.419 8.73837 24.4266 17.4537 24.419 26.169C22.0726 26.169 19.7336 26.1615 17.3871 26.169C17.3495 22.864 17.4247 19.5514 17.3495 16.2464L17.2743 16.2087L17.2593 16.2011C16.9584 16.0804 16.6275 16.1257 16.3117 16.1257C13.4989 16.1332 10.6786 16.1181 7.86583 16.1257C7.81318 16.2766 7.76054 16.435 7.76054 16.601C7.76054 19.4458 7.76054 22.283 7.76054 25.1277C7.76806 25.4673 7.7831 25.8144 7.71541 26.1464C5.39149 26.1615 3.06006 26.169 0.736138 26.1389C0.675972 17.4386 0.773742 8.73083 0.706055 0.0230374Z" fill="#7B7B7B"/>
<path d="M37.8378 0.00761243C40.1918 6.66887e-05 42.5458 6.66887e-05 44.8998 0.00761243C44.8998 8.73049 44.8998 17.4458 44.8998 26.1687C42.5458 26.1687 40.1993 26.1838 37.8453 26.1612C37.8227 17.4458 37.8453 8.73049 37.8378 0.00761243Z" fill="#7B7B7B"/>
<path d="M47.9899 0.00754575C50.2988 0 52.6001 0 54.909 0C54.9015 8.73043 54.9315 17.4533 54.8939 26.1837C52.6001 26.2139 50.2987 26.2064 47.9974 26.1913C47.9748 17.4609 47.9974 8.73043 47.9899 0.00754575Z" fill="#7B7B7B"/>
<path d="M79.7412 0.0224609C82.035 0.0224609 84.3214 0.0224609 86.6152 0.0224609C86.6077 8.7378 86.6152 17.4456 86.6152 26.1609C84.3289 26.1609 82.035 26.1609 79.7487 26.1609C79.7412 17.4456 79.7487 8.7378 79.7412 0.0224609Z" fill="#7B7B7B"/>
<path d="M60.895 7.59889C62.715 6.13501 65.069 5.38044 67.3929 5.43326C69.3032 5.42571 71.2436 5.86337 72.8831 6.86695C74.5301 7.86299 75.7936 9.4325 76.5307 11.2058C77.4557 13.3487 77.6588 15.7332 77.5084 18.0422C77.4858 17.9139 77.4632 17.7856 77.4407 17.6574C77.4181 17.7555 77.388 17.8536 77.3655 17.9517C72.9884 17.9667 68.6038 17.9517 64.2267 17.9592C64.1064 17.9667 63.9935 17.9894 63.8807 18.0196C64.0988 18.8119 64.4448 19.5891 65.0314 20.1701C66.3475 21.5132 68.491 21.6717 70.1982 21.0831C71.1984 20.7209 72.0558 20.0645 72.8154 19.325C74.124 20.4342 75.4552 21.5057 76.7638 22.6225C75.944 23.6411 74.9814 24.5466 73.8608 25.2182C71.582 26.6142 68.8068 26.9688 66.1896 26.6519C63.6025 26.3425 61.0755 25.1427 59.3908 23.1205C57.3226 20.6908 56.6683 17.2952 57.1572 14.1863C57.5558 11.6359 58.8644 9.20613 60.895 7.59889ZM65.1442 11.5604C64.3395 12.2999 63.986 13.3714 63.7604 14.4127C63.8807 14.4806 64.0161 14.4882 64.1515 14.4882C66.2799 14.4882 68.4158 14.4882 70.5441 14.4882C70.6569 14.4806 70.7848 14.4957 70.8675 14.4052C70.7096 13.4468 70.4238 12.4583 69.7469 11.7264C68.6038 10.4436 66.3776 10.338 65.1442 11.5604Z" fill="#7B7B7B"/>
<path d="M27.7588 9.90723C30.0527 9.91477 32.354 9.90723 34.6479 9.91477C34.6479 15.3326 34.6479 20.7429 34.6479 26.1608C32.354 26.1608 30.0677 26.1608 27.7739 26.1608C27.7288 20.7429 27.7588 15.3251 27.7588 9.90723Z" fill="#7B7B7B"/>
<path d="M30.7145 0.399573C32.4593 0.127926 34.2718 1.37297 34.6554 3.10095C35.054 4.57992 34.347 6.25507 33.0309 7.02474C31.8953 7.72649 30.361 7.7114 29.248 6.96437C28.165 6.27771 27.5182 4.9723 27.6235 3.69706C27.7062 2.04455 29.075 0.595763 30.7145 0.399573Z" fill="#7B7B7B"/>
<path d="M84.8264 30.4014C85.4506 30.3713 86.0749 30.3562 86.6991 30.409C86.7066 33.5254 86.7141 36.6418 86.6991 39.7582C86.0824 39.8185 85.4582 39.8034 84.8339 39.7657C84.7963 36.6418 84.8039 33.5254 84.8264 30.4014Z" fill="#7B7B7B"/>
<path d="M0.864825 30.8916C1.47401 30.8086 2.09823 30.8312 2.70741 30.8689C2.7751 31.5179 2.72998 32.1743 2.74502 32.8233C2.72998 35.1323 2.7751 37.4488 2.72246 39.7578C2.196 39.8182 1.66203 39.788 1.13557 39.788C1.03028 39.7804 0.834742 39.7729 0.857305 39.622C0.864825 36.7093 0.842263 33.8042 0.864825 30.8916Z" fill="#7B7B7B"/>
<path d="M14.1608 31.8502C14.8301 31.6842 15.4995 31.5484 16.1613 31.3975C16.1989 32.0238 16.1688 32.6425 16.1763 33.2688C16.6652 33.2764 17.1616 33.2462 17.6504 33.2914C17.6504 33.7895 17.6504 34.2799 17.6504 34.778C17.1616 34.8232 16.6652 34.7402 16.1763 34.8006C16.1763 35.6759 16.1763 36.5588 16.1763 37.4341C16.1763 37.751 16.2967 38.1434 16.6201 38.2641C16.9284 38.3697 17.2593 38.3018 17.5827 38.2792C17.6203 38.7923 17.6203 39.313 17.5827 39.8336C16.7705 40.0298 15.8529 40.1203 15.0858 39.7129C14.5368 39.4261 14.2285 38.8074 14.1908 38.2037C14.236 37.0492 14.2435 35.8872 14.1908 34.7327C13.9051 34.71 13.6268 34.6874 13.341 34.6723C13.2884 34.2498 13.3034 33.8196 13.3485 33.3895C13.6042 33.382 13.8599 33.3895 14.1006 33.299C14.1608 32.8161 14.1006 32.3331 14.1608 31.8502Z" fill="#7B7B7B"/>
<path d="M51.048 31.5939C51.2962 31.5713 51.5368 31.5713 51.785 31.5713C51.8602 32.1221 51.7023 32.6956 51.8828 33.2314C51.8978 33.2464 51.9279 33.2766 51.943 33.2993C52.3566 33.4879 52.8379 33.2691 53.2666 33.42C53.3644 33.835 53.3117 34.2651 53.2892 34.6877C52.8379 34.7405 52.3792 34.6726 51.9279 34.7254L51.9204 34.8009C51.9054 35.6309 51.9204 36.4609 51.9129 37.2834C51.9129 37.6003 51.9505 37.9625 52.2062 38.1814C52.5296 38.4077 52.9507 38.3096 53.3193 38.2795C53.3493 38.8001 53.3569 39.3208 53.3268 39.8414C52.4619 40.0301 51.4692 40.1357 50.6945 39.6301C50.0703 39.2227 49.9124 38.4304 49.8748 37.7437C49.8372 36.7628 49.8748 35.7894 49.8522 34.8084C49.5664 34.816 49.2731 34.816 48.9873 34.7858C48.9873 34.2878 48.9873 33.7973 48.9873 33.2993C49.2731 33.2691 49.5664 33.2691 49.8522 33.2766C49.8748 32.8012 49.8597 32.3334 49.8823 31.858C50.2658 31.7599 50.6569 31.6618 51.048 31.5939Z" fill="#7B7B7B"/>
<path d="M7.38316 33.8954C8.08259 33.1182 9.30096 32.9144 10.2486 33.337C10.9029 33.6237 11.3616 34.2802 11.4745 34.982C11.482 36.5741 11.482 38.1663 11.482 39.7584C10.8728 39.8188 10.2561 39.7735 9.64691 39.7509C9.56418 38.4832 9.64691 37.208 9.60179 35.9327C9.60179 35.7894 9.52658 35.6611 9.46641 35.5328C9.316 35.1253 8.97004 34.748 8.50375 34.8009C7.9773 34.748 7.57118 35.1631 7.39068 35.6158C7.34555 35.7139 7.30043 35.812 7.29291 35.9176C7.25531 37.2004 7.29291 38.4832 7.27787 39.7735C6.6386 39.8188 5.99934 39.8112 5.36007 39.7811C5.36759 37.6532 5.32999 35.5177 5.36759 33.3898C5.89405 33.3445 6.4205 33.3521 6.94695 33.3898C6.96952 33.6237 6.98456 33.8576 7.02216 34.0916H7.08985C7.23274 34.1142 7.30043 33.9708 7.38316 33.8954Z" fill="#7B7B7B"/>
<path d="M29.1343 34.5066C29.4502 33.7219 30.1872 33.088 31.0596 33.1182C31.1724 33.1409 31.4206 33.088 31.4056 33.2767C31.4056 33.8728 31.4056 34.4689 31.4056 35.065C30.8866 35.0047 30.3 34.982 29.8788 35.3367C29.5404 35.5932 29.3975 36.0384 29.3975 36.4534C29.3825 37.5778 29.39 38.7096 29.3975 39.8339C28.7056 39.8566 28.0137 39.8717 27.3218 39.8339C27.3143 37.6532 27.3519 35.465 27.2842 33.2767C27.8708 33.254 28.4649 33.254 29.0591 33.2767C29.0816 33.6842 29.0967 34.0992 29.1343 34.5066Z" fill="#7B7B7B"/>
<path d="M35.0235 34.1742C35.6552 33.329 36.8059 32.9065 37.8212 33.2234C38.4304 33.3818 38.9944 33.8497 39.1975 34.4533C39.19 34.9815 39.4457 35.472 39.4156 36.0002C39.4005 37.2528 39.4231 38.5054 39.393 39.758C38.7688 39.7882 38.1521 39.7731 37.5279 39.758C37.4978 38.5431 37.588 37.3283 37.4903 36.121C37.4301 37.366 37.5279 38.6186 37.4376 39.8636C37.3699 38.8827 37.4301 37.8942 37.4075 36.9057C37.385 36.3247 37.4978 35.6758 37.1518 35.1626C36.9036 34.7929 36.3922 34.725 35.9936 34.8457C35.5048 35.0193 35.2115 35.5701 35.2416 36.0757C35.2491 37.3283 35.2416 38.5809 35.2491 39.8335C34.5496 39.8712 33.8577 39.8636 33.1583 39.841C33.1508 37.6527 33.1733 35.4645 33.1357 33.2762C33.7299 33.2687 34.324 33.2536 34.9182 33.2988C34.9558 33.5856 34.9708 33.8799 35.0235 34.1742Z" fill="#7B7B7B"/>
<path d="M41.891 33.6761C43.1244 33.1253 44.5759 32.9064 45.8694 33.3592C46.7042 33.6535 47.2758 34.491 47.3285 35.3663C47.2307 36.302 47.321 37.2377 47.2909 38.1809C47.3134 38.5884 47.2232 39.0109 47.3962 39.3958C47.4488 39.5316 47.4638 39.6825 47.4789 39.8334C46.8547 39.8561 46.2229 39.8712 45.5912 39.8259C45.5686 39.6071 45.5235 39.3958 45.4558 39.1845C44.6661 40.0749 43.192 40.2711 42.2143 39.592C41.169 38.8827 41.1314 37.2075 42.0489 36.385C42.9288 35.6003 44.1697 35.4795 45.2979 35.4493C45.3505 35.0117 45.0046 34.642 44.5909 34.574C43.7937 34.4307 42.9589 34.6269 42.252 35.0117C42.1316 34.574 41.9662 34.1364 41.891 33.6761ZM43.7561 37.1094C43.3274 37.4188 43.3124 38.196 43.8012 38.4526C44.3653 38.7393 45.1474 38.4073 45.3204 37.7885C45.3881 37.449 45.3656 37.0943 45.3355 36.7472C44.809 36.7548 44.2074 36.7698 43.7561 37.1094Z" fill="#7B7B7B"/>
<path d="M62.2269 33.1634C63.2497 33.0352 64.3703 33.2238 65.16 33.9255C66.7619 35.3366 66.5814 38.3172 64.7389 39.4415C63.2347 40.3696 60.9785 40.1432 59.903 38.6643C59.1208 37.5324 59.0908 35.9327 59.7526 34.7329C60.2414 33.835 61.2267 33.2842 62.2269 33.1634ZM62.603 34.5896C61.9186 34.6726 61.5576 35.3819 61.4673 36.0006C61.3696 36.7326 61.4222 37.5701 61.9261 38.1587C62.3698 38.6718 63.2873 38.6492 63.6784 38.0757C64.1974 37.3287 64.2049 36.3176 63.9266 35.4724C63.7612 34.9216 63.1896 34.4839 62.603 34.5896Z" fill="#7B7B7B"/>
<path d="M70.0595 34.1817C70.8793 32.9442 72.8873 32.7178 73.8801 33.8572C74.3764 34.4458 74.5269 35.2456 74.5193 35.9927C74.5118 37.2754 74.5344 38.5658 74.5043 39.8485C73.8124 39.8485 73.128 39.8636 72.4361 39.8334C72.4436 38.6035 72.4361 37.3735 72.4361 36.1511C72.4361 35.6833 72.3233 35.1249 71.872 34.8834C71.1801 34.5439 70.3077 35.0796 70.2776 35.8493C70.24 37.1849 70.2927 38.5205 70.2551 39.8561C70.1798 38.5431 70.2851 37.2151 70.2024 35.9021C70.0746 37.1773 70.2099 38.4677 70.1347 39.7429C69.5255 39.8259 68.9088 39.7882 68.2997 39.758C68.232 37.7206 68.3297 35.6833 68.247 33.6459C68.232 33.5177 68.3072 33.3743 68.4501 33.3894C68.9013 33.3743 69.3676 33.3366 69.8113 33.412C69.8941 33.6459 69.9016 33.8949 70.0144 34.1213C70.0294 34.1364 70.0445 34.1666 70.0595 34.1817Z" fill="#7B7B7B"/>
<path d="M76.8883 33.7065C77.6404 33.299 78.4978 33.1632 79.3401 33.1104C80.0696 33.1254 80.8367 33.2084 81.4384 33.6612C82.0701 34.1215 82.371 34.9289 82.386 35.691C82.4311 37.0719 82.3334 38.4603 82.4838 39.8412C81.8671 39.8487 81.2429 39.8713 80.6262 39.8336C80.5886 39.6148 80.5434 39.4035 80.4908 39.1922C79.5657 40.2486 77.6555 40.3316 76.7906 39.162C76.1513 38.2943 76.3468 36.9285 77.2042 36.2796C78.0766 35.5854 79.2423 35.4948 80.3178 35.4571C80.3479 35.0572 80.0771 34.6874 79.6936 34.6044C78.8663 34.4158 78.0089 34.6421 77.2644 35.0194C77.1516 34.5742 77.0237 34.1441 76.8883 33.7065ZM78.746 37.1322C78.3624 37.4341 78.3474 38.1056 78.7384 38.3999C79.31 38.7697 80.19 38.4301 80.3554 37.7585C80.4156 37.419 80.378 37.0719 80.378 36.7323C79.829 36.7549 79.2047 36.7625 78.746 37.1322Z" fill="#7B7B7B"/>
<path d="M55.3729 33.3827C55.9821 33.3827 56.5838 33.3676 57.193 33.3978C57.2456 35.5106 57.2005 37.6309 57.2155 39.7513C56.6063 39.8192 55.9896 39.7739 55.3729 39.7513C55.3353 37.6309 55.3203 35.503 55.3729 33.3827Z" fill="#7B7B7B"/>
<path d="M19.74 34.4459C20.7778 32.9142 23.2747 32.6274 24.5758 33.9706C25.2602 34.7327 25.4858 35.8268 25.373 36.8304C25.3279 36.921 25.2753 37.004 25.2226 37.0945C24.1847 37.1398 23.1469 37.102 22.109 37.1171C21.7706 37.1322 21.4096 37.0341 21.0937 37.1926C21.0185 37.6604 21.4246 38.083 21.8307 38.249C22.7708 38.6489 23.8237 38.4376 24.7789 38.2113C24.8466 38.6791 24.9594 39.1319 25.0346 39.5997C24.1246 39.9242 23.1469 40.0373 22.1842 39.977C21.184 39.9091 20.1536 39.4714 19.5971 38.6037C18.8375 37.3435 18.9202 35.6457 19.74 34.4459ZM21.0636 35.8117C21.8608 35.8042 22.6655 35.8042 23.4627 35.8117C23.538 35.1854 23.0867 34.4837 22.4174 34.4912C21.6728 34.3931 21.0486 35.1024 21.0636 35.8117Z" fill="#7B7B7B"/>
</g>
<defs>
<clipPath id="clip0_1_1521">
<rect width="86" height="40" fill="white" transform="translate(0.706055)"/>
</clipPath>
</defs>
</svg>
