<svg width="141" height="40" viewBox="0 0 141 40" fill="none" xmlns="http://www.w3.org/2000/svg">
<g clip-path="url(#clip0_1_1501)">
<path d="M15.2826 22.6611H4.91376V33.555H0V6.69434H4.91376V17.9625H15.2826V6.69434H20.1964V33.555H15.2826V22.6611Z" fill="#7B7B7B"/>
<path d="M35.9365 24.8648C35.9365 27.1101 34.1042 28.9396 31.8555 28.9396C29.6069 28.9396 27.7746 27.1101 27.7746 24.8648V13.3887H23.1523V24.9063C23.4855 29.7296 27.6497 33.3471 32.4802 33.0145C36.8526 32.7234 40.3089 29.2722 40.6004 24.9063V13.3887H35.9365V24.8648Z" fill="#7B7B7B"/>
<path d="M70.4603 14.553C70.4603 12.1829 72.0427 11.4345 73.75 11.4345C75.1242 11.4345 76.9564 12.474 78.1641 13.7629L81.2039 10.1871C79.6632 8.10806 76.5817 6.69434 74.0415 6.69434C68.9612 6.69434 65.3383 9.64652 65.3383 14.553C65.3383 23.659 76.4984 20.79 76.4984 25.8627C76.4984 27.4428 74.9576 28.8149 73.2086 28.8149C70.4603 28.8149 69.5441 27.4844 68.2949 26.0291L64.9219 29.5634C67.0873 32.2245 69.7524 33.555 72.9588 33.555C77.7476 33.555 81.6203 30.5613 81.6203 25.8627C81.6203 15.8004 70.4603 18.9189 70.4603 14.553Z" fill="#7B7B7B"/>
<path d="M139.377 29.2725C136.628 29.2725 135.837 28.0667 135.837 26.2787V18.2122H140.126V14.1373H135.837V8.73193L131.09 10.8525V27.3182C131.09 31.5178 134.005 33.6384 137.961 33.6384C138.585 33.6384 139.21 33.5968 139.835 33.5136L141.001 29.2725C140.501 29.2309 139.918 29.2725 139.377 29.2725Z" fill="#7B7B7B"/>
<path d="M53.6776 13.5136C51.6372 13.4305 49.6383 14.2205 48.2225 15.7174V6.86084H43.5586V23.2434C43.5586 29.3972 48.0143 33.5968 53.0113 33.5968C58.5497 33.5968 63.4219 29.3141 63.4219 23.5344C63.3802 17.838 58.8829 13.5136 53.6776 13.5136ZM53.636 28.8983C50.721 28.8983 48.3474 26.5282 48.3474 23.6176C48.3474 20.707 50.721 18.3369 53.636 18.3369C56.5509 18.3369 58.9245 20.707 58.9245 23.6176C58.9662 26.5282 56.5926 28.8983 53.636 28.8983Z" fill="#7B7B7B"/>
<path d="M104.398 23.285C104.398 17.5054 99.5263 13.2227 93.9879 13.2227C88.9909 13.2227 84.5352 17.4222 84.5352 23.5761V40.0002H89.1991V31.1437C90.6149 32.6405 92.6137 33.4306 94.6958 33.3058C99.9011 33.3474 104.398 28.9815 104.398 23.285ZM99.9427 23.2434C99.9427 26.1541 97.5691 28.5241 94.6542 28.5241C91.7392 28.5241 89.3656 26.1541 89.3656 23.2434C89.3656 20.3328 91.7392 17.9628 94.6542 17.9628C97.5691 17.9628 99.9427 20.3328 99.9427 23.2434Z" fill="#7B7B7B"/>
<path d="M119.469 13.0148V8.35779C120.719 7.77567 121.551 6.48669 121.551 5.11455V4.98981C121.551 2.99397 119.927 1.37235 117.929 1.37235H117.845C115.846 1.37235 114.222 2.99397 114.222 4.98981V5.11455C114.222 6.52827 115.055 7.77567 116.304 8.35779V13.0563C114.514 13.3474 112.848 14.0543 111.432 15.1769L98.565 5.15613C98.6482 4.82349 98.6899 4.49085 98.7315 4.15821C98.7732 1.87131 96.9409 0.000206729 94.6922 0.000206729C92.4019 -0.0413733 90.528 1.78815 90.528 4.03347C90.4864 6.32037 92.3187 8.19147 94.5673 8.19147C95.3169 8.19147 96.0248 8.02515 96.6494 7.65093L109.309 17.547C106.977 21.0813 107.018 25.6551 109.475 29.1062L105.644 32.9316C105.353 32.8484 105.019 32.7653 104.686 32.7653C102.854 32.7653 101.355 34.2622 101.355 36.0917C101.355 37.9212 102.854 39.4181 104.686 39.4181C106.519 39.4181 108.018 37.9212 108.018 36.0917C108.018 35.759 107.976 35.468 107.851 35.1353L111.682 31.3516C116.18 34.8027 122.634 33.9711 126.09 29.4389C129.547 24.9067 128.714 18.5033 124.175 15.0522C122.842 14.0127 121.218 13.3058 119.469 13.0148ZM117.887 28.441C114.972 28.441 112.598 26.0709 112.598 23.1603C112.598 20.2497 114.972 17.8796 117.887 17.8796C120.802 17.8796 123.175 20.2497 123.175 23.1603C123.175 26.0709 120.802 28.441 117.887 28.441Z" fill="#7B7B7B"/>
</g>
<defs>
<clipPath id="clip0_1_1501">
<rect width="141" height="40" fill="white"/>
</clipPath>
</defs>
</svg>
