<svg width="82" height="40" viewBox="0 0 82 40" fill="none" xmlns="http://www.w3.org/2000/svg">
<g clip-path="url(#clip0_1_1515)">
<path d="M5.80556 0.000976562C9.11541 0.000976562 11.1586 2.32403 11.1586 5.25125C11.1586 8.18084 9.11541 10.5032 5.80556 10.5032C2.49571 10.5032 0.452148 8.18084 0.452148 5.25125C0.452148 2.32403 2.49571 0.000976562 5.80556 0.000976562ZM58.6868 15.7904C59.7412 17.4905 61.8388 21.1895 63.9635 24.8561C65.3367 27.2265 66.8162 29.8532 67.6178 31.3658C70.0606 27.2277 72.8005 20.5695 74.6012 14.6425C74.7822 14.0487 75.0652 13.7609 75.5851 13.7609C75.8623 13.7609 76.3298 13.8751 77.6131 14.2634C78.3855 14.4957 79.9268 14.9632 80.5005 15.143C81.0915 15.3276 81.3388 15.6233 81.3388 16.0003C81.3388 16.3687 81.1258 16.9549 80.8244 17.7597C78.4251 24.1914 75.093 31.1815 71.1851 37.092C69.6945 39.3465 68.0404 40.001 65.2865 40.001C62.3765 40.001 61.0763 39.2339 59.648 37.1469C58.6786 35.7291 57.6679 34.172 56.301 32.0781L56.3009 32.0782C53.2235 37.0649 47.9508 39.9991 40.7773 39.9991C35.3497 39.9991 30.4345 38.3513 27.7243 35.9112C24.9668 38.4314 20.3002 39.9991 15.8234 39.9991C11.3406 39.9991 6.62422 38.7802 3.86282 36.05C1.73952 33.9502 0.522794 31.2847 0.522794 26.6185V14.9267C0.522794 14.3487 0.72951 14.1065 1.35487 14.1065H10.2426C10.8759 14.1065 11.0885 14.3573 11.0885 14.9226V27.8555C11.0885 29.9237 11.5408 31.3233 12.5046 32.3305C13.43 33.2969 14.9817 33.8736 16.7315 33.8736C18.5243 33.8736 20.1547 33.2767 21.1918 32.1748C22.3714 30.9203 22.9069 29.1307 22.9069 25.8285L22.9066 5.97501C22.9066 5.00486 23.1618 4.33322 23.7143 3.8344C24.5301 3.09998 26.1807 2.74075 28.1895 2.74075C30.1696 2.74075 31.849 3.09992 32.6644 3.8344C33.2172 4.33319 33.4735 5.00004 33.4735 5.97428V14.1055H41.8309C42.4639 14.1055 42.6848 14.3576 42.6848 14.9233V19.8947C42.6848 20.4607 42.4639 20.7111 41.8309 20.7111H37.1386C35.676 20.7111 34.462 20.4984 33.4736 20.0806V23.416L33.4712 23.71L33.4737 23.4163L33.4761 25.243C33.4761 28.3204 34.1292 30.1626 35.4791 31.5321C36.8935 32.9691 39.0654 33.7591 41.8772 33.7591C47.804 33.7591 50.8735 30.0773 50.8735 26.0144C50.8735 24.3975 50.396 23.0803 49.4445 21.4654L49.4177 21.4249C48.5673 19.9872 48.3397 19.3791 48.3397 18.5681C48.3397 16.1778 52.6172 13.6149 55.5054 13.6149C56.5372 13.6149 57.1951 13.8622 57.895 14.678C58.0866 14.9159 58.3135 15.1886 58.6863 15.7896L58.6868 15.7904Z" fill="#7B7B7B"/>
<path d="M5.80556 0.000976562C9.11541 0.000976562 11.1586 2.32403 11.1586 5.25125C11.1586 8.18084 9.11541 10.5032 5.80556 10.5032C2.49571 10.5032 0.452148 8.18084 0.452148 5.25125C0.452148 2.32403 2.49571 0.000976562 5.80556 0.000976562ZM58.6868 15.7904C59.7412 17.4905 61.8388 21.1895 63.9635 24.8561C65.3367 27.2265 66.8162 29.8532 67.6178 31.3658C70.0606 27.2277 72.8005 20.5695 74.6012 14.6425C74.7822 14.0487 75.0652 13.7609 75.5851 13.7609C75.8623 13.7609 76.3298 13.8751 77.6131 14.2634C78.3855 14.4957 79.9268 14.9632 80.5005 15.143C81.0915 15.3276 81.3388 15.6233 81.3388 16.0003C81.3388 16.3687 81.1258 16.9549 80.8244 17.7597C78.4251 24.1914 75.093 31.1815 71.1851 37.092C69.6945 39.3465 68.0404 40.001 65.2865 40.001C62.3765 40.001 61.0763 39.2339 59.648 37.1469C58.6786 35.7291 57.6679 34.172 56.301 32.0781L56.3009 32.0782C53.2235 37.0649 47.9508 39.9991 40.7773 39.9991C35.3497 39.9991 30.4345 38.3513 27.7243 35.9112C24.9668 38.4314 20.3002 39.9991 15.8234 39.9991C11.3406 39.9991 6.62422 38.7802 3.86282 36.05C1.73952 33.9502 0.522794 31.2847 0.522794 26.6185V14.9267C0.522794 14.3487 0.72951 14.1065 1.35487 14.1065H10.2426C10.8759 14.1065 11.0885 14.3573 11.0885 14.9226V27.8555C11.0885 29.9237 11.5408 31.3233 12.5046 32.3305C13.43 33.2969 14.9817 33.8736 16.7315 33.8736C18.5243 33.8736 20.1547 33.2767 21.1918 32.1748C22.3714 30.9203 22.9069 29.1307 22.9069 25.8285L22.9066 5.97501C22.9066 5.00486 23.1618 4.33322 23.7143 3.8344C24.5301 3.09998 26.1807 2.74075 28.1895 2.74075C30.1696 2.74075 31.849 3.09992 32.6644 3.8344C33.2172 4.33319 33.4735 5.00004 33.4735 5.97428V14.1055H41.8309C42.4639 14.1055 42.6848 14.3576 42.6848 14.9233V19.8947C42.6848 20.4607 42.4639 20.7111 41.8309 20.7111H37.1386C35.676 20.7111 34.462 20.4984 33.4736 20.0806V23.416L33.4712 23.71L33.4737 23.4163L33.4761 25.243C33.4761 28.3204 34.1292 30.1626 35.4791 31.5321C36.8935 32.9691 39.0654 33.7591 41.8772 33.7591C47.804 33.7591 50.8735 30.0773 50.8735 26.0144C50.8735 24.3975 50.396 23.0803 49.4445 21.4654L49.4177 21.4249C48.5673 19.9872 48.3397 19.3791 48.3397 18.5681C48.3397 16.1778 52.6172 13.6149 55.5054 13.6149C56.5372 13.6149 57.1951 13.8622 57.895 14.678C58.0866 14.9159 58.3135 15.1886 58.6863 15.7896L58.6868 15.7904Z" fill="#7B7B7B"/>
</g>
<defs>
<clipPath id="clip0_1_1515">
<rect width="81" height="40" fill="white" transform="translate(0.706055)"/>
</clipPath>
</defs>
</svg>
