<svg width="147" height="40" viewBox="0 0 147 40" fill="none" xmlns="http://www.w3.org/2000/svg">
<g clip-path="url(#clip0_1_1577)">
<path d="M61.4411 36.0516H61.7184C62.6059 36.0516 63.5679 35.8854 63.5679 34.781C63.5679 33.6957 62.5311 33.5678 61.6723 33.5678H61.4411V36.0516ZM61.4411 39.7337H60.571V32.7925H61.5697C63.7157 32.7925 64.3815 33.5298 64.3815 34.8001C64.3815 36.2634 63.2635 36.8234 61.9388 36.8234H61.4411V39.7337Z" fill="#7B7B7B"/>
<path d="M69.4764 34.3956L68.2368 37.2009H70.7156L69.4764 34.3956ZM67.8772 37.9941L67.0804 39.7335H66.1453L69.4764 32.4985L72.8057 39.7335H71.8712L71.0768 37.9941H67.8772Z" fill="#7B7B7B"/>
<path d="M76.5655 36.0788H76.8425C77.7318 36.0788 78.6932 35.912 78.6932 34.8082C78.6932 33.7223 77.6585 33.5673 76.7975 33.5673H76.5655V36.0788ZM80.0344 39.7332H78.9805L76.9267 36.7961H76.5655V39.7332H75.696V32.792H76.752C77.3709 32.792 78.0365 32.802 78.5909 33.1141C79.1749 33.4567 79.5065 34.1088 79.5065 34.7723C79.5065 35.7667 78.8415 36.5946 77.8337 36.7126L80.0344 39.7332Z" fill="#7B7B7B"/>
<path d="M83.5266 32.792H84.3955V39.7332H83.5266V32.792Z" fill="#7B7B7B"/>
<path d="M91.4221 34.1089C91.1635 33.6772 90.8295 33.4569 90.3035 33.4569C89.749 33.4569 89.1387 33.8334 89.1387 34.4407C89.1387 34.9845 89.6748 35.2684 90.1102 35.4342L90.609 35.6286C91.5971 36.0136 92.338 36.5569 92.338 37.7181C92.338 38.9784 91.3577 39.881 90.1102 39.881C88.9815 39.881 88.1016 39.0528 87.9539 37.9381L88.8331 37.7539C88.8231 38.5175 89.4342 39.0692 90.1838 39.0692C90.9321 39.0692 91.4679 38.4448 91.4679 37.7181C91.4679 36.9707 90.8677 36.6489 90.2674 36.4025L89.7851 36.1989C88.9903 35.8575 88.2689 35.4084 88.2689 34.4407C88.2689 33.3181 89.2679 32.6445 90.3227 32.6445C91.0991 32.6445 91.7374 33.0228 92.1169 33.6957L91.4221 34.1089Z" fill="#7B7B7B"/>
<path d="M23.53 0.323328C23.3689 -0.0190254 23.1677 -0.0628488 22.7834 0.0697983L21.6651 0.445681C20.1194 0.995386 18.7933 2.17833 17.6983 3.2095C12.5185 8.16891 4.96199 20.848 1.13673 30.3966C0.868963 31.053 0.80542 31.3604 0.80542 31.5427C0.80542 32.0498 1.28864 32.2542 2.12592 32.1248C5.51259 23.9816 12.6781 9.70686 19.2419 3.87568L20.1554 3.07774H20.3047V3.5248C20.3047 5.06774 19.95 8.48568 19.4157 11.3742C18.7037 15.1092 17.6726 19.5954 17.3412 21.1069C16.9245 22.9657 16.7753 24.6239 16.7753 25.0786C16.7753 25.5569 16.8941 25.6845 17.4515 25.621C18.2894 25.5222 19.4751 24.9722 19.8865 24.6648C20.3047 24.333 20.7548 23.9524 21.5658 22.2907C22.6909 19.9566 25.8134 13.2307 29.4468 8.77303L29.9824 8.10392H30.1192L29.9824 8.96539C29.7988 10.3477 29.5352 12.2648 29.5352 14.6342C29.5352 17.8095 29.8299 21.2351 30.6308 23.3769C31.2198 24.9107 32.0148 25.5569 32.9201 25.5569C33.7243 25.5569 34.3972 25.1666 34.9419 24.471C33.5611 22.5019 32.7992 18.1657 32.7992 14.1213C32.7992 11.881 32.8864 9.92627 33.1131 8.23803C33.1817 7.74833 33.3643 6.50245 33.3643 5.86539C33.3643 5.48098 33.3135 5.18656 32.9201 5.26156C32.504 5.29098 31.4303 5.67156 31.0245 5.86539C29.8299 6.37245 29.1206 7.07362 27.4853 9.16215C26.0359 10.9866 22.9099 15.9524 20.0239 22.3177H19.8865L20.7548 18.9274C22.7267 11.3086 23.8418 6.2095 23.8418 2.8795C23.8418 1.31803 23.5844 0.517151 23.53 0.323328Z" fill="#7B7B7B"/>
<path d="M45.311 22.8689V19.088L42.5193 19.401C40.5884 19.6275 39.7778 20.1148 39.7778 21.2057C39.7778 22.4057 40.6145 23.0895 42.8961 23.0895C43.6728 23.0895 44.3765 22.996 45.311 22.8689ZM38.175 13.0972C39.2614 12.5595 40.9277 12.2983 42.4492 12.2983C46.6276 12.2983 47.8181 14.5748 47.8181 17.0063V24.371C46.2756 24.6642 44.2834 24.8504 42.3106 24.8504C39.9096 24.8504 37.1492 24.241 37.1492 21.2057C37.1492 19.6275 38.0101 18.2513 41.6113 17.8083L45.311 17.3569V17.0739C45.311 14.9548 44.2834 14.2478 42.0895 14.2478C40.9062 14.2478 39.3631 14.5348 38.175 15.2051V13.0972Z" fill="#7B7B7B"/>
<path d="M55.973 12.2979C56.4813 12.2979 57.4492 12.3293 58.0666 12.5199V14.5346C57.2896 14.3708 56.7139 14.2467 55.639 14.2467C54.6714 14.2467 53.926 14.4111 53.0016 14.6911V24.6643H50.4773V13.4781C51.7319 12.9005 53.3255 12.2979 55.973 12.2979Z" fill="#7B7B7B"/>
<path d="M67.2864 18.5085C67.2864 21.2347 68.7633 22.8862 71.495 22.8862C73.2765 22.8862 75.4284 21.8082 75.4284 18.64C75.4284 15.9182 73.9492 14.2474 71.2151 14.2474C69.404 14.2474 67.2864 15.3427 67.2864 18.5085ZM71.5352 12.2974C75.5638 12.2974 78.0272 15.0547 78.0272 18.5085C78.0272 22.2291 75.4911 24.8503 71.3094 24.8503C67.3035 24.8503 64.7078 22.0885 64.7078 18.6068C64.7078 14.8977 67.3035 12.2974 71.5352 12.2974Z" fill="#7B7B7B"/>
<path d="M85.878 12.2979C89.8514 12.2979 91.6388 13.5479 91.6388 17.4576V24.6643H89.137V17.6179C89.137 14.829 87.6271 14.2467 85.4282 14.2467C84.5002 14.2467 83.6322 14.4429 82.705 14.7376V24.6643H80.1843V13.4529C81.4419 12.8079 83.8863 12.2979 85.878 12.2979Z" fill="#7B7B7B"/>
<path d="M99.9985 12.2979C103.956 12.2979 105.761 13.5479 105.761 17.4576V24.6643H103.245V17.6179C103.245 14.829 101.764 14.2467 99.58 14.2467C98.639 14.2467 97.7414 14.4429 96.8083 14.7376V24.6643H94.3015V13.4529C95.5898 12.8079 97.9973 12.2979 99.9985 12.2979Z" fill="#7B7B7B"/>
<path d="M144.288 22.5514V14.7661C143.456 14.4423 142.583 14.2485 141.559 14.2485C139.533 14.2485 136.925 14.8667 136.925 18.5453C136.925 21.7064 139.011 22.8864 141.716 22.8864C142.583 22.8864 143.39 22.7714 144.288 22.5514ZM141.559 24.8505C137.021 24.8505 134.344 22.5779 134.344 18.832C134.344 14.3532 137.608 12.2979 141.327 12.2979C142.583 12.2979 143.526 12.4905 144.288 12.8079V5.83496H146.797V24.2411C144.935 24.6647 143.33 24.8505 141.559 24.8505Z" fill="#7B7B7B"/>
<path d="M108.917 13.0976C110.019 12.5596 111.688 12.2979 113.194 12.2979C117.374 12.2979 118.566 14.5752 118.566 17.0061V24.3714C117.027 24.6646 115.042 24.8505 113.063 24.8505C110.646 24.8505 107.891 24.2402 107.891 21.2058C107.891 19.6279 108.755 18.2514 112.357 17.8093L116.068 17.3576V17.074C116.068 14.9552 115.042 14.2476 112.845 14.2476C111.653 14.2476 110.113 14.5352 108.917 15.2055V13.0976ZM116.03 22.869V19.0881L113.237 19.4014C111.295 19.6279 110.494 20.1149 110.494 21.2058C110.494 22.4064 111.358 23.0896 113.616 23.0896C114.381 23.0896 115.097 22.9961 116.03 22.869Z" fill="#7B7B7B"/>
<path d="M60.0209 24.6642L60.0242 12.5195L62.5455 12.5202L62.5422 24.6649L60.0209 24.6642Z" fill="#7B7B7B"/>
<path d="M60.0237 7.37305H62.5359V9.73776H60.0237V7.37305Z" fill="#7B7B7B"/>
<path d="M126.584 24.8842C122.612 24.8842 120.915 23.6342 120.915 19.7216V12.5195H123.417V19.5645C123.417 22.351 124.836 22.9322 127.032 22.9322C127.961 22.9322 128.741 22.7384 129.666 22.4419V12.5195H132.186V23.7278C130.925 24.3736 128.578 24.8842 126.584 24.8842Z" fill="#7B7B7B"/>
</g>
<defs>
<clipPath id="clip0_1_1577">
<rect width="146" height="40" fill="white" transform="translate(0.80542)"/>
</clipPath>
</defs>
</svg>
