<svg width="191" height="40" viewBox="0 0 191 40" fill="none" xmlns="http://www.w3.org/2000/svg">
<g clip-path="url(#clip0_1_1575)">
<path d="M21.7054 17.8C21.7054 14.6571 16.6388 14.3428 14.2004 14.3428C11.3188 14.3428 8.21542 14.8857 5.65042 15.7714C3.56042 16.4857 0.80542 17.7714 0.80542 20.1143C0.80542 23.1714 5.93542 24.8 9.76709 25.8857C14.0421 27.0857 16.8921 28.2285 16.8921 29.2C16.8921 30.9428 12.1421 30.9714 11.0654 30.9714C6.60042 30.9714 3.78209 30.1428 3.40209 30.1428C2.54709 30.1428 2.07209 32.2285 2.92709 32.4571C5.52375 33.1428 8.08875 33.4285 10.5588 33.4285C16.5754 33.4285 19.9004 31.9143 19.9004 29.0571C19.9004 26.7428 16.1638 25.1428 11.6354 23.8C8.18375 22.7714 3.81375 21.8571 3.81375 20.1143C3.81375 19.0571 5.46042 18.3714 6.72709 17.9428C8.88042 17.1714 11.5721 16.8 13.9788 16.8C14.7071 16.8 18.7288 16.8 18.7288 18C18.7288 18.3143 18.4754 18.5714 17.9688 19.0285C17.4304 19.5143 18.7921 21.0571 19.7421 20.6C20.7871 20.1143 21.7054 19.1428 21.7054 17.8ZM49.0021 31.5714C49.0338 32.1143 49.0654 32.6857 49.0654 33.1714V36.5714C49.0654 37.1428 48.8121 37.5143 47.5454 37.5143C46.4371 37.5143 46.2788 37.0285 46.2788 36.7143V27.9143C46.2788 27.4 46.8488 26.9714 47.7988 26.9714C48.4004 26.9714 49.0654 27.2571 49.0654 28.2857C49.0654 29.4571 50.2688 30.3428 52.8971 30.3428C53.9738 30.3428 55.2088 30.4285 55.9688 29.8571C56.6338 29.3714 56.6654 28.4571 56.6654 27.0571C56.6654 24.4857 56.0321 23.5714 52.3271 23.5714C50.6488 23.5714 48.7804 23.4857 47.1971 24.1714C43.7138 25.6857 42.6054 32.6571 38.6154 32.6571C36.2721 32.6571 34.6888 30.0857 34.3404 26.2857H34.2454C33.1688 29.9428 31.5854 32.6571 28.6721 32.6571C24.3971 32.6571 23.0671 27 22.6238 22.4285C22.5604 21.8285 22.7188 21.4285 24.3971 21.3428C24.9671 21.3143 25.4421 21.4 25.4738 21.8285C25.8538 26.4285 26.7088 30.3428 28.8621 30.3428C31.2054 30.3428 32.7254 24 33.2321 22C33.4538 21.0857 36.2088 21.2 36.2404 22.2C36.3354 24.3428 36.8104 30.4 38.9321 30.4C40.6421 30.4 42.3204 24 46.3738 22.2C47.4821 21.7143 48.7804 21.3143 52.1688 21.3143C53.6254 21.3143 56.1904 21.4 57.8371 22.3714C58.9771 23.0571 59.4838 24.5428 59.4838 27.0285C59.4838 30.9143 57.8054 32.6 53.4671 32.6C51.3771 32.6 49.9204 32.2857 49.0021 31.4857V31.5714ZM163.952 36.5714C166.2 36.5714 168.164 34.2571 168.417 32.2285C165.472 32.0857 162.274 33.4285 162.274 35.2857C162.274 35.8571 162.939 36.5714 163.952 36.5714ZM121.044 24.2571C121.772 24.2571 120.569 32.6571 124.369 32.6571C128.739 32.6571 128.359 23.8 132.475 23.7714C132.887 23.7714 133.805 23.8285 133.9 23.8285C134.439 23.8285 134.629 23.4285 134.819 22.5428C135.04 21.6 134.439 21.2857 132.855 21.2857C129.277 21.2857 128.042 23.6857 127.25 25.1714C125.794 27.9143 125.192 30.4857 124.654 30.4857C123.292 30.4857 125.192 21.6571 121.36 21.6571C117.877 21.6571 116.325 30.2857 113.729 30.2857C112.969 30.2857 112.62 28.4857 112.62 26.4571V16.6857C112.62 16.1143 112.335 15.8 111.1 15.8C109.992 15.8 109.77 16.2857 109.77 16.6V20.2285C109.77 20.8857 109.802 21.9428 109.865 22.4285L109.802 22.4571C108.852 21.8 106.54 21.4 104.292 21.4C99.0987 21.4 97.4204 22.5714 97.4204 26.9143C97.4204 29.8 97.9587 30.6285 98.9404 31.4285C100.334 32.5428 102.455 32.6571 104.165 32.6857C105.78 32.6857 107.87 32.5714 108.535 32.2C108.947 31.9714 108.947 31.6857 108.947 31.4285C108.947 30.8 108.662 30.0285 107.997 30.0571C107.554 30.0571 106.572 30.3714 104.007 30.3714C100.935 30.3714 100.46 29.6857 100.46 27.1143C100.46 24.2285 101.062 23.6857 104.767 23.6857C107.079 23.6857 108.757 24.0285 109.295 24.8285C109.802 25.5428 109.707 25.7428 109.96 28.5143C110.182 30.7428 111.227 32.6857 113.254 32.6857C117.687 32.6571 119.935 24.2571 121.044 24.2571ZM158.98 29.6857C157.365 29.3428 154.927 28.6 154.927 25.8285C154.927 22.6 157.049 21.3714 162.717 21.3714C165.725 21.3714 167.689 21.8 169.24 22.8285C171.267 24.1428 171.457 27.9143 171.394 30C172.375 29.9714 174.022 30 174.845 30C175.732 30 175.827 30.5428 175.827 31.0285C175.827 31.5714 175.764 32.3143 174.972 32.3143C173.737 32.3143 171.299 32.2571 171.045 32.2857C170.159 35.7428 167.435 38.7143 163.889 38.7143C161.64 38.7143 159.55 37.5714 159.55 35.4C159.55 32.3428 163.889 30.2285 168.639 30.1143C168.702 29.0285 168.544 26.6571 168.1 25.6857C167.182 23.8 165.155 23.6 162.749 23.6C158.157 23.6 157.84 24.4571 157.84 26.0285C157.84 28.5428 161.767 27.9143 161.767 29.5428C161.767 31.3428 157.555 32.4285 155.719 32.4C150.969 32.3714 148.625 29.6571 148.182 25.9714H148.055C146.947 29.6571 145.205 32.7143 142.229 32.7143C138.27 32.7143 136.592 27.1428 136.465 22.4857C136.434 21.8857 136.687 21.4857 137.732 21.4285C138.745 21.3714 139.252 21.6285 139.252 22.2571C139.379 27.1714 140.835 30.4 142.577 30.4C144.35 30.4 145.775 26.4857 146.915 22.0857C147.169 21.1428 149.702 21.2571 149.734 22.2571C149.892 27.6 151.665 30.5143 155.56 30.5143C156.985 30.5143 157.84 30.2857 158.949 29.8V29.6857H158.98ZM83.6771 24.6571C84.2788 24.6571 82.4421 32.6571 86.3054 32.6571C90.7388 32.6571 90.6438 23.7428 94.2854 23.7428C94.9821 23.7428 95.3304 23.8 95.5837 23.8C96.4071 23.8 96.5971 23.1143 96.5971 22.3428C96.5971 21.4 96.3438 21.2285 94.7604 21.2285C91.3404 21.2285 90.0421 23.6285 89.5354 24.7428C88.7121 26.5143 87.2554 30.4857 86.6538 30.4857C86.0204 30.4857 86.0204 27.8285 86.0204 26.3714C86.0204 24.8285 86.2104 22.1143 83.9938 22.1143C81.3021 22.1143 80.7638 27.4571 76.7104 29.4571C75.1904 30.2285 72.9104 30.7143 70.2188 30.7143C65.7221 30.7143 64.8988 30.1714 64.8988 26.8857C64.8988 25.7714 64.8038 25 65.2788 24.4C66.0071 23.4857 68.4454 23.4571 69.6804 23.4571C72.6571 23.4571 72.9737 23.9143 72.9737 24.9428C72.9737 26.1714 72.6254 26.2857 70.9471 26.2857C70.3454 26.2857 69.3004 26.2285 69.3004 27.0857C69.3004 27.9714 69.6171 28.0857 70.8521 28.0857C73.3538 28.0857 75.7604 27.1428 75.7604 24.7714C75.7604 22.3143 74.7787 21.2857 69.4271 21.2857C66.6404 21.2857 62.9354 21.6571 62.2388 24.4285C62.0488 25.2285 61.9854 26.6 61.9854 27.3143C61.9854 31.6 64.4554 32.6857 70.5038 32.6857C73.8921 32.6857 76.3938 32.1143 78.2304 30.9428C82.0621 28.6 83.1388 24.6571 83.6771 24.6571ZM179.817 3.25712C180.324 4.51426 181.59 7.02855 182.509 7.59998C183.332 8.11426 186.245 7.99997 187.892 7.94283C186.847 8.82854 184.535 9.99998 184.092 11.4857C183.744 12.7143 184.852 15.2 185.359 16.3714C184.25 15.6 181.685 14.0857 180.672 14.0857C179.374 14.0857 177.125 16 176.207 16.7428C176.46 15.8571 177.442 13 176.999 11.8C176.555 10.6 174.592 9.62855 172.534 8.34283C174.592 8.11426 177.379 8.25712 178.139 7.59998C178.899 6.9714 179.437 4.45712 179.817 3.25712ZM180.64 16.3428C180.609 16.3143 185.612 19.6857 187.385 18.9143C189.19 18.1143 186.689 12.5714 186.657 11.8285C187.987 10.6857 190.774 8.65711 190.774 7.22854C190.774 5.82854 188.462 5.51426 184.029 5.59998C183.3 4.22855 181.274 0.114258 179.69 0.114258C177.98 0.114258 176.714 4.5714 176.46 5.68569C172.375 5.88569 169.24 6.19997 169.24 7.85712C169.24 9.31426 172.47 11.5428 174.402 12.4571C174.085 14.0857 173.072 18.1714 174.212 19C175.669 20.1143 179.152 17.4 180.64 16.3428Z" fill="#7B7B7B"/>
</g>
<defs>
<clipPath id="clip0_1_1575">
<rect width="190" height="40" fill="white" transform="translate(0.80542)"/>
</clipPath>
</defs>
</svg>
