<svg width="170" height="40" viewBox="0 0 170 40" fill="none" xmlns="http://www.w3.org/2000/svg">
<g clip-path="url(#clip0_1_1498)">
<path d="M146.276 0.0546875C137.455 0.0546875 130.191 7.04164 130.191 15.8071C130.191 24.4455 137.325 31.5595 146.276 31.5595C155.096 31.5595 162.361 24.5725 162.361 15.8071C162.361 7.04164 155.096 0.0546875 146.276 0.0546875ZM158.728 7.04164C157.95 7.54978 157.042 8.05792 156.134 8.56606C155.615 7.54978 154.967 6.5335 154.188 5.64425C154.837 5.26314 155.486 4.755 156.004 4.37389C157.172 5.00907 158.08 6.02535 158.728 7.04164ZM151.983 1.83318C153.28 2.34133 154.448 2.9765 155.615 3.86575C155.096 4.37389 154.448 4.755 153.799 5.13611C153.021 4.24686 152.113 3.48465 151.205 2.72243C151.464 2.34133 151.724 2.08726 151.983 1.83318ZM153.28 5.39018C152.372 5.89832 151.464 6.15239 150.556 6.5335C150.167 5.64425 149.778 4.755 149.259 3.99279C149.778 3.73872 150.297 3.48465 150.686 3.10354C151.594 3.73872 152.502 4.50093 153.28 5.39018ZM151.335 1.57911C151.075 1.83318 150.816 2.08726 150.686 2.34133C149.778 1.83318 149 1.32504 147.962 0.943936C149.129 0.943936 150.297 1.19801 151.335 1.57911ZM150.167 2.72243C149.778 2.9765 149.389 3.23057 149 3.35761C148.481 2.5954 147.962 1.96022 147.443 1.19801C148.351 1.57911 149.259 2.08726 150.167 2.72243ZM146.535 1.32504C147.184 1.96022 147.703 2.72243 148.221 3.61168C147.703 3.73872 147.184 3.86575 146.535 3.86575V1.32504ZM146.535 4.50093C147.184 4.50093 147.962 4.37389 148.611 4.11982C149.129 4.88204 149.519 5.77128 149.908 6.66053C148.87 6.9146 147.703 7.04164 146.535 7.16867V4.50093ZM145.887 1.32504V3.86575C145.368 3.86575 144.849 3.73872 144.2 3.61168C144.849 2.84947 145.368 2.08726 145.887 1.32504ZM143.681 3.35761C143.292 3.23057 142.773 2.9765 142.514 2.72243C143.422 2.21429 144.33 1.70615 145.238 1.32504C144.589 1.96022 144.071 2.5954 143.681 3.35761ZM144.589 0.8169C143.681 1.19801 142.773 1.70615 141.865 2.21429C141.606 1.96022 141.346 1.70615 141.217 1.45208C142.254 1.19801 143.422 0.943936 144.589 0.8169ZM155.615 27.7484C153.54 26.6051 153.41 24.9536 153.54 24.4455C153.67 23.8103 154.059 24.0644 154.318 24.0644C155.745 24.0644 157.172 23.6833 158.988 21.7778C161.063 19.7452 161.712 15.1719 158.469 12.2501C155.096 9.07421 151.464 9.58235 149.129 12.5042C148.611 13.1393 147.443 13.5204 146.535 13.5204C144.979 13.5204 146.016 14.6638 146.016 14.9178C146.016 15.1719 145.757 15.2989 145.627 15.2989C145.108 15.1719 145.368 15.9341 145.368 16.0612C145.368 16.1882 145.108 16.4423 145.108 16.4423C144.46 16.4423 144.589 16.9504 144.719 17.2045C144.719 17.3315 144.719 17.5856 144.46 17.7126C144.2 17.8397 144.071 18.3478 144.071 18.7289C144.071 19.3641 144.719 19.8722 145.757 20.6344C146.795 21.3966 146.924 22.1589 146.924 22.667C146.924 23.1751 147.054 24.0644 147.184 24.5725C147.443 25.2077 147.443 26.4781 146.016 26.4781C144.2 26.6051 141.087 27.8755 140.828 28.0025C139.79 28.3836 138.493 28.5106 137.455 28.2566C136.936 27.8755 136.417 27.4944 135.898 26.9862C135.639 26.351 136.028 25.5888 136.417 25.0807C137.066 25.7159 137.844 25.5888 138.363 25.5888C138.882 25.5888 141.217 25.2077 141.606 25.0807C141.995 24.9536 142.125 24.9536 142.254 25.0807C143.162 25.4618 144.46 25.4618 144.979 23.8103C145.497 22.0318 144.33 22.54 144.071 22.667C143.941 22.794 143.681 22.667 143.811 22.54C144.071 22.1589 143.681 22.1589 143.552 22.1589C143.033 22.1589 142.384 22.667 142.254 22.794C141.995 22.9211 141.865 22.9211 141.736 22.9211C141.087 22.54 139.141 23.0481 138.493 22.0318C138.493 21.7778 137.974 17.5856 137.714 16.8234C137.714 16.6963 137.585 16.4423 137.844 16.1882C138.363 15.426 139.66 16.1882 140.438 16.1882C141.346 16.1882 141.476 15.8071 141.736 15.553C141.995 15.2989 142.125 15.426 142.254 15.2989C142.384 15.1719 142.254 15.0449 142.254 14.9178C142.254 14.7908 142.384 14.9178 142.514 14.7908C142.644 14.6638 142.514 14.4097 142.514 14.2827C142.773 13.9016 143.292 14.1556 143.033 13.3934C142.903 12.8853 143.163 12.3771 143.422 12.1231C143.811 11.6149 145.497 9.32828 142.644 6.9146C139.92 4.62796 137.066 4.88204 135.25 6.78757C133.434 8.6931 134.342 11.4879 134.471 12.2501C134.601 13.0123 134.082 13.6475 133.434 13.9016C132.915 14.1556 131.747 14.9178 130.969 15.553C131.099 9.45531 134.861 4.11982 140.568 1.96022C140.828 2.21429 141.087 2.5954 141.346 2.84947C140.698 3.35761 139.271 4.50093 139.271 4.50093C139.271 4.50093 139.401 4.50093 139.66 4.62796C139.79 4.62796 140.049 4.755 140.049 4.755C140.049 4.755 141.217 3.73872 141.865 3.35761C142.254 3.73872 142.773 3.99279 143.292 4.24686C143.033 4.755 142.254 6.02535 142.254 6.02535C142.254 6.02535 142.384 6.15239 142.514 6.15239C142.644 6.27943 142.773 6.27943 142.773 6.27943C142.773 6.27943 143.552 4.88204 143.811 4.37389C144.46 4.62796 145.108 4.755 145.757 4.755V7.29571C145.368 7.29571 144.46 7.29571 144.071 7.16867H143.811L143.941 7.42275C144.071 7.54978 144.071 7.67682 144.2 7.80385H145.757V12.5042H146.405V11.3608C147.443 11.3608 148.221 11.2338 149.129 11.1068L150.037 10.3446H149.519C148.481 10.4716 147.573 10.5986 146.795 10.5986H146.405V7.67682C147.573 7.67682 148.87 7.54978 150.037 7.16867L150.945 9.83642L151.594 9.58235L150.686 6.9146C151.724 6.66053 152.632 6.15239 153.54 5.77128C154.318 6.66053 154.967 7.67682 155.486 8.6931C154.967 8.94717 154.188 9.20124 154.188 9.20124C154.837 9.32828 155.356 9.45531 155.356 9.45531C155.356 9.45531 155.615 9.32828 155.745 9.32828C155.745 9.45531 155.875 9.70938 155.875 9.70938L156.783 10.0905L156.653 9.83642C156.653 9.83642 156.394 9.20124 156.264 9.07421C157.172 8.6931 158.08 8.18496 158.988 7.54978C160.674 9.96345 161.453 12.8853 161.453 15.8071C161.712 20.6344 159.247 24.9536 155.615 27.7484ZM128.764 4.24686L128.505 4.50093C127.597 5.26314 125.391 7.42274 125.781 9.83642V9.96346L125.91 10.4716L126.17 10.2175C127.467 9.07421 128.505 7.04164 128.894 4.755L129.023 4.11982L128.764 4.24686ZM124.354 8.31199L124.224 8.56606C124.094 8.94717 123.835 9.83642 123.705 10.8527C123.446 12.3771 123.575 14.6638 124.872 16.3152L125.002 16.5693L125.132 16.8234L125.391 15.8071C125.651 14.0286 125.262 10.3446 124.613 8.6931L124.354 8.18496V8.31199ZM122.797 14.6638V14.9178C122.667 16.4423 122.797 20.3804 126.04 22.54L126.429 22.794V22.2859C126.429 20.7615 124.613 16.3152 123.316 14.7908L122.927 14.2827L122.797 14.6638ZM123.316 21.6507V21.9048C123.835 24.1914 125.91 27.7484 129.283 28.8917L129.802 29.0188L129.672 28.5106C129.023 26.8592 125.781 22.9211 123.705 21.6507L123.316 21.3966V21.6507ZM130.191 7.67682L129.802 7.80385C127.337 9.32828 126.17 11.1068 126.17 13.3934V13.9016L126.559 13.6475C127.856 12.5042 129.672 9.70938 130.061 8.18496L130.191 7.54978V7.67682ZM128.634 12.5042L128.505 12.7582C127.856 13.3934 125.781 15.553 125.91 18.2208C125.91 18.6019 126.04 19.11 126.17 19.4911L126.299 19.8722L126.559 19.4911C127.597 18.0937 128.894 14.5367 128.764 12.8853V12.3771L128.634 12.5042ZM128.764 17.2045L128.634 17.4585C127.597 18.983 127.078 20.5074 127.078 22.0318C127.078 23.0481 127.467 24.0644 128.115 25.0807L128.375 25.4618L128.505 25.0807C128.894 24.1914 129.283 21.5237 129.283 19.3641C129.283 18.6019 129.153 17.9667 129.023 17.5856L128.894 17.0774L128.764 17.2045ZM129.931 22.1589L129.802 22.4129C129.542 23.4292 129.283 24.3185 129.413 25.3347C129.413 27.3673 130.45 29.0188 132.266 30.1621L132.526 30.2891L132.655 29.908V29.5269C132.655 27.8755 131.358 23.5562 130.321 22.2859L130.061 21.9048L129.931 22.1589ZM126.429 28.7647L126.559 29.0188C127.856 31.1784 130.191 34.1002 134.471 33.338H134.861L134.601 33.0839C133.823 31.9406 128.634 29.0188 126.818 28.7647L126.299 28.6377L126.429 28.7647ZM132.785 34.3543L132.137 34.4813L132.785 34.7354C135.509 35.8787 138.882 36.1328 140.957 35.4976C141.736 35.2435 142.125 34.8624 142.644 34.3543C146.146 34.7354 149.389 37.5302 151.335 39.8168L151.464 39.9438H151.594C151.854 39.8168 152.113 39.5627 152.243 39.4357L152.372 39.3086L152.243 39.1816C150.297 36.6409 147.184 35.1165 147.054 34.9894C144.2 33.7191 139.271 32.7028 132.785 34.3543Z" fill="#7B7B7B"/>
<path d="M132.912 27.241V27.4951C133.301 30.0358 134.339 33.3387 138.749 32.9576H139.008L138.879 32.7035C138.619 31.5602 134.598 28.2573 133.171 27.368L132.782 27.114L132.912 27.241ZM163.525 3.99352L163.654 4.62869C164.044 6.91533 165.081 8.9479 166.378 10.0912L166.638 10.3453L166.768 9.83715V9.71011C167.157 7.29644 164.952 5.13684 164.044 4.37462L163.784 4.12055L163.525 3.99352ZM168.065 8.05865L167.805 8.56679C167.157 10.2183 166.897 13.9023 167.027 15.6808L167.286 16.6971L167.416 16.57L167.546 16.316C168.973 14.6645 168.973 12.5049 168.713 10.8534C168.584 9.71011 168.324 8.9479 168.195 8.56679L168.065 8.31272V8.05865ZM169.751 14.4104L169.362 14.9186C168.065 16.57 166.249 20.8892 166.249 22.4137V22.9218L166.638 22.6677C169.881 20.6352 170.011 16.6971 169.881 15.0456V14.7915L169.751 14.4104ZM169.232 21.3974L168.713 21.6514C166.638 22.9218 163.395 26.8599 162.746 28.5114L162.617 29.0195L163.136 28.8925C166.508 27.8762 168.713 24.1922 169.103 21.9055V21.6514L169.232 21.3974ZM162.357 7.42347L162.487 8.05865C163.006 9.71011 164.562 12.5049 165.989 13.6482L166.378 13.9023V13.3941C166.508 11.1075 165.341 9.329 162.876 7.80458L162.617 7.67754L162.357 7.42347ZM163.784 12.3779V12.886C163.654 14.5375 165.081 18.2215 165.989 19.4918L166.249 19.8729L166.378 19.4918C166.508 18.9837 166.638 18.6026 166.638 18.2215C166.768 15.5537 164.692 13.3941 164.044 12.759L163.914 12.6319L163.784 12.3779ZM163.654 16.9511L163.525 17.4593C163.395 17.8404 163.265 18.4756 163.265 19.2378C163.265 21.3974 163.525 24.0651 164.044 24.9544L164.173 25.3355L164.433 24.9544C165.081 24.0651 165.47 23.0488 165.47 21.9055C165.47 20.5081 164.952 18.8567 163.914 17.3322L163.784 17.0782L163.654 16.9511ZM162.487 21.9055L162.228 22.2866C161.19 23.557 159.893 27.8762 159.893 29.5276V29.9087L160.022 30.2899L160.282 30.1628C162.098 29.0195 163.006 27.368 163.136 25.3355C163.136 24.4462 163.006 23.4299 162.746 22.4137L162.617 22.1596L162.487 21.9055ZM166.249 28.5114L165.73 28.6384C163.914 28.8925 158.725 31.8143 157.947 32.9576L157.687 33.2117H158.077C162.357 33.9739 164.692 31.0521 165.989 28.8925L166.119 28.6384L166.249 28.5114ZM145.624 34.9902C145.494 34.9902 142.381 36.6416 140.435 39.1823L140.305 39.3094L140.435 39.4364C140.565 39.5634 140.954 39.8175 141.084 39.9445H141.213L141.343 39.8175C143.289 37.5309 146.532 34.6091 150.034 34.355C150.553 34.8631 151.072 35.2442 151.721 35.4983C153.666 36.1335 157.169 35.8794 159.893 34.7361L160.541 34.482L159.893 34.355C153.277 32.7035 148.348 33.7198 145.624 34.9902ZM159.633 26.9869L159.244 27.241C157.817 28.1303 153.926 31.4332 153.537 32.5765L153.407 32.8306H153.666C157.947 33.2117 158.985 29.9087 159.503 27.368V27.114L159.633 26.9869ZM50.1526 1.57984H55.6007V6.40719H50.1526V1.57984ZM50.6714 11.9967H55.2115V35.6253H50.6714V11.9967ZM16.2966 11.9967H20.8367V35.6253H16.4263V32.1954H16.2966C14.4806 35.1172 11.3674 36.3876 7.99473 36.3876C2.93579 36.3876 0.0820312 32.5765 0.0820312 27.8762V11.9967H4.62211V25.9706C4.62211 30.0358 5.53012 33.0846 9.94048 33.0846C11.7565 33.0846 14.3508 32.1954 15.2589 29.6547C16.1669 27.4951 16.1669 24.7003 16.1669 24.0651V11.9967H16.2966ZM29.9168 15.4267C31.6031 12.5049 34.846 11.2345 37.3106 11.2345C38.997 11.2345 46.3908 11.6156 46.3908 19.2378V35.4983H41.8507V20.6352C41.8507 16.6971 40.1644 14.6645 36.2729 14.6645C36.2729 14.6645 33.8083 14.5375 31.8626 16.443C31.214 17.0782 29.9168 18.0945 29.9168 22.7948V35.6253H25.3767V11.9967H29.9168V15.4267ZM74.2798 19.4918C74.0204 16.57 72.5935 14.5375 69.3506 14.5375C65.07 14.5375 63.3836 18.2215 63.3836 23.684C63.3836 29.1465 65.07 32.8306 69.3506 32.8306C72.3341 32.8306 74.1501 30.925 74.4095 27.4951H78.9496C78.5605 32.8306 74.5392 36.0065 69.2209 36.0065C61.5676 36.0065 58.4544 30.671 58.4544 23.811C58.4544 16.9511 61.9568 11.2345 69.61 11.2345C74.669 11.2345 78.4307 14.4104 78.6902 19.4918H74.2798ZM85.6949 24.5733C85.3057 28.6384 87.1217 32.9576 91.6618 32.9576C95.1642 32.9576 96.9802 31.5602 97.4991 28.1303H102.299C101.52 33.4657 97.3693 36.1335 91.6618 36.1335C84.0085 36.1335 80.8954 30.798 80.8954 23.9381C80.8954 17.0782 84.3977 11.3616 92.051 11.3616C99.1854 11.4886 102.558 15.9348 102.558 22.4137V24.5733H85.6949ZM97.8882 21.5244C98.0179 17.5863 96.2019 14.5375 91.7915 14.5375C88.0298 14.5375 85.8246 17.7133 85.8246 21.5244H97.8882ZM107.747 35.3713V15.0456H103.596V11.9967H107.747V6.91533C107.876 1.83391 111.898 0.436523 115.27 0.436523C116.308 0.436523 117.475 0.690594 118.513 0.944665V4.62869C117.735 4.62869 116.957 4.50166 116.178 4.50166C113.584 4.50166 112.157 5.13684 112.287 7.67754V11.9967H117.865V15.0456H112.287V35.3713H107.747Z" fill="#7B7B7B"/>
</g>
<defs>
<clipPath id="clip0_1_1498">
<rect width="170" height="40" fill="white"/>
</clipPath>
</defs>
</svg>
