<svg width="40" height="40" viewBox="0 0 40 40" fill="none" xmlns="http://www.w3.org/2000/svg">
<circle opacity="0.24" cx="20" cy="20" r="20" fill="white"/>
<g clip-path="url(#clip0_2107_364)">
<path d="M18.5825 19.5204C18.9146 19.3534 19.1656 19.1673 19.3376 18.9663C19.6436 18.6043 19.7946 18.1243 19.7946 17.5292C19.7946 16.9502 19.6436 16.4551 19.3416 16.0401C18.8376 15.364 17.9845 15.018 16.7784 15H12V24.7538H16.4554C16.9574 24.7538 17.4224 24.7108 17.8525 24.6228C18.2825 24.5338 18.6545 24.3708 18.9696 24.1327C19.2496 23.9257 19.4836 23.6687 19.6696 23.3657C19.9637 22.9076 20.1107 22.3886 20.1107 21.8106C20.1107 21.2505 19.9817 20.7735 19.7256 20.3814C19.4666 19.9894 19.0866 19.7024 18.5825 19.5204ZM13.9712 16.6941H16.1233C16.5964 16.6941 16.9864 16.7451 17.2924 16.8462C17.6465 16.9932 17.8235 17.2922 17.8235 17.7482C17.8235 18.1573 17.6885 18.4433 17.4214 18.6043C17.1524 18.7653 16.8034 18.8463 16.3754 18.8463H13.9712V16.6941ZM17.3744 22.8896C17.1364 23.0047 16.8014 23.0617 16.3724 23.0617H13.9712V20.4604H16.4054C16.8294 20.4634 17.1594 20.5195 17.3954 20.6245C17.8155 20.8145 18.0245 21.1625 18.0245 21.6715C18.0245 22.2716 17.8085 22.6756 17.3744 22.8896Z" fill="white"/>
<path d="M26.462 15.4551H22.2246V16.6692H26.462V15.4551Z" fill="white"/>
<path d="M27.9342 20.2468C27.8462 19.6818 27.6521 19.1847 27.3501 18.7557C27.0191 18.2697 26.5991 17.9136 26.088 17.6886C25.579 17.4626 25.0059 17.3496 24.3679 17.3506C23.2968 17.3506 22.4267 17.6856 21.7537 18.3507C21.0826 19.0177 20.7466 19.9768 20.7466 21.2269C20.7466 22.56 21.1176 23.5231 21.8637 24.1141C22.6067 24.7062 23.4648 25.0012 24.4389 25.0012C25.618 25.0012 26.5351 24.6502 27.1901 23.9501C27.6091 23.5081 27.8462 23.0731 27.8982 22.646H25.946C25.833 22.857 25.702 23.0221 25.552 23.1421C25.28 23.3621 24.9259 23.4721 24.4919 23.4721C24.0789 23.4721 23.7288 23.3811 23.4368 23.2001C22.9548 22.91 22.7027 22.402 22.6707 21.6789H27.9982C28.0062 21.0559 27.9862 20.5769 27.9342 20.2468ZM22.7187 20.4338C22.7887 19.9648 22.9588 19.5928 23.2288 19.3178C23.4988 19.0437 23.8808 18.9057 24.3699 18.9047C24.8209 18.9047 25.1979 19.0337 25.505 19.2928C25.808 19.5538 25.979 19.9328 26.014 20.4338H22.7187Z" fill="white"/>
</g>
<defs>
<clipPath id="clip0_2107_364">
<rect width="16" height="16" fill="white" transform="translate(12 12)"/>
</clipPath>
</defs>
</svg>
