<svg width="40" height="40" viewBox="0 0 40 40" fill="none" xmlns="http://www.w3.org/2000/svg">
<circle opacity="0.24" cx="20" cy="20" r="20" fill="white"/>
<g clip-path="url(#clip0_1_253)">
<path d="M17.8945 12.5827C18.5092 13.3167 20.0145 15.2314 21.2184 17.7067C22.7235 17.2833 24.3041 16.5324 25.8555 15.2882L26.2302 14.9878C24.7625 13.1671 22.5152 12 20 12C19.1976 12 18.4227 12.1193 17.6913 12.3401L17.8945 12.5827Z" fill="white"/>
<path d="M26.4421 16.0196C24.9476 17.2182 23.334 18.0733 21.6187 18.5799C21.8577 19.1339 22.0659 19.684 22.2428 20.2282C23.82 20.094 25.6015 20.3149 27.5431 20.8862L27.9374 21.0023C27.9786 20.6739 28 20.3395 28 20.0001C28 18.4404 27.5509 16.9838 26.7758 15.752L26.4421 16.0196Z" fill="white"/>
<path d="M12.9726 17.3253C13.7676 17.6268 15.5293 18.1787 17.7507 18.1787C18.5466 18.1788 19.4016 18.1078 20.2922 17.9292C19.1873 15.7149 17.8466 13.9856 17.1757 13.1843L16.7588 12.6865C14.819 13.5496 13.2839 15.1624 12.5232 17.1549L12.9726 17.3253Z" fill="white"/>
<path d="M15.079 25.9069C15.4314 24.8578 16.3143 22.9001 18.2681 21.5761C19.1583 20.9729 20.1782 20.5638 21.3071 20.3542C21.1291 19.8244 20.9266 19.3096 20.7081 18.814C19.8675 18.9985 19.0042 19.1027 18.1199 19.1248C18.0015 19.1278 17.8839 19.1293 17.7677 19.1293C15.4432 19.1293 13.5725 18.5559 12.6402 18.2023L12.2407 18.0508C12.0838 18.675 12 19.3279 12 20.0002C12 22.509 13.1612 24.7514 14.9741 26.2193L15.079 25.9069Z" fill="white"/>
<path d="M27.2784 21.7856C25.4082 21.2353 23.8358 21.0637 22.5145 21.1509C22.6334 21.6039 22.7298 22.0518 22.803 22.4933C23.0851 24.1952 23.0275 25.8223 22.6315 27.3294L22.5662 27.578C25.1255 26.709 27.1064 24.5773 27.7644 21.9286L27.2784 21.7856Z" fill="white"/>
<path d="M21.7248 27.0912C22.2446 25.1126 22.0835 23.1137 21.5822 21.2607C17.8987 21.8981 16.4741 24.6977 15.9677 26.2054L15.7718 26.7885C16.9994 27.5559 18.4487 28.0002 20 28.0002C20.5212 28.0002 21.0307 27.9495 21.5244 27.8539L21.7248 27.0912Z" fill="white"/>
</g>
<defs>
<clipPath id="clip0_1_253">
<rect width="16" height="16" fill="white" transform="translate(12 12)"/>
</clipPath>
</defs>
</svg>
