<svg width="40" height="40" viewBox="0 0 40 40" fill="none" xmlns="http://www.w3.org/2000/svg">
<circle opacity="0.24" cx="20" cy="20" r="20" fill="white"/>
<g clip-path="url(#clip0_1_256)">
<path d="M25.6647 13.0031C23.446 12.9225 21.9473 14.1945 21.1567 16.7991C21.5633 16.6171 21.9587 16.5358 22.3413 16.5358C23.154 16.5358 23.5133 17.0005 23.4173 17.9238C23.3693 18.4831 23.012 19.2965 22.3427 20.3665C21.67 21.4365 21.1673 21.9725 20.8327 21.9725C19.818 21.9725 19.208 17.1165 19.0013 15.7905C18.714 13.9471 17.948 13.0851 16.7033 13.2058C15.5607 13.3145 13.5667 15.3718 12 16.7665L12.7527 17.7478C13.4693 17.2398 13.8873 16.9851 14.0067 16.9851C15.254 16.9851 15.858 21.2298 16.8267 24.3865C17.4767 26.1285 18.256 26.9998 19.1953 26.9998C20.7047 26.9998 22.5433 25.5705 24.722 22.7105C26.8253 19.9725 27.9147 17.8145 27.9847 16.2405L27.9933 16.2338C28.0827 14.1238 27.3127 13.0438 25.6647 13.0031Z" fill="white"/>
</g>
<defs>
<clipPath id="clip0_1_256">
<rect width="16" height="16" fill="white" transform="translate(12 12)"/>
</clipPath>
</defs>
</svg>
