<svg width="92" height="24" viewBox="0 0 92 24" fill="none" xmlns="http://www.w3.org/2000/svg">
<g clip-path="url(#clip0_1_775)">
<path fill-rule="evenodd" clip-rule="evenodd" d="M4.60016 8.6651C5.38252 8.69048 5.94257 8.70294 6.28071 8.70294C6.38206 8.70294 7.24626 8.69048 8.87337 8.6651L6.73484 3.02403L4.60016 8.6651ZM6.82762 0.258789H7.36012C8.12084 2.43406 9.05617 4.90095 10.1663 7.65897L12.1356 12.445C12.2258 12.6144 12.3241 12.7401 12.4315 12.8212C12.5044 12.8779 12.9188 13.0285 13.6739 13.2726V13.8277C12.6485 13.7586 11.8933 13.7241 11.4086 13.7241C10.9127 13.7241 10.0674 13.7586 8.8729 13.8277V13.2726C9.55476 13.1162 9.95192 12.9906 10.0648 12.8965C10.1775 12.8026 10.2339 12.6932 10.2339 12.5674C10.2339 12.436 10.1749 12.2134 10.0562 11.9L9.19766 9.60538C8.00311 9.59293 7.13381 9.58666 6.58957 9.58666L4.27635 9.60538L3.3876 11.9845C3.241 12.3668 3.16758 12.6053 3.16758 12.6994C3.16758 12.7809 3.20299 12.8481 3.27326 12.9013C3.34361 12.9546 3.67168 13.0505 4.25825 13.1883C4.31986 13.2069 4.40753 13.2352 4.51998 13.2726V13.8277C3.55663 13.7586 2.87736 13.7241 2.48319 13.7241C1.9813 13.7241 1.33909 13.7586 0.55603 13.8277V13.2726C1.06879 13.1475 1.4207 13.0064 1.61255 12.8495C1.75317 12.7305 1.89977 12.5301 2.05204 12.2478C2.37326 11.6271 3.19 9.63085 4.50321 6.25818L6.82762 0.258789Z" fill="#7B7B7B"/>
<path fill-rule="evenodd" clip-rule="evenodd" d="M14.4857 1.03936V0.484375C15.5337 0.553391 16.438 0.587978 17.1987 0.587978C17.9935 0.587978 18.9089 0.553391 19.9458 0.484375V1.03936C19.7711 1.08315 19.6386 1.11425 19.5484 1.13336C18.7541 1.27116 18.3061 1.39063 18.2048 1.49034C18.1034 1.59117 18.0469 1.80076 18.0357 2.12077C18.0017 2.97331 17.9848 4.57814 17.9848 6.93515C17.9848 8.5088 18.0228 9.5772 18.0991 10.1414C18.175 10.7055 18.3608 11.1886 18.6567 11.5897C18.9525 11.9908 19.3597 12.2998 19.8784 12.5156C20.3967 12.732 20.9488 12.8405 21.5348 12.8405C22.4192 12.8405 23.1364 12.6366 23.6858 12.2292C24.2352 11.8215 24.5987 11.2778 24.7764 10.5977C24.9537 9.91728 25.0425 8.58694 25.0425 6.6061C25.0425 3.98563 25.0226 2.4403 24.9834 1.97012C24.9666 1.76331 24.9127 1.61751 24.823 1.5331C24.7324 1.44814 24.3098 1.31526 23.5552 1.13336C23.4758 1.11425 23.3551 1.08315 23.1916 1.03936V0.484375C24.296 0.553391 25.1356 0.587978 25.7105 0.587978C26.3582 0.587978 27.0965 0.553391 27.9249 0.484375V1.03936C27.7675 1.08926 27.6498 1.12384 27.5717 1.14257C26.8257 1.31193 26.4018 1.44338 26.3009 1.53746C26.1999 1.63147 26.1383 1.79457 26.1158 2.02676C26.055 2.52185 26.0184 3.98222 26.0064 6.40841C26.0003 8.28279 25.9693 9.47399 25.9132 9.98153C25.8399 10.6839 25.7075 11.2495 25.516 11.6789C25.3241 12.1084 25.03 12.5156 24.6329 12.9014C24.2352 13.2872 23.7803 13.5706 23.2676 13.7524C22.5914 13.9904 21.8841 14.1099 21.1462 14.1099C20.3235 14.1099 19.5894 13.9966 18.9444 13.7711C18.2987 13.5457 17.799 13.24 17.4441 12.8543C17.0892 12.4687 16.824 12.0143 16.6493 11.4908C16.4747 10.9674 16.3875 10.2075 16.3875 9.21062L16.4211 4.9417C16.4211 3.35576 16.4156 2.46236 16.4044 2.26189C16.382 1.95481 16.3396 1.74753 16.2775 1.64099C16.2323 1.55325 16.1645 1.48749 16.0748 1.44338C16.0071 1.40594 15.6151 1.309 14.8998 1.15216C14.8096 1.13336 14.6717 1.0956 14.4857 1.03936Z" fill="#7B7B7B"/>
<path fill-rule="evenodd" clip-rule="evenodd" d="M33.7307 6.79411C34.3166 6.8632 34.7704 6.89723 35.0912 6.89723C36.1167 6.89723 36.8762 6.64298 37.3695 6.13441C37.8623 5.62591 38.109 4.91925 38.109 4.01482C38.109 3.22376 37.8903 2.59912 37.454 2.14044C37.0172 1.68224 36.3815 1.4529 35.5479 1.4529C35.249 1.4529 34.6604 1.4909 33.7811 1.56618L33.7307 6.79411ZM30.1888 1.03936V0.484375C31.6823 0.553391 32.8799 0.587978 33.7811 0.587978C34.2995 0.587978 34.7841 0.581711 35.2353 0.569257C35.8322 0.544268 36.2465 0.531338 36.4777 0.531338C37.5765 0.531338 38.4048 0.819698 38.9624 1.39681C39.5149 1.9798 39.7909 2.7665 39.7909 3.75716C39.7909 4.4217 39.6653 5.00945 39.4144 5.52088C39.1634 6.03176 38.8016 6.46259 38.328 6.81378C37.984 7.0647 37.4936 7.28729 36.8567 7.48157L39.6718 11.5619C40.0211 12.0695 40.241 12.3673 40.3312 12.4548C40.4722 12.5867 40.6555 12.6994 40.8806 12.7934C41.1963 12.9312 41.7293 13.0909 42.4787 13.2726V13.8278C41.5882 13.7586 40.9405 13.7242 40.5348 13.7242C40.0669 13.7242 39.5882 13.7586 39.0979 13.8278C38.8442 13.3576 38.5005 12.7665 38.0668 12.0551C37.6325 11.3435 37.3677 10.9218 37.2719 10.7904C37.2156 10.7152 37.162 10.6369 37.1115 10.5554L35.252 7.71575C34.7505 7.70329 34.2434 7.66252 33.7307 7.59334L33.7983 12.3324C33.8095 12.5205 33.86 12.6614 33.9502 12.7555C34.0855 12.8812 34.5082 13.0161 35.218 13.16C35.3198 13.1787 35.4746 13.2166 35.6829 13.2726V13.8278C34.6629 13.7586 33.7642 13.7242 32.9867 13.7242C32.1527 13.7242 31.2204 13.7586 30.1888 13.8278V13.2726L30.5524 13.1883C31.3584 13.0189 31.816 12.8793 31.9259 12.7699C32.0358 12.6601 32.0992 12.4644 32.116 12.1822C32.1273 12.0004 32.1415 10.3894 32.1583 7.34869L32.1247 2.92921C32.1192 2.25222 32.1036 1.86366 32.0782 1.76331C32.0527 1.66312 31.9979 1.58776 31.9134 1.53746C31.637 1.37468 31.2006 1.2399 30.6032 1.13336C30.5131 1.11425 30.3751 1.08315 30.1888 1.03936Z" fill="#7B7B7B"/>
<path fill-rule="evenodd" clip-rule="evenodd" d="M47.8927 6.37097H49.9381C50.7268 6.37097 51.1916 6.34741 51.3327 6.30036C51.4732 6.2534 51.5875 6.15789 51.6751 6.01351C51.7621 5.86953 51.8704 5.45266 52.0002 4.76281C52.0171 4.69427 52.0425 4.58773 52.0766 4.44328H52.6341C52.572 5.47764 52.5414 6.27355 52.5414 6.83147C52.5414 7.40866 52.572 8.19838 52.6341 9.2011H52.0766C51.9127 8.29239 51.8114 7.78484 51.772 7.67783C51.7157 7.52758 51.6169 7.41922 51.4763 7.35353C51.3353 7.28777 50.9157 7.25461 50.2171 7.25461H47.9009L47.9431 12.7839H51.4849L51.7975 12.7742C52.2819 12.7742 52.5863 12.7526 52.7104 12.7085C52.9244 12.6274 53.1133 12.4907 53.2766 12.2998C53.4401 12.1084 53.7416 11.5677 54.181 10.6777C54.2258 10.5898 54.2936 10.4613 54.3837 10.2919H54.9672C54.8995 10.4925 54.5501 11.6712 53.9188 13.8278C51.8678 13.7586 49.9941 13.7242 48.298 13.7242C47.1147 13.7242 45.8076 13.7586 44.3763 13.8278V13.2726L45.7455 12.9437C45.9654 12.875 46.1004 12.8059 46.1514 12.7368C46.2359 12.6178 46.2781 12.3703 46.2781 11.9941V11.8248L46.3204 9.61512C46.3259 9.18857 46.3289 8.35188 46.3289 7.10452C46.3289 5.29289 46.3229 3.96548 46.3118 3.12206C46.3005 2.27903 46.2726 1.80076 46.2272 1.68803C46.1936 1.61267 46.1414 1.55174 46.0711 1.50486C46.0005 1.45774 45.7399 1.3777 45.2893 1.26489L44.3763 1.03936V0.484375C45.4355 0.553391 46.7007 0.587978 48.1713 0.587978C48.9773 0.587978 50.8932 0.553391 53.9188 0.484375C53.93 1.56912 53.9978 2.64085 54.122 3.70013H53.5303C53.3047 2.84805 53.1215 2.28054 52.9809 1.99844C52.8847 1.80409 52.7665 1.67558 52.6259 1.61267C52.4397 1.53159 52.0283 1.49034 51.3917 1.49034H47.9772L47.9177 4.51856L47.8927 6.37097Z" fill="#7B7B7B"/>
<path fill-rule="evenodd" clip-rule="evenodd" d="M57.7045 1.03936V0.484375C59.0849 0.553391 60.0203 0.587978 60.5105 0.587978C60.8146 0.587978 61.7866 0.553391 63.4266 0.484375V1.03936C62.4123 1.23371 61.8177 1.36223 61.643 1.42466C61.5193 1.46877 61.4286 1.53746 61.3727 1.63147C61.2882 1.76331 61.2403 2.03589 61.2291 2.4499C61.2174 2.86352 61.2122 5.18302 61.2122 9.40823C61.2122 10.2421 61.2204 11.3547 61.2372 12.7464H64.9648C65.5229 12.7464 65.886 12.7085 66.055 12.6332C66.224 12.5584 66.3988 12.3923 66.5795 12.1352C66.7598 11.878 67.0978 11.2324 67.5937 10.1979H68.3121L67.636 12.295C67.5173 12.6836 67.3737 13.1945 67.2048 13.8278C64.8739 13.7586 62.8445 13.7242 61.1161 13.7242C59.8943 13.7242 58.7597 13.7586 57.7127 13.8278V13.2726C58.5713 13.0976 59.0759 12.9767 59.2276 12.9109C59.379 12.8448 59.4813 12.7555 59.5347 12.6428C59.5878 12.5301 59.6145 12.201 59.6145 11.6555L59.6567 5.89119L59.6313 2.17685C59.6313 1.85732 59.589 1.65685 59.5045 1.57522C59.3751 1.45012 58.9582 1.31812 58.254 1.18049C58.1298 1.1555 57.9464 1.10845 57.7045 1.03936Z" fill="#7B7B7B"/>
<path fill-rule="evenodd" clip-rule="evenodd" d="M76.3233 0.484375V1.03936C76.1255 1.08926 75.9789 1.12384 75.8832 1.14257C75.1337 1.28694 74.6999 1.42323 74.5818 1.55174C74.4636 1.68041 74.404 1.96727 74.404 2.41198V2.7412L74.3618 6.52106L74.3872 12.0129C74.3872 12.4519 74.445 12.7306 74.5606 12.8495C74.6761 12.969 75.072 13.0722 75.7482 13.16C75.8777 13.1787 76.0664 13.2166 76.3146 13.2726V13.8278C75.4072 13.7586 74.5338 13.7242 73.6943 13.7242C72.8265 13.7242 71.874 13.7586 70.8373 13.8278V13.2726C71.0006 13.2227 71.1248 13.1917 71.2093 13.1787C72.0093 13.0347 72.4674 12.9014 72.5828 12.7791C72.698 12.6567 72.7559 12.3482 72.7559 11.8531L72.739 11.383L72.7644 7.9316C72.7644 4.38378 72.7559 2.42166 72.739 2.04549C72.7278 1.83868 72.6674 1.67843 72.5584 1.56571C72.4488 1.4529 72.024 1.31812 71.2831 1.16129C71.1823 1.13638 71.0335 1.0956 70.8373 1.03936V0.484375C72.062 0.553391 73.0185 0.587978 73.7073 0.587978C74.4747 0.587978 75.3463 0.553391 76.3233 0.484375Z" fill="#7B7B7B"/>
<path fill-rule="evenodd" clip-rule="evenodd" d="M82.5629 8.6651C83.3459 8.69048 83.9054 8.70294 84.2438 8.70294C84.3445 8.70294 85.2085 8.69048 86.8367 8.6651L84.6986 3.02403L82.5629 8.6651ZM84.7907 0.258789H85.3226C86.0836 2.43406 87.0192 4.90095 88.1296 7.65897L90.0984 12.445C90.1889 12.6144 90.2873 12.7401 90.3943 12.8212C90.4675 12.8779 90.8814 13.0285 91.6369 13.2726V13.8277C90.6115 13.7586 89.8561 13.7241 89.3721 13.7241C88.8763 13.7241 88.0312 13.7586 86.8367 13.8277V13.2726C87.5181 13.1162 87.9155 12.9906 88.0273 12.8965C88.1406 12.8026 88.1964 12.6932 88.1964 12.5674C88.1964 12.436 88.1382 12.2134 88.0194 11.9L87.1609 9.60538C85.9663 9.59293 85.0968 9.58666 84.5522 9.58666L82.2395 9.60538L81.3503 11.9845C81.2039 12.3668 81.1307 12.6053 81.1307 12.6994C81.1307 12.7809 81.1653 12.8481 81.2362 12.9013C81.307 12.9546 81.6343 13.0505 82.2214 13.1883C82.2835 13.2069 82.3701 13.2352 82.4834 13.2726V13.8277C81.5194 13.7586 80.8403 13.7241 80.4461 13.7241C79.944 13.7241 79.3019 13.7586 78.5189 13.8277V13.2726C79.032 13.1475 79.3837 13.0064 79.5758 12.8495C79.7158 12.7305 79.863 12.5301 80.0149 12.2478C80.3359 11.6271 81.1535 9.63085 82.4661 6.25818L84.7907 0.258789Z" fill="#7B7B7B"/>
<path fill-rule="evenodd" clip-rule="evenodd" d="M21.5717 19.624H22.2841V23.0119H23.9871V23.6616H21.5717V19.624Z" fill="#7B7B7B"/>
<path fill-rule="evenodd" clip-rule="evenodd" d="M29.5665 21.6142C29.5665 21.8315 29.5993 22.0308 29.6649 22.2134C29.7313 22.3954 29.8243 22.5537 29.9454 22.6868C30.0657 22.8199 30.2102 22.9246 30.3781 23.0002C30.5461 23.0766 30.7336 23.1144 30.9406 23.1144C31.1484 23.1144 31.3367 23.0766 31.5062 23.0002C31.6765 22.9246 31.821 22.8199 31.9421 22.6868C32.0624 22.5537 32.1562 22.3954 32.2218 22.2134C32.2882 22.0308 32.321 21.8315 32.321 21.6142C32.321 21.4133 32.2882 21.2251 32.2218 21.0503C32.1562 20.8755 32.0624 20.722 31.9421 20.5911C31.821 20.4596 31.6765 20.3573 31.5062 20.2832C31.3367 20.2093 31.1484 20.1714 30.9406 20.1714C30.7336 20.1714 30.5461 20.2093 30.3781 20.2832C30.2102 20.3573 30.0657 20.4596 29.9454 20.5911C29.8243 20.722 29.7313 20.8755 29.6649 21.0503C29.5993 21.2251 29.5665 21.4133 29.5665 21.6142ZM28.8197 21.6599C28.8197 21.337 28.872 21.0432 28.9783 20.7794C29.0837 20.5148 29.2298 20.2895 29.4165 20.1038C29.6032 19.917 29.8259 19.7737 30.0837 19.6729C30.3422 19.5721 30.6258 19.5217 30.9351 19.5217C31.2484 19.5178 31.5351 19.5642 31.7953 19.6612C32.0554 19.7588 32.2796 19.8997 32.4679 20.0864C32.657 20.2722 32.8038 20.4967 32.9092 20.7589C33.0147 21.0212 33.0678 21.3141 33.0678 21.637C33.0678 21.9527 33.0147 22.2402 32.9092 22.4985C32.8038 22.7569 32.657 22.9797 32.4679 23.1655C32.2796 23.3523 32.0554 23.4971 31.7953 23.6018C31.5351 23.7066 31.2484 23.7602 30.9351 23.7641C30.6258 23.7641 30.3422 23.7138 30.0837 23.6129C29.8259 23.5129 29.6032 23.3704 29.4165 23.1853C29.2298 23.001 29.0837 22.7797 28.9783 22.5214C28.872 22.2631 28.8197 21.9756 28.8197 21.6599Z" fill="#7B7B7B"/>
<path fill-rule="evenodd" clip-rule="evenodd" d="M38.2748 19.624H39.2193L41.1598 22.6237H41.1707V19.624H41.884V23.6616H40.9786L38.999 20.5651H38.9873V23.6616H38.2748V19.624Z" fill="#7B7B7B"/>
<path fill-rule="evenodd" clip-rule="evenodd" d="M48.5455 23.0119C48.7674 23.0119 48.9783 22.986 49.1752 22.9347C49.3735 22.8836 49.5454 22.8032 49.6923 22.6954C49.8407 22.5866 49.9563 22.4465 50.0407 22.2732C50.1251 22.1 50.1688 21.8904 50.1688 21.6432C50.1688 21.3999 50.1297 21.1904 50.0547 21.0155C49.9798 20.8408 49.875 20.699 49.7407 20.591C49.608 20.4824 49.4485 20.4029 49.2657 20.3517C49.0829 20.2997 48.883 20.2745 48.6642 20.2745H48.0127V23.0119H48.5455ZM47.3002 19.624H48.8783C49.1423 19.624 49.397 19.6649 49.6423 19.7469C49.8876 19.8288 50.1047 19.9532 50.2923 20.1201C50.4813 20.2878 50.6329 20.4974 50.7454 20.7502C50.8578 21.0037 50.9157 21.3006 50.9157 21.6432C50.9157 21.9889 50.85 22.2882 50.7204 22.5409C50.5891 22.7938 50.4219 23.0032 50.2157 23.1686C50.011 23.334 49.7829 23.4577 49.5313 23.5387C49.2813 23.6207 49.0345 23.6616 48.7939 23.6616H47.3002V19.624Z" fill="#7B7B7B"/>
<path fill-rule="evenodd" clip-rule="evenodd" d="M56.6505 21.6137C56.6505 21.831 56.6833 22.0303 56.7505 22.2129C56.8161 22.3949 56.9098 22.5532 57.0302 22.6863C57.1505 22.8194 57.2942 22.9241 57.463 22.9997C57.6302 23.0761 57.8175 23.114 58.0254 23.114C58.2332 23.114 58.4222 23.0761 58.591 22.9997C58.7613 22.9241 58.9066 22.8194 59.027 22.6863C59.1472 22.5532 59.2409 22.3949 59.3066 22.2129C59.3722 22.0303 59.4066 21.831 59.4066 21.6137C59.4066 21.4128 59.3722 21.2246 59.3066 21.0498C59.2409 20.875 59.1472 20.7215 59.027 20.5907C58.9066 20.4591 58.7613 20.3568 58.591 20.2827C58.4222 20.2088 58.2332 20.1709 58.0254 20.1709C57.8175 20.1709 57.6302 20.2088 57.463 20.2827C57.2942 20.3568 57.1505 20.4591 57.0302 20.5907C56.9098 20.7215 56.8161 20.875 56.7505 21.0498C56.6833 21.2246 56.6505 21.4128 56.6505 21.6137ZM55.9037 21.6594C55.9037 21.3365 55.9568 21.0427 56.063 20.7789C56.1678 20.5143 56.3146 20.2891 56.5005 20.1033C56.688 19.9165 56.9098 19.7733 57.1692 19.6724C57.427 19.5716 57.7114 19.5212 58.0207 19.5212C58.3332 19.5173 58.6191 19.5637 58.88 19.6607C59.1393 19.7583 59.3644 19.8992 59.5534 20.0859C59.7409 20.2718 59.8878 20.4962 59.9941 20.7584C60.1002 21.0207 60.1519 21.3137 60.1519 21.6365C60.1519 21.9523 60.1002 22.2397 59.9941 22.498C59.8878 22.7564 59.7409 22.9792 59.5534 23.165C59.3644 23.3518 59.1393 23.4966 58.88 23.6013C58.6191 23.7061 58.3332 23.7597 58.0207 23.7636C57.7114 23.7636 57.427 23.7133 57.1692 23.6125C56.9098 23.5124 56.688 23.3699 56.5005 23.1848C56.3146 23.0005 56.1678 22.7792 56.063 22.5209C55.9568 22.2626 55.9037 21.9751 55.9037 21.6594Z" fill="#7B7B7B"/>
<path fill-rule="evenodd" clip-rule="evenodd" d="M65.3568 19.624H66.3021L68.2411 22.6237H68.2536V19.624H68.9661V23.6616H68.0614L66.0803 20.5651H66.0693V23.6616H65.3568V19.624Z" fill="#7B7B7B"/>
</g>
<defs>
<clipPath id="clip0_1_775">
<rect width="90.9474" height="24" fill="white" transform="translate(0.626343)"/>
</clipPath>
</defs>
</svg>
