<svg width="85" height="24" viewBox="0 0 85 24" fill="none" xmlns="http://www.w3.org/2000/svg">
<g clip-path="url(#clip0_1_834)">
<path d="M46.3249 15.5117C46.3249 18.1197 43.0762 17.965 43.0762 17.965H39.8275V13.2523H43.0762C46.4195 13.2299 46.3249 15.5117 46.3249 15.5117ZM39.8275 6.0651H42.303C44.8736 6.20076 44.7766 8.11276 44.7766 8.11276C44.7766 10.4888 41.9342 10.5276 41.9342 10.5276H39.8275V6.0651ZM45.724 11.4543C45.724 11.4543 47.9476 10.5077 47.9278 7.99688C47.9278 7.99688 48.266 3.88202 42.8088 3.38013H36.7534V20.6306H43.6944C43.6944 20.6306 49.4939 20.6478 49.4939 15.7633C49.4938 15.7633 49.6309 12.4392 45.724 11.4543ZM30.0527 0H55.5473V24.0011H30.0527V0ZM16.9256 15.5117C16.9256 18.1197 13.6769 17.965 13.6769 17.965H10.428V13.2523H13.6769C17.0205 13.2299 16.9256 15.5117 16.9256 15.5117ZM10.428 6.0651H12.904C15.4747 6.20076 15.3774 8.11276 15.3774 8.11276C15.3774 10.4888 12.5352 10.5276 12.5352 10.5276H10.428V6.0651ZM16.325 11.4543C16.325 11.4543 18.5489 10.5077 18.529 7.99688C18.529 7.99688 18.8669 3.88202 13.4097 3.38013H7.35403V20.6306H14.2954C14.2954 20.6306 20.0949 20.6478 20.0949 15.7633C20.0949 15.7633 20.2315 12.4392 16.325 11.4543ZM0.653687 0H26.1483V24.0011H0.653687V0ZM79.7456 4.61684V7.80387C79.7456 7.80387 76.6317 5.89213 73.1907 5.85364C73.1907 5.85364 66.7708 5.72775 66.4815 12.0014C66.4815 12.0014 66.2496 17.7709 73.1133 18.0997C73.1133 18.0997 75.9931 18.4462 79.9 15.9573V19.2579C79.9 19.2579 74.6593 22.3686 68.5882 19.9727C68.5882 19.9727 63.4847 18.1109 63.2903 12.0014C63.2903 12.0014 63.0781 5.71773 69.8845 3.63183C69.8845 3.63183 71.7021 2.93667 74.9685 3.24564C74.9686 3.24556 76.9208 3.43848 79.7456 4.61684ZM59.4518 24.0011H84.9464V0H59.4518V24.0011Z" fill="#7B7B7B"/>
</g>
<defs>
<clipPath id="clip0_1_834">
<rect width="84.2927" height="24" fill="white" transform="translate(0.653687)"/>
</clipPath>
</defs>
</svg>
