<svg width="52" height="24" viewBox="0 0 52 24" fill="none" xmlns="http://www.w3.org/2000/svg">
<path d="M0.888245 0V15.1332H4.49387V15.1282L7.2368 0H0.888245ZM8.08783 0V15.1332H11.6943V15.1282L14.4372 0H8.08783Z" fill="#7B7B7B"/>
<path d="M39.2218 20.3589H38.5148V19.4332H39.2218V18.3377H40.4276V19.4332H41.4618V20.3589H40.4276V22.4031C40.4276 22.6353 40.4767 22.792 40.5741 22.8749C40.6813 22.9594 40.8159 23.0028 40.953 22.9972C41.0351 22.9977 41.1171 22.9933 41.1987 22.9841C41.2818 22.9765 41.3641 22.9611 41.4443 22.9381L41.6167 23.8129C41.4577 23.862 41.2947 23.8975 41.1295 23.9188C40.9796 23.9379 40.8286 23.9478 40.6774 23.9483C40.1827 23.9483 39.818 23.8326 39.579 23.6004C39.34 23.3681 39.2218 22.9775 39.2218 22.4285V20.3589ZM36.807 21.1565C36.807 20.8504 36.7312 20.6133 36.5788 20.4434C36.4264 20.2735 36.1957 20.1874 35.871 20.1874C35.7252 20.1854 35.5806 20.2134 35.4463 20.2694C35.3308 20.3167 35.2267 20.3875 35.1407 20.4771C35.0568 20.5659 34.9909 20.6698 34.9467 20.7831C34.899 20.9037 34.8728 21.0314 34.8692 21.1606L36.807 21.1565ZM37.9186 22.4802C37.8376 22.978 37.6349 23.3558 37.3107 23.6135C36.9865 23.8712 36.5147 24 35.8951 24C35.1479 24 34.5864 23.7962 34.2106 23.3886C33.8347 22.9811 33.6468 22.4039 33.6468 21.6571C33.6421 21.3177 33.6985 20.9801 33.8134 20.6601C33.913 20.3833 34.0701 20.1301 34.2747 19.9166C34.474 19.7124 34.7169 19.5546 34.9858 19.4546C35.2785 19.3462 35.5892 19.2928 35.9018 19.297C36.5902 19.297 37.1084 19.4923 37.4565 19.8829C37.8045 20.2735 37.9783 20.7998 37.9777 21.4618V21.9378H34.8543C34.8659 22.2939 34.9578 22.5724 35.1299 22.7732C35.302 22.9739 35.5604 23.0746 35.9051 23.0752C36.3825 23.0752 36.664 22.8768 36.7495 22.4802H37.9186ZM31.4668 17.8026H32.6726V23.8646H31.4693L31.4668 17.8026ZM29.0886 17.8026H30.2952V23.8646H29.0911L29.0886 17.8026ZM26.8086 21.8861L26.2749 21.9123C26.0688 21.9173 25.8637 21.9429 25.6628 21.9886C25.5357 22.0163 25.4147 22.0664 25.3056 22.1364C25.2301 22.1878 25.1721 22.2604 25.1391 22.3448C25.1098 22.4296 25.0955 22.5187 25.0966 22.6082C25.0903 22.7417 25.1476 22.8703 25.2515 22.9562C25.3752 23.0473 25.5277 23.0924 25.682 23.0834C25.9514 23.0954 26.2175 23.0211 26.4406 22.8716C26.549 22.7897 26.6384 22.6859 26.7029 22.5672C26.7765 22.427 26.8121 22.2703 26.8061 22.1126L26.8086 21.8861ZM26.8353 23.3041C26.6638 23.4965 26.4615 23.6601 26.2366 23.7883C25.9718 23.9223 25.6763 23.9865 25.3789 23.9746C25.1852 23.9755 24.9924 23.9498 24.806 23.8982C24.6332 23.8517 24.4719 23.7707 24.3322 23.6603C24.1945 23.5492 24.084 23.4089 24.0091 23.25C23.9244 23.0615 23.8832 22.8569 23.8883 22.6509C23.8764 22.3867 23.9489 22.1255 24.0957 21.9041C24.234 21.7107 24.4208 21.5558 24.6378 21.4544C24.8764 21.3426 25.1303 21.2655 25.3914 21.2255C25.6725 21.1807 25.9561 21.1533 26.2407 21.1434L26.8178 21.118V20.8931C26.8178 20.6215 26.7412 20.4344 26.5896 20.3326C26.43 20.2289 26.242 20.1757 26.0509 20.18C25.5746 20.18 25.3017 20.3583 25.2323 20.715L24.1298 20.6133C24.2131 20.1496 24.4171 19.8132 24.7502 19.6072C25.0833 19.4012 25.5313 19.297 26.0942 19.297C26.3919 19.2901 26.6887 19.3317 26.9727 19.4201C27.1932 19.4887 27.3934 19.6096 27.5556 19.7721C27.7049 19.9302 27.8142 20.1209 27.8745 20.3285C27.9437 20.5687 27.9771 20.8175 27.9736 21.0671V23.8687H26.8353V23.3041ZM20.9172 22.8716C21.0954 22.8755 21.2733 22.8553 21.446 22.8117C21.5717 22.7801 21.6882 22.7203 21.7866 22.6369C21.8704 22.5655 21.9331 22.473 21.9681 22.3694C22.0041 22.2572 22.0215 22.14 22.0197 22.0223C22.0197 21.7622 21.9473 21.5636 21.8041 21.4282C21.6608 21.2928 21.4077 21.2246 21.0463 21.2246H19.8405V22.8716H20.9172ZM20.9597 20.2054C21.2986 20.2054 21.5318 20.1431 21.6575 20.0183C21.7921 19.8732 21.8607 19.6802 21.8474 19.4841C21.8474 19.2379 21.7641 19.0582 21.6017 18.9532C21.4393 18.8481 21.1612 18.7964 20.769 18.7964H19.8405V20.2054H20.9597ZM18.5998 17.8026H20.8131C21.1923 17.7941 21.5709 17.8372 21.9381 17.9307C22.1946 17.9959 22.434 18.1146 22.6401 18.2786C22.8053 18.4155 22.9289 18.5947 22.9973 18.7964C23.0649 19.0049 23.0983 19.2226 23.0964 19.4414C23.0977 19.6737 23.0447 19.9031 22.9415 20.1119C22.8377 20.322 22.6434 20.5003 22.3586 20.6469C22.5212 20.7288 22.6731 20.8299 22.8108 20.9481C22.9211 21.044 23.0143 21.1574 23.0864 21.2837C23.1512 21.3977 23.1976 21.5209 23.2238 21.6489C23.2501 21.7717 23.2632 21.8968 23.263 22.0223C23.2643 22.2673 23.2252 22.5109 23.1472 22.7436C23.0707 22.9683 22.9371 23.17 22.7592 23.3295C22.5531 23.5078 22.311 23.641 22.0489 23.7202C21.698 23.8242 21.3327 23.873 20.9664 23.8646H18.5998V17.8026ZM50.5058 9.04165H51.7124V15.0995H50.5058V9.04165ZM48.3016 13.1243L47.767 13.1497C47.5612 13.155 47.3565 13.1806 47.1558 13.226C47.0285 13.2542 46.9073 13.3045 46.7978 13.3745C46.7218 13.4255 46.6637 13.4983 46.6312 13.583C46.6014 13.6674 46.5867 13.7562 46.5879 13.8456C46.5816 13.979 46.6389 14.1078 46.7428 14.1935C46.8663 14.2854 47.0189 14.3308 47.1733 14.3215C47.4429 14.3333 47.709 14.2587 47.9319 14.109C48.0416 14.0286 48.1325 13.9259 48.1984 13.8078C48.272 13.6679 48.3079 13.5116 48.3025 13.354L48.3016 13.1243ZM48.3266 14.5423C48.1558 14.7348 47.9538 14.8982 47.7287 15.0256C47.4642 15.1604 47.1686 15.2248 46.8711 15.2127C46.6774 15.2137 46.4846 15.188 46.2982 15.1364C46.1257 15.0895 45.9645 15.0089 45.8243 14.8993C45.6867 14.7882 45.5763 14.6479 45.5013 14.489C45.4169 14.3004 45.3759 14.0959 45.3813 13.8899C45.3692 13.6258 45.4414 13.3646 45.5879 13.1431C45.7267 12.9497 45.9137 12.7945 46.1308 12.6926C46.3695 12.581 46.6233 12.5039 46.8844 12.4637C47.165 12.4193 47.4481 12.3919 47.7321 12.3816L48.3091 12.3562V12.1346C48.3091 11.8638 48.2334 11.6767 48.0818 11.5749C47.9222 11.4709 47.7343 11.4174 47.5431 11.4215C47.0667 11.4215 46.7939 11.5998 46.7245 11.9565L45.622 11.8547C45.7019 11.3914 45.9087 11.056 46.2424 10.8487C46.576 10.6413 47.024 10.5382 47.5863 10.5393C47.884 10.5329 48.1808 10.5744 48.4649 10.6624C48.6853 10.7314 48.8853 10.8522 49.0478 11.0144C49.197 11.1726 49.3063 11.3632 49.3667 11.5708C49.4355 11.8094 49.4689 12.0565 49.4658 12.3045V15.0995H48.3266V14.5423ZM40.5483 10.6681H41.7199V11.2795C41.8766 11.0382 42.0952 10.842 42.3536 10.7108C42.59 10.5935 42.8509 10.5326 43.1155 10.5327C43.6263 10.5327 44.0052 10.6643 44.2522 10.9274C44.4992 11.1906 44.6227 11.6053 44.6227 12.1715V15.0995H43.417V12.3348C43.417 12.0238 43.3562 11.8113 43.2363 11.698C43.1045 11.5806 42.9308 11.5195 42.7533 11.5281C42.6169 11.525 42.4811 11.5482 42.3536 11.5963C42.2382 11.6437 42.1316 11.7097 42.038 11.7916C41.9555 11.875 41.8874 11.9712 41.8365 12.0763C41.7808 12.1884 41.7523 12.3118 41.7532 12.4366V15.0995H40.5483V10.6681ZM37.3349 14.2854C37.6796 14.2854 37.9367 14.1637 38.106 13.9203C38.2753 13.6768 38.3602 13.3294 38.3608 12.8781C38.3608 12.4256 38.2761 12.0804 38.1068 11.8424C37.9375 11.6045 37.6802 11.4866 37.3349 11.4888C36.9901 11.4888 36.7331 11.6075 36.5638 11.8449C36.3945 12.0823 36.3098 12.4275 36.3098 12.8805C36.3098 13.339 36.3931 13.6886 36.5596 13.9293C36.7262 14.1697 36.9843 14.2904 37.3341 14.2904L37.3349 14.2854ZM37.3341 15.2406C36.6124 15.2406 36.0525 15.0369 35.6545 14.6293C35.2565 14.2217 35.0583 13.6388 35.0599 12.8805C35.0547 12.5456 35.1088 12.2124 35.2198 11.8958C35.3161 11.62 35.4717 11.3681 35.6761 11.1572C35.8791 10.9534 36.1246 10.7954 36.3956 10.6944C36.6953 10.5826 37.0136 10.527 37.3341 10.5303C37.6578 10.5266 37.9794 10.5822 38.2825 10.6944C38.8391 10.8988 39.2705 11.3424 39.4541 11.8991C39.5622 12.2162 39.6146 12.5493 39.609 12.8838C39.6137 13.2187 39.5596 13.5519 39.4491 13.8686C39.3522 14.1438 39.197 14.3956 38.9936 14.6071C38.7917 14.8132 38.546 14.9727 38.2742 15.0741C37.9741 15.1858 37.6556 15.2415 37.3349 15.2382L37.3341 15.2406ZM32.9932 10.6681H34.1972V15.0995H32.9932V10.6681ZM32.9765 9.03919H34.2172V10.106H32.9765V9.03919ZM29.9188 11.5938H29.2118V10.6681H29.9188V9.57587H31.1246V10.6681H32.1588V11.5938H31.1246V13.6396C31.1246 13.8718 31.1729 14.0286 31.2711 14.1115C31.378 14.1964 31.5128 14.2399 31.65 14.2337C31.7333 14.2337 31.8124 14.2337 31.8956 14.2214C31.9787 14.2128 32.0609 14.1972 32.1413 14.1747L32.3137 15.0486C32.1548 15.0981 31.9918 15.1338 31.8265 15.1553C31.6766 15.1745 31.5256 15.1844 31.3744 15.1848C30.8808 15.1848 30.5147 15.0689 30.276 14.8369C30.0373 14.6049 29.9182 14.2143 29.9188 13.665V11.5938ZM27.429 13.1218L26.8944 13.1472C26.6886 13.1527 26.4839 13.1783 26.2832 13.2236C26.1561 13.2518 26.0351 13.3021 25.926 13.3721C25.8503 13.4234 25.7923 13.496 25.7594 13.5805C25.7303 13.6651 25.7159 13.7539 25.717 13.8431C25.7083 13.9783 25.7651 14.1095 25.8702 14.1968C25.9936 14.2886 26.1463 14.334 26.3007 14.3248C26.5699 14.3364 26.8357 14.2618 27.0584 14.1123C27.1684 14.0319 27.2595 13.9292 27.3257 13.8111C27.3991 13.6711 27.4346 13.5148 27.429 13.3573V13.1218ZM27.4548 14.5398C27.2839 14.7326 27.0815 14.8959 26.8561 15.0232C26.5918 15.1579 26.2965 15.2224 25.9992 15.2103C25.8056 15.2112 25.6128 15.1855 25.4263 15.134C25.2538 15.0871 25.0927 15.0064 24.9525 14.8968C24.8151 14.7855 24.7047 14.6453 24.6294 14.4865C24.5448 14.298 24.5035 14.0935 24.5087 13.8874C24.4972 13.6233 24.5697 13.3622 24.716 13.1407C24.8546 12.9472 25.0413 12.7921 25.2581 12.6901C25.4969 12.5786 25.7507 12.5015 26.0117 12.4612C26.2929 12.4168 26.5765 12.3894 26.8611 12.3791L27.4373 12.3537V12.1321C27.4373 11.8613 27.3615 11.6742 27.21 11.5725C27.0505 11.4684 26.8625 11.4148 26.6712 11.419C26.1938 11.419 25.921 11.5973 25.8527 11.954L24.7502 11.8523C24.8301 11.3889 25.0369 11.0535 25.3705 10.8462C25.7042 10.6389 26.1522 10.5357 26.7145 10.5368C27.0122 10.5305 27.309 10.572 27.593 10.6599C27.8136 10.7286 28.0137 10.8495 28.1759 11.012C28.3252 11.1708 28.4339 11.3624 28.4932 11.5708C28.562 11.8094 28.5954 12.0565 28.5923 12.3045V15.0995H27.4523L27.4548 14.5398ZM18.5998 9.04165H19.7539L22.2895 13.0135V9.04165H23.5386V15.0995H22.3903L19.8489 11.1605V15.0995H18.5998V9.04165ZM43.0997 0H44.3063V2.19025C44.4665 1.96766 44.6794 1.78707 44.9267 1.66423C45.1566 1.55225 45.4097 1.49412 45.6661 1.49436C46.1774 1.49436 46.5566 1.62593 46.8036 1.88908C47.0506 2.15223 47.1742 2.56664 47.1742 3.13233V6.06114H45.9684V3.29317C45.9684 2.98242 45.9079 2.77043 45.7869 2.65718C45.6553 2.53992 45.4819 2.47884 45.3047 2.48731C45.168 2.48428 45.032 2.50741 44.9042 2.55543C44.7892 2.60284 44.6831 2.66885 44.5903 2.75074C44.5067 2.83376 44.4382 2.93037 44.3879 3.03631C44.3321 3.14838 44.3036 3.27173 44.3046 3.39657V6.06114H43.0997V0ZM39.3267 4.65212C39.3675 4.91226 39.4733 5.08213 39.6457 5.16173C39.8412 5.24544 40.0529 5.28605 40.266 5.28072C40.5533 5.28072 40.7581 5.24461 40.8814 5.17404C41.0052 5.1041 41.0773 4.97045 41.0671 4.8302C41.0687 4.72005 41.0269 4.61357 40.9505 4.53313C40.8731 4.45107 40.7248 4.3887 40.5067 4.35506L39.8863 4.2533C39.3412 4.16795 38.9351 4.02216 38.6681 3.81591C38.401 3.60966 38.2675 3.297 38.2675 2.87793C38.264 2.67756 38.313 2.4797 38.4099 2.30349C38.5071 2.13011 38.6443 1.98168 38.8104 1.8702C38.998 1.74411 39.2061 1.65084 39.4258 1.59447C39.683 1.52712 39.9483 1.49427 40.2144 1.49682C40.516 1.4896 40.817 1.52441 41.1087 1.60022C41.3226 1.6578 41.5233 1.7553 41.6999 1.88744C41.8472 1.99974 41.9654 2.14485 42.0447 2.31088C42.1224 2.47892 42.1783 2.65592 42.2112 2.83772L41.1337 2.97395C41.0991 2.79744 41.0034 2.63823 40.8631 2.52342C40.7348 2.42495 40.5258 2.37981 40.2402 2.37981C40.1057 2.377 39.9712 2.38966 39.8397 2.41756C39.7514 2.43597 39.6669 2.46899 39.5899 2.51522C39.5349 2.54826 39.49 2.59532 39.46 2.65144C39.4362 2.6958 39.4231 2.74492 39.4217 2.79505C39.4111 2.91383 39.461 3.03002 39.5549 3.10525C39.644 3.17007 39.818 3.22588 40.0762 3.26937L40.6449 3.36456C40.912 3.40378 41.1745 3.46921 41.4285 3.55987C41.6128 3.62445 41.7826 3.72398 41.9281 3.85283C42.0493 3.96482 42.1384 4.10636 42.1862 4.26315C42.2381 4.44269 42.2628 4.62878 42.2595 4.81543C42.2712 5.20732 42.0908 5.58082 41.7749 5.81905C41.4535 6.07126 40.9566 6.19736 40.2843 6.19736C40.0258 6.19814 39.7678 6.17395 39.5141 6.12515C39.2824 6.08273 39.0603 5.99932 38.8587 5.87896C38.6656 5.75859 38.5034 5.59565 38.3849 5.403C38.253 5.17512 38.1806 4.91851 38.1743 4.65623L39.3267 4.65212ZM36.0967 1.62976H37.3032V6.06114H36.0967V1.62976ZM36.0792 0H37.3199V1.06681H36.0792V0ZM33.7626 0H34.9683V6.06114H33.7626V0ZM30.8165 2.27477C30.6263 2.27017 30.4397 2.32536 30.2835 2.43233C30.1345 2.53737 30.0604 2.70314 30.0604 2.92471C30.0573 3.0263 30.0793 3.12711 30.1245 3.21849C30.1639 3.29656 30.2209 3.36475 30.291 3.4179C30.3635 3.47084 30.4454 3.50982 30.5325 3.53279C30.625 3.55784 30.7205 3.57054 30.8165 3.57054C31.0034 3.57442 31.1874 3.52452 31.3461 3.42693C31.4976 3.3301 31.5742 3.16351 31.5742 2.92471C31.5742 2.69986 31.5001 2.53409 31.3502 2.43233C31.1939 2.32514 31.0069 2.26994 30.8165 2.27477ZM31.2553 5.77228C31.2212 5.76653 31.1545 5.75833 31.0579 5.74684L30.7249 5.70909C30.5983 5.69432 30.4667 5.67955 30.3285 5.66231C30.1903 5.64508 30.0645 5.62867 29.9496 5.61143C29.8575 5.73742 29.8093 5.88945 29.8122 6.04472C29.8122 6.24222 29.9155 6.37899 30.122 6.45504C30.4001 6.54185 30.6914 6.58072 30.983 6.56992C31.3111 6.56992 31.5437 6.533 31.6808 6.45914C31.812 6.3968 31.8931 6.26365 31.8873 6.12022C31.892 6.02462 31.84 5.935 31.7541 5.89045C31.5974 5.82209 31.4296 5.7818 31.2586 5.77146L31.2553 5.77228ZM28.8521 4.66936C28.8502 4.50024 28.8998 4.33444 28.9945 4.19339C29.0856 4.05587 29.1942 3.93039 29.3176 3.82001C29.1857 3.69879 29.0867 3.54703 29.0295 3.37851C28.9776 3.23364 28.9495 3.08157 28.9462 2.92799C28.9396 2.69121 28.997 2.45696 29.1127 2.24933C29.2173 2.0663 29.365 1.91068 29.5432 1.79553C29.7258 1.67738 29.9282 1.59233 30.1411 1.54442C30.3573 1.49456 30.5786 1.46896 30.8006 1.4681C30.9948 1.4631 31.1888 1.48324 31.3777 1.528C31.498 1.55963 31.616 1.59939 31.7308 1.64699C31.7296 1.54469 31.7551 1.44381 31.8049 1.35403C31.8515 1.2682 31.9159 1.19299 31.9939 1.13328C32.0729 1.07354 32.1616 1.02748 32.2562 0.997059C32.4036 0.949566 32.5605 0.938021 32.7134 0.963414C32.7642 0.972007 32.8136 0.98776 32.8599 1.01019V1.85872H32.8333C32.8205 1.86017 32.8077 1.86017 32.795 1.85872C32.7823 1.85631 32.7695 1.85493 32.7567 1.85461C32.713 1.85479 32.6695 1.85918 32.6268 1.86774C32.5789 1.87654 32.5335 1.89529 32.4935 1.92272C32.4474 1.95398 32.4101 1.99636 32.3853 2.04582C32.354 2.11373 32.3395 2.18796 32.3428 2.26246C32.4278 2.3764 32.4918 2.50418 32.5318 2.63995C32.5732 2.76624 32.5954 2.89787 32.5976 3.03057C32.6023 3.23553 32.5508 3.43795 32.4486 3.61649C32.3479 3.78626 32.2113 3.93265 32.048 4.04568C31.8742 4.16476 31.6802 4.2523 31.4751 4.30418C31.2543 4.3605 31.027 4.38809 30.799 4.38624C30.6484 4.38597 30.4983 4.37029 30.351 4.33947C30.2108 4.31326 30.0748 4.26912 29.9463 4.20817C29.9186 4.2303 29.8964 4.25837 29.8813 4.29023C29.8619 4.327 29.8517 4.36778 29.8513 4.40922C29.8445 4.51083 29.9032 4.60573 29.9979 4.64638C30.1072 4.69507 30.2235 4.72664 30.3426 4.73993L31.4018 4.86713C31.6766 4.89623 31.9479 4.95119 32.2121 5.03125C32.3952 5.08411 32.5672 5.16888 32.72 5.28154C32.8409 5.37263 32.9323 5.49636 32.9832 5.63769C33.0335 5.78969 33.058 5.94886 33.0556 6.10873C33.0665 6.34383 32.9954 6.57552 32.8541 6.76523C32.7158 6.93725 32.5387 7.0752 32.337 7.16816C32.1147 7.27041 31.8781 7.33902 31.635 7.37168C31.3869 7.40793 31.1364 7.42658 30.8856 7.42748C30.5743 7.42978 30.2633 7.40838 29.9554 7.36347C29.7108 7.33039 29.4735 7.25716 29.2535 7.14682C29.0714 7.05463 28.9183 6.91534 28.8105 6.7439C28.7013 6.55707 28.6474 6.34388 28.6547 6.12843C28.6492 5.95487 28.6958 5.78356 28.7888 5.63605C28.8833 5.49329 28.9974 5.36406 29.1277 5.252C29.0373 5.18223 28.9651 5.0922 28.917 4.9894C28.8726 4.88759 28.8505 4.7777 28.8521 4.66689V4.66936ZM23.7526 1.63058H24.9242V2.24195C25.0808 2.00091 25.2991 1.80476 25.5571 1.67325C25.7938 1.55625 26.055 1.49528 26.3198 1.49518C26.8311 1.49518 27.21 1.62675 27.4565 1.8899C27.703 2.15305 27.8265 2.56746 27.827 3.13315V6.06114H26.6196V3.29317C26.6196 2.98215 26.5588 2.77043 26.4389 2.65718C26.3073 2.53992 26.134 2.47884 25.9568 2.48731C25.8198 2.48422 25.6835 2.50735 25.5554 2.55543C25.4405 2.60284 25.3343 2.66885 25.2415 2.75074C25.1573 2.83363 25.0883 2.93024 25.0375 3.03631C24.9817 3.14838 24.9531 3.27173 24.9542 3.39657V6.06114H23.7526V1.63058ZM18.5582 0H22.7533V1.07748H19.8389V2.40279H22.5785V3.4893H19.8389V4.98284H22.9315L22.8058 6.06114H18.559L18.5582 0Z" fill="#7B7B7B"/>
<path d="M39.2218 20.3589H38.5148V19.4332H39.2218V18.3377H40.4276V19.4332H41.4618V20.3589H40.4276V22.4031C40.4276 22.6353 40.4767 22.792 40.5741 22.8749C40.6813 22.9594 40.8159 23.0028 40.953 22.9972C41.0351 22.9977 41.1171 22.9933 41.1987 22.9841C41.2818 22.9765 41.3641 22.9611 41.4443 22.9381L41.6167 23.8129C41.4577 23.862 41.2947 23.8975 41.1295 23.9188C40.9796 23.9379 40.8286 23.9478 40.6774 23.9483C40.1827 23.9483 39.818 23.8326 39.579 23.6004C39.34 23.3681 39.2218 22.9775 39.2218 22.4285V20.3589ZM36.807 21.1565C36.807 20.8504 36.7312 20.6133 36.5788 20.4434C36.4264 20.2735 36.1957 20.1874 35.871 20.1874C35.7252 20.1854 35.5806 20.2134 35.4463 20.2694C35.3308 20.3167 35.2267 20.3875 35.1407 20.4771C35.0568 20.5659 34.9909 20.6698 34.9467 20.7831C34.899 20.9037 34.8728 21.0314 34.8692 21.1606L36.807 21.1565ZM37.9186 22.4802C37.8376 22.978 37.6349 23.3558 37.3107 23.6135C36.9865 23.8712 36.5147 24 35.8951 24C35.1479 24 34.5864 23.7962 34.2106 23.3886C33.8347 22.9811 33.6468 22.4039 33.6468 21.6571C33.6421 21.3177 33.6985 20.9801 33.8134 20.6601C33.913 20.3833 34.0701 20.1301 34.2747 19.9166C34.474 19.7124 34.7169 19.5546 34.9858 19.4546C35.2785 19.3462 35.5892 19.2928 35.9018 19.297C36.5902 19.297 37.1084 19.4923 37.4565 19.8829C37.8045 20.2735 37.9783 20.7998 37.9777 21.4618V21.9378H34.8543C34.8659 22.2939 34.9578 22.5724 35.1299 22.7732C35.302 22.9739 35.5604 23.0746 35.9051 23.0752C36.3825 23.0752 36.664 22.8768 36.7495 22.4802H37.9186ZM31.4668 17.8026H32.6726V23.8646H31.4693L31.4668 17.8026ZM29.0886 17.8026H30.2952V23.8646H29.0911L29.0886 17.8026ZM26.8086 21.8861L26.2749 21.9123C26.0688 21.9173 25.8637 21.9429 25.6628 21.9886C25.5357 22.0163 25.4147 22.0664 25.3056 22.1364C25.2301 22.1878 25.1721 22.2604 25.1391 22.3448C25.1098 22.4296 25.0955 22.5187 25.0966 22.6082C25.0903 22.7417 25.1476 22.8703 25.2515 22.9562C25.3752 23.0473 25.5277 23.0924 25.682 23.0834C25.9514 23.0954 26.2175 23.0211 26.4406 22.8716C26.549 22.7897 26.6384 22.6859 26.7029 22.5672C26.7765 22.427 26.8121 22.2703 26.8061 22.1126L26.8086 21.8861ZM26.8353 23.3041C26.6638 23.4965 26.4615 23.6601 26.2366 23.7883C25.9718 23.9223 25.6763 23.9865 25.3789 23.9746C25.1852 23.9755 24.9924 23.9498 24.806 23.8982C24.6332 23.8517 24.4719 23.7707 24.3322 23.6603C24.1945 23.5492 24.084 23.4089 24.0091 23.25C23.9244 23.0615 23.8832 22.8569 23.8883 22.6509C23.8764 22.3867 23.9489 22.1255 24.0957 21.9041C24.234 21.7107 24.4208 21.5558 24.6378 21.4544C24.8764 21.3426 25.1303 21.2655 25.3914 21.2255C25.6725 21.1807 25.9561 21.1533 26.2407 21.1434L26.8178 21.118V20.8931C26.8178 20.6215 26.7412 20.4344 26.5896 20.3326C26.43 20.2289 26.242 20.1757 26.0509 20.18C25.5746 20.18 25.3017 20.3583 25.2323 20.715L24.1298 20.6133C24.2131 20.1496 24.4171 19.8132 24.7502 19.6072C25.0833 19.4012 25.5313 19.297 26.0942 19.297C26.3919 19.2901 26.6887 19.3317 26.9727 19.4201C27.1932 19.4887 27.3934 19.6096 27.5556 19.7721C27.7049 19.9302 27.8142 20.1209 27.8745 20.3285C27.9437 20.5687 27.9771 20.8175 27.9736 21.0671V23.8687H26.8353V23.3041ZM20.9172 22.8716C21.0954 22.8755 21.2733 22.8553 21.446 22.8117C21.5717 22.7801 21.6882 22.7203 21.7866 22.6369C21.8704 22.5655 21.9331 22.473 21.9681 22.3694C22.0041 22.2572 22.0215 22.14 22.0197 22.0223C22.0197 21.7622 21.9473 21.5636 21.8041 21.4282C21.6608 21.2928 21.4077 21.2246 21.0463 21.2246H19.8405V22.8716H20.9172ZM20.9597 20.2054C21.2986 20.2054 21.5318 20.1431 21.6575 20.0183C21.7921 19.8732 21.8607 19.6802 21.8474 19.4841C21.8474 19.2379 21.7641 19.0582 21.6017 18.9532C21.4393 18.8481 21.1612 18.7964 20.769 18.7964H19.8405V20.2054H20.9597ZM18.5998 17.8026H20.8131C21.1923 17.7941 21.5709 17.8372 21.9381 17.9307C22.1946 17.9959 22.434 18.1146 22.6401 18.2786C22.8053 18.4155 22.9289 18.5947 22.9973 18.7964C23.0649 19.0049 23.0983 19.2226 23.0964 19.4414C23.0977 19.6737 23.0447 19.9031 22.9415 20.1119C22.8377 20.322 22.6434 20.5003 22.3586 20.6469C22.5212 20.7288 22.6731 20.8299 22.8108 20.9481C22.9211 21.044 23.0143 21.1574 23.0864 21.2837C23.1512 21.3977 23.1976 21.5209 23.2238 21.6489C23.2501 21.7717 23.2632 21.8968 23.263 22.0223C23.2643 22.2673 23.2252 22.5109 23.1472 22.7436C23.0707 22.9683 22.9371 23.17 22.7592 23.3295C22.5531 23.5078 22.311 23.641 22.0489 23.7202C21.698 23.8242 21.3327 23.873 20.9664 23.8646H18.5998V17.8026ZM50.5058 9.04165H51.7124V15.0995H50.5058V9.04165ZM48.3016 13.1243L47.767 13.1497C47.5612 13.155 47.3565 13.1806 47.1558 13.226C47.0285 13.2542 46.9073 13.3045 46.7978 13.3745C46.7218 13.4255 46.6637 13.4983 46.6312 13.583C46.6014 13.6674 46.5867 13.7562 46.5879 13.8456C46.5816 13.979 46.6389 14.1078 46.7428 14.1935C46.8663 14.2854 47.0189 14.3308 47.1733 14.3215C47.4429 14.3333 47.709 14.2587 47.9319 14.109C48.0416 14.0286 48.1325 13.9259 48.1984 13.8078C48.272 13.6679 48.3079 13.5116 48.3025 13.354L48.3016 13.1243ZM48.3266 14.5423C48.1558 14.7348 47.9538 14.8982 47.7287 15.0256C47.4642 15.1604 47.1686 15.2248 46.8711 15.2127C46.6774 15.2137 46.4846 15.188 46.2982 15.1364C46.1257 15.0895 45.9645 15.0089 45.8243 14.8993C45.6867 14.7882 45.5763 14.6479 45.5013 14.489C45.4169 14.3004 45.3759 14.0959 45.3813 13.8899C45.3692 13.6258 45.4414 13.3646 45.5879 13.1431C45.7267 12.9497 45.9137 12.7945 46.1308 12.6926C46.3695 12.581 46.6233 12.5039 46.8844 12.4637C47.165 12.4193 47.4481 12.3919 47.7321 12.3816L48.3091 12.3562V12.1346C48.3091 11.8638 48.2334 11.6767 48.0818 11.5749C47.9222 11.4709 47.7343 11.4174 47.5431 11.4215C47.0667 11.4215 46.7939 11.5998 46.7245 11.9565L45.622 11.8547C45.7019 11.3914 45.9087 11.056 46.2424 10.8487C46.576 10.6413 47.024 10.5382 47.5863 10.5393C47.884 10.5329 48.1808 10.5744 48.4649 10.6624C48.6853 10.7314 48.8853 10.8522 49.0478 11.0144C49.197 11.1726 49.3063 11.3632 49.3667 11.5708C49.4355 11.8094 49.4689 12.0565 49.4658 12.3045V15.0995H48.3266V14.5423ZM40.5483 10.6681H41.7199V11.2795C41.8766 11.0382 42.0952 10.842 42.3536 10.7108C42.59 10.5935 42.8509 10.5326 43.1155 10.5327C43.6263 10.5327 44.0052 10.6643 44.2522 10.9274C44.4992 11.1906 44.6227 11.6053 44.6227 12.1715V15.0995H43.417V12.3348C43.417 12.0238 43.3562 11.8113 43.2363 11.698C43.1045 11.5806 42.9308 11.5195 42.7533 11.5281C42.6169 11.525 42.4811 11.5482 42.3536 11.5963C42.2382 11.6437 42.1316 11.7097 42.038 11.7916C41.9555 11.875 41.8874 11.9712 41.8365 12.0763C41.7808 12.1884 41.7523 12.3118 41.7532 12.4366V15.0995H40.5483V10.6681ZM37.3349 14.2854C37.6796 14.2854 37.9367 14.1637 38.106 13.9203C38.2753 13.6768 38.3602 13.3294 38.3608 12.8781C38.3608 12.4256 38.2761 12.0804 38.1068 11.8424C37.9375 11.6045 37.6802 11.4866 37.3349 11.4888C36.9901 11.4888 36.7331 11.6075 36.5638 11.8449C36.3945 12.0823 36.3098 12.4275 36.3098 12.8805C36.3098 13.339 36.3931 13.6886 36.5596 13.9293C36.7262 14.1697 36.9843 14.2904 37.3341 14.2904L37.3349 14.2854ZM37.3341 15.2406C36.6124 15.2406 36.0525 15.0369 35.6545 14.6293C35.2565 14.2217 35.0583 13.6388 35.0599 12.8805C35.0547 12.5456 35.1088 12.2124 35.2198 11.8958C35.3161 11.62 35.4717 11.3681 35.6761 11.1572C35.8791 10.9534 36.1246 10.7954 36.3956 10.6944C36.6953 10.5826 37.0136 10.527 37.3341 10.5303C37.6578 10.5266 37.9794 10.5822 38.2825 10.6944C38.8391 10.8988 39.2705 11.3424 39.4541 11.8991C39.5622 12.2162 39.6146 12.5493 39.609 12.8838C39.6137 13.2187 39.5596 13.5519 39.4491 13.8686C39.3522 14.1438 39.197 14.3956 38.9936 14.6071C38.7917 14.8132 38.546 14.9727 38.2742 15.0741C37.9741 15.1858 37.6556 15.2415 37.3349 15.2382L37.3341 15.2406ZM32.9932 10.6681H34.1972V15.0995H32.9932V10.6681ZM32.9765 9.03919H34.2172V10.106H32.9765V9.03919ZM29.9188 11.5938H29.2118V10.6681H29.9188V9.57587H31.1246V10.6681H32.1588V11.5938H31.1246V13.6396C31.1246 13.8718 31.1729 14.0286 31.2711 14.1115C31.378 14.1964 31.5128 14.2399 31.65 14.2337C31.7333 14.2337 31.8124 14.2337 31.8956 14.2214C31.9787 14.2128 32.0609 14.1972 32.1413 14.1747L32.3137 15.0486C32.1548 15.0981 31.9918 15.1338 31.8265 15.1553C31.6766 15.1745 31.5256 15.1844 31.3744 15.1848C30.8808 15.1848 30.5147 15.0689 30.276 14.8369C30.0373 14.6049 29.9182 14.2143 29.9188 13.665V11.5938ZM27.429 13.1218L26.8944 13.1472C26.6886 13.1527 26.4839 13.1783 26.2832 13.2236C26.1561 13.2518 26.0351 13.3021 25.926 13.3721C25.8503 13.4234 25.7923 13.496 25.7594 13.5805C25.7303 13.6651 25.7159 13.7539 25.717 13.8431C25.7083 13.9783 25.7651 14.1095 25.8702 14.1968C25.9936 14.2886 26.1463 14.334 26.3007 14.3248C26.5699 14.3364 26.8357 14.2618 27.0584 14.1123C27.1684 14.0319 27.2595 13.9292 27.3257 13.8111C27.3991 13.6711 27.4346 13.5148 27.429 13.3573V13.1218ZM27.4548 14.5398C27.2839 14.7326 27.0815 14.8959 26.8561 15.0232C26.5918 15.1579 26.2965 15.2224 25.9992 15.2103C25.8056 15.2112 25.6128 15.1855 25.4263 15.134C25.2538 15.0871 25.0927 15.0064 24.9525 14.8968C24.8151 14.7855 24.7047 14.6453 24.6294 14.4865C24.5448 14.298 24.5035 14.0935 24.5087 13.8874C24.4972 13.6233 24.5697 13.3622 24.716 13.1407C24.8546 12.9472 25.0413 12.7921 25.2581 12.6901C25.4969 12.5786 25.7507 12.5015 26.0117 12.4612C26.2929 12.4168 26.5765 12.3894 26.8611 12.3791L27.4373 12.3537V12.1321C27.4373 11.8613 27.3615 11.6742 27.21 11.5725C27.0505 11.4684 26.8625 11.4148 26.6712 11.419C26.1938 11.419 25.921 11.5973 25.8527 11.954L24.7502 11.8523C24.8301 11.3889 25.0369 11.0535 25.3705 10.8462C25.7042 10.6389 26.1522 10.5357 26.7145 10.5368C27.0122 10.5305 27.309 10.572 27.593 10.6599C27.8136 10.7286 28.0137 10.8495 28.1759 11.012C28.3252 11.1708 28.4339 11.3624 28.4932 11.5708C28.562 11.8094 28.5954 12.0565 28.5923 12.3045V15.0995H27.4523L27.4548 14.5398ZM18.5998 9.04165H19.7539L22.2895 13.0135V9.04165H23.5386V15.0995H22.3903L19.8489 11.1605V15.0995H18.5998V9.04165ZM43.0997 0H44.3063V2.19025C44.4665 1.96766 44.6794 1.78707 44.9267 1.66423C45.1566 1.55225 45.4097 1.49412 45.6661 1.49436C46.1774 1.49436 46.5566 1.62593 46.8036 1.88908C47.0506 2.15223 47.1742 2.56664 47.1742 3.13233V6.06114H45.9684V3.29317C45.9684 2.98242 45.9079 2.77043 45.7869 2.65718C45.6553 2.53992 45.4819 2.47884 45.3047 2.48731C45.168 2.48428 45.032 2.50741 44.9042 2.55543C44.7892 2.60284 44.6831 2.66885 44.5903 2.75074C44.5067 2.83376 44.4382 2.93037 44.3879 3.03631C44.3321 3.14838 44.3036 3.27173 44.3046 3.39657V6.06114H43.0997V0ZM39.3267 4.65212C39.3675 4.91226 39.4733 5.08213 39.6457 5.16173C39.8412 5.24544 40.0529 5.28605 40.266 5.28072C40.5533 5.28072 40.7581 5.24461 40.8814 5.17404C41.0052 5.1041 41.0773 4.97045 41.0671 4.8302C41.0687 4.72005 41.0269 4.61357 40.9505 4.53313C40.8731 4.45107 40.7248 4.3887 40.5067 4.35506L39.8863 4.2533C39.3412 4.16795 38.9351 4.02216 38.6681 3.81591C38.401 3.60966 38.2675 3.297 38.2675 2.87793C38.264 2.67756 38.313 2.4797 38.4099 2.30349C38.5071 2.13011 38.6443 1.98168 38.8104 1.8702C38.998 1.74411 39.2061 1.65084 39.4258 1.59447C39.683 1.52712 39.9483 1.49427 40.2144 1.49682C40.516 1.4896 40.817 1.52441 41.1087 1.60022C41.3226 1.6578 41.5233 1.7553 41.6999 1.88744C41.8472 1.99974 41.9654 2.14485 42.0447 2.31088C42.1224 2.47892 42.1783 2.65592 42.2112 2.83772L41.1337 2.97395C41.0991 2.79744 41.0034 2.63823 40.8631 2.52342C40.7348 2.42495 40.5258 2.37981 40.2402 2.37981C40.1057 2.377 39.9712 2.38966 39.8397 2.41756C39.7514 2.43597 39.6669 2.46899 39.5899 2.51522C39.5349 2.54826 39.49 2.59532 39.46 2.65144C39.4362 2.6958 39.4231 2.74492 39.4217 2.79505C39.4111 2.91383 39.461 3.03002 39.5549 3.10525C39.644 3.17007 39.818 3.22588 40.0762 3.26937L40.6449 3.36456C40.912 3.40378 41.1745 3.46921 41.4285 3.55987C41.6128 3.62445 41.7826 3.72398 41.9281 3.85283C42.0493 3.96482 42.1384 4.10636 42.1862 4.26315C42.2381 4.44269 42.2628 4.62878 42.2595 4.81543C42.2712 5.20732 42.0908 5.58082 41.7749 5.81905C41.4535 6.07126 40.9566 6.19736 40.2843 6.19736C40.0258 6.19814 39.7678 6.17395 39.5141 6.12515C39.2824 6.08273 39.0603 5.99932 38.8587 5.87896C38.6656 5.75859 38.5034 5.59565 38.3849 5.403C38.253 5.17512 38.1806 4.91851 38.1743 4.65623L39.3267 4.65212ZM36.0967 1.62976H37.3032V6.06114H36.0967V1.62976ZM36.0792 0H37.3199V1.06681H36.0792V0ZM33.7626 0H34.9683V6.06114H33.7626V0ZM30.8165 2.27477C30.6263 2.27017 30.4397 2.32536 30.2835 2.43233C30.1345 2.53737 30.0604 2.70314 30.0604 2.92471C30.0573 3.0263 30.0793 3.12711 30.1245 3.21849C30.1639 3.29656 30.2209 3.36475 30.291 3.4179C30.3635 3.47084 30.4454 3.50982 30.5325 3.53279C30.625 3.55784 30.7205 3.57054 30.8165 3.57054C31.0034 3.57442 31.1874 3.52452 31.3461 3.42693C31.4976 3.3301 31.5742 3.16351 31.5742 2.92471C31.5742 2.69986 31.5001 2.53409 31.3502 2.43233C31.1939 2.32514 31.0069 2.26994 30.8165 2.27477ZM31.2553 5.77228C31.2212 5.76653 31.1545 5.75833 31.0579 5.74684L30.7249 5.70909C30.5983 5.69432 30.4667 5.67955 30.3285 5.66231C30.1903 5.64508 30.0645 5.62867 29.9496 5.61143C29.8575 5.73742 29.8093 5.88945 29.8122 6.04472C29.8122 6.24222 29.9155 6.37899 30.122 6.45504C30.4001 6.54185 30.6914 6.58072 30.983 6.56992C31.3111 6.56992 31.5437 6.533 31.6808 6.45914C31.812 6.3968 31.8931 6.26365 31.8873 6.12022C31.892 6.02462 31.84 5.935 31.7541 5.89045C31.5974 5.82209 31.4296 5.7818 31.2586 5.77146L31.2553 5.77228ZM28.8521 4.66936C28.8502 4.50024 28.8998 4.33444 28.9945 4.19339C29.0856 4.05587 29.1942 3.93039 29.3176 3.82001C29.1857 3.69879 29.0867 3.54703 29.0295 3.37851C28.9776 3.23364 28.9495 3.08157 28.9462 2.92799C28.9396 2.69121 28.997 2.45696 29.1127 2.24933C29.2173 2.0663 29.365 1.91068 29.5432 1.79553C29.7258 1.67738 29.9282 1.59233 30.1411 1.54442C30.3573 1.49456 30.5786 1.46896 30.8006 1.4681C30.9948 1.4631 31.1888 1.48324 31.3777 1.528C31.498 1.55963 31.616 1.59939 31.7308 1.64699C31.7296 1.54469 31.7551 1.44381 31.8049 1.35403C31.8515 1.2682 31.9159 1.19299 31.9939 1.13328C32.0729 1.07354 32.1616 1.02748 32.2562 0.997059C32.4036 0.949566 32.5605 0.938021 32.7134 0.963414C32.7642 0.972007 32.8136 0.98776 32.8599 1.01019V1.85872H32.8333C32.8205 1.86017 32.8077 1.86017 32.795 1.85872C32.7823 1.85631 32.7695 1.85493 32.7567 1.85461C32.713 1.85479 32.6695 1.85918 32.6268 1.86774C32.5789 1.87654 32.5335 1.89529 32.4935 1.92272C32.4474 1.95398 32.4101 1.99636 32.3853 2.04582C32.354 2.11373 32.3395 2.18796 32.3428 2.26246C32.4278 2.3764 32.4918 2.50418 32.5318 2.63995C32.5732 2.76624 32.5954 2.89787 32.5976 3.03057C32.6023 3.23553 32.5508 3.43795 32.4486 3.61649C32.3479 3.78626 32.2113 3.93265 32.048 4.04568C31.8742 4.16476 31.6802 4.2523 31.4751 4.30418C31.2543 4.3605 31.027 4.38809 30.799 4.38624C30.6484 4.38597 30.4983 4.37029 30.351 4.33947C30.2108 4.31326 30.0748 4.26912 29.9463 4.20817C29.9186 4.2303 29.8964 4.25837 29.8813 4.29023C29.8619 4.327 29.8517 4.36778 29.8513 4.40922C29.8445 4.51083 29.9032 4.60573 29.9979 4.64638C30.1072 4.69507 30.2235 4.72664 30.3426 4.73993L31.4018 4.86713C31.6766 4.89623 31.9479 4.95119 32.2121 5.03125C32.3952 5.08411 32.5672 5.16888 32.72 5.28154C32.8409 5.37263 32.9323 5.49636 32.9832 5.63769C33.0335 5.78969 33.058 5.94886 33.0556 6.10873C33.0665 6.34383 32.9954 6.57552 32.8541 6.76523C32.7158 6.93725 32.5387 7.0752 32.337 7.16816C32.1147 7.27041 31.8781 7.33902 31.635 7.37168C31.3869 7.40793 31.1364 7.42658 30.8856 7.42748C30.5743 7.42978 30.2633 7.40838 29.9554 7.36347C29.7108 7.33039 29.4735 7.25716 29.2535 7.14682C29.0714 7.05463 28.9183 6.91534 28.8105 6.7439C28.7013 6.55707 28.6474 6.34388 28.6547 6.12843C28.6492 5.95487 28.6958 5.78356 28.7888 5.63605C28.8833 5.49329 28.9974 5.36406 29.1277 5.252C29.0373 5.18223 28.9651 5.0922 28.917 4.9894C28.8726 4.88759 28.8505 4.7777 28.8521 4.66689V4.66936ZM23.7526 1.63058H24.9242V2.24195C25.0808 2.00091 25.2991 1.80476 25.5571 1.67325C25.7938 1.55625 26.055 1.49528 26.3198 1.49518C26.8311 1.49518 27.21 1.62675 27.4565 1.8899C27.703 2.15305 27.8265 2.56746 27.827 3.13315V6.06114H26.6196V3.29317C26.6196 2.98215 26.5588 2.77043 26.4389 2.65718C26.3073 2.53992 26.134 2.47884 25.9568 2.48731C25.8198 2.48422 25.6835 2.50735 25.5554 2.55543C25.4405 2.60284 25.3343 2.66885 25.2415 2.75074C25.1573 2.83363 25.0883 2.93024 25.0375 3.03631C24.9817 3.14838 24.9531 3.27173 24.9542 3.39657V6.06114H23.7526V1.63058ZM18.5582 0H22.7533V1.07748H19.8389V2.40279H22.5785V3.4893H19.8389V4.98284H22.9315L22.8058 6.06114H18.559L18.5582 0Z" fill="#7B7B7B"/>
<path d="M39.2218 20.3589H38.5148V19.4332H39.2218V18.3377H40.4276V19.4332H41.4618V20.3589H40.4276V22.4031C40.4276 22.6353 40.4767 22.792 40.5741 22.8749C40.6813 22.9594 40.8159 23.0028 40.953 22.9972C41.0351 22.9977 41.1171 22.9933 41.1987 22.9841C41.2818 22.9765 41.3641 22.9611 41.4443 22.9381L41.6167 23.8129C41.4577 23.862 41.2947 23.8975 41.1295 23.9188C40.9796 23.9379 40.8286 23.9478 40.6774 23.9483C40.1827 23.9483 39.818 23.8326 39.579 23.6004C39.34 23.3681 39.2218 22.9775 39.2218 22.4285V20.3589ZM36.807 21.1565C36.807 20.8504 36.7312 20.6133 36.5788 20.4434C36.4264 20.2735 36.1957 20.1874 35.871 20.1874C35.7252 20.1854 35.5806 20.2134 35.4463 20.2694C35.3308 20.3167 35.2267 20.3875 35.1407 20.4771C35.0568 20.5659 34.9909 20.6698 34.9467 20.7831C34.899 20.9037 34.8728 21.0314 34.8692 21.1606L36.807 21.1565ZM37.9186 22.4802C37.8376 22.978 37.6349 23.3558 37.3107 23.6135C36.9865 23.8712 36.5147 24 35.8951 24C35.1479 24 34.5864 23.7962 34.2106 23.3886C33.8347 22.9811 33.6468 22.4039 33.6468 21.6571C33.6421 21.3177 33.6985 20.9801 33.8134 20.6601C33.913 20.3833 34.0701 20.1301 34.2747 19.9166C34.474 19.7124 34.7169 19.5546 34.9858 19.4546C35.2785 19.3462 35.5892 19.2928 35.9018 19.297C36.5902 19.297 37.1084 19.4923 37.4565 19.8829C37.8045 20.2735 37.9783 20.7998 37.9777 21.4618V21.9378H34.8543C34.8659 22.2939 34.9578 22.5724 35.1299 22.7732C35.302 22.9739 35.5604 23.0746 35.9051 23.0752C36.3825 23.0752 36.664 22.8768 36.7495 22.4802H37.9186ZM31.4668 17.8026H32.6726V23.8646H31.4693L31.4668 17.8026ZM29.0886 17.8026H30.2952V23.8646H29.0911L29.0886 17.8026ZM26.8086 21.8861L26.2749 21.9123C26.0688 21.9173 25.8637 21.9429 25.6628 21.9886C25.5357 22.0163 25.4147 22.0664 25.3056 22.1364C25.2301 22.1878 25.1721 22.2604 25.1391 22.3448C25.1098 22.4296 25.0955 22.5187 25.0966 22.6082C25.0903 22.7417 25.1476 22.8703 25.2515 22.9562C25.3752 23.0473 25.5277 23.0924 25.682 23.0834C25.9514 23.0954 26.2175 23.0211 26.4406 22.8716C26.549 22.7897 26.6384 22.6859 26.7029 22.5672C26.7765 22.427 26.8121 22.2703 26.8061 22.1126L26.8086 21.8861ZM26.8353 23.3041C26.6638 23.4965 26.4615 23.6601 26.2366 23.7883C25.9718 23.9223 25.6763 23.9865 25.3789 23.9746C25.1852 23.9755 24.9924 23.9498 24.806 23.8982C24.6332 23.8517 24.4719 23.7707 24.3322 23.6603C24.1945 23.5492 24.084 23.4089 24.0091 23.25C23.9244 23.0615 23.8832 22.8569 23.8883 22.6509C23.8764 22.3867 23.9489 22.1255 24.0957 21.9041C24.234 21.7107 24.4208 21.5558 24.6378 21.4544C24.8764 21.3426 25.1303 21.2655 25.3914 21.2255C25.6725 21.1807 25.9561 21.1533 26.2407 21.1434L26.8178 21.118V20.8931C26.8178 20.6215 26.7412 20.4344 26.5896 20.3326C26.43 20.2289 26.242 20.1757 26.0509 20.18C25.5746 20.18 25.3017 20.3583 25.2323 20.715L24.1298 20.6133C24.2131 20.1496 24.4171 19.8132 24.7502 19.6072C25.0833 19.4012 25.5313 19.297 26.0942 19.297C26.3919 19.2901 26.6887 19.3317 26.9727 19.4201C27.1932 19.4887 27.3934 19.6096 27.5556 19.7721C27.7049 19.9302 27.8142 20.1209 27.8745 20.3285C27.9437 20.5687 27.9771 20.8175 27.9736 21.0671V23.8687H26.8353V23.3041ZM20.9172 22.8716C21.0954 22.8755 21.2733 22.8553 21.446 22.8117C21.5717 22.7801 21.6882 22.7203 21.7866 22.6369C21.8704 22.5655 21.9331 22.473 21.9681 22.3694C22.0041 22.2572 22.0215 22.14 22.0197 22.0223C22.0197 21.7622 21.9473 21.5636 21.8041 21.4282C21.6608 21.2928 21.4077 21.2246 21.0463 21.2246H19.8405V22.8716H20.9172ZM20.9597 20.2054C21.2986 20.2054 21.5318 20.1431 21.6575 20.0183C21.7921 19.8732 21.8607 19.6802 21.8474 19.4841C21.8474 19.2379 21.7641 19.0582 21.6017 18.9532C21.4393 18.8481 21.1612 18.7964 20.769 18.7964H19.8405V20.2054H20.9597ZM18.5998 17.8026H20.8131C21.1923 17.7941 21.5709 17.8372 21.9381 17.9307C22.1946 17.9959 22.434 18.1146 22.6401 18.2786C22.8053 18.4155 22.9289 18.5947 22.9973 18.7964C23.0649 19.0049 23.0983 19.2226 23.0964 19.4414C23.0977 19.6737 23.0447 19.9031 22.9415 20.1119C22.8377 20.322 22.6434 20.5003 22.3586 20.6469C22.5212 20.7288 22.6731 20.8299 22.8108 20.9481C22.9211 21.044 23.0143 21.1574 23.0864 21.2837C23.1512 21.3977 23.1976 21.5209 23.2238 21.6489C23.2501 21.7717 23.2632 21.8968 23.263 22.0223C23.2643 22.2673 23.2252 22.5109 23.1472 22.7436C23.0707 22.9683 22.9371 23.17 22.7592 23.3295C22.5531 23.5078 22.311 23.641 22.0489 23.7202C21.698 23.8242 21.3327 23.873 20.9664 23.8646H18.5998V17.8026ZM50.5058 9.04165H51.7124V15.0995H50.5058V9.04165ZM48.3016 13.1243L47.767 13.1497C47.5612 13.155 47.3565 13.1806 47.1558 13.226C47.0285 13.2542 46.9073 13.3045 46.7978 13.3745C46.7218 13.4255 46.6637 13.4983 46.6312 13.583C46.6014 13.6674 46.5867 13.7562 46.5879 13.8456C46.5816 13.979 46.6389 14.1078 46.7428 14.1935C46.8663 14.2854 47.0189 14.3308 47.1733 14.3215C47.4429 14.3333 47.709 14.2587 47.9319 14.109C48.0416 14.0286 48.1325 13.9259 48.1984 13.8078C48.272 13.6679 48.3079 13.5116 48.3025 13.354L48.3016 13.1243ZM48.3266 14.5423C48.1558 14.7348 47.9538 14.8982 47.7287 15.0256C47.4642 15.1604 47.1686 15.2248 46.8711 15.2127C46.6774 15.2137 46.4846 15.188 46.2982 15.1364C46.1257 15.0895 45.9645 15.0089 45.8243 14.8993C45.6867 14.7882 45.5763 14.6479 45.5013 14.489C45.4169 14.3004 45.3759 14.0959 45.3813 13.8899C45.3692 13.6258 45.4414 13.3646 45.5879 13.1431C45.7267 12.9497 45.9137 12.7945 46.1308 12.6926C46.3695 12.581 46.6233 12.5039 46.8844 12.4637C47.165 12.4193 47.4481 12.3919 47.7321 12.3816L48.3091 12.3562V12.1346C48.3091 11.8638 48.2334 11.6767 48.0818 11.5749C47.9222 11.4709 47.7343 11.4174 47.5431 11.4215C47.0667 11.4215 46.7939 11.5998 46.7245 11.9565L45.622 11.8547C45.7019 11.3914 45.9087 11.056 46.2424 10.8487C46.576 10.6413 47.024 10.5382 47.5863 10.5393C47.884 10.5329 48.1808 10.5744 48.4649 10.6624C48.6853 10.7314 48.8853 10.8522 49.0478 11.0144C49.197 11.1726 49.3063 11.3632 49.3667 11.5708C49.4355 11.8094 49.4689 12.0565 49.4658 12.3045V15.0995H48.3266V14.5423ZM40.5483 10.6681H41.7199V11.2795C41.8766 11.0382 42.0952 10.842 42.3536 10.7108C42.59 10.5935 42.8509 10.5326 43.1155 10.5327C43.6263 10.5327 44.0052 10.6643 44.2522 10.9274C44.4992 11.1906 44.6227 11.6053 44.6227 12.1715V15.0995H43.417V12.3348C43.417 12.0238 43.3562 11.8113 43.2363 11.698C43.1045 11.5806 42.9308 11.5195 42.7533 11.5281C42.6169 11.525 42.4811 11.5482 42.3536 11.5963C42.2382 11.6437 42.1316 11.7097 42.038 11.7916C41.9555 11.875 41.8874 11.9712 41.8365 12.0763C41.7808 12.1884 41.7523 12.3118 41.7532 12.4366V15.0995H40.5483V10.6681ZM37.3349 14.2854C37.6796 14.2854 37.9367 14.1637 38.106 13.9203C38.2753 13.6768 38.3602 13.3294 38.3608 12.8781C38.3608 12.4256 38.2761 12.0804 38.1068 11.8424C37.9375 11.6045 37.6802 11.4866 37.3349 11.4888C36.9901 11.4888 36.7331 11.6075 36.5638 11.8449C36.3945 12.0823 36.3098 12.4275 36.3098 12.8805C36.3098 13.339 36.3931 13.6886 36.5596 13.9293C36.7262 14.1697 36.9843 14.2904 37.3341 14.2904L37.3349 14.2854ZM37.3341 15.2406C36.6124 15.2406 36.0525 15.0369 35.6545 14.6293C35.2565 14.2217 35.0583 13.6388 35.0599 12.8805C35.0547 12.5456 35.1088 12.2124 35.2198 11.8958C35.3161 11.62 35.4717 11.3681 35.6761 11.1572C35.8791 10.9534 36.1246 10.7954 36.3956 10.6944C36.6953 10.5826 37.0136 10.527 37.3341 10.5303C37.6578 10.5266 37.9794 10.5822 38.2825 10.6944C38.8391 10.8988 39.2705 11.3424 39.4541 11.8991C39.5622 12.2162 39.6146 12.5493 39.609 12.8838C39.6137 13.2187 39.5596 13.5519 39.4491 13.8686C39.3522 14.1438 39.197 14.3956 38.9936 14.6071C38.7917 14.8132 38.546 14.9727 38.2742 15.0741C37.9741 15.1858 37.6556 15.2415 37.3349 15.2382L37.3341 15.2406ZM32.9932 10.6681H34.1972V15.0995H32.9932V10.6681ZM32.9765 9.03919H34.2172V10.106H32.9765V9.03919ZM29.9188 11.5938H29.2118V10.6681H29.9188V9.57587H31.1246V10.6681H32.1588V11.5938H31.1246V13.6396C31.1246 13.8718 31.1729 14.0286 31.2711 14.1115C31.378 14.1964 31.5128 14.2399 31.65 14.2337C31.7333 14.2337 31.8124 14.2337 31.8956 14.2214C31.9787 14.2128 32.0609 14.1972 32.1413 14.1747L32.3137 15.0486C32.1548 15.0981 31.9918 15.1338 31.8265 15.1553C31.6766 15.1745 31.5256 15.1844 31.3744 15.1848C30.8808 15.1848 30.5147 15.0689 30.276 14.8369C30.0373 14.6049 29.9182 14.2143 29.9188 13.665V11.5938ZM27.429 13.1218L26.8944 13.1472C26.6886 13.1527 26.4839 13.1783 26.2832 13.2236C26.1561 13.2518 26.0351 13.3021 25.926 13.3721C25.8503 13.4234 25.7923 13.496 25.7594 13.5805C25.7303 13.6651 25.7159 13.7539 25.717 13.8431C25.7083 13.9783 25.7651 14.1095 25.8702 14.1968C25.9936 14.2886 26.1463 14.334 26.3007 14.3248C26.5699 14.3364 26.8357 14.2618 27.0584 14.1123C27.1684 14.0319 27.2595 13.9292 27.3257 13.8111C27.3991 13.6711 27.4346 13.5148 27.429 13.3573V13.1218ZM27.4548 14.5398C27.2839 14.7326 27.0815 14.8959 26.8561 15.0232C26.5918 15.1579 26.2965 15.2224 25.9992 15.2103C25.8056 15.2112 25.6128 15.1855 25.4263 15.134C25.2538 15.0871 25.0927 15.0064 24.9525 14.8968C24.8151 14.7855 24.7047 14.6453 24.6294 14.4865C24.5448 14.298 24.5035 14.0935 24.5087 13.8874C24.4972 13.6233 24.5697 13.3622 24.716 13.1407C24.8546 12.9472 25.0413 12.7921 25.2581 12.6901C25.4969 12.5786 25.7507 12.5015 26.0117 12.4612C26.2929 12.4168 26.5765 12.3894 26.8611 12.3791L27.4373 12.3537V12.1321C27.4373 11.8613 27.3615 11.6742 27.21 11.5725C27.0505 11.4684 26.8625 11.4148 26.6712 11.419C26.1938 11.419 25.921 11.5973 25.8527 11.954L24.7502 11.8523C24.8301 11.3889 25.0369 11.0535 25.3705 10.8462C25.7042 10.6389 26.1522 10.5357 26.7145 10.5368C27.0122 10.5305 27.309 10.572 27.593 10.6599C27.8136 10.7286 28.0137 10.8495 28.1759 11.012C28.3252 11.1708 28.4339 11.3624 28.4932 11.5708C28.562 11.8094 28.5954 12.0565 28.5923 12.3045V15.0995H27.4523L27.4548 14.5398ZM18.5998 9.04165H19.7539L22.2895 13.0135V9.04165H23.5386V15.0995H22.3903L19.8489 11.1605V15.0995H18.5998V9.04165ZM43.0997 0H44.3063V2.19025C44.4665 1.96766 44.6794 1.78707 44.9267 1.66423C45.1566 1.55225 45.4097 1.49412 45.6661 1.49436C46.1774 1.49436 46.5566 1.62593 46.8036 1.88908C47.0506 2.15223 47.1742 2.56664 47.1742 3.13233V6.06114H45.9684V3.29317C45.9684 2.98242 45.9079 2.77043 45.7869 2.65718C45.6553 2.53992 45.4819 2.47884 45.3047 2.48731C45.168 2.48428 45.032 2.50741 44.9042 2.55543C44.7892 2.60284 44.6831 2.66885 44.5903 2.75074C44.5067 2.83376 44.4382 2.93037 44.3879 3.03631C44.3321 3.14838 44.3036 3.27173 44.3046 3.39657V6.06114H43.0997V0ZM39.3267 4.65212C39.3675 4.91226 39.4733 5.08213 39.6457 5.16173C39.8412 5.24544 40.0529 5.28605 40.266 5.28072C40.5533 5.28072 40.7581 5.24461 40.8814 5.17404C41.0052 5.1041 41.0773 4.97045 41.0671 4.8302C41.0687 4.72005 41.0269 4.61357 40.9505 4.53313C40.8731 4.45107 40.7248 4.3887 40.5067 4.35506L39.8863 4.2533C39.3412 4.16795 38.9351 4.02216 38.6681 3.81591C38.401 3.60966 38.2675 3.297 38.2675 2.87793C38.264 2.67756 38.313 2.4797 38.4099 2.30349C38.5071 2.13011 38.6443 1.98168 38.8104 1.8702C38.998 1.74411 39.2061 1.65084 39.4258 1.59447C39.683 1.52712 39.9483 1.49427 40.2144 1.49682C40.516 1.4896 40.817 1.52441 41.1087 1.60022C41.3226 1.6578 41.5233 1.7553 41.6999 1.88744C41.8472 1.99974 41.9654 2.14485 42.0447 2.31088C42.1224 2.47892 42.1783 2.65592 42.2112 2.83772L41.1337 2.97395C41.0991 2.79744 41.0034 2.63823 40.8631 2.52342C40.7348 2.42495 40.5258 2.37981 40.2402 2.37981C40.1057 2.377 39.9712 2.38966 39.8397 2.41756C39.7514 2.43597 39.6669 2.46899 39.5899 2.51522C39.5349 2.54826 39.49 2.59532 39.46 2.65144C39.4362 2.6958 39.4231 2.74492 39.4217 2.79505C39.4111 2.91383 39.461 3.03002 39.5549 3.10525C39.644 3.17007 39.818 3.22588 40.0762 3.26937L40.6449 3.36456C40.912 3.40378 41.1745 3.46921 41.4285 3.55987C41.6128 3.62445 41.7826 3.72398 41.9281 3.85283C42.0493 3.96482 42.1384 4.10636 42.1862 4.26315C42.2381 4.44269 42.2628 4.62878 42.2595 4.81543C42.2712 5.20732 42.0908 5.58082 41.7749 5.81905C41.4535 6.07126 40.9566 6.19736 40.2843 6.19736C40.0258 6.19814 39.7678 6.17395 39.5141 6.12515C39.2824 6.08273 39.0603 5.99932 38.8587 5.87896C38.6656 5.75859 38.5034 5.59565 38.3849 5.403C38.253 5.17512 38.1806 4.91851 38.1743 4.65623L39.3267 4.65212ZM36.0967 1.62976H37.3032V6.06114H36.0967V1.62976ZM36.0792 0H37.3199V1.06681H36.0792V0ZM33.7626 0H34.9683V6.06114H33.7626V0ZM30.8165 2.27477C30.6263 2.27017 30.4397 2.32536 30.2835 2.43233C30.1345 2.53737 30.0604 2.70314 30.0604 2.92471C30.0573 3.0263 30.0793 3.12711 30.1245 3.21849C30.1639 3.29656 30.2209 3.36475 30.291 3.4179C30.3635 3.47084 30.4454 3.50982 30.5325 3.53279C30.625 3.55784 30.7205 3.57054 30.8165 3.57054C31.0034 3.57442 31.1874 3.52452 31.3461 3.42693C31.4976 3.3301 31.5742 3.16351 31.5742 2.92471C31.5742 2.69986 31.5001 2.53409 31.3502 2.43233C31.1939 2.32514 31.0069 2.26994 30.8165 2.27477ZM31.2553 5.77228C31.2212 5.76653 31.1545 5.75833 31.0579 5.74684L30.7249 5.70909C30.5983 5.69432 30.4667 5.67955 30.3285 5.66231C30.1903 5.64508 30.0645 5.62867 29.9496 5.61143C29.8575 5.73742 29.8093 5.88945 29.8122 6.04472C29.8122 6.24222 29.9155 6.37899 30.122 6.45504C30.4001 6.54185 30.6914 6.58072 30.983 6.56992C31.3111 6.56992 31.5437 6.533 31.6808 6.45914C31.812 6.3968 31.8931 6.26365 31.8873 6.12022C31.892 6.02462 31.84 5.935 31.7541 5.89045C31.5974 5.82209 31.4296 5.7818 31.2586 5.77146L31.2553 5.77228ZM28.8521 4.66936C28.8502 4.50024 28.8998 4.33444 28.9945 4.19339C29.0856 4.05587 29.1942 3.93039 29.3176 3.82001C29.1857 3.69879 29.0867 3.54703 29.0295 3.37851C28.9776 3.23364 28.9495 3.08157 28.9462 2.92799C28.9396 2.69121 28.997 2.45696 29.1127 2.24933C29.2173 2.0663 29.365 1.91068 29.5432 1.79553C29.7258 1.67738 29.9282 1.59233 30.1411 1.54442C30.3573 1.49456 30.5786 1.46896 30.8006 1.4681C30.9948 1.4631 31.1888 1.48324 31.3777 1.528C31.498 1.55963 31.616 1.59939 31.7308 1.64699C31.7296 1.54469 31.7551 1.44381 31.8049 1.35403C31.8515 1.2682 31.9159 1.19299 31.9939 1.13328C32.0729 1.07354 32.1616 1.02748 32.2562 0.997059C32.4036 0.949566 32.5605 0.938021 32.7134 0.963414C32.7642 0.972007 32.8136 0.98776 32.8599 1.01019V1.85872H32.8333C32.8205 1.86017 32.8077 1.86017 32.795 1.85872C32.7823 1.85631 32.7695 1.85493 32.7567 1.85461C32.713 1.85479 32.6695 1.85918 32.6268 1.86774C32.5789 1.87654 32.5335 1.89529 32.4935 1.92272C32.4474 1.95398 32.4101 1.99636 32.3853 2.04582C32.354 2.11373 32.3395 2.18796 32.3428 2.26246C32.4278 2.3764 32.4918 2.50418 32.5318 2.63995C32.5732 2.76624 32.5954 2.89787 32.5976 3.03057C32.6023 3.23553 32.5508 3.43795 32.4486 3.61649C32.3479 3.78626 32.2113 3.93265 32.048 4.04568C31.8742 4.16476 31.6802 4.2523 31.4751 4.30418C31.2543 4.3605 31.027 4.38809 30.799 4.38624C30.6484 4.38597 30.4983 4.37029 30.351 4.33947C30.2108 4.31326 30.0748 4.26912 29.9463 4.20817C29.9186 4.2303 29.8964 4.25837 29.8813 4.29023C29.8619 4.327 29.8517 4.36778 29.8513 4.40922C29.8445 4.51083 29.9032 4.60573 29.9979 4.64638C30.1072 4.69507 30.2235 4.72664 30.3426 4.73993L31.4018 4.86713C31.6766 4.89623 31.9479 4.95119 32.2121 5.03125C32.3952 5.08411 32.5672 5.16888 32.72 5.28154C32.8409 5.37263 32.9323 5.49636 32.9832 5.63769C33.0335 5.78969 33.058 5.94886 33.0556 6.10873C33.0665 6.34383 32.9954 6.57552 32.8541 6.76523C32.7158 6.93725 32.5387 7.0752 32.337 7.16816C32.1147 7.27041 31.8781 7.33902 31.635 7.37168C31.3869 7.40793 31.1364 7.42658 30.8856 7.42748C30.5743 7.42978 30.2633 7.40838 29.9554 7.36347C29.7108 7.33039 29.4735 7.25716 29.2535 7.14682C29.0714 7.05463 28.9183 6.91534 28.8105 6.7439C28.7013 6.55707 28.6474 6.34388 28.6547 6.12843C28.6492 5.95487 28.6958 5.78356 28.7888 5.63605C28.8833 5.49329 28.9974 5.36406 29.1277 5.252C29.0373 5.18223 28.9651 5.0922 28.917 4.9894C28.8726 4.88759 28.8505 4.7777 28.8521 4.66689V4.66936ZM23.7526 1.63058H24.9242V2.24195C25.0808 2.00091 25.2991 1.80476 25.5571 1.67325C25.7938 1.55625 26.055 1.49528 26.3198 1.49518C26.8311 1.49518 27.21 1.62675 27.4565 1.8899C27.703 2.15305 27.8265 2.56746 27.827 3.13315V6.06114H26.6196V3.29317C26.6196 2.98215 26.5588 2.77043 26.4389 2.65718C26.3073 2.53992 26.134 2.47884 25.9568 2.48731C25.8198 2.48422 25.6835 2.50735 25.5554 2.55543C25.4405 2.60284 25.3343 2.66885 25.2415 2.75074C25.1573 2.83363 25.0883 2.93024 25.0375 3.03631C24.9817 3.14838 24.9531 3.27173 24.9542 3.39657V6.06114H23.7526V1.63058ZM18.5582 0H22.7533V1.07748H19.8389V2.40279H22.5785V3.4893H19.8389V4.98284H22.9315L22.8058 6.06114H18.559L18.5582 0Z" fill="#7B7B7B"/>
</svg>
