<svg width="154" height="24" viewBox="0 0 154 24" fill="none" xmlns="http://www.w3.org/2000/svg">
<g clip-path="url(#clip0_1_790)">
<path fill-rule="evenodd" clip-rule="evenodd" d="M4.71871 9.50535C4.70287 9.56697 4.58751 9.7084 4.54698 9.72834C4.54698 9.82493 4.48887 9.91658 4.4003 9.97622C4.4003 10.1278 4.14643 10.1949 4.11454 10.3564C4.0854 10.5038 4.02296 10.6433 3.91035 10.7197C3.91035 10.8562 3.69015 10.9083 3.69015 11.042C3.62428 11.0759 3.56383 11.2899 3.51887 11.2899C3.51887 11.3823 3.41891 11.4468 3.3962 11.5624C3.34405 11.5893 3.27373 11.7117 3.27373 11.7858C3.15795 11.8437 3.19468 11.9989 3.07778 12.058C3.07778 12.1416 2.97979 12.2447 2.97979 12.331C2.93617 12.331 2.83287 12.7853 2.83287 12.8515C2.73754 12.8515 2.77319 13.6815 2.80818 13.8157C2.88192 14.0998 2.89952 14.406 3.07778 14.5864C3.12439 14.6334 3.15307 14.7162 3.17575 14.7849C3.2114 14.8024 3.34096 14.9319 3.37163 14.9705C3.4426 15.0602 3.91035 15.175 3.91035 15.2061C4.14631 15.2403 4.27406 15.3796 4.47357 15.3796C4.47357 15.3784 5.14054 15.5914 5.20817 15.6026C5.20817 15.7006 5.52672 15.6678 5.52672 15.7513C5.73664 15.7729 5.94643 15.7939 6.15637 15.8151C6.36739 15.8368 6.58218 15.9682 6.80008 16.0239C6.80008 16.1063 7.25412 16.1416 7.36726 16.1278C7.63809 16.0951 7.85233 16.1726 8.07962 16.1726C8.4461 16.1726 8.7831 16.2718 9.15126 16.2718C9.15126 16.3976 10.0114 16.2469 10.0816 16.2469C10.0816 16.1651 10.9858 16.0693 11.1033 16.0506C11.2841 16.0217 11.465 15.9927 11.6457 15.9628C11.8218 15.9337 11.8855 15.8082 12.0732 15.7513C12.3139 15.6782 12.4151 15.5824 12.6283 15.5283C12.6283 15.5314 13.0804 15.305 13.1182 15.305C13.1845 15.2038 13.3069 15.1745 13.3754 15.082C13.4419 14.9927 13.5922 14.8669 13.6935 14.7849C13.8084 14.6917 13.9263 14.3736 13.9263 14.2393C14.0264 14.2393 13.9979 13.7315 13.9263 13.6445C13.7914 13.5991 13.7455 13.5423 13.5999 13.5535C13.3846 13.5703 13.2044 13.606 12.9712 13.6197C12.9712 13.6908 12.457 13.7227 12.457 13.7933C12.3079 13.7933 12.1581 13.818 12.0408 13.818C12.0408 13.8782 11.7728 13.8925 11.6978 13.8925C11.6978 13.9707 10.9878 13.9508 10.9878 14.0163C10.9364 14.0163 10.6937 14.055 10.6937 14.0908C10.6052 14.0959 10.1796 14.0981 10.1796 14.165C10.0075 14.1536 9.55359 14.2393 9.51839 14.2393C9.51839 14.292 7.92662 14.5578 7.79995 14.5918C7.63953 14.6349 7.57652 14.5677 7.41542 14.5774C7.27625 14.5864 7.23575 14.5122 7.14284 14.5122C7.10364 14.4315 7.08428 14.4937 7.04508 14.4128C6.96771 14.4128 6.94645 14.338 6.88588 14.2889C6.78557 14.208 6.78447 14.0995 6.7021 14.0163C6.65216 13.9656 6.58042 13.6445 6.48153 13.6445C6.44477 13.5322 6.22845 12.9506 6.16346 12.9506C6.16346 12.8285 6.12602 12.7951 6.16201 12.6657C6.19413 12.55 6.21249 12.4111 6.21249 12.3185C6.21249 12.2767 6.25912 12.058 6.2859 12.058C6.29455 11.8877 6.33474 11.6715 6.33474 11.5375C6.42229 11.5375 6.4232 11.017 6.55539 11.017C6.55539 10.9442 6.58428 10.854 6.65326 10.8189C6.69178 10.6646 6.77041 10.5946 6.86142 10.4717C6.95396 10.3469 7.20418 10.2956 7.347 10.2365C7.4129 10.2091 7.80404 10.2012 7.80404 10.1743C7.90182 10.1743 8.51441 10.1032 8.51441 10.0259C8.66721 10.0259 8.85377 9.99169 9.03667 9.9844C9.19034 9.97835 9.25942 9.92668 9.37146 9.92668C9.37146 9.77819 10.0704 9.74684 10.2284 9.72834C10.2284 9.69919 10.4297 9.65403 10.4734 9.65403C10.4734 9.59408 10.806 9.59319 10.88 9.58937C11.1574 9.57615 11.3253 9.45569 11.5754 9.45569C11.8183 9.45569 11.9856 9.35933 12.2529 9.34564C12.4651 9.33446 12.6776 9.32347 12.8896 9.3126C13.0251 9.30554 13.1005 9.25734 13.2407 9.25734C13.2407 9.24917 13.9716 9.15851 14.0488 9.15851C14.0488 9.15906 14.383 9.07894 14.4417 9.05811C14.6187 8.99657 14.8446 8.96017 15.0038 8.96017C15.0038 8.95793 15.1887 8.87835 15.2261 8.86211C15.3791 8.79599 15.4552 8.83466 15.5762 8.84642C15.7128 8.85965 15.8577 8.83297 15.9892 8.7988C16.1013 8.76966 16.2409 8.70981 16.3478 8.74837C16.4153 8.7727 16.7914 8.73615 16.7914 8.78635C16.9258 8.78635 16.959 8.83601 17.0853 8.83601C17.0853 8.84944 17.5777 8.96017 17.6239 8.96017C17.6239 9.0145 17.802 9.00463 17.8446 9.00945C17.9243 9.06551 18.0039 9.12108 18.0833 9.17699C18.183 9.24659 18.2576 9.36693 18.2853 9.48874C18.325 9.66167 18.395 9.75108 18.4324 9.90204C18.5357 9.95413 18.5437 10.1202 18.6525 10.1743C18.7261 10.3957 18.8243 10.5212 18.8243 10.7447C18.8911 10.7447 18.9063 11.2652 18.9712 11.2652C18.9712 11.3408 19.1081 11.7608 19.1424 11.7608C19.1569 11.9404 19.1877 12.0854 19.2334 12.2568C19.2911 12.473 19.192 12.7108 19.1424 12.9209C19.1212 13.0114 19.0574 13.1784 18.9712 13.2232C18.9712 13.2876 18.9166 13.4025 18.8732 13.4462C18.8255 13.4947 18.7261 13.6271 18.7261 13.6942C18.7011 13.6942 18.6037 13.9009 18.6037 13.9418C18.5391 13.9418 18.5282 14.2642 18.457 14.2642C18.4408 14.3284 18.3629 14.5369 18.3099 14.5369C18.3099 14.7102 18.163 14.9094 18.163 15.1316C18.1599 15.1316 17.9448 15.579 17.9508 15.6437C17.9775 15.9401 17.857 16.0477 17.8199 16.3463C17.8011 16.4991 17.7465 16.594 17.7465 16.7181C17.7173 16.7181 17.6732 16.875 17.6732 16.9165C17.5871 16.9165 17.6857 17.3625 17.5998 17.3625C17.5674 17.5233 17.5224 17.5698 17.5018 17.7588C17.4914 17.8535 17.399 18.3785 17.3548 18.3785C17.3548 18.4265 17.3132 18.6512 17.2813 18.6512C17.2813 18.8764 17.3012 19.0215 17.2874 19.2462C17.278 19.3988 17.2325 19.4779 17.2325 19.6588C17.2325 19.7155 17.205 19.9404 17.1587 19.9404C17.1587 20.0609 17.1147 20.1645 17.1522 20.3203C17.1966 20.5063 17.208 20.6481 17.208 20.8324C17.2989 20.8324 17.2567 21.6281 17.2567 21.7373C17.2567 22.0376 17.1606 22.2668 17.1406 22.592C17.1213 22.9047 16.9126 23.0666 16.8652 23.3112C16.7331 23.3776 15.4697 24.0766 15.1848 23.9937C15.1183 23.9744 15.1559 23.9309 15.0774 23.9309C15.0774 23.8771 14.9405 23.8555 14.8978 23.8398C14.8135 23.809 14.6715 23.73 14.6367 23.658C14.5935 23.658 14.0976 23.4653 14.0976 23.4846C14.0465 23.4846 13.9018 23.4353 13.9018 23.3854C13.8539 23.3854 13.7701 23.351 13.7301 23.3112C13.6076 23.1879 13.3362 23.1288 13.3564 22.8955C13.3679 22.7629 13.4083 22.6805 13.3387 22.5427C13.2886 22.4982 13.2726 22.2702 13.2407 22.2702C13.2555 21.8759 13.3142 21.5754 13.3142 21.2193C13.3142 20.8455 13.2896 20.4514 13.2896 20.1138C13.2765 20.1138 13.4192 19.3347 13.3876 19.2212C13.3465 19.075 13.3424 18.7834 13.2422 18.6889C13.1283 18.5814 13.0567 18.6103 12.8978 18.6265C12.8978 18.6548 12.5148 18.8077 12.4324 18.8249C12.4324 18.8764 12.1546 18.9164 12.1018 18.9237C11.9586 18.9436 11.8639 19.0229 11.747 19.0229C11.747 19.1254 11.1346 19.0587 11.1346 19.1969C10.9048 19.1969 10.7292 19.3073 10.5142 19.3288C10.2518 19.3551 10.1576 19.4689 9.89394 19.4689C9.67771 19.4689 9.47409 19.5473 9.22376 19.5359C9.00277 19.5258 8.84611 19.435 8.62877 19.4991C8.39075 19.5692 8.22987 19.4689 8.02461 19.4689C7.87447 19.4364 7.61173 19.5191 7.38798 19.5191C7.38798 19.5986 5.74871 19.3454 5.60013 19.3454C5.60013 19.2927 4.98809 19.2448 4.98809 19.1473C4.67497 19.107 4.50659 18.9758 4.1555 18.9489C4.00692 18.882 3.81571 18.7503 3.65328 18.7503C3.60424 18.7503 3.44501 18.7235 3.44501 18.6758C3.36596 18.6758 2.97979 18.5651 2.97979 18.478C2.7929 18.478 2.60978 18.2298 2.41658 18.2298C2.41658 18.2043 2.09362 18.0068 2.02497 18.0068C1.92931 17.9017 1.73356 17.7608 1.68186 17.66C1.58709 17.66 1.44991 17.4869 1.38824 17.4121C1.32635 17.4121 1.19393 17.2899 1.16769 17.2386C1.05886 17.1498 0.996302 17.084 0.996302 16.9658C0.987445 16.9658 0.864329 16.7635 0.84916 16.7181C0.818271 16.7181 0.717629 16.5164 0.702459 16.4703C0.637247 16.2721 0.582221 16.0502 0.550666 15.8648C0.531735 15.7527 0.498298 15.6429 0.467741 15.5336C0.456226 15.4918 0.383707 15.3796 0.382046 15.3652C0.376289 15.3168 0.349385 14.8344 0.335102 14.8344C0.335102 14.5436 0.230696 11.7608 0.261475 11.7608C0.261475 11.683 0.307866 11.1907 0.384039 11.1907C0.384039 11.152 0.506602 10.6161 0.522877 10.4225C0.529963 10.3363 0.628834 9.75298 0.726928 9.75298C0.726928 9.55351 0.942716 9.37757 0.996302 9.15851C1.17777 9.06571 1.20722 8.76653 1.36377 8.68718C1.36377 8.55392 1.58388 8.50183 1.58388 8.3651C1.70732 8.28185 1.71807 8.12384 1.829 8.06758C1.829 7.9841 1.97581 7.94208 1.97581 7.84448C2.1059 7.73162 2.19293 7.63391 2.29423 7.49776C2.38856 7.4498 2.40761 7.31118 2.51467 7.27431C2.54456 7.18266 2.58841 7.15991 2.6617 7.10096C2.6617 7.05738 2.70267 6.98509 2.73511 6.95224C2.81427 6.87246 3.12949 6.33268 3.20035 6.33268C3.24054 6.16815 3.33952 6.01746 3.47792 5.89473C3.54776 5.83254 3.60424 5.66322 3.7145 5.66322C3.74253 5.60619 3.78802 5.6296 3.78802 5.58892C3.87249 5.58892 3.83575 5.52773 3.91035 5.48998C3.91035 5.39652 4.13668 5.19269 4.22879 5.19269C4.30728 5.08689 4.37782 5.05361 4.49131 4.98648C4.67197 4.87968 5.40558 3.97143 5.57565 3.92863C5.60699 3.86566 5.73729 3.82946 5.7961 3.82946C5.7961 3.8103 6.03866 3.65576 6.09005 3.65576C6.12437 3.58628 7.05362 2.84502 7.29 2.56508C7.36228 2.56508 7.49336 2.45358 7.53477 2.39173C7.63276 2.35922 7.66555 2.29703 7.73066 2.21814C7.78479 2.21814 7.85542 2.16547 7.88997 2.11885C7.94213 2.04836 8.00853 1.99581 8.07353 1.9372C8.15791 1.86167 8.1144 1.85495 8.17151 1.79669C8.2922 1.67454 8.49137 1.64619 8.61239 1.52436C8.67617 1.45992 8.74504 1.27615 8.85719 1.27615C8.96025 1.15064 9.04508 1.07276 9.17561 1.02849C9.30017 0.839127 9.57066 0.826447 9.68978 0.706331C9.73485 0.660374 9.8976 0.532629 9.95905 0.532629C9.99833 0.453308 10.1776 0.404308 10.2776 0.384142C10.2776 0.330353 10.5224 0.31971 10.5224 0.259981C10.5761 0.246872 10.7429 0.199251 10.7429 0.16081C10.911 0.104553 10.9896 0.0866241 11.1838 0.0866241C11.1838 0.0215321 11.5285 0.0160236 11.6026 0.017601C11.8257 0.0233097 12.049 0.0285892 12.272 0.0341835C12.3969 0.0373383 12.4937 -0.0130939 12.6444 0.00618362C12.9328 0.043478 13.1232 0.16081 13.3794 0.16081C13.4272 0.16081 13.657 0.203182 13.657 0.23534C13.7821 0.266495 13.9609 0.309067 14.083 0.389191C14.4219 0.610744 14.6662 0.858721 14.9629 1.14416C15.1469 1.32099 15.3636 1.54679 15.4201 1.77202C15.5284 1.82715 15.6254 2.21814 15.6648 2.21814C15.6648 2.4909 15.7855 2.76151 15.812 3.06072C15.9033 3.06072 16.0324 3.56051 16.0324 3.631C16.0738 3.631 16.0814 4.12663 16.1793 4.12663C16.1793 4.28835 16.2311 4.38023 16.211 4.54495C16.1912 4.7052 16.1059 4.85975 16.1059 5.01899C16.0802 5.01899 16.0079 5.177 16.0079 5.21722C15.889 5.30833 15.8063 5.42486 15.6965 5.52549C15.5826 5.62995 14.9794 5.7272 14.9794 5.81237C14.7658 5.81237 14.5956 5.91794 14.3512 5.89754C14.2358 5.88768 14.1114 5.87064 14.0035 5.82606C13.9073 5.78661 13.8826 5.67846 13.804 5.63867C13.804 5.52044 13.6326 5.48292 13.6326 5.36582C13.5518 5.32592 13.4856 5.1482 13.4856 5.06885C13.3895 5.06885 13.3768 4.64023 13.2407 4.57287C13.2407 4.53936 13.0557 4.12663 13.0203 4.12663C13.0203 3.9673 12.7561 3.74652 12.6408 3.60624C12.5487 3.49439 12.3874 3.5157 12.3348 3.40812C12.1765 3.37617 12.0601 3.31667 11.9672 3.45741C11.8842 3.45741 11.7955 3.55176 11.7102 3.5688C11.5738 3.59637 11.4959 3.71763 11.3671 3.75493C11.3253 3.76726 11.1346 3.87091 11.1346 3.87877C11.0483 3.87877 10.9739 3.9412 10.8651 3.97783C10.8651 4.04519 10.6043 4.09336 10.5469 4.15162C10.447 4.25249 10.3007 4.30573 10.1796 4.37452C10.0971 4.37452 9.95825 4.49957 9.91021 4.57287C9.76518 4.60907 9.68491 4.72147 9.54296 4.72147C9.54296 4.74218 9.3604 4.82064 9.32265 4.82064C9.23496 4.91812 9.04883 5.05092 9.0041 5.1428C8.71335 5.24086 8.45463 5.50444 8.26927 5.73784C8.10873 5.7782 8.00034 5.91648 7.88255 6.04511C7.75855 6.18049 7.63721 6.26285 7.51043 6.40686C7.42585 6.50322 7.30871 6.67971 7.19202 6.67971C7.10619 6.78362 6.80008 7.00179 6.80008 7.12572C6.70065 7.20417 6.53071 7.30389 6.53071 7.42323C6.45288 7.49329 6.28381 7.72078 6.18792 7.72078C6.16 7.77793 6.11462 7.7546 6.11462 7.79528C6.02506 7.85524 6.05329 7.9246 5.96749 7.96864C5.96749 8.10344 5.82277 8.1309 5.75934 8.21665C5.6721 8.33375 5.42885 8.47515 5.42885 8.61299C5.39697 8.61299 5.34604 8.76877 5.30618 8.7988C5.21152 8.87052 5.1183 9.0246 5.08607 9.15851C4.97788 9.2403 4.85258 9.50535 4.71871 9.50535Z" fill="#7B7B7B"/>
<path fill-rule="evenodd" clip-rule="evenodd" d="M39.9578 7.547C39.9294 7.65211 39.805 7.772 39.7126 7.81965C39.6559 7.99166 39.6077 8.07087 39.5901 8.26563C39.4983 8.58446 39.3923 8.89362 39.6882 9.13322C39.6882 9.18621 39.8818 9.26062 39.9413 9.26521C40.1165 9.27921 40.2177 9.30667 40.3985 9.30667C40.3985 9.34253 41.3044 9.31754 41.3044 9.25704C41.348 9.25704 41.5492 9.212 41.5492 9.18285C41.721 9.15764 41.8262 9.13322 42.0146 9.13322C42.0679 9.13322 42.6022 9.08761 42.6022 9.03405C42.8009 9.01027 43.4837 8.88499 43.5818 8.86069C43.6773 8.66894 44.0735 8.63733 44.2838 8.63733C44.5264 8.63733 44.7665 8.56707 45.0137 8.5729C45.1783 8.57717 45.5165 8.66536 45.5165 8.86069C45.6007 8.91726 45.6797 9.03405 45.7123 9.13322C45.7557 9.26467 45.8373 9.33863 45.8838 9.48037C45.909 9.48037 46.1077 9.94824 46.1165 10.0009C46.1545 10.2306 46.2716 10.2921 46.292 10.5623C46.3033 10.7119 46.354 10.7904 46.3736 10.9674C46.3812 10.9674 46.479 11.4885 46.496 11.5621C46.5643 11.5621 46.7038 12.1939 46.7066 12.3171C46.7114 12.529 46.5088 12.7024 46.3492 12.7024C46.2574 12.8416 46.0958 12.8461 45.9328 12.8758C45.9328 12.9019 45.7724 12.9778 45.7245 12.9873C45.5856 13.0153 45.419 13.0389 45.2472 13.0495C45.0658 13.1039 44.8668 13.1733 44.6778 13.1733C44.3561 13.1733 44.0809 13.2478 43.7901 13.2478C43.6637 13.2478 43.4984 13.249 43.3369 13.2324C43.1838 13.2174 43.0427 13.2725 42.8471 13.2725C42.7391 13.2725 41.8675 13.3143 41.8675 13.347C41.5246 13.3717 41.3673 13.4709 41.0598 13.4709C41.0598 13.5134 40.5615 13.6037 40.4716 13.6111C40.3381 13.6221 40.199 13.6692 40.0677 13.6692C39.8951 13.6692 39.7049 13.6633 39.5329 13.6815C39.4303 13.6922 39.3591 13.7432 39.2472 13.7432C39.1021 13.7432 39.0108 13.793 38.9045 13.793C38.9045 13.8676 38.684 13.83 38.684 13.9169C38.5936 13.9169 38.4839 13.9938 38.4147 14.0656C38.4147 14.1466 38.2637 14.3163 38.1942 14.3631C38.1035 14.4679 38.1452 14.5842 38.1132 14.7047C38.0273 15.0308 38.1313 15.1456 38.3167 15.3792C38.4051 15.3792 38.4924 15.5031 38.5859 15.5031C38.5859 15.5238 38.7688 15.6023 38.8064 15.6023C38.8064 15.6835 39.2222 15.8006 39.3453 15.8256C39.3453 15.8819 40.0309 15.8849 40.0309 15.999C40.1573 15.999 40.2401 16.0485 40.3985 16.0485C40.3985 16.1889 40.801 16.0432 40.8636 16.0236C41.1139 16.0096 41.3474 15.9493 41.5492 15.9493C41.5492 15.8905 41.9055 15.8348 41.99 15.8256C41.99 15.7359 42.3426 15.5989 42.4064 15.5031C42.4885 15.5031 42.5438 15.4286 42.6391 15.4286C42.7581 15.4286 42.8417 15.4033 42.9369 15.4123C43.0815 15.4257 43.1016 15.442 43.2105 15.5233C43.2555 15.5569 43.3859 15.6837 43.3859 15.7014C43.4894 15.7952 43.7887 16.281 43.8635 16.3458C43.9635 16.4323 44.2731 16.9896 44.292 17.2383C44.2838 17.2383 44.3989 17.7695 44.4029 17.8468C44.4054 17.9003 44.3703 18.0807 44.3411 18.0807C44.3411 18.195 44.3164 18.3326 44.3164 18.4777C44.2759 18.4777 44.2433 18.949 44.2433 19.0226C44.1951 19.0226 44.1208 19.516 44.1208 19.5927C43.999 19.6538 44.0698 19.804 43.9494 19.8653C43.9494 20.151 43.3071 20.5621 43.3071 20.4494C43.6274 20.4494 41.5492 21.0772 41.5492 20.9562C41.4166 20.998 41.2803 20.9212 41.1575 20.882C40.9912 20.8652 40.8908 20.8299 40.733 20.8155C40.5212 20.7963 40.2673 20.6338 40.0555 20.6338C40.0555 20.6242 39.6154 20.5021 39.5658 20.4853C39.3685 20.4186 39.1874 20.3118 38.9779 20.3118C38.9779 20.2418 38.7821 20.2842 38.7821 20.2124C38.6216 20.1858 38.4947 20.1409 38.3167 20.1135C38.3167 19.9693 37.6801 20.0555 37.6801 19.8902C37.6237 19.8902 37.1906 19.7229 37.1906 19.6673C37.0789 19.6387 36.9585 19.5634 36.8964 19.4686C36.7677 19.4686 36.707 19.2706 36.5781 19.2706C36.5509 19.2162 36.3658 19.0972 36.3088 19.0972C36.266 19.033 36.1118 18.8991 36.0393 18.8991C35.9616 18.8046 35.9168 18.7775 35.9168 18.6509C35.9024 18.6509 35.8664 18.559 35.8188 18.527C35.8188 18.5175 35.6039 18.4399 35.5742 18.3782C35.5124 18.3265 35.4273 18.2911 35.4273 18.2049C35.3483 18.1645 35.4083 18.1451 35.3293 18.1057C35.3293 17.969 35.1088 17.9174 35.1088 17.7832C35.047 17.7527 35.0115 17.6633 34.9985 17.5975C34.9716 17.461 34.9619 17.6216 34.9619 17.4363C34.9566 17.4363 34.8882 17.2972 34.8882 17.263C34.7726 17.2021 34.7278 16.7923 34.668 16.7923C34.668 16.5979 34.5209 16.3878 34.5209 16.1973C34.4282 16.1973 34.5169 15.2554 34.3985 15.2554C34.3985 15.1198 34.3497 15.0758 34.3497 14.9083C34.3041 14.9083 34.3251 14.3746 34.3251 14.2951C34.3251 14.1978 34.4362 13.6194 34.3985 13.6194C34.3985 13.4462 34.4231 13.2487 34.4231 13.1114C34.4231 13.0077 34.4968 12.9436 34.4968 12.8265C34.4968 12.3337 34.721 11.9875 34.8066 11.5541C34.8551 11.3098 35.011 11.149 35.011 10.8929C35.0679 10.864 35.1334 10.7315 35.1334 10.6699C35.1564 10.6699 35.2312 10.5248 35.2312 10.4714C35.2797 10.4471 35.3185 10.2981 35.3536 10.2981C35.3536 10.2552 35.4608 10.0255 35.5007 10.0255C35.5648 9.76948 35.7026 9.6171 35.7454 9.35633C35.8139 9.35633 35.808 8.78605 35.8922 8.78605C35.9812 8.48752 35.7822 8.17621 35.5742 8.01788C35.5742 7.98102 35.5316 7.86916 35.5007 7.86916C35.5007 7.72383 35.3738 7.75992 35.329 7.64761C35.2828 7.53097 35.1088 7.42519 35.1088 7.32376C35.0546 7.32376 35.0841 7.16689 35.0841 7.12541C34.9832 7.04362 34.9308 6.97403 34.8639 6.86097C34.7346 6.64312 34.7661 6.2101 34.7661 5.9936C34.7661 5.73587 34.7222 5.48652 34.774 5.19517C34.8024 5.03549 34.8148 4.85674 34.8148 4.72116C34.8245 4.72116 34.9619 4.44178 34.9619 4.39897C35.0657 4.32918 35.1564 4.05214 35.3046 4.05214C35.3355 3.98995 35.4171 3.94313 35.4761 3.90311C35.4761 3.82187 35.5742 3.77952 35.6297 3.72235C35.7788 3.56973 35.9341 3.43077 36.1373 3.35793C36.3397 3.28567 36.5701 3.3361 36.7796 3.32543C37.0976 3.30976 37.2708 3.08328 37.5576 2.98646C37.8584 2.88447 37.9967 2.78889 38.3904 2.73825C38.3904 2.69789 38.644 2.63897 38.7004 2.63897C38.894 2.63897 38.9462 2.64244 39.1619 2.65767C39.301 2.66788 39.3739 2.59424 39.5003 2.58125C39.6777 2.56332 41.2156 2.19308 41.2553 2.19308C41.2553 2.09413 41.9055 2.00672 42.0146 1.97006C42.1464 1.92548 42.1555 1.89556 42.3329 1.89556C42.4517 1.89556 42.5478 1.84613 42.6637 1.84613C42.8488 1.84613 43.2408 1.69294 43.2881 1.68476C43.4091 1.66471 43.4454 1.62099 43.6064 1.61304C43.8113 1.60274 43.921 1.56855 44.1123 1.52374C44.1549 1.51398 44.4145 1.43555 44.4145 1.42456C44.6854 1.42456 44.8924 1.35038 45.1494 1.35038C45.1494 1.39129 45.9348 1.30006 46.0561 1.28707C46.1446 1.27754 46.7653 1.22487 46.7653 1.35038C46.9164 1.38848 46.9535 1.51005 47.1083 1.54872C47.2066 1.67254 47.286 1.81767 47.4019 1.89556C47.4322 2.01791 47.5476 2.17592 47.6471 2.24259C47.6471 2.28327 47.7559 2.46592 47.7939 2.46592C47.8066 2.51805 47.8863 2.68882 47.9163 2.68882C47.9492 2.8475 48.0388 3.08104 48.0388 3.20945C48.1487 3.20945 48.2179 3.65545 48.3083 3.65545C48.3418 3.79889 48.4308 4.01181 48.4308 4.12633C48.4642 4.12633 48.5679 4.35976 48.5779 4.39897C48.689 4.45669 48.6705 4.62423 48.6635 4.7337C48.6555 4.85284 48.6793 4.89934 48.5779 4.96937C48.5376 5.08894 48.4798 5.01868 48.4798 5.1509C48.4798 5.35218 48.4296 5.39093 48.259 5.5019C48.1306 5.58569 47.9804 5.66292 47.8673 5.66292C47.8673 5.73553 47.4586 5.7742 47.3653 5.78091C47.2035 5.79244 47.1054 5.88637 46.9246 5.88637C46.8379 5.88637 46.2021 5.99865 46.2021 6.01007C46.0388 6.01007 45.8875 6.13426 45.6962 6.13426C45.5145 6.13426 45.4011 6.20841 45.2594 6.20841C45.046 6.20841 44.7957 6.28271 44.586 6.28271C44.3782 6.28271 44.2674 6.35724 44.0797 6.35724C43.8584 6.35724 43.7668 6.45642 43.582 6.45642C43.4395 6.45642 43.3411 6.55559 43.2144 6.55559C43.2144 6.68414 42.7589 6.6932 42.6467 6.69937C42.569 6.7035 42.1617 6.77792 42.1617 6.82789C41.973 6.82789 41.8999 6.92729 41.7207 6.92729C41.7207 7.00495 41.4515 6.98355 41.4515 7.05114C41.3945 7.05527 41.1085 7.05145 41.1085 7.10065C41.0331 7.10065 40.9982 7.15031 40.9126 7.15031C40.9126 7.22817 40.5235 7.2422 40.4229 7.24925C40.4229 7.27636 40.0394 7.52325 39.9578 7.547Z" fill="#7B7B7B"/>
<path fill-rule="evenodd" clip-rule="evenodd" d="M51.5155 14.19C51.467 14.3687 51.2921 14.3982 51.2286 14.5455C51.1578 14.7097 51.1453 14.9294 51.1708 15.1044C51.1992 15.3008 51.3582 15.3563 51.4421 15.5286C51.5245 15.5564 51.8828 15.6841 51.8828 15.727C51.9454 15.727 52.3479 15.793 52.3479 15.8507C52.5015 15.8507 52.711 15.9499 52.838 15.9499C52.838 16.0976 54.3073 16.0905 54.3073 15.9995C54.3371 15.9979 54.4918 16.0332 54.5519 16.0365C54.5919 16.0384 54.7724 16.0797 54.7724 16.0242C54.9153 16.0242 54.7846 15.9995 54.8949 15.9995C54.8949 15.886 55.3838 15.8757 55.4824 15.8757C55.4824 15.7732 55.8642 15.8219 55.9235 15.702C56.0056 15.702 56.1414 15.5488 56.1927 15.479C56.3084 15.479 56.3455 15.3053 56.4623 15.3053C56.4909 15.2482 56.6533 15.1568 56.7069 15.1568C56.7069 15.1544 56.9336 15.0797 56.9809 15.0711C57.2411 15.0235 57.2905 15.2543 57.5152 15.3302C57.5152 15.3888 57.5677 15.4902 57.6099 15.5543C57.6771 15.6572 57.7763 15.7222 57.8619 15.8079C57.9307 15.877 57.9316 15.8979 57.9316 15.9995C57.9316 16.1374 57.99 16.1028 58.0294 16.2225C58.064 16.3273 58.1589 16.4164 58.1654 16.5061C58.1722 16.596 58.3723 16.8221 58.3723 16.9661C58.5302 17.0462 58.5682 17.8034 58.5682 17.9578C58.603 18.1662 58.5282 18.3069 58.507 18.4783C58.4874 18.6369 58.4565 18.81 58.4457 18.9986C58.431 18.9986 58.365 19.2095 58.3559 19.2549C58.3173 19.4516 58.2164 19.744 58.005 19.8169C57.92 20.0701 57.6825 20.1449 57.4319 20.1981C57.3588 20.2138 56.903 20.338 56.903 20.4114C56.7712 20.4444 56.6731 20.5044 56.5124 20.5124C56.3407 20.5217 55.1001 20.705 54.9564 20.7212C54.7804 20.7408 54.0324 20.9254 53.94 20.8077C53.8575 20.8077 53.8997 20.7584 53.8175 20.7584C53.8175 20.7106 53.5738 20.7492 53.5236 20.7523C53.3895 20.7607 53.3442 20.7907 53.1909 20.7218C53.0568 20.662 53.014 20.659 52.8762 20.7033C52.732 20.7498 52.3825 20.6307 52.3235 20.5105C52.2425 20.5105 52.1815 20.4568 52.0622 20.4444C51.9454 20.433 51.8267 20.3937 51.7113 20.3744C51.6714 20.3677 51.4667 20.2625 51.4667 20.2377C51.3783 20.2326 50.9523 20.2304 50.9523 20.1634C50.8525 20.1491 50.4135 20.0522 50.4135 19.99C50.2837 19.9595 50.0756 19.9508 50.0215 19.8416C49.9163 19.8416 49.8288 19.6292 49.7032 19.5933C49.6743 19.4723 49.581 19.4701 49.581 19.3457C49.5516 19.3457 49.5073 19.1888 49.5073 19.1475C49.4974 19.1475 49.3364 18.9419 49.2871 18.8997C49.2871 18.7912 49.189 18.717 49.189 18.6021C49.072 18.6021 48.9881 18.1063 48.8951 18.1063C48.8693 18.0023 48.7928 17.8788 48.7236 17.8088C48.6494 17.7333 48.4053 17.6795 48.4053 17.5361C48.3501 17.4939 48.3076 17.4857 48.3076 17.4124C48.2112 17.3473 48.2716 17.3073 48.1848 17.2636C48.1848 17.2212 48.0893 17.0652 48.0624 17.0652C48.0624 16.9803 47.9099 16.4209 47.8665 16.4209C47.8665 16.3494 47.7773 15.6524 47.7685 15.6524C47.7107 15.4605 47.7112 15.1843 47.7387 14.9867C47.7767 14.7139 47.8186 14.4649 47.83 14.1653C47.8464 13.7264 48.0267 13.3381 48.0624 12.9013C48.0723 12.7819 48.127 12.3066 48.2095 12.3066C48.2095 12.2063 48.2818 11.6619 48.3563 11.6619C48.3563 11.5603 48.381 11.4025 48.381 11.2655C48.4056 11.2655 48.4544 11.0605 48.4544 11.0173C48.4816 11.0173 48.5771 10.4677 48.5771 10.3898C48.5771 10.2886 48.6225 9.65432 48.699 9.65432C48.7222 9.56255 48.8668 9.05963 48.8951 9.05963C48.8951 8.84613 49.091 8.63637 49.1647 8.41493C49.2055 8.41493 49.2551 8.13288 49.3361 8.09277C49.3361 7.98944 49.4147 7.91089 49.4342 7.79557C49.4918 7.79557 49.5385 7.55631 49.6054 7.52269C49.6054 7.43362 49.7168 7.30776 49.7522 7.20053C49.786 7.20053 49.9481 6.70409 49.9481 6.65501C49.9657 6.65501 50.0949 6.32757 50.0949 6.2833C50.1451 6.2833 50.3157 5.65464 50.3157 5.58921C50.3463 5.58921 50.3817 4.77721 50.3783 4.6758C50.3727 4.49762 50.3727 4.33235 50.4013 4.18891C50.4177 4.1054 50.4622 4.13142 50.4622 4.05273C50.5379 3.99169 50.5558 3.93339 50.6096 3.87906C50.6884 3.79882 50.7978 3.76419 50.8789 3.66838C50.965 3.56662 51.079 3.49737 51.1969 3.4577C51.3718 3.39886 52.054 3.08846 52.054 3.061C52.2127 3.061 52.0347 3.03636 52.2258 3.03636C52.2258 2.96014 52.3122 3.04141 52.3479 3.03636C52.3479 2.98604 52.5928 2.99815 52.5928 2.91252C52.654 2.91252 52.9604 2.85985 52.9604 2.81334C53.2218 2.81334 53.5089 2.73268 53.7807 2.70186C53.9434 2.68336 53.9992 2.64079 54.1846 2.65648C54.3334 2.66879 54.4694 2.59876 54.65 2.56537C54.65 2.49219 55.3112 2.55114 55.3112 2.44132C55.4189 2.44132 56.0212 2.40936 56.0212 2.31748C56.276 2.28061 56.5589 2.25193 56.8049 2.16899C56.8492 2.15388 56.9764 2.0975 56.9764 2.06982C57.0518 2.0603 57.3437 2.02053 57.3437 1.97065C57.4475 1.97065 58.0784 2.00708 58.0784 1.87147C58.1915 1.87147 58.2434 1.82184 58.3967 1.82184C58.3967 1.81264 58.6773 1.74766 58.715 1.74766C58.8391 1.74766 58.9165 1.6978 59.0701 1.6978C59.2518 1.6978 59.4151 1.66249 59.5919 1.61957C59.7147 1.59022 60.7234 1.63078 60.7234 1.67313C60.9266 1.67313 61.0817 1.82184 61.3113 1.82184C61.3113 1.88235 61.36 1.81086 61.36 1.87147C61.4706 1.87147 61.5185 1.94319 61.6012 2.01325C61.6797 2.07903 62.0014 2.41665 62.0459 2.41665C62.1162 2.70846 62.2214 3.03097 62.4864 3.21004C62.4864 3.26497 62.568 3.3916 62.6088 3.43305C62.6533 3.47809 62.663 3.54703 62.6822 3.60675C62.7304 3.63028 62.7806 3.70111 62.7806 3.75521C62.7993 3.75521 63.0028 4.16705 63.0113 4.21522C63.0677 4.5346 62.8974 5.38122 62.7066 5.53978C62.6213 5.59021 62.5411 5.63393 62.4393 5.644C62.123 5.67527 61.8864 5.74564 61.5312 5.70083C61.3745 5.68098 60.277 5.91183 60.1968 5.91183C60.0897 5.91183 59.9513 5.96114 59.8417 5.96114C59.8417 5.98825 59.6809 6.03567 59.6458 6.03567C59.6458 6.09787 59.3493 6.08519 59.2785 6.08519C59.2785 6.04339 59.0392 6.13484 58.9724 6.13484C58.3678 6.13484 57.8131 6.25855 57.2213 6.25855C56.9039 6.25855 55.6786 6.43738 55.6786 6.48165C55.6222 6.48165 55.409 6.55954 55.409 6.60572C55.307 6.60572 55.2511 6.66229 55.1233 6.6884C55.0111 6.71103 54.9487 6.8537 54.8458 6.8537C54.8115 6.92352 54.6429 7.02706 54.5766 7.02706C54.5409 7.09789 54.4896 7.08678 54.4419 7.1509C54.3833 7.22956 54.3036 7.27506 54.2336 7.37377C54.1523 7.44033 54.0704 7.50611 53.9887 7.57223C53.9544 7.68128 53.9201 7.79052 53.8858 7.89921C53.8396 8.0477 53.775 8.25279 53.6461 8.34074C53.6461 8.40013 53.5259 8.56196 53.4746 8.60074C53.315 8.72197 53.3521 8.89399 53.3521 9.03464C53.5018 9.10972 53.5259 9.24452 53.7144 9.2648C53.8773 9.28261 53.9635 9.23299 54.1112 9.23299C54.1112 9.18344 54.8458 9.20183 54.8458 9.10891C54.9915 9.10891 56.1193 8.92896 56.1193 8.86128C56.3373 8.86128 56.5447 8.76546 56.7559 8.71245C56.7559 8.63826 57.1723 8.58224 57.1723 8.5141C57.3293 8.4993 57.4809 8.51611 57.5643 8.39029C57.6175 8.39029 57.7868 8.28661 57.8091 8.24157C57.8783 8.21805 58.2502 8.13006 58.2502 8.06787C58.3264 8.06787 58.4596 7.97567 58.5739 7.96591C58.6824 7.95659 58.736 8.01847 58.8374 8.01847C58.8374 8.02699 59.0211 8.1424 59.058 8.1424C59.0976 8.22364 59.1795 8.21859 59.2623 8.24157C59.3882 8.27631 59.3199 8.2651 59.4131 8.34074C59.493 8.40529 59.5021 8.46737 59.5843 8.53909C59.6396 8.58671 59.7436 8.69217 59.7436 8.76211C59.8864 8.85813 60.0622 9.22211 60.0622 9.38179C60.1857 9.38179 60.2665 9.87734 60.3314 9.87734C60.3314 9.94771 60.3813 10.0639 60.4542 10.1004C60.4542 10.1348 60.54 10.3237 60.5519 10.3237C60.5519 10.443 60.6007 10.5562 60.6007 10.6705C60.6007 10.8044 60.6007 10.9107 60.6007 11.0672C60.4921 11.0672 60.6477 11.8354 60.5519 11.8354C60.5519 11.9575 60.4431 12.2116 60.3071 12.2816C60.3071 12.4495 59.9406 12.5542 59.8173 12.5542C59.8173 12.6234 59.6211 12.5817 59.6211 12.6534C59.459 12.6945 59.3488 12.7526 59.1682 12.7649C58.9041 12.7828 58.8054 12.9315 58.5435 12.9756C58.5435 12.9857 58.2587 13.04 58.2009 13.0501C58.2009 13.1269 57.9806 13.1229 57.9806 13.1739C57.7766 13.1905 57.1924 13.2978 57.1482 13.2978C57.1482 13.3955 55.1321 13.5953 55.0417 13.5953C55.0417 13.6367 54.8467 13.6698 54.7971 13.6698C54.7971 13.6687 53.9646 13.7998 53.9646 13.6944C53.9207 13.6944 53.896 13.7471 53.8218 13.7606C53.7277 13.777 53.6339 13.7936 53.5401 13.8101C53.3343 13.8463 53.1438 13.8308 52.9358 13.8183C52.9358 13.9111 52.2989 13.895 52.2989 13.992C52.1787 13.992 52.1011 14.0413 51.9809 14.0413C51.8828 14.0413 51.7847 14.0413 51.6867 14.0413C51.6867 14.1001 51.5676 14.1752 51.5155 14.19Z" fill="#7B7B7B"/>
<path fill-rule="evenodd" clip-rule="evenodd" d="M88.6901 6.90241C88.6901 6.93615 88.4804 7.07623 88.4455 7.07623C88.4053 7.15971 88.2165 7.25159 88.127 7.27411C88.1026 7.32386 87.9864 7.39839 87.9311 7.39839C87.8965 7.46776 87.8078 7.49756 87.7353 7.49756C87.7353 7.5323 87.4898 7.63383 87.4413 7.64605C87.3401 7.80182 87.1313 7.85561 86.9516 7.91276C86.7523 7.9755 86.5749 8.06738 86.364 8.06738C86.364 8.15089 86.0168 8.14427 85.9525 8.14527C85.7804 8.14696 85.65 8.14584 85.5069 8.04274C85.459 7.97068 85.4338 7.98637 85.4338 7.91893C85.3374 7.85335 85.3975 7.81436 85.3113 7.77009C85.2949 7.6791 85.2524 7.27411 85.1883 7.27411C85.1883 7.18493 85.0979 6.62965 85.0418 6.62965C85.0418 6.57049 85.0242 6.28282 84.9925 6.28282C84.9987 6.17134 85.0052 6.05971 85.0112 5.94832C85.0174 5.83179 84.9675 5.77889 84.9698 5.64733C84.9732 5.45862 84.984 5.24447 85.1982 5.20537C85.3864 5.17063 85.5602 5.16747 85.7518 5.16747C85.8958 5.1426 85.9471 5.16747 86.0945 5.16747C86.0945 5.22654 86.364 5.20761 86.364 5.26665C86.5462 5.26665 86.6568 5.29166 86.8291 5.29166C86.9433 5.29166 87.0397 5.34095 87.1477 5.34095C87.2894 5.34095 87.487 5.38074 87.6618 5.39061C87.6618 5.39215 87.9059 5.47196 87.9436 5.47733C88.1264 5.50389 88.2605 5.61382 88.4215 5.61382C88.4215 5.73764 88.9211 5.72556 89.0277 5.89341C89.0731 5.96459 89.1663 6.33247 89.0331 6.33247C88.9594 6.5585 88.8971 6.73106 88.6901 6.90241ZM108.036 3.11037C108.181 3.11037 108.33 4.2999 108.257 4.2999C108.257 4.34474 108.264 4.8081 108.253 4.96947C108.242 5.13959 108.205 5.32135 108.11 5.46479C108.061 5.50501 107.816 5.69619 107.816 5.68789C107.757 5.68789 107.4 5.8951 107.4 5.91134C107.177 5.91134 106.96 6.05971 106.714 6.05971C106.714 6.06878 106.049 6.13548 105.965 6.16405C105.579 6.29426 105.183 6.34289 104.804 6.38199C104.804 6.47861 104.191 6.41865 104.191 6.50606C103.94 6.50606 103.703 6.6487 103.396 6.66709C103.289 6.67337 102.747 6.75685 102.747 6.82799C102.594 6.83864 102.428 6.87788 102.306 6.87788C102.306 6.93052 102.038 6.95912 101.963 6.96472C101.679 6.98489 101.545 7.07565 101.229 7.12551C101.229 7.17316 100.715 7.27411 100.641 7.27411C100.641 7.38551 99.9269 7.44007 99.7911 7.45823C99.6713 7.47458 99.5789 7.57175 99.4652 7.57175C99.4652 7.62866 99.1472 7.64605 99.0741 7.64605C99.0741 7.68716 98.51 7.75386 98.51 7.84428C98.4616 7.84428 98.2654 7.87968 98.2654 7.91893C98.1662 7.91893 98.1237 8.04274 98.0208 8.04274C97.9638 8.1595 97.8 8.21756 97.8 8.34026C97.7158 8.39686 97.637 8.51396 97.6042 8.61279C97.5886 8.65987 97.5033 8.81091 97.482 8.81091C97.4469 8.91794 97.4128 8.88937 97.3842 9.00925C97.3358 9.03381 97.2615 9.12469 97.2615 9.18295C97.1921 9.22957 97.041 9.39923 97.041 9.48047C96.9721 9.51521 96.9205 9.75278 96.8942 9.75278C96.9024 9.84377 96.9106 9.93489 96.9188 10.0257C96.9925 10.0503 97.0656 10.0752 97.1388 10.1C97.2238 10.2072 97.3207 10.2982 97.4327 10.2982C97.4327 10.4112 98.1379 10.2968 98.2493 10.2991C98.6277 10.3064 98.9774 10.2743 99.3456 10.1917C99.5278 10.1508 99.6945 10.1495 99.8821 10.1495C99.8821 10.0873 100.178 10.1 100.249 10.1C100.249 10.0694 101.008 10.0553 101.008 9.95112C101.085 9.93936 101.4 9.9109 101.4 9.85195C101.539 9.81655 101.673 9.72813 101.817 9.72813C101.817 9.71167 102.236 9.50457 102.319 9.49281C102.405 9.48013 102.537 9.43397 102.576 9.35643C102.621 9.35643 102.737 9.29165 102.771 9.25749C102.832 9.19664 102.95 9.13198 103.041 9.10843C103.091 9.03189 103.335 8.9398 103.335 8.88544C103.565 8.88544 103.731 8.97285 103.942 9.06384C104.055 9.11293 104.29 9.26196 104.29 9.40597C104.367 9.40597 104.384 9.70338 104.461 9.70338C104.538 9.93489 104.631 10.1237 104.682 10.3232C104.714 10.3232 104.853 10.7729 104.865 10.8437C104.874 10.8964 105.046 11.3392 105.049 11.3392C105.049 11.4254 105.151 12.3061 105.049 12.3061C105.049 12.3795 104.957 12.6529 104.902 12.6529C104.902 12.6914 104.825 12.8759 104.804 12.8759C104.804 12.9869 104.741 13.0939 104.657 13.2065C104.602 13.2805 104.265 13.4278 104.265 13.471C104.234 13.471 104.045 13.5761 104.045 13.5948C103.929 13.5948 103.855 13.6693 103.739 13.6693C103.7 13.6693 103.432 13.7321 103.432 13.7681C103.25 13.7681 103.088 13.7935 102.908 13.8144C102.499 13.8621 101.336 14.0797 101.138 14.0727C100.921 14.0654 97.0775 14.6605 96.7777 14.6605C96.4404 14.6605 96.2579 14.7372 95.8953 14.7546C95.6694 14.7655 95.5277 14.8986 95.3273 14.9664C95.2423 14.995 95.1485 14.9978 95.1063 15.0818C95.0201 15.0818 95.0462 15.1564 94.9597 15.1564C94.8806 15.2494 94.799 15.3788 94.7148 15.4539C94.6981 15.6029 94.7148 15.7066 94.7148 15.8502C94.7636 15.8502 94.8988 16.1391 94.9597 16.1851C95.0272 16.236 95.1295 16.3442 95.1797 16.4204C95.2857 16.4204 95.4384 16.5282 95.4982 16.6187C95.5702 16.6187 95.7256 16.7529 95.7675 16.8171C95.8738 16.8171 95.8987 16.9163 96.0124 16.9163C96.0124 16.974 96.6325 17.039 96.7488 17.0457C97.1209 17.0676 97.5024 16.9998 97.857 16.8879C97.9208 16.8675 98.2654 16.8401 98.2654 16.7924C98.315 16.7798 98.535 16.714 98.535 16.6681C98.6869 16.6311 98.707 16.5692 98.8776 16.5442C98.8776 16.4815 99.0979 16.5078 99.0979 16.4453C99.1429 16.4453 99.3187 16.4049 99.3187 16.3708C99.4941 16.3511 99.5601 16.3582 99.6613 16.222C99.8161 16.222 99.9612 16.0486 100.126 16.0486C100.126 16.0383 100.532 15.8752 100.592 15.8752C100.592 15.8371 101.186 15.7424 101.277 15.7346C101.464 15.7189 101.617 15.9363 101.755 16.0486C101.838 16.1153 101.874 16.2517 101.963 16.2966C101.982 16.3711 102.06 16.6681 102.11 16.6681C102.161 16.9 102.282 17.0246 102.282 17.2138C102.388 17.2138 102.355 18.1299 102.355 18.2791C102.439 18.2791 102.355 18.9806 102.355 19.0227C102.321 19.0227 102.298 19.4937 102.274 19.5682C102.229 19.704 102.15 19.933 102.037 19.9895C102.037 20.1231 101.734 20.3177 101.645 20.4232C101.592 20.4845 101.447 20.5846 101.376 20.5846C101.376 20.6042 101.236 20.6587 101.204 20.6587C101.16 20.7504 100.958 20.8328 100.861 20.8569C100.798 20.9852 100.459 21.0799 100.347 21.0799C100.347 21.16 99.8787 21.2065 99.8082 21.3528C99.6945 21.3528 99.4711 21.4788 99.3345 21.5264C99.1248 21.5998 98.9516 21.601 98.7308 21.601C98.7308 21.666 98.535 21.5998 98.535 21.6752C98.385 21.7217 97.6657 21.6273 97.5308 21.6214C97.3335 21.613 97.1357 21.6077 96.9378 21.5984C96.7573 21.59 96.5832 21.5264 96.4044 21.5264C96.3381 21.5264 95.9883 21.5354 95.9883 21.4768C95.7882 21.4768 95.5989 21.3673 95.4129 21.3404C95.3069 21.3253 94.7877 21.2628 94.7877 21.1796C94.7026 21.1796 94.6329 21.1241 94.5184 21.1051C94.5184 21.0857 94.3294 20.9813 94.2985 20.9813C94.2489 20.8798 93.9311 20.8591 93.9311 20.7827C93.8889 20.7827 93.6619 20.6496 93.6619 20.6339C93.5414 20.6042 93.4133 20.5414 93.3433 20.4361C93.2203 20.4361 93.1755 20.2372 93.0494 20.2372C92.9536 20.1209 92.7623 20.0304 92.7067 19.915C92.4723 19.915 92.3671 19.5122 92.2246 19.3867C92.1106 19.2854 92.0593 19.1048 91.9474 19.0477C91.9474 18.9732 91.8966 18.9672 91.874 18.8742C91.7844 18.8271 91.8422 18.7462 91.7518 18.7008C91.7255 18.5955 91.6294 18.5344 91.6294 18.428C91.6024 18.428 91.5066 18.2492 91.5066 18.205C91.4077 18.205 91.3108 17.4516 91.3108 17.35C91.3108 17.1477 91.2343 16.8625 91.194 16.6064C91.1682 16.4406 91.1523 16.2637 91.1881 16.0979C91.1589 15.864 91.1495 15.6253 91.1929 15.3917C91.2269 15.2096 91.2127 15.0196 91.2127 14.8342C91.2445 14.8342 91.2615 14.5462 91.2615 14.487C91.3031 14.487 91.391 13.9422 91.3967 13.855C91.4108 13.606 91.5554 13.3927 91.5554 13.1735C91.5387 13.1735 91.7518 12.5677 91.7518 12.5291C91.8482 12.5291 91.8598 12.0332 91.9233 12.0332C91.9233 11.9873 91.9669 11.7606 91.9967 11.7606C91.9967 11.6515 92.0024 11.4858 92.0945 11.4384C92.118 11.3213 92.1679 11.2919 92.1679 11.1905C92.1883 11.1905 92.266 11.0056 92.266 10.9675C92.3595 10.9675 92.4057 10.5215 92.4859 10.5215C92.5233 10.2931 92.5908 10.1792 92.6579 9.97602C92.6852 9.89119 92.7557 9.81015 92.7557 9.72813C92.8121 9.72813 92.8649 9.21377 92.8779 9.13333C92.7869 9.13333 92.7475 9.12681 92.7067 9.28213C92.5919 9.3097 92.5117 9.40597 92.4128 9.40597C92.4128 9.42915 92.2166 9.50905 92.1679 9.51745C92.0486 9.53762 89.982 11.1952 89.9268 11.2401C89.831 11.3177 89.793 11.3642 89.6703 11.3642C89.6703 11.4231 89.3163 11.5373 89.2536 11.5373C89.2536 11.6074 89.0087 11.5637 89.0087 11.6365C88.9274 11.6449 88.8458 11.6533 88.7638 11.6614C88.7423 11.7049 88.6924 11.7424 88.6479 11.7656C88.5816 11.8004 88.4917 11.8892 88.4455 11.9589C88.4214 11.9589 88.1763 12.0716 88.1763 12.0831C88.0938 12.0831 87.6375 12.1946 87.6375 12.2562C87.5825 12.2643 87.2945 12.3134 87.2945 12.3554C87.1953 12.3806 87.0913 12.4546 87.0006 12.4546C87.0006 12.5285 86.6333 12.5728 86.6333 12.6529C86.3201 12.7323 85.9581 12.8457 85.6055 12.8894C85.4771 12.9056 85.4649 12.9516 85.3844 13.0496C85.3289 13.0496 85.3516 13.1398 85.2864 13.1735C85.2467 13.3342 85.1685 13.4124 85.1557 13.5783C85.1319 13.8901 85.0798 14.1351 85.0418 14.4375C84.9497 14.4375 84.9191 14.9 84.9191 15.0073C84.8896 15.0073 84.8969 15.9741 84.7963 15.9741C84.7963 16.0721 84.7445 16.6187 84.6498 16.6187C84.6498 16.7235 84.6195 17.6598 84.6008 17.6598C84.6008 17.7553 84.4905 18.5518 84.5517 18.5518C84.5837 18.6681 84.5599 18.8157 84.5373 18.9317C84.514 19.0488 84.5271 19.1255 84.5271 19.2875C84.5271 19.3385 84.38 20.3392 84.3865 20.4652C84.3936 20.5795 84.3559 20.647 84.3559 20.733C84.3391 20.733 84.2717 20.8625 84.2331 20.8944C84.1475 20.9669 84.0475 21.016 83.9885 21.1051C83.9086 21.1051 83.8256 21.2039 83.7439 21.2039C83.7439 21.2693 83.526 21.2782 83.4744 21.2782C83.4744 21.3485 82.736 21.3777 82.6113 21.3777C82.4792 21.3777 82.4132 21.325 82.274 21.2782C82.274 21.2513 82.1201 21.1541 82.0788 21.1541C82.0377 21.0737 81.9195 21.0432 81.858 20.9813C81.7862 20.9086 81.6459 20.923 81.5887 20.8072C81.4708 20.8072 81.0745 20.4098 81.0745 20.287C80.9867 20.2428 80.9972 19.6825 80.8787 19.6427C80.862 19.5185 80.8461 19.3945 80.8294 19.2707C80.7412 19.2707 80.8722 18.2117 80.8543 18.1554C80.7951 17.9708 80.9274 17.3647 80.9274 17.195C80.9274 17.0765 80.8756 16.9953 80.8869 16.8832C80.8991 16.7546 80.9521 16.7006 80.9521 16.6064C80.9521 16.4843 80.9062 15.4785 81.0255 15.4785C81.0255 15.3566 81.0745 15.2892 81.0745 15.1314C81.0915 15.1314 81.1539 14.2384 81.1233 14.1153C81.0737 14.0851 80.7316 13.9214 80.7316 13.917C80.6307 13.917 80.5485 13.7681 80.4377 13.7681C80.3609 13.6527 80.2203 13.6032 80.1313 13.4956C80.0604 13.4093 79.8501 13.3174 79.8501 13.1981C79.824 13.1981 79.7169 12.9796 79.6789 12.9258C79.5789 12.9258 79.4641 12.7708 79.4337 12.6776C79.307 12.6134 79.2129 12.3355 79.2129 12.2066C79.207 12.2066 79.0664 11.797 79.0664 11.7606C79.0321 11.7606 79.385 9.87851 79.385 9.80266C79.449 9.80266 79.474 9.40597 79.5562 9.40597C79.5562 9.22834 79.9159 9.01206 80.0703 8.95997C80.2169 8.91008 80.2993 8.90279 80.4799 8.92299C80.5533 8.9314 80.8294 8.88174 80.8294 8.83581C80.9561 8.83581 81.0933 8.76911 81.2214 8.73663C81.2877 8.65817 81.3413 8.5794 81.4294 8.52595C81.5144 8.47417 81.4594 8.45389 81.5394 8.41444C81.5833 8.28254 81.668 8.13296 81.7256 7.98336C81.7967 7.79755 81.7358 7.5426 81.7426 7.34179C81.7579 6.90534 81.7826 6.47052 81.8092 6.03519C81.82 6.03519 81.6051 5.77037 81.5887 5.73764C81.5201 5.72757 81.2704 5.68319 81.2704 5.63846C81.1355 5.63846 81.0689 5.60711 80.9102 5.67154C80.7526 5.7354 80.5816 5.72083 80.413 5.72699C80.3407 5.72946 80.0219 5.72699 80.0219 5.78707C79.9071 5.78707 79.8493 5.86148 79.7398 5.86148C79.5721 5.86148 79.4009 6.0847 79.2129 6.0847C79.2129 6.11978 79.0165 6.23353 78.9683 6.23353C78.8907 6.35195 78.7892 6.38311 78.6498 6.40689C78.6498 6.49238 78.1124 6.54582 77.9891 6.55569C77.9891 6.6291 77.268 6.48116 77.2176 6.48116C77.0501 6.48116 76.8576 6.33247 76.7153 6.33247C76.5821 6.2072 76.4256 6.08875 76.3236 5.93598C76.1314 5.9194 76.0365 5.89419 75.9129 5.9937C75.8063 6.07942 75.8021 6.24696 75.8021 6.3708C75.8021 6.51613 75.7409 6.62572 75.7015 6.7619C75.6156 7.05718 75.9396 7.16476 75.9271 7.42303C75.9129 7.71272 75.9557 7.92025 75.939 8.21274C75.9336 8.31045 75.9336 8.41869 75.9072 8.51362C75.8579 8.69122 75.9322 8.88151 75.8829 9.05914C75.8919 9.43521 75.9438 9.83402 75.8695 10.2021C75.8406 10.3464 75.8829 10.4212 75.8829 10.5708C75.8829 10.7759 75.8905 10.9756 75.8928 11.1796C75.8948 11.3418 75.8231 11.5157 75.8066 11.6793C75.7871 11.8707 75.7848 12.064 75.7851 12.2562C75.7882 12.3257 75.8284 12.7521 75.7851 12.7521C75.7851 12.9488 75.736 13.1113 75.736 13.2849C75.736 13.5253 75.6343 13.6712 75.6544 13.9338C75.6779 14.2436 75.6425 14.6263 75.6054 15.0075C75.5719 15.3555 75.5232 15.6651 75.5462 15.9867C75.5547 16.1061 75.6071 16.5938 75.6867 16.5938C75.6867 16.9019 75.736 17.3393 75.736 17.6475C75.736 17.7474 75.7851 17.8262 75.7851 17.92C75.7851 18.0789 75.7857 18.3041 75.78 18.501C75.7771 18.614 75.7105 19.4687 75.6624 19.4687C75.6624 19.551 75.5714 20.0637 75.5155 20.0637C75.5155 20.1061 75.3475 20.5101 75.3441 20.5101C75.3441 20.5549 75.3047 20.733 75.2706 20.733C75.2706 20.8434 75.0995 20.937 75.0995 21.0555C75.0652 21.0846 74.7809 21.2807 74.7809 21.2536C74.6686 21.2536 74.585 21.3348 74.4487 21.3354C74.4093 21.3356 73.2829 21.3281 73.1766 21.3281C72.9099 21.3281 72.7509 21.2665 72.5035 21.2039C72.3986 21.0715 72.326 20.9799 72.1974 20.8694C72.0693 20.7596 71.9924 20.593 71.8669 20.4977C71.8054 20.4512 71.7442 20.352 71.7442 20.287C71.6574 20.287 71.69 19.915 71.5973 19.915C71.5973 19.8595 71.4644 19.5189 71.4259 19.5189C71.414 19.4466 71.3723 19.1218 71.3278 19.1218C71.3278 18.8824 71.3278 18.6431 71.3278 18.4033C71.2612 18.4033 71.2447 17.8581 71.181 17.8581C71.181 17.795 71.0659 17.3623 71.0098 17.3623C70.9894 17.3001 70.8865 16.9904 70.8627 16.9904C70.827 16.849 70.7414 16.7689 70.6912 16.6187C70.6186 16.57 70.4953 16.4294 70.4953 16.3459C70.3879 16.2915 70.3777 15.9494 70.2751 15.9494C70.2751 15.8284 70.1121 15.7643 70.079 15.627C69.975 15.5483 69.9599 15.4065 69.8587 15.3547C69.8587 15.3043 69.7091 15.0807 69.6626 15.0572C69.6626 14.9197 69.5515 14.9042 69.467 14.7969C69.4367 14.7586 69.2743 14.5367 69.2712 14.5367C69.2712 14.4997 69.2287 14.3879 69.1972 14.3879C69.1972 14.312 69.1275 14.1926 69.0504 14.1276C68.8959 13.9973 68.9237 13.8665 68.8299 13.7125C68.7658 13.6071 68.6587 13.4704 68.6587 13.3718C68.6063 13.3718 68.6136 13.1637 68.5362 13.1238C68.5362 12.9792 68.2914 12.9196 68.2914 12.7768C68.1859 12.7227 68.0431 12.5121 67.9487 12.4053C67.8767 12.4053 67.875 12.3515 67.8121 12.3078C67.7302 12.2501 67.6905 12.2475 67.5882 12.2641C67.5465 12.2708 67.4586 12.2775 67.4586 12.3308C67.3504 12.3308 67.3824 12.4053 67.2874 12.4053C67.2874 12.472 67.2137 12.4492 67.2137 12.5291C67.133 12.5709 67.1647 12.6423 67.1647 12.7272C67.1647 12.7831 67.1451 13.1488 67.0913 13.1488C67.0913 13.2538 66.8915 14.1153 66.8711 14.1153C66.8711 14.3512 66.6996 14.6739 66.6996 14.9333C66.6755 14.9333 66.5528 15.2501 66.5528 15.3048C66.4479 15.3048 66.5312 15.9494 66.43 15.9494C66.43 16.0086 66.4983 16.5692 66.4547 16.5692C66.4547 16.9639 66.3813 17.1628 66.3813 17.5295C66.3813 17.7298 66.3813 17.9301 66.3813 18.1302C66.3813 18.3159 66.292 18.5005 66.2342 18.6756C66.2271 18.7442 66.2115 19.1471 66.1608 19.1471C66.1608 19.2613 66.0874 19.2998 66.0874 19.4197C66.0627 19.4197 65.9405 19.7693 65.9405 19.8164C65.7285 19.9189 65.7359 20.2789 65.3881 20.1913C65.3099 20.1713 64.5458 20.0887 64.4159 20.0887C64.2473 20.0887 64.092 20.0637 63.9324 20.0637C63.9324 20.0097 63.3052 20.034 63.2221 19.8654C63.1017 19.8388 63.0229 19.8486 62.9529 19.7419C62.8817 19.7419 62.8681 19.6578 62.8058 19.6054C62.6485 19.472 62.655 19.2675 62.6246 19.0527C62.5977 18.8613 62.4798 18.7705 62.4736 18.5708C62.4696 18.4448 62.4869 18.3176 62.5059 18.1932C62.5339 18.0113 62.4707 17.8572 62.4529 17.6796C62.4401 17.5496 62.4996 17.4256 62.5252 17.3006C62.5561 17.1477 62.5093 17.0706 62.4997 16.9163C62.4937 16.8194 62.5952 16.2467 62.5609 16.2467C62.5646 16.1789 62.5617 15.776 62.6099 15.776C62.6099 15.7211 62.632 15.5531 62.6833 15.5531C62.763 15.1939 62.8069 14.8667 62.8386 14.4539C62.8761 13.9624 63.075 13.7334 63.075 13.223C63.1649 13.223 63.1258 12.6283 63.2221 12.6283C63.2221 12.4066 63.3689 12.1669 63.3689 11.9341C63.4126 11.9341 63.5291 11.2082 63.5648 11.0914C63.5648 10.8134 63.6408 10.4963 63.715 10.1758C63.7618 9.97522 63.8043 9.77352 63.855 9.57394C63.9089 9.36303 63.8987 9.18241 63.8885 8.96499C63.8788 8.76027 63.8907 8.55487 63.9347 8.35426C63.9758 8.16768 63.9528 7.99647 63.9704 7.80842C63.9882 7.6169 63.9814 7.42214 63.9814 7.22873C63.9814 7.10276 64.0506 6.94455 64.0347 6.82699C63.9831 6.44083 63.9579 6.08504 63.9324 5.71265C63.8919 5.71265 63.7856 5.37904 63.7856 5.31619C63.7062 5.31619 63.6785 4.47349 63.7609 4.47349C63.7609 4.3806 63.8145 4.29778 63.8264 4.16791C63.8383 4.03477 63.8326 4.01977 63.8222 3.84159C63.8029 3.50933 63.9078 3.24317 63.9078 2.92436C63.9078 2.72714 64.0055 2.51646 64.0055 2.29223C63.9908 2.29223 64.2997 1.78246 64.2997 1.72219C64.3819 1.72219 64.4256 1.57347 64.52 1.57347C64.5738 1.50534 64.7895 1.38577 64.7895 1.35048C64.8907 1.35048 64.9406 1.29107 65.0588 1.25131C65.0588 1.22463 65.294 1.16189 65.3527 1.15213C65.3527 0.989075 66.1154 1.12603 66.2404 1.13363C66.4346 1.14539 66.5315 1.16961 66.6996 1.22663C66.8648 1.282 66.9674 1.4306 67.1403 1.47429C67.1403 1.57146 67.5323 1.60396 67.5323 1.67264C67.6128 1.67264 67.7401 1.72184 67.7772 1.79649C67.8656 1.79649 67.9974 2.04997 67.9974 2.11865C68.1729 2.11865 68.1343 2.91114 68.1383 3.05435C68.14 3.11376 68.1343 3.40792 68.1933 3.40792C68.1933 3.66565 68.1981 3.91891 68.2179 4.17609C68.2242 4.26103 68.2695 4.99411 68.267 4.99411C68.1783 5.2614 68.267 5.57673 68.267 5.81217C68.3061 5.81217 68.4138 6.1654 68.4138 6.23353C68.4861 6.23353 68.4209 6.47322 68.4146 6.52543C68.4025 6.62572 68.5853 6.73129 68.5853 6.82799C68.6771 6.87562 68.7321 7.05718 68.7321 7.15042C68.7423 7.15042 68.8792 7.37429 68.8792 7.39839C68.9894 7.4533 68.9889 7.58721 69.0994 7.67092C69.0994 7.77715 69.2533 7.88921 69.2956 8.01798C69.3823 8.283 69.8097 8.44729 69.8097 8.71196C69.8301 8.71196 69.9078 8.84734 69.9078 8.88544C70.026 8.94539 70.1187 9.15438 70.2258 9.24481C70.2842 9.29389 70.3973 9.43343 70.3973 9.50515C70.4939 9.59657 70.789 9.79426 70.789 9.92648C70.8732 9.96839 70.9602 10.1243 70.9851 10.224C71.0696 10.2974 71.3524 10.5337 71.3524 10.6454C71.5336 10.7675 71.5925 11.1347 71.866 11.1429C71.9746 11.146 71.9998 11.1619 72.0624 11.0667C72.1225 11.0667 72.0517 11.0168 72.1115 11.0168C72.1503 10.8476 72.2215 10.7078 72.2461 10.5832C72.2569 10.5299 72.3354 10.3974 72.283 10.3974C72.273 10.2145 72.283 10.0245 72.283 9.87685C72.3328 9.87685 72.3975 9.0905 72.4057 8.95997C72.5038 8.95997 72.4097 8.64618 72.3938 8.58958C72.3479 8.42543 72.4057 8.32703 72.4057 8.19146C72.4193 8.19146 72.4788 7.20621 72.4788 7.10076C72.4788 6.98208 72.4907 6.20852 72.5522 6.20852C72.5522 6.10128 72.595 5.36562 72.6503 5.36562C72.6503 5.24872 72.6798 4.77113 72.773 4.77113C72.794 4.59923 72.8549 4.51888 72.7719 4.35369C72.7373 4.28467 72.7486 3.7794 72.7974 3.7794C72.7761 3.39335 72.8218 3.1411 72.8218 2.76323C72.9034 2.76323 72.7889 2.36685 72.8708 2.36685C72.8963 2.15755 72.9476 2.07998 73.0788 1.92053C73.2367 1.72924 73.4748 1.61739 73.7276 1.52384C73.7818 1.52384 74.0952 1.47599 74.0952 1.52384C74.1967 1.52384 74.4093 1.56564 74.4626 1.67264C74.7313 1.67264 74.9946 1.8217 75.1726 2.03204C75.2239 2.09231 75.3194 2.14128 75.3194 2.21793C75.3667 2.21793 75.3622 2.28899 75.4175 2.31699C75.4175 2.40945 75.5238 2.45877 75.5889 2.51534C75.5889 2.58247 75.6533 2.64983 75.7114 2.68893C75.7114 2.72154 75.7652 2.8624 75.7851 2.8624C75.7851 2.98713 75.8338 3.12943 75.8338 3.24653C75.8338 3.39335 76.0359 3.74018 76.2414 3.71551C76.3814 3.69835 76.3984 3.57993 76.4951 3.5071C76.4951 3.4653 76.5966 3.30872 76.6178 3.30872C76.6178 3.20025 76.7281 3.09133 76.7992 3.0112C76.9081 2.88963 77.0396 2.66572 77.1955 2.61115C77.4659 2.51646 78.1047 2.44026 78.2337 2.34186C78.2561 2.25256 78.3921 2.0197 78.5029 2.0197C78.5489 1.92366 79.1395 1.80151 79.1395 1.79649C79.3462 1.81407 79.8532 1.64677 79.9969 1.59834C80.2565 1.51073 83.2785 1.18237 83.2785 1.32581C83.4061 1.32581 84.7921 1.32919 84.9287 1.33556C85.101 1.34397 87.0006 1.42274 87.0006 1.44965C87.0734 1.44965 87.1242 1.50175 87.201 1.49392C87.3141 1.48236 88.2446 1.648 88.4149 1.648C88.6839 1.648 88.8098 1.72643 89.0889 1.73495C89.1941 1.73842 90.2575 1.93318 90.2575 1.97016C90.3465 1.97016 90.4695 2.08279 90.5761 2.11865C90.5761 2.12986 91.0064 2.2027 91.0662 2.21793C91.0662 2.26544 91.4273 2.41617 91.4817 2.41617C91.4817 2.48306 91.7269 2.56881 91.7269 2.68893C91.8207 2.73577 92.0208 2.90474 92.0208 3.0112C92.2138 3.10702 92.2073 3.40904 92.3881 3.53162C92.3881 3.62755 92.4618 3.5956 92.4618 3.70521C92.5097 3.70521 92.4692 3.77099 92.5352 3.80438C92.5579 3.9206 92.6347 4.1038 92.7308 4.1511C92.7308 4.23493 92.8048 4.25027 92.8286 4.34979C92.8819 4.34979 92.885 4.49659 92.8943 4.53962C92.9227 4.67307 93.0006 4.86493 93.0006 4.96947C93.0964 4.96947 93.1718 5.32841 93.1718 5.41536C93.1718 5.66202 93.2699 5.91057 93.2699 6.13436C93.2699 6.2537 93.3186 6.36721 93.3186 6.48116C93.3186 6.61172 93.3186 6.77983 93.3186 6.95204C93.2398 6.95204 93.2404 7.6169 93.1982 7.74264C93.1233 7.96451 92.9794 8.58735 93.4023 8.41029C93.4791 8.37836 93.6126 8.27247 93.6126 8.19146C93.7069 8.10683 93.9065 7.96339 93.9065 7.84428C94.0094 7.79138 93.9929 7.62666 94.1023 7.57175C94.1023 7.45665 94.2004 7.43144 94.2004 7.32386C94.309 7.25125 94.3084 7.08237 94.4209 7.02657C94.4209 6.97806 94.5329 6.77871 94.5677 6.77871C94.5677 6.70584 94.7279 6.33247 94.7636 6.33247C94.7636 6.26939 94.8815 5.83681 94.9104 5.83681C94.947 5.57461 95.0878 5.47822 95.1309 5.21702C95.176 5.21702 95.2043 5.06865 95.2043 5.01879C95.2857 4.97733 95.2732 4.89887 95.3517 4.83275C95.4467 4.75262 95.4336 4.70558 95.4495 4.58512C95.4665 4.45556 95.5473 4.34641 95.5473 4.25059C95.6465 4.19961 95.6269 4.09539 95.6944 4.02726C95.7771 3.94355 95.7993 3.85166 95.9143 3.75473C95.9143 3.7088 95.9475 3.58105 95.9883 3.58105C95.9883 3.35155 96.3106 3.21684 96.4778 3.15969C96.4778 3.11376 97.0197 3.03587 97.09 3.03587C97.09 3.02096 97.6671 2.88704 97.7269 2.88704C97.8459 2.88704 98.5593 2.83919 98.5593 2.7881C98.7779 2.7881 99.7177 2.51534 99.7591 2.51534C99.7591 2.44026 103.197 1.59834 103.335 1.59834C103.335 1.53055 104.804 1.20839 104.804 1.17678C104.871 1.17084 105.22 1.14843 105.22 1.0776C105.339 1.0776 105.395 1.00353 105.514 1.00353C105.514 1.0087 106.347 0.806078 106.347 0.87949C106.422 0.87949 106.641 0.884308 106.641 0.953676C106.757 0.953676 106.824 1.10248 106.935 1.10248C107.044 1.22887 107.153 1.35048 107.302 1.35048C107.302 1.37142 107.389 1.39363 107.424 1.43732C107.482 1.50961 107.799 2.27442 107.825 2.44643C107.841 2.55501 108.022 3.05323 108.036 3.11037Z" fill="#7B7B7B"/>
<path fill-rule="evenodd" clip-rule="evenodd" d="M141.489 15.2555C141.585 15.2555 142.043 15.3296 142.163 15.3296C142.208 15.3296 142.346 15.2423 142.346 15.3296C142.504 15.3829 142.599 15.4538 142.738 15.4538C142.887 15.4538 142.975 15.5208 143.089 15.5095C143.202 15.4988 143.301 15.463 143.413 15.5345C143.496 15.5868 143.548 15.7132 143.546 15.7993C143.544 15.8796 143.543 15.9782 143.497 16.0485C143.454 16.0853 141.494 16.3458 141.416 16.3458C141.416 16.4702 139.302 16.5806 139.06 16.6032C138.995 16.6097 138.795 16.5985 138.795 16.5442C138.647 16.5341 138.343 16.5823 138.306 16.47C138.24 16.47 138.262 16.3957 138.183 16.3957C138.183 16.3427 138.062 16.3464 138.02 16.3376C137.975 16.3284 137.743 16.1979 137.743 16.1723C137.58 16.1323 137.132 15.8757 137.19 15.6574C137.229 15.5095 137.346 15.3869 137.467 15.3005C137.63 15.1826 137.77 15.2153 137.963 15.2308C137.963 15.1554 138.326 15.2627 138.379 15.2717C138.422 15.279 138.575 15.2759 138.575 15.3296C138.671 15.3199 140.053 15.2308 140.387 15.2308C140.387 15.3184 141.253 15.1341 141.489 15.2555ZM114.258 6.80328C114.438 6.85325 114.443 7.1697 114.465 7.31819C114.481 7.42689 114.536 8.26565 114.576 8.26565C114.571 8.36597 114.582 9.15824 114.527 9.15824C114.527 9.42179 114.454 9.60872 114.454 9.82723C114.356 9.87654 114.429 9.95039 114.331 10.0009C114.331 10.0715 114.168 10.2424 114.11 10.2858C113.945 10.4116 113.807 10.4337 113.586 10.3964C113.397 10.3648 113.211 10.4978 113.02 10.5204C112.927 10.5318 112.568 10.5248 112.568 10.4223C112.306 10.2099 112.482 9.94668 112.543 9.7033C112.575 9.7033 112.617 9.53642 112.617 9.50507C112.69 9.50507 112.7 9.25706 112.764 9.25706C112.764 9.18007 112.891 8.90777 112.984 8.86072C112.984 8.72904 113.107 8.6097 113.107 8.46403C113.189 8.46403 113.184 8.13983 113.278 8.09221C113.278 7.98406 113.414 7.90428 113.45 7.795C113.495 7.65773 113.542 7.62299 113.572 7.49749C113.583 7.49749 113.777 7.14058 113.792 7.07615C113.868 7.07615 113.79 6.92732 113.866 6.92732C113.866 6.77459 114.15 6.6903 114.258 6.80328ZM115.703 1.9451C115.819 1.9451 115.883 2.1468 115.972 2.1931C115.983 2.23691 116.533 3.02851 116.649 3.13497C116.718 3.19794 116.829 3.32514 116.829 3.40785C116.892 3.4392 117.025 3.66388 117.025 3.72989C117.1 3.76756 117.128 3.87692 117.147 3.96533C117.178 4.10229 117.343 4.17814 117.343 4.29983C117.409 4.33291 117.465 4.49817 117.465 4.57259C117.51 4.57259 117.564 4.74079 117.564 4.79569C117.645 4.79569 117.687 5.79675 117.698 5.88639C117.729 6.13672 117.857 6.32893 117.857 6.55562C117.948 6.55562 117.958 7.12544 118.029 7.12544C118.029 7.18427 118.179 7.81968 118.2 7.81968C118.2 7.9278 118.255 8.46403 118.323 8.46403C118.329 8.51389 118.361 8.81083 118.396 8.81083C118.396 8.93221 118.445 8.9722 118.445 9.07137C118.445 9.22838 118.473 9.64177 118.732 9.67427C118.876 9.6922 119.008 9.42291 119.008 9.3316C119.044 9.3316 119.094 9.18345 119.106 9.13325C119.239 9.06523 119.223 8.8254 119.352 8.76155C119.4 8.6097 119.502 8.52901 119.548 8.38973C119.592 8.25223 119.633 8.17646 119.743 8.09221C119.743 8.03426 119.84 7.89383 119.89 7.86919C119.914 7.77707 119.964 7.76979 119.964 7.69583C120.001 7.6703 120.11 7.56203 120.11 7.52213C120.264 7.52213 120.3 7.24928 120.453 7.24928C120.495 7.16488 120.792 6.91479 120.829 6.81168C120.866 6.70823 120.86 6.64079 120.968 6.60516C120.968 6.59653 121.146 6.45644 121.188 6.45644C121.188 6.41858 121.411 6.27345 121.457 6.25798C121.576 6.21831 121.703 6.19467 121.703 6.13428C121.793 6.13428 122.232 5.80673 122.265 5.73756C122.391 5.73756 122.436 5.53922 122.559 5.53922C122.596 5.48265 122.853 5.3689 122.853 5.34087C122.977 5.31041 122.99 5.26826 123.123 5.24193C123.157 5.16998 123.416 5.08707 123.416 5.04335C123.452 5.04335 123.563 5.00078 123.563 4.96939C123.658 4.9453 123.862 4.85835 123.907 4.77105C124.091 4.77105 124.312 4.53854 124.506 4.51051C124.696 4.48294 124.842 4.37324 125.033 4.3247C125.033 4.29817 125.329 4.21242 125.376 4.20065C125.376 4.18835 125.787 4.10765 125.857 4.09365C125.964 4.07214 126.033 4.03705 126.135 4.00231C126.186 3.98495 126.355 3.90325 126.355 3.87849C126.727 3.81573 127.51 3.58098 127.555 3.58098C127.555 3.5524 127.816 3.53155 127.873 3.53155C127.873 3.50252 128.075 3.45713 128.118 3.45713C128.118 3.42968 128.517 3.40785 128.584 3.40785C128.584 3.29657 129.763 3.22674 129.864 3.22651C129.984 3.22628 130.068 3.23414 130.163 3.23414C130.299 3.23414 130.378 3.18448 130.543 3.18448C130.674 3.18448 130.89 3.20993 131.027 3.28366C131.118 3.33332 131.21 3.38283 131.302 3.43249C131.334 3.49747 131.449 3.48235 131.449 3.53155C131.605 3.57134 131.715 3.73506 131.808 3.87032C131.895 3.9956 132.018 4.03392 132.126 4.15943C132.216 4.26343 132.279 4.38018 132.379 4.44889C132.379 4.54032 132.429 4.4881 132.429 4.59735C132.429 4.72174 132.558 4.78135 132.649 4.85757C132.802 4.98733 132.795 5.25515 132.967 5.34087C133.039 5.45978 133.05 5.62887 133.065 5.76223C133.139 5.76223 133.218 6.11432 133.236 6.18357C133.321 6.18357 133.354 6.74556 133.37 6.86602C133.403 7.11368 133.359 7.36526 133.359 7.57167C133.359 7.70142 133.388 8.38973 133.285 8.38973C133.285 8.44159 133.273 8.6869 133.236 8.6869C133.236 8.79795 133.163 8.8596 133.163 8.95989C133.11 8.95989 133.007 9.54428 132.918 9.60424C132.918 9.67762 132.875 9.68603 132.82 9.72806C132.762 9.90925 132.63 9.98077 132.575 10.1662C132.542 10.2778 132.508 10.2525 132.477 10.3723C132.41 10.4323 132.281 10.5018 132.281 10.5954C132.226 10.6233 132.134 10.757 132.134 10.8186C131.997 10.8881 131.946 11.0666 131.792 11.0666C131.792 11.0997 131.054 11.1158 130.983 11.1158C130.983 11.1961 130.662 11.0777 130.616 11.0666C130.561 10.9579 130.512 10.9921 130.433 10.9921C130.334 10.9921 129.833 11.0207 129.833 10.8929C129.723 10.8929 129.663 10.7512 129.539 10.7195C129.507 10.6531 129.356 10.5954 129.294 10.5954C129.294 10.5836 129.155 10.4845 129.114 10.4626C129.057 10.4318 128.995 10.4057 128.946 10.3612C128.912 10.3307 128.889 10.2931 128.877 10.2486C128.828 10.2382 128.788 10.2118 128.76 10.1695C128.652 10.0026 128.614 9.71248 128.647 9.52073C128.653 9.48209 128.682 9.06913 128.682 8.91C128.717 8.91 128.683 8.66237 128.657 8.66237C128.657 8.55479 128.727 7.98764 128.808 7.83198C128.888 7.67868 128.877 7.5367 128.877 7.36099C128.877 7.25206 128.805 7.00217 128.706 6.95196C128.706 6.85896 128.517 6.77863 128.437 6.77863C128.307 6.77863 128.07 6.76237 127.947 6.80328C127.947 6.83096 127.742 6.90704 127.69 6.91479C127.567 6.93272 127.431 6.97698 127.31 6.97698C127.31 6.99804 127.134 7.06482 127.09 7.07615C127.09 7.11749 126.818 7.15146 126.747 7.17532C126.596 7.22619 126.558 7.35852 126.404 7.39831C126.404 7.48403 126.159 7.47172 126.159 7.52213C126.021 7.55016 125.992 7.61404 125.866 7.64597C125.75 7.79199 125.645 7.81968 125.522 7.96836C125.336 8.0309 125.281 8.08636 125.13 8.21591C125.13 8.32618 124.948 8.40295 124.886 8.47633C124.782 8.5996 124.672 8.62829 124.567 8.76155C124.492 8.76155 124.225 9.03161 124.225 9.10835C124.113 9.18411 124.094 9.29462 123.98 9.38123C123.98 9.48938 123.808 9.54317 123.808 9.65376C123.681 9.76615 123.588 9.8558 123.539 10.0009C123.476 10.0329 123.319 10.2254 123.319 10.2981C123.228 10.3444 123.146 10.5218 123.123 10.6206C123.026 10.6985 122.997 10.7954 122.902 10.8436C122.902 10.9299 122.829 10.968 122.829 11.0417C122.807 11.0417 122.632 11.2704 122.621 11.3266C122.609 11.3887 122.499 11.7356 122.461 11.7356C122.461 11.9238 122.299 12.0768 122.282 12.3391C122.27 12.5057 122.309 12.6671 122.296 12.8389C122.293 12.8794 122.237 13.0245 122.315 13.0245C122.315 13.1672 122.489 13.2151 122.559 13.3221C122.715 13.3616 122.752 13.4642 122.889 13.5286C122.955 13.5594 122.994 13.5858 123.037 13.6443C123.091 13.7165 123.155 13.6877 123.196 13.7681C123.311 13.7681 123.365 13.9664 123.465 13.9664C123.521 14.076 123.683 14.0813 123.771 14.1897C123.85 14.285 124.372 14.5433 124.372 14.6604C124.454 14.6604 124.593 14.7854 124.641 14.8588C124.725 14.8588 124.672 14.9579 124.788 14.9579C124.825 14.9579 124.959 14.9742 124.959 15.0072C125.028 15.0072 125.146 15.0873 125.18 15.1563C125.279 15.1563 125.362 15.3014 125.474 15.3296C125.474 15.4339 125.914 15.4781 125.914 15.553C126.06 15.553 126.194 15.7015 126.331 15.7015C126.331 15.7829 126.772 15.8161 126.772 15.8998C126.98 15.9129 127.161 15.9237 127.359 15.9902C127.555 16.0569 127.724 16.1228 127.93 16.1228C128.057 16.1228 128.608 16.1469 128.608 16.0978C128.705 16.0978 129.392 16.1071 129.392 16.0485C129.526 16.0485 129.583 15.999 129.71 15.999C129.71 15.9306 130.043 15.9303 130.127 15.9245C130.127 15.8866 130.46 15.7265 130.518 15.7265C130.546 15.6697 130.616 15.6751 130.616 15.6269C130.732 15.6269 130.765 15.5384 130.837 15.4538C130.914 15.4538 131.166 15.298 131.216 15.2308C131.295 15.1249 131.459 14.9579 131.596 14.9579C131.621 14.9053 131.778 14.8341 131.841 14.8341C131.841 14.7615 132.083 14.7898 132.134 14.8091C132.134 14.87 132.183 14.7982 132.183 14.8588C132.298 14.8588 132.322 14.9641 132.379 15.0571C132.476 15.0896 132.518 15.0786 132.551 15.1809C132.607 15.2092 132.585 15.2555 132.624 15.2555C132.624 15.3324 132.771 15.3905 132.771 15.4286C132.976 15.5894 133.285 15.3322 133.285 15.1563C133.478 15.1563 133.293 13.5947 133.383 13.5947C133.383 13.4051 133.531 13.1812 133.531 12.975C133.608 12.975 133.604 12.4052 133.701 12.4052C133.701 12.2135 133.806 12.0676 133.873 11.8597C133.941 11.8597 133.944 11.3392 134.044 11.3392C134.044 11.2611 134.22 10.6946 134.265 10.6946C134.265 10.6296 134.45 10.0502 134.485 10.0502C134.485 10.0149 134.532 9.85187 134.559 9.85187C134.559 9.81828 134.653 9.60424 134.681 9.60424C134.698 9.50114 134.867 9.05906 134.926 9.05906C134.926 8.90777 135.08 8.75222 135.11 8.60038C135.127 8.51389 135.22 8.42412 135.22 8.34018C135.262 8.34018 135.337 8.09645 135.416 8.04266C135.416 7.9659 135.438 8.00233 135.465 7.89383C135.498 7.89383 135.505 7.74592 135.516 7.70346C135.562 7.51553 135.566 7.31248 135.514 7.12544C135.514 6.97864 135.477 6.8649 135.464 6.72304C135.454 6.62341 135.514 6.49454 135.514 6.35727C135.544 6.35727 135.614 5.91127 135.686 5.91127C135.686 5.81769 135.847 5.41529 135.93 5.41529C135.962 5.29044 136.006 5.03159 136.114 4.94429C136.196 4.87808 136.276 4.67188 136.396 4.67188C136.471 4.55701 136.579 4.53349 136.678 4.41122C136.788 4.27461 136.854 4.22553 137.008 4.22553C137.008 4.14856 137.512 4.10484 137.62 4.06944C137.816 4.0059 138.012 3.94235 138.208 3.87849C138.428 3.87849 138.569 3.85058 138.783 3.83535C139.029 3.81742 140.902 3.46778 140.902 3.50702C141.123 3.50702 142.748 3.16355 143.124 3.14103C143.467 3.12097 143.827 2.93987 144.208 2.92036C144.33 2.91353 145.138 2.88955 145.138 2.81278C145.47 2.81278 145.698 2.78802 145.971 2.78802C145.971 2.72089 146.544 2.68885 146.644 2.68885C146.914 2.68885 148.182 2.44412 148.273 2.42842C148.389 2.4088 148.693 2.40008 148.818 2.34271C148.939 2.28665 149.989 2.07677 150.109 2.06926C150.109 1.98689 150.55 1.92774 150.55 1.84616C150.64 1.84616 151.261 1.79136 151.261 1.7471C151.456 1.71841 151.59 1.69273 151.779 1.75685C151.867 1.78689 151.956 1.81658 152.044 1.84616C152.111 1.92134 152.21 2.09393 152.314 2.09393C152.361 2.15836 152.484 2.25584 152.484 2.31692C152.614 2.42619 152.732 2.58328 152.852 2.66398C152.852 2.74915 152.95 2.79038 152.95 2.88697C153.013 2.88697 153.088 3.14338 153.17 3.18448C153.221 3.34172 153.347 3.43192 153.391 3.60619C153.417 3.60619 153.538 3.89396 153.538 3.953C153.569 3.953 153.628 4.29983 153.685 4.29983C153.677 4.39869 153.825 6.3324 153.685 6.3324C153.685 6.47627 153.674 6.57802 153.539 6.66655C153.415 6.74725 153.242 6.83297 153.11 6.7906C152.975 6.74779 152.978 6.77863 152.852 6.77863C152.637 6.77863 152.456 6.75408 152.246 6.7041C152.002 6.64584 151.04 6.58026 150.722 6.58026C150.549 6.62957 150.369 6.62957 150.191 6.62957C150.023 6.62957 149.917 6.67943 149.767 6.67943C149.615 6.67943 149.495 6.70746 149.347 6.73098C149.196 6.75508 149.116 6.7097 148.995 6.69177C148.954 6.68583 148.762 6.71756 148.762 6.75362C148.573 6.75362 148.31 6.70623 148.131 6.76819C148.001 6.81334 147.174 6.80663 147.042 6.8408C146.95 6.86458 146.805 6.9114 146.729 6.90233C146.561 6.88139 146.462 6.87164 146.299 6.92339C146.133 6.97583 146.014 6.92732 145.885 6.92732C145.743 6.92732 145.561 6.94671 145.383 6.97698C145.383 7.0285 144.87 7.02626 144.792 7.02784C144.686 7.03077 143.841 7.12825 143.841 7.12544C143.716 7.13723 142.714 7.1985 142.714 7.19997C142.414 7.22966 142.308 7.32043 142.012 7.33219C141.894 7.33658 140.167 7.55463 140.167 7.6213C140 7.66356 140.026 7.72329 139.897 7.83198C139.721 7.98047 139.611 8.05555 139.432 8.19138C139.432 8.27876 139.297 8.40361 139.261 8.51354C139.203 8.51354 139.221 8.66237 139.163 8.66237C139.163 8.7974 138.797 9.29551 138.787 9.41427C138.768 9.66979 138.794 9.81042 138.992 9.97595C139.266 9.97595 139.505 10.0502 139.8 10.0502C139.8 10.1026 140.138 10.0906 140.191 10.0874C140.397 10.0759 140.559 10.1095 140.779 10.1247C141.063 10.1247 141.321 10.1541 141.618 10.1998C141.767 10.2223 141.859 10.1741 141.979 10.1741C141.979 10.1336 142.386 10.13 142.441 10.1317C142.513 10.1343 143.19 10.0256 143.302 10.0256C143.302 10.0502 143.871 9.88796 143.938 9.87677C144.102 9.62765 144.36 9.6356 144.624 9.7033C144.624 9.70138 144.838 9.80259 144.869 9.80259C144.902 9.84674 145.089 9.95914 145.089 9.97595C145.134 9.97595 145.285 10.0289 145.285 10.0751C145.405 10.0751 145.448 10.2559 145.53 10.2981C145.53 10.3562 146.338 11.6079 146.338 11.711C146.455 11.7724 146.46 11.995 146.46 12.1077C146.46 12.2633 146.509 12.335 146.509 12.4668C146.509 12.6506 146.512 12.8344 146.512 13.0182C146.512 13.1571 146.491 13.8177 146.362 13.8177C146.362 13.9118 146.322 13.9838 146.24 14.0533C146.132 14.144 145.873 14.4231 145.873 14.5861C145.821 14.7097 145.358 14.9876 145.358 15.0324C145.155 15.0324 144.988 15.0997 144.795 15.1647C144.667 15.2078 144.553 15.3048 144.452 15.3048C144.452 15.3549 144.262 15.4208 144.219 15.4784C144.051 15.7065 144.351 15.9979 144.526 16.16C144.619 16.2466 144.715 16.3273 144.746 16.4452C144.917 16.4792 145.039 16.631 145.089 16.7924C145.089 17.1302 145.032 18.7501 144.967 18.7501C144.967 18.8394 144.675 19.7768 144.47 19.8578C144.363 19.8998 143.396 20.3861 143.204 20.3861C143.204 20.5895 139.432 20.961 138.967 20.9588C138.899 20.9585 138.208 20.9986 138.208 20.9063C137.972 20.9063 137.687 20.8299 137.473 20.7578C137.375 20.7251 136.28 20.4786 136.175 20.262C136.11 20.262 135.951 20.134 135.906 20.0763C135.861 20.0186 135.65 19.8903 135.588 19.8903C135.55 19.816 135.491 19.8169 135.416 19.7911C135.369 19.7317 135.348 19.6673 135.269 19.6673C135.193 19.551 135.034 19.4398 134.926 19.3205C134.884 19.3205 134.73 19.223 134.73 19.1966C134.642 19.1367 134.687 19.1117 134.608 19.0725C134.608 18.9425 134.491 18.9329 134.436 18.8246C134.334 18.8246 134.185 18.6304 134.118 18.5517C134.063 18.5235 133.947 18.3584 133.947 18.3041C133.838 18.2163 133.829 18.1356 133.751 18.0564C133.713 18.0172 133.506 17.9283 133.506 17.9572C133.313 17.9572 133.217 18.4032 133.138 18.4032C133.138 18.4903 133.044 18.5828 133.028 18.6761C133.021 18.7204 132.947 18.9731 132.894 18.9731C132.894 19.0504 132.753 19.3554 132.673 19.3944C132.673 19.442 132.44 19.8163 132.429 19.8163C132.429 19.8864 132.329 20.0155 132.269 20.0636C132.15 20.1603 132.158 20.3038 132.036 20.3861C131.91 20.5357 131.79 20.5834 131.669 20.7134C131.533 20.8604 131.378 21.0793 131.192 21.1174C131.008 21.1549 130.893 21.2782 130.702 21.2782C130.596 21.2782 130.515 21.3314 130.371 21.3404C130.154 21.3535 129.963 21.3869 129.725 21.3975C129.435 21.4098 129.073 21.3387 128.75 21.323C128.583 21.3151 128.4 21.2782 128.265 21.2782C128.146 21.2782 128.09 21.2039 127.972 21.2039C127.931 21.2039 127.653 21.2608 127.653 21.1795C127.522 21.1571 127.491 21.1106 127.383 21.0927C127.192 21.0602 127.06 20.9433 126.862 20.9231C126.705 20.9072 126.642 20.8394 126.502 20.8156C126.444 20.8058 126.159 20.7588 126.159 20.6837C126.108 20.6769 125.841 20.6458 125.841 20.5845C125.731 20.5845 125.668 20.4909 125.547 20.4603C125.547 20.3957 125.057 20.2881 125.057 20.262C125.012 20.262 124.812 20.2188 124.812 20.1628C124.683 20.1628 124.59 19.9645 124.445 19.9645C124.445 19.9217 124.158 19.7911 124.102 19.7911C124.102 19.7648 123.925 19.6673 123.882 19.6673C123.817 19.5371 123.651 19.5754 123.588 19.4443C123.528 19.4443 123.394 19.3513 123.368 19.2952C123.32 19.2952 123.236 19.2613 123.196 19.2209C123.143 19.1671 123.03 19.0991 122.951 19.0725C122.845 18.9425 122.754 18.896 122.633 18.8246C122.54 18.8246 122.38 18.6915 122.315 18.6139C122.235 18.5198 122.15 18.4632 122.045 18.4279C122 18.3377 121.866 18.3013 121.8 18.2169C121.696 18.085 121.547 18.0682 121.457 17.932C121.25 17.7841 121.087 17.5409 120.87 17.486C120.691 17.2585 120.475 17.1711 120.29 16.9571C120.213 16.868 120.165 16.8635 120.135 16.7425C120.077 16.6949 120.012 16.6738 120.012 16.5937C119.963 16.5329 119.905 16.575 119.866 16.4945C119.793 16.4945 119.45 16.041 119.45 15.9245C119.256 15.7784 119.232 15.5154 119.033 15.3793C119.033 15.2961 118.984 15.3384 118.984 15.2555C118.887 15.1905 118.897 15.1193 118.819 15.0324C118.752 14.9579 118.684 14.8834 118.617 14.8091C118.543 14.8091 118.47 14.8091 118.396 14.8091C118.403 14.8666 118.387 14.8915 118.347 14.8838C118.347 14.9604 118.19 15.4784 118.151 15.4784C118.133 15.8802 118.05 16.2777 118.062 16.6797C118.073 17.0288 118.2 17.3756 118.2 17.7174C118.2 18.1452 118.249 18.5475 118.249 18.9486C118.172 18.9486 118.207 19.5816 118.192 19.6978C118.178 19.8074 118.154 19.9721 118.053 20.0391C118.053 20.1133 117.958 20.3228 117.939 20.42C117.901 20.6086 117.796 20.7461 117.67 20.9136C117.596 21.012 117.478 21.0899 117.368 21.154C117.368 21.2195 117.172 21.2375 117.172 21.2782C117.112 21.2782 116.78 21.3008 116.78 21.2535C116.637 21.2535 116.768 21.2288 116.658 21.2288C116.658 21.1723 116.499 21.2305 116.462 21.2369C116.339 21.2576 116.272 21.2098 116.151 21.1874C116.074 21.1734 115.751 21.0729 115.751 21.0058C115.6 21.0058 115.321 20.9128 115.225 20.7829C115.161 20.6966 115.017 20.5229 114.943 20.4853C114.91 20.3822 114.772 20.2917 114.772 20.1878C114.542 20.0673 114.564 19.6135 114.551 19.3698C114.433 18.9445 114.475 18.4654 114.461 18.0278C114.451 17.7337 114.447 17.4106 114.494 17.1473C114.553 16.8221 114.527 16.504 114.527 16.1558C114.527 15.948 114.305 15.6577 114.086 15.6023C114.086 15.465 113.23 15.4975 113.23 15.553C112.863 15.544 112.442 15.553 112.115 15.553C112.07 15.553 111.638 15.6847 111.638 15.7015C111.438 15.7015 111.276 15.8006 111.099 15.8006C111.099 15.8085 110.458 15.9625 110.364 15.974C110.364 16.0214 109.85 16.0281 109.85 16.1228C109.808 16.1228 109.678 16.185 109.678 16.222C109.56 16.2513 109.488 16.3211 109.384 16.3211C109.256 16.473 109.109 16.5985 108.976 16.7447C108.928 16.7968 108.804 17.114 108.772 17.114C108.754 17.1706 108.653 17.3622 108.625 17.3622C108.625 17.4541 108.527 17.5103 108.527 17.6102C108.437 17.6703 108.443 17.7897 108.356 17.8331C108.356 17.8637 108.256 18.0807 108.258 18.0807C108.239 18.2202 108.184 18.2906 108.184 18.4032C108.122 18.4032 107.862 19.2459 107.792 19.2459C107.762 19.3717 107.726 19.3431 107.695 19.4686C107.605 19.5287 107.634 19.5989 107.548 19.6426C107.474 19.8485 107.37 19.9833 107.303 20.1878C107.248 20.2155 107.269 20.262 107.23 20.262C107.23 20.3494 107.143 20.3918 107.082 20.448C106.942 20.5789 106.823 20.6574 106.691 20.8072C106.545 20.8562 106.358 21.1258 106.185 20.9733C106.077 20.877 104.85 20.2486 104.707 20.2125C104.64 20.1222 104.487 20.0648 104.487 19.9645C104.349 19.8959 104.268 19.3698 104.217 19.3698C104.182 19.1148 104.094 18.8517 104.082 18.5693C104.079 18.5063 104.096 18.3289 104.144 18.3289C104.144 18.2404 104.116 17.858 104.193 17.858C104.254 17.6151 104.34 17.4328 104.413 17.1193C104.463 16.9067 104.707 16.7223 104.707 16.4945C104.744 16.4945 104.805 16.3635 104.805 16.3211C104.913 16.2483 104.914 16.1579 105.026 16.0732C105.026 16.0197 105.099 15.8499 105.148 15.8256C105.148 15.7555 105.351 15.5031 105.393 15.5031C105.393 15.3972 105.56 15.1087 105.662 15.0571C105.73 14.8483 105.931 14.6458 105.931 14.4374C106.037 14.4374 106.049 14.0161 106.127 14.0161C106.127 13.9258 106.206 13.8345 106.225 13.7186C106.279 13.7186 106.323 13.5028 106.323 13.4459C106.461 13.4459 106.473 12.8512 106.568 12.8512C106.568 12.7537 106.617 12.6836 106.617 12.5453C106.617 12.4119 106.578 12.2873 106.607 12.1194C106.633 11.9737 106.653 11.8339 106.666 11.6863C106.734 11.5557 106.888 11.4644 106.985 11.3557C107.07 11.2599 107.104 11.1973 107.23 11.1658C107.288 11.075 107.359 11.1042 107.401 11.0168C107.514 11.0168 107.635 10.8355 107.735 10.7445C107.864 10.6274 107.951 10.4894 108.008 10.3129C108.034 10.234 108.099 9.95105 108.16 9.95105C108.16 9.86702 108.346 9.53476 108.405 9.50507C108.405 9.37227 108.549 9.26412 108.601 9.10835C108.663 8.92122 108.767 8.85398 108.821 8.63736C108.887 8.60408 108.944 8.43993 108.944 8.36483C108.972 8.36483 109.066 8.15059 109.115 8.11673C109.115 8.0087 109.257 7.95267 109.275 7.83198C109.28 7.78772 109.389 7.49749 109.434 7.49749C109.434 7.40055 109.516 7.31931 109.556 7.19997C109.636 7.15874 109.614 6.97698 109.678 6.97698C109.678 6.86435 109.773 6.76908 109.801 6.65445C109.867 6.62117 109.919 6.4318 109.972 6.4318C109.972 6.30202 110.168 6.17069 110.168 6.03511C110.235 6.03511 110.239 5.82466 110.315 5.78699C110.387 5.49013 110.731 5.35263 110.731 5.04335C110.786 5.0159 110.878 4.90327 110.878 4.84512C110.961 4.78898 111 4.72309 111.026 4.62202C111.177 4.54514 111.202 4.27238 111.344 4.20065C111.344 4.14799 111.507 3.87849 111.539 3.87849C111.603 3.68855 112.005 3.49916 112.005 3.30865C112.037 3.30865 112.103 3.19659 112.103 3.15961C112.194 3.07389 112.286 2.98795 112.377 2.90177C112.473 2.81166 112.559 2.71218 112.647 2.61444C112.743 2.5099 112.889 2.4794 112.935 2.34179C113.044 2.2536 113.245 2.13596 113.303 2.01963C113.39 2.01963 113.453 1.86833 113.523 1.80895C113.629 1.71964 113.657 1.65768 113.792 1.62282C113.946 1.32071 114.493 1.50695 114.723 1.53642C114.76 1.54112 114.895 1.56522 114.895 1.59827C114.971 1.59827 115.12 1.60891 115.219 1.64006C115.373 1.68883 115.654 1.7611 115.703 1.9451Z" fill="#7B7B7B"/>
<path d="M28.1545 6.45623C28.136 6.62041 28.081 6.69626 28.081 6.82771C28.0556 6.82771 27.9338 7.0655 27.9338 7.10047C27.88 7.12746 27.7626 7.31517 27.7626 7.373C27.7096 7.41368 27.615 7.57146 27.5912 7.57146C27.5447 7.71524 27.4168 7.81384 27.2972 7.92478C27.2078 8.00737 27.0693 8.29034 26.9546 8.29034C26.9265 8.3458 26.8566 8.34221 26.8566 8.38952C26.7654 8.38952 26.7162 8.49709 26.6605 8.56299C26.5981 8.56299 26.4159 8.71145 26.3792 8.76134C26.3325 8.82353 26.2523 8.85882 26.1832 8.87282C26.0607 8.89749 25.93 8.92741 25.7737 8.90208C25.6541 8.88291 25.6568 8.73724 25.6568 8.63715C25.5824 8.63715 25.7083 7.8524 25.7217 7.76981C25.7445 7.63064 25.8035 7.55388 25.8035 7.44765C25.8894 7.44765 25.791 7.0013 25.877 7.0013C25.877 6.84452 25.926 6.80361 25.926 6.65423C25.9717 6.65423 25.9504 6.25095 25.9504 6.18336C26.0178 5.94749 25.9531 5.75933 25.9378 5.51718C25.93 5.39838 25.9984 4.89466 26.0485 4.89466C26.0485 4.77141 26.2228 4.54897 26.3422 4.44868C26.6113 4.45258 26.7378 4.59714 26.9789 4.59714C26.9789 4.6274 27.3774 4.78934 27.4685 4.82016C27.5654 4.95048 27.7261 5.01176 27.8115 5.14231C27.9173 5.14231 27.957 5.29023 28.0318 5.34066C28.0318 5.38214 28.1131 5.56368 28.1299 5.56368C28.1839 5.72952 28.21 5.81951 28.2217 6.00988C28.2252 6.06413 28.2572 6.45623 28.1545 6.45623ZM33.6889 16.544C33.6793 16.544 33.5846 16.2526 33.5665 16.1971C33.4933 16.1377 33.3797 16.066 33.3459 15.9988C33.2204 15.9562 33.2388 15.7508 33.1011 15.7508C33.0274 15.685 32.9752 15.5914 32.9052 15.5029C32.6495 15.4384 32.6087 15.1137 32.3667 15.0322C32.2428 14.9902 32.1955 14.914 32.0725 14.8835C32.0506 14.8384 31.8809 14.7347 31.8276 14.7347C31.7553 14.6249 31.6666 14.6244 31.5827 14.5117C31.5399 14.5117 31.3134 14.3672 31.3134 14.338C31.176 14.3033 31.1499 14.2637 30.9951 14.2637C30.9152 14.1705 30.7488 13.892 30.6278 13.892C30.6037 13.8439 30.4107 13.7183 30.3583 13.7183C30.2591 13.5979 30.1681 13.5486 30.0643 13.4331C29.9538 13.3104 29.9113 13.1844 29.7951 13.0863C29.6984 13.0051 29.5011 12.8717 29.5011 12.7518C29.4232 12.7518 29.4402 12.4907 29.4649 12.4375C29.5077 12.3456 29.5856 12.2856 29.6579 12.2195C29.7409 12.1437 29.7951 12.0464 29.7951 11.9586C29.8637 11.9586 30.2517 11.5459 30.3078 11.4502C30.3795 11.3284 30.4464 11.259 30.5541 11.1656C30.5793 11.0885 30.5788 11.0295 30.6522 10.9919C30.6632 10.9361 30.7208 10.7193 30.7749 10.7193C30.7749 10.6075 30.9591 10.505 30.9829 10.3847C31.0161 10.2159 31.191 10.1004 31.191 9.92619C31.2429 9.92619 31.3625 9.4468 31.3625 9.38101C31.4486 9.38101 31.3497 8.93469 31.4362 8.93469C31.4362 8.89186 31.4843 8.68669 31.5093 8.68669C31.5424 8.55232 31.6074 8.50604 31.6074 8.37695C31.6074 8.25202 31.6742 8.14197 31.7051 8.0177C31.7221 8.0177 31.7788 7.82807 31.7788 7.79479C31.8466 7.79479 31.8276 7.51566 31.8276 7.44113C31.8276 7.27024 31.8151 7.05856 31.8236 6.85258C31.8293 6.72125 31.7788 6.6781 31.7788 6.53076C31.7686 6.53076 31.8369 6.0349 31.7051 6.0349C31.7051 5.80907 31.6074 5.64547 31.6074 5.43983C31.5736 5.43983 31.4602 5.08012 31.4602 5.0185C31.4109 5.0185 31.3713 4.74281 31.3625 4.67167C31.3279 4.67167 31.2644 4.49908 31.2644 4.44868C31.1377 4.44868 31.1635 3.87828 31.0195 3.87828C31.0195 3.75108 30.8237 3.67948 30.8237 3.55609C30.7763 3.55609 30.3917 2.89663 30.3583 2.7134C30.3234 2.7134 30.244 2.5201 30.1992 2.46542C30.1253 2.37543 29.8685 2.16902 29.8685 2.06905C29.7803 2.00843 29.6993 1.7962 29.5748 1.7962C29.43 1.62597 29.3747 1.59671 29.1664 1.53196C28.9536 1.4656 29.0343 1.3586 28.9011 1.25102C28.758 1.13446 28.7141 1.10219 28.5218 1.07732C28.5218 0.98262 27.9831 1.01177 27.9831 0.928833C27.7022 0.928833 27.4395 0.780029 27.1745 0.780029C27.1745 0.741129 26.9558 0.653173 26.9117 0.649817C26.8198 0.643648 26.7279 0.63748 26.6359 0.631313C26.6014 0.560398 26.5625 0.571587 26.4893 0.557013C26.4893 0.471066 26.0391 0.383654 25.9504 0.383654C25.9504 0.38199 25.3161 0.284481 25.2526 0.284481C25.1052 0.284481 24.3832 0.32057 24.3832 0.45784C24.2772 0.45784 24.2643 0.507498 24.1381 0.507498C24.1381 0.527895 23.8164 0.557013 23.7708 0.557013C23.7708 0.640839 23.3302 0.651482 23.3302 0.730486C23.189 0.730486 23.0031 0.841421 22.8648 0.97872C22.8153 1.05268 22.6548 1.20136 22.5709 1.20136C22.5127 1.3205 22.3261 1.39612 22.3261 1.52355C22.0397 1.71998 22.0276 2.15109 21.8484 2.45309C21.6922 2.71675 21.6356 2.91456 21.6501 3.20926C21.6642 3.49614 21.6192 3.71264 21.7027 4.01274C21.7372 4.13713 21.763 4.27027 21.763 4.37403C21.7924 4.37403 21.8609 4.57238 21.8609 4.62181C21.8884 4.62181 21.9828 4.83639 22.0322 4.87001C22.0322 4.92851 22.1197 5.06276 22.179 5.09303C22.179 5.14231 22.3841 5.41967 22.424 5.43983C22.4704 5.50989 22.6192 5.61589 22.6344 5.69759C22.6438 5.74891 22.723 6.0349 22.6442 6.0349C22.6442 6.13766 22.5919 6.18078 22.5709 6.30743C22.4695 6.30743 22.3749 6.79489 22.3749 6.8776C22.3076 6.8776 22.2873 7.3981 22.2036 7.3981C22.2036 7.77182 21.9256 8.00694 21.8731 8.37695C21.8514 8.53103 21.7871 8.64925 21.7871 8.76134C21.756 8.76134 21.7138 8.87339 21.7138 8.90979C21.6782 8.90979 21.6402 9.05885 21.5915 9.0835C21.5915 9.18772 21.4585 9.25998 21.3956 9.35614C21.3339 9.35614 21.2604 9.39335 21.175 9.40569C21.175 9.46036 20.9957 9.43021 20.9548 9.43021C20.9548 9.47459 20.7107 9.48019 20.6609 9.48019C20.6609 9.47872 20.4439 9.63651 20.4146 9.71161C20.3585 9.85617 20.3903 9.97944 20.2386 10.07C20.1023 10.1514 20.0358 10.1789 20.0118 10.3229C19.9876 10.4697 19.961 10.6397 19.9505 10.8184C19.9081 10.9722 19.9385 11.1417 19.9378 11.2989C19.9372 11.4742 19.8938 11.6435 19.9097 11.82C19.9255 11.998 19.9844 12.1651 20.0485 12.3305C20.0672 12.4408 20.1222 12.5 20.1222 12.5781C20.212 12.6237 20.2853 12.8263 20.3179 12.9255C20.4248 13.0112 20.4813 13.0871 20.5629 13.1978C20.5976 13.1978 20.6787 13.3962 20.7344 13.3962C20.7344 13.5682 20.7498 13.6793 20.7344 13.8674C20.6968 13.8674 20.678 14.7599 20.6704 14.8686C20.645 15.2196 20.5384 15.546 20.5384 15.8499C20.5384 15.9155 20.4429 16.5689 20.4161 16.5689C20.4161 16.8375 20.4112 17.1936 20.379 17.4944C20.3746 17.5353 20.2829 17.8329 20.367 17.8329C20.3752 18.0478 20.3834 18.2624 20.3916 18.4775C20.4181 18.4775 20.5435 18.968 20.5629 19.0474C20.5822 19.0474 20.6364 19.2312 20.6364 19.2704C20.6461 19.2704 20.7832 19.4717 20.7832 19.5186C20.9007 19.5961 20.8832 19.73 21.0037 19.7909C21.0037 19.8735 21.1464 19.9607 21.2118 20.0139C21.4419 20.2005 21.5775 20.4946 21.8851 20.5531C22.1156 20.5966 22.62 20.5927 22.62 20.6585C22.7126 20.6678 22.8247 20.6672 22.8894 20.6585C23.1221 20.6742 23.234 20.6991 23.4281 20.5593C23.4281 20.4831 23.5568 20.2716 23.624 20.2369C23.624 20.1363 23.7462 20.1103 23.7462 20.0141C23.8297 19.9724 23.8084 19.7416 23.8688 19.7416C23.8688 19.6447 23.9668 19.5556 23.9668 19.4441C24.0071 19.4441 23.9424 18.6933 23.9424 18.6014C23.8444 18.6014 23.8798 17.9598 23.875 17.8702C23.8665 17.7122 23.82 17.5144 23.82 17.362C23.82 17.2328 23.7462 17.0914 23.7462 16.9558C23.7462 16.7759 23.7613 16.596 23.7209 16.4212C23.6904 16.2895 23.6576 16.1321 23.6974 15.9988C23.7314 15.9988 23.8444 15.388 23.8444 15.3294C23.9153 15.3294 24.1136 14.8477 24.1136 14.7844C24.2055 14.7381 24.2512 14.5683 24.3688 14.5465C24.5372 14.5151 24.5536 14.5104 24.7015 14.6439C24.7916 14.7252 24.911 14.9824 25.0443 14.9824C25.0911 15.0771 25.2822 15.211 25.3724 15.3096C25.4681 15.4138 25.5651 15.3858 25.6565 15.4782C25.7056 15.5281 25.8222 15.5821 25.9015 15.6021C25.997 15.7991 26.2947 15.8404 26.4158 16.0234C26.4967 16.0234 26.689 16.2019 26.7464 16.2713C26.8307 16.3736 26.9573 16.4537 27.0768 16.4943C27.1225 16.588 27.2603 16.6235 27.3217 16.7176C27.4527 16.8168 27.5368 16.8936 27.6504 16.9941C27.7349 17.0686 27.8579 17.2628 27.9586 17.2628C28.0434 17.3605 28.1591 17.539 28.2525 17.585C28.3202 17.6777 28.4358 17.7323 28.4726 17.808C28.591 17.8976 28.6109 18.0013 28.7177 18.0973C28.8025 18.1735 28.9459 18.4277 29.0601 18.4277C29.0601 18.5296 29.267 18.6347 29.3053 18.7499C29.4354 18.8694 29.5629 18.9824 29.6726 19.1216C29.7832 19.1216 29.9121 19.3034 29.9909 19.3942C30.1326 19.3942 30.1933 19.6424 30.3339 19.6424C30.3339 19.6774 30.534 19.7534 30.591 19.7659C30.8183 19.8169 30.937 19.9408 31.2137 19.931C31.3038 19.9273 31.8276 19.9702 31.8276 19.8651C31.9622 19.8651 32.3196 19.676 32.3667 19.4934C32.4446 19.4699 32.5226 19.4194 32.5869 19.4194C32.6388 19.3113 32.7828 19.2409 32.7828 19.1216C32.8066 19.0804 32.8604 18.9729 32.8805 18.9729C32.9106 18.8524 33.0767 18.7784 33.0767 18.6753C33.1543 18.6078 33.3459 18.457 33.3459 18.3535C33.4091 18.2979 33.4928 18.3061 33.4928 18.2047C33.6722 18.0834 33.7133 17.8349 33.7133 17.6345C33.7133 17.2961 33.6889 16.8762 33.6889 16.544Z" fill="#7B7B7B"/>
</g>
<defs>
<clipPath id="clip0_1_790">
<rect width="153.488" height="24" fill="white" transform="translate(0.255798)"/>
</clipPath>
</defs>
</svg>
