<svg width="52" height="24" viewBox="0 0 52 24" fill="none" xmlns="http://www.w3.org/2000/svg">
<g clip-path="url(#clip0_1_745)">
<path d="M0.0263062 0.0136271C1.44322 0.00457221 2.86464 0.00457221 4.28156 0.0136271C4.24546 1.83366 4.28156 3.65822 4.26351 5.47826C4.25448 5.63219 4.27704 5.78612 4.33571 5.931C6.12715 5.95364 7.9186 5.931 9.71005 5.94458C9.84091 5.94911 10.0485 5.94006 10.0304 5.75896C10.044 3.84385 10.0304 1.92874 10.0349 0.0136271C11.4428 0.00909966 12.8507 0.0136271 14.2586 0.0136271C14.2541 5.24283 14.2586 10.472 14.2541 15.7012C12.8462 15.7012 11.4428 15.6967 10.0349 15.7012C10.0124 13.7182 10.0575 11.7307 10.0124 9.74764L9.96726 9.725L9.95823 9.72048C9.77774 9.64804 9.57919 9.6752 9.38966 9.6752C7.702 9.67973 6.00983 9.67067 4.32217 9.6752C4.29058 9.76575 4.259 9.86083 4.259 9.96043C4.259 11.6673 4.259 13.3696 4.259 15.0764C4.26351 15.2802 4.27253 15.4884 4.23192 15.6877C2.83757 15.6967 1.43871 15.7012 0.044356 15.6831C0.00825631 10.463 0.0669183 5.2383 0.0263062 0.0136271Z" fill="#7B7B7B"/>
<path d="M22.3053 0.00437215C23.7177 -0.000155299 25.1301 -0.000155299 26.5425 0.00437215C26.5425 5.2381 26.5425 10.4673 26.5425 15.701C25.1301 15.701 23.7222 15.7101 22.3098 15.6965C22.2963 10.4673 22.3099 5.2381 22.3053 0.00437215Z" fill="#7B7B7B"/>
<path d="M28.3971 0.00452745C29.7825 0 31.1633 0 32.5486 0C32.5441 5.23826 32.5621 10.472 32.5396 15.7102C31.1633 15.7284 29.7825 15.7238 28.4016 15.7148C28.3881 10.4765 28.4016 5.23826 28.3971 0.00452745Z" fill="#7B7B7B"/>
<path d="M47.4482 0.0136719C48.8245 0.0136719 50.1963 0.0136719 51.5726 0.0136719C51.5681 5.24287 51.5726 10.4676 51.5726 15.6968C50.2008 15.6968 48.8245 15.6968 47.4527 15.6968C47.4482 10.4676 47.4527 5.24287 47.4482 0.0136719Z" fill="#7B7B7B"/>
<path d="M36.1389 4.55924C37.2309 3.68091 38.6433 3.22817 40.0377 3.25986C41.1838 3.25533 42.348 3.51792 43.3317 4.12007C44.32 4.7177 45.0781 5.65941 45.5203 6.72336C46.0753 8.00915 46.1972 9.43982 46.1069 10.8252C46.0934 10.7483 46.0798 10.6713 46.0663 10.5943C46.0528 10.6532 46.0347 10.712 46.0212 10.7709C43.3949 10.7799 40.7642 10.7709 38.1379 10.7754C38.0657 10.7799 37.998 10.7935 37.9303 10.8116C38.0612 11.287 38.2688 11.7533 38.6207 12.102C39.4104 12.9078 40.6965 13.0029 41.7208 12.6498C42.321 12.4325 42.8354 12.0386 43.2911 11.5949C44.0763 12.2604 44.875 12.9033 45.6602 13.5734C45.1683 14.1846 44.5907 14.7279 43.9184 15.1308C42.5511 15.9684 40.886 16.1812 39.3157 15.991C37.7634 15.8054 36.2472 15.0856 35.2364 13.8722C33.9955 12.4144 33.6029 10.377 33.8962 8.5117C34.1354 6.98142 34.9205 5.52358 36.1389 4.55924ZM38.6884 6.93615C38.2056 7.37984 37.9935 8.02273 37.8581 8.64752C37.9303 8.68827 38.0116 8.6928 38.0928 8.6928C39.3698 8.6928 40.6513 8.6928 41.9284 8.6928C41.9961 8.68827 42.0728 8.69732 42.1224 8.64299C42.0276 8.06801 41.8562 7.47491 41.4501 7.03575C40.7642 6.26608 39.4285 6.2027 38.6884 6.93615Z" fill="#7B7B7B"/>
<path d="M16.2588 5.94434C17.6351 5.94886 19.0159 5.94434 20.3922 5.94886C20.3922 9.19957 20.3922 12.4458 20.3922 15.6965C19.0159 15.6965 17.6441 15.6965 16.2678 15.6965C16.2407 12.4458 16.2588 9.19504 16.2588 5.94434Z" fill="#7B7B7B"/>
<path d="M18.0322 0.239646C19.079 0.0766582 20.1666 0.823687 20.3967 1.86047C20.6358 2.74785 20.2117 3.75295 19.422 4.21475C18.7406 4.6358 17.8201 4.62674 17.1522 4.17853C16.5024 3.76653 16.1144 2.98328 16.1775 2.21814C16.2272 1.22663 17.0484 0.35736 18.0322 0.239646Z" fill="#7B7B7B"/>
<path d="M50.4985 18.2411C50.8731 18.2229 51.2476 18.2139 51.6221 18.2456C51.6266 20.1154 51.6312 21.9853 51.6221 23.8551C51.2521 23.8913 50.8776 23.8823 50.503 23.8596C50.4805 21.9853 50.485 20.1154 50.4985 18.2411Z" fill="#7B7B7B"/>
<path d="M0.12235 18.5349C0.487859 18.4851 0.862393 18.4987 1.2279 18.5214C1.26851 18.9107 1.24144 19.3046 1.25047 19.694C1.24144 21.0794 1.26851 22.4693 1.23693 23.8547C0.921055 23.8909 0.600671 23.8728 0.284798 23.8728C0.221624 23.8683 0.1043 23.8637 0.117837 23.7732C0.12235 22.0256 0.108812 20.2825 0.12235 18.5349Z" fill="#7B7B7B"/>
<path d="M8.09874 19.11C8.50035 19.0104 8.90196 18.9289 9.29906 18.8384C9.32162 19.2142 9.30357 19.5854 9.30808 19.9612C9.60139 19.9657 9.89921 19.9476 10.1925 19.9748C10.1925 20.2736 10.1925 20.5679 10.1925 20.8667C9.89921 20.8938 9.60139 20.844 9.30808 20.8803C9.30808 21.4054 9.30808 21.9352 9.30808 22.4603C9.30808 22.6505 9.38028 22.8859 9.57432 22.9584C9.75933 23.0217 9.95788 22.981 10.1519 22.9674C10.1745 23.2753 10.1745 23.5877 10.1519 23.9001C9.66457 24.0178 9.11405 24.0721 8.65377 23.8276C8.32436 23.6556 8.13935 23.2843 8.11679 22.9221C8.14387 22.2294 8.14838 21.5322 8.11679 20.8395C7.94532 20.8259 7.77836 20.8123 7.60688 20.8033C7.5753 20.5498 7.58432 20.2917 7.6114 20.0336C7.76482 20.0291 7.91824 20.0336 8.06264 19.9793C8.09874 19.6895 8.06264 19.3998 8.09874 19.11Z" fill="#7B7B7B"/>
<path d="M30.2315 18.956C30.3804 18.9424 30.5248 18.9424 30.6737 18.9424C30.7188 19.2729 30.6241 19.617 30.7324 19.9384C30.7414 19.9475 30.7594 19.9656 30.7685 19.9792C31.0166 20.0924 31.3054 19.9611 31.5626 20.0516C31.6213 20.3006 31.5897 20.5587 31.5762 20.8122C31.3054 20.8439 31.0302 20.8032 30.7594 20.8349L30.7549 20.8801C30.7459 21.3782 30.7549 21.8762 30.7504 22.3697C30.7504 22.5598 30.773 22.7771 30.9264 22.9084C31.1204 23.0443 31.3731 22.9854 31.5942 22.9673C31.6123 23.2797 31.6168 23.5921 31.5987 23.9045C31.0798 24.0177 30.4842 24.081 30.0194 23.7777C29.6449 23.5332 29.5501 23.0578 29.5275 22.6458C29.505 22.0573 29.5275 21.4732 29.514 20.8847C29.3425 20.8892 29.1665 20.8892 28.9951 20.8711C28.9951 20.5723 28.9951 20.278 28.9951 19.9792C29.1665 19.9611 29.3425 19.9611 29.514 19.9656C29.5275 19.6804 29.5185 19.3997 29.532 19.1144C29.7622 19.0556 29.9968 18.9967 30.2315 18.956Z" fill="#7B7B7B"/>
<path d="M4.03296 20.3371C4.45262 19.8708 5.18364 19.7486 5.75221 20.0021C6.14479 20.1741 6.42005 20.568 6.48774 20.9891C6.49225 21.9444 6.49225 22.8997 6.49225 23.855C6.12674 23.8912 5.75672 23.864 5.39121 23.8504C5.34157 23.0898 5.39121 22.3247 5.36414 21.5595C5.36414 21.4735 5.31901 21.3966 5.28291 21.3196C5.19266 21.0751 4.98509 20.8487 4.70532 20.8804C4.38944 20.8487 4.14577 21.0977 4.03747 21.3694C4.0104 21.4282 3.98332 21.4871 3.97881 21.5505C3.95625 22.3202 3.97881 23.0898 3.96978 23.864C3.58623 23.8912 3.20267 23.8866 2.81911 23.8685C2.82362 22.5918 2.80106 21.3105 2.82362 20.0338C3.13949 20.0066 3.45536 20.0112 3.77124 20.0338C3.78477 20.1741 3.7938 20.3145 3.81636 20.4548H3.85697C3.94271 20.4684 3.98332 20.3824 4.03296 20.3371Z" fill="#7B7B7B"/>
<path d="M17.0836 20.7038C17.2732 20.2329 17.7154 19.8526 18.2388 19.8707C18.3065 19.8843 18.4554 19.8526 18.4464 19.9658C18.4464 20.3235 18.4464 20.6812 18.4464 21.0388C18.135 21.0026 17.7831 20.989 17.5304 21.2018C17.3273 21.3557 17.2416 21.6229 17.2416 21.8719C17.2325 22.5465 17.2371 23.2256 17.2416 23.9002C16.8264 23.9138 16.4113 23.9228 15.9961 23.9002C15.9916 22.5917 16.0142 21.2788 15.9736 19.9658C16.3255 19.9522 16.682 19.9522 17.0385 19.9658C17.0521 20.2103 17.0611 20.4593 17.0836 20.7038Z" fill="#7B7B7B"/>
<path d="M20.6179 20.5047C20.997 19.9976 21.6874 19.7441 22.2966 19.9342C22.6621 20.0293 23.0005 20.31 23.1223 20.6722C23.1178 20.9891 23.2712 21.2834 23.2532 21.6003C23.2442 22.3519 23.2577 23.1034 23.2397 23.855C22.8651 23.8731 22.4951 23.8641 22.1206 23.855C22.1025 23.1261 22.1567 22.3972 22.098 21.6728C22.0619 22.4198 22.1206 23.1714 22.0664 23.9184C22.0258 23.3298 22.0619 22.7367 22.0484 22.1436C22.0348 21.795 22.1025 21.4056 21.8949 21.0978C21.746 20.8759 21.4392 20.8352 21.2 20.9076C20.9067 21.0118 20.7307 21.3423 20.7488 21.6456C20.7533 22.3972 20.7488 23.1487 20.7533 23.9003C20.3336 23.9229 19.9185 23.9184 19.4988 23.9048C19.4943 22.5918 19.5079 21.2789 19.4853 19.9659C19.8418 19.9614 20.1983 19.9523 20.5547 19.9795C20.5773 20.1515 20.5863 20.3281 20.6179 20.5047Z" fill="#7B7B7B"/>
<path d="M24.7369 20.2057C25.4769 19.8752 26.3478 19.7439 27.1239 20.0155C27.6248 20.1921 27.9678 20.6946 27.9994 21.2198C27.9407 21.7812 27.9949 22.3426 27.9768 22.9085C27.9903 23.153 27.9362 23.4066 28.04 23.6375C28.0716 23.719 28.0806 23.8095 28.0896 23.9001C27.7151 23.9136 27.336 23.9227 26.957 23.8955C26.9434 23.7642 26.9164 23.6375 26.8758 23.5107C26.402 24.0449 25.5175 24.1626 24.9309 23.7552C24.3037 23.3296 24.2811 22.3245 24.8316 21.831C25.3596 21.3602 26.1041 21.2877 26.781 21.2696C26.8126 21.007 26.605 20.7852 26.3568 20.7444C25.8785 20.6584 25.3776 20.7761 24.9535 21.007C24.8813 20.7444 24.782 20.4818 24.7369 20.2057ZM25.8559 22.2656C25.5987 22.4513 25.5897 22.9176 25.883 23.0715C26.2215 23.2436 26.6908 23.0444 26.7945 22.6731C26.8352 22.4694 26.8216 22.2566 26.8036 22.0483C26.4877 22.0529 26.1267 22.0619 25.8559 22.2656Z" fill="#7B7B7B"/>
<path d="M36.9384 19.898C37.5521 19.821 38.2245 19.9342 38.6983 20.3552C39.6594 21.2019 39.5512 22.9902 38.4456 23.6648C37.5431 24.2217 36.1894 24.0858 35.5441 23.1985C35.0748 22.5194 35.0567 21.5595 35.4538 20.8397C35.7471 20.3009 36.3383 19.9704 36.9384 19.898ZM37.1641 20.7536C36.7534 20.8034 36.5368 21.229 36.4827 21.6003C36.424 22.0394 36.4556 22.542 36.7579 22.8951C37.0242 23.203 37.5747 23.1894 37.8093 22.8453C38.1207 22.3971 38.1252 21.7904 37.9582 21.2834C37.859 20.9529 37.516 20.6903 37.1641 20.7536Z" fill="#7B7B7B"/>
<path d="M41.6384 20.5089C42.1302 19.7664 43.3351 19.6306 43.9307 20.3142C44.2285 20.6674 44.3188 21.1473 44.3143 21.5955C44.3098 22.3652 44.3233 23.1394 44.3052 23.909C43.8901 23.909 43.4795 23.9181 43.0643 23.9C43.0688 23.162 43.0643 22.424 43.0643 21.6906C43.0643 21.4099 42.9966 21.0748 42.7259 20.93C42.3107 20.7262 41.7873 21.0477 41.7692 21.5095C41.7467 22.3108 41.7783 23.1122 41.7557 23.9136C41.7106 23.1258 41.7738 22.3289 41.7241 21.5412C41.6474 22.3063 41.7286 23.0805 41.6835 23.8456C41.318 23.8954 40.948 23.8728 40.5825 23.8547C40.5419 22.6323 40.6005 21.4099 40.5509 20.1875C40.5419 20.1105 40.587 20.0245 40.6727 20.0335C40.9435 20.0245 41.2232 20.0018 41.4895 20.0471C41.5391 20.1875 41.5436 20.3369 41.6113 20.4727C41.6203 20.4817 41.6294 20.4999 41.6384 20.5089Z" fill="#7B7B7B"/>
<path d="M45.7353 20.2239C46.1865 19.9794 46.701 19.8979 47.2063 19.8662C47.6441 19.8753 48.1043 19.9251 48.4653 20.1967C48.8444 20.4729 49.0249 20.9573 49.0339 21.4146C49.061 22.2431 49.0023 23.0762 49.0926 23.9047C48.7225 23.9092 48.348 23.9228 47.978 23.9002C47.9554 23.7689 47.9283 23.6421 47.8968 23.5153C47.3417 24.1492 46.1956 24.199 45.6766 23.4972C45.2931 22.9766 45.4104 22.1571 45.9248 21.7677C46.4483 21.3512 47.1477 21.2969 47.793 21.2742C47.811 21.0343 47.6486 20.8124 47.4184 20.7626C46.9221 20.6495 46.4076 20.7853 45.9609 21.0117C45.8932 20.7445 45.8165 20.4865 45.7353 20.2239ZM46.8499 22.2793C46.6197 22.4604 46.6107 22.8634 46.8454 23.04C47.1883 23.2618 47.7163 23.0581 47.8155 22.6551C47.8516 22.4514 47.8291 22.2431 47.8291 22.0394C47.4997 22.053 47.1251 22.0575 46.8499 22.2793Z" fill="#7B7B7B"/>
<path d="M32.826 20.0296C33.1916 20.0296 33.5526 20.0206 33.9181 20.0387C33.9496 21.3063 33.9226 22.5786 33.9316 23.8508C33.5661 23.8915 33.1961 23.8644 32.826 23.8508C32.8035 22.5786 32.7945 21.3018 32.826 20.0296Z" fill="#7B7B7B"/>
<path d="M11.4459 20.6675C12.0686 19.7484 13.5667 19.5764 14.3474 20.3822C14.758 20.8395 14.8934 21.496 14.8257 22.0981C14.7986 22.1525 14.767 22.2023 14.7355 22.2566C14.1127 22.2838 13.49 22.2611 12.8673 22.2702C12.6642 22.2792 12.4476 22.2204 12.2581 22.3155C12.213 22.5962 12.4567 22.8497 12.7003 22.9493C13.2644 23.1893 13.8961 23.0625 14.4692 22.9267C14.5098 23.2074 14.5775 23.479 14.6226 23.7597C14.0766 23.9544 13.49 24.0223 12.9124 23.9861C12.3123 23.9453 11.6941 23.6828 11.3601 23.1621C10.9044 22.406 10.954 21.3873 11.4459 20.6675ZM12.2401 21.4869C12.7184 21.4824 13.2012 21.4824 13.6795 21.4869C13.7247 21.1112 13.4539 20.6901 13.0523 20.6946C12.6056 20.6358 12.231 21.0614 12.2401 21.4869Z" fill="#7B7B7B"/>
</g>
<defs>
<clipPath id="clip0_1_745">
<rect width="51.6" height="24" fill="white" transform="translate(0.0263062)"/>
</clipPath>
</defs>
</svg>
