<svg width="85" height="24" viewBox="0 0 85 24" fill="none" xmlns="http://www.w3.org/2000/svg">
<g clip-path="url(#clip0_1_725)">
<path d="M9.45779 13.5966H3.23647V20.133H0.288208V4.0166H3.23647V10.7775H9.45779V4.0166H12.406V20.133H9.45779V13.5966Z" fill="#7B7B7B"/>
<path d="M21.8493 14.9189C21.8493 16.2661 20.7499 17.3638 19.4007 17.3638C18.0515 17.3638 16.9522 16.2661 16.9522 14.9189V8.0332H14.1788V14.9438C14.3787 17.8378 16.8772 20.0083 19.7755 19.8087C22.399 19.634 24.4727 17.5633 24.6476 14.9438V8.0332H21.8493V14.9189Z" fill="#7B7B7B"/>
<path d="M42.5644 8.73178C42.5644 7.30974 43.5138 6.86068 44.5382 6.86068C45.3627 6.86068 46.4621 7.48438 47.1866 8.25777L49.0106 6.11224C48.0861 4.86483 46.2372 4.0166 44.7131 4.0166C41.6649 4.0166 39.4912 5.78791 39.4912 8.73178C39.4912 14.1954 46.1872 12.474 46.1872 15.5176C46.1872 16.4657 45.2628 17.289 44.2134 17.289C42.5644 17.289 42.0147 16.4906 41.2651 15.6174L39.2413 17.738C40.5406 19.3347 42.1396 20.133 44.0635 20.133C46.9368 20.133 49.2604 18.3368 49.2604 15.5176C49.2604 9.48022 42.5644 11.3513 42.5644 8.73178Z" fill="#7B7B7B"/>
<path d="M83.9146 17.5636C82.2655 17.5636 81.7908 16.8401 81.7908 15.7673V10.9274H84.3643V8.4825H81.7908V5.23926L78.9425 6.51161V16.391C78.9425 18.9108 80.6915 20.1831 83.0651 20.1831C83.4398 20.1831 83.8146 20.1582 84.1894 20.1083L84.889 17.5636C84.5892 17.5386 84.2394 17.5636 83.9146 17.5636Z" fill="#7B7B7B"/>
<path d="M32.4944 8.1079C31.2701 8.058 30.0708 8.53201 29.2213 9.43014V4.11621H26.423V13.9457C26.423 17.638 29.0964 20.1578 32.0946 20.1578C35.4177 20.1578 38.3409 17.5881 38.3409 14.1204C38.3159 10.7025 35.6175 8.1079 32.4944 8.1079ZM32.4694 17.3387C30.7204 17.3387 29.2963 15.9166 29.2963 14.1703C29.2963 12.4239 30.7204 11.0019 32.4694 11.0019C34.2184 11.0019 35.6425 12.4239 35.6425 14.1703C35.6675 15.9166 34.2434 17.3387 32.4694 17.3387Z" fill="#7B7B7B"/>
<path d="M62.9269 13.971C62.9269 10.5032 60.0036 7.93359 56.6806 7.93359C53.6823 7.93359 51.0089 10.4533 51.0089 14.1457V24.0001H53.8073V18.6862C54.6568 19.5843 55.856 20.0583 57.1053 19.9835C60.2285 20.0084 62.9269 17.3889 62.9269 13.971ZM60.2534 13.9461C60.2534 15.6924 58.8293 17.1145 57.0803 17.1145C55.3314 17.1145 53.9072 15.6924 53.9072 13.9461C53.9072 12.1997 55.3314 10.7777 57.0803 10.7777C58.8293 10.7777 60.2534 12.1997 60.2534 13.9461Z" fill="#7B7B7B"/>
<path d="M71.9698 7.80866V5.01448C72.7193 4.66521 73.219 3.89182 73.219 3.06854V2.99369C73.219 1.79619 72.2446 0.823214 71.0453 0.823214H70.9953C69.7961 0.823214 68.8216 1.79619 68.8216 2.99369V3.06854C68.8216 3.91677 69.3213 4.66521 70.0709 5.01448V7.83361C68.9965 8.00824 67.9971 8.43236 67.1476 9.10596L59.4272 3.09348C59.4772 2.8939 59.5021 2.69432 59.5271 2.49473C59.5521 1.12259 58.4528 -7.12752e-05 57.1036 -7.12752e-05C55.7294 -0.0250193 54.605 1.07269 54.605 2.41989C54.58 3.79203 55.6794 4.91469 57.0286 4.91469C57.4783 4.91469 57.9031 4.8149 58.2779 4.59037L65.8734 10.528C64.4742 12.6486 64.4992 15.3929 65.9733 17.4635L63.6747 19.7588C63.4998 19.7089 63.2999 19.659 63.1 19.659C62.0007 19.659 61.1012 20.5571 61.1012 21.6548C61.1012 22.7525 62.0007 23.6507 63.1 23.6507C64.1994 23.6507 65.0988 22.7525 65.0988 21.6548C65.0988 21.4552 65.0738 21.2806 64.9989 21.081L67.2975 18.8107C69.9959 20.8814 73.8686 20.3825 75.9424 17.6631C78.0162 14.9438 77.5165 11.1018 74.7931 9.03111C73.9936 8.40741 73.0191 7.9833 71.9698 7.80866ZM71.0203 17.0644C69.2714 17.0644 67.8472 15.6423 67.8472 13.896C67.8472 12.1496 69.2714 10.7276 71.0203 10.7276C72.7693 10.7276 74.1935 12.1496 74.1935 13.896C74.1935 15.6423 72.7693 17.0644 71.0203 17.0644Z" fill="#7B7B7B"/>
</g>
<defs>
<clipPath id="clip0_1_725">
<rect width="84.6" height="24" fill="white" transform="translate(0.288208)"/>
</clipPath>
</defs>
</svg>
