<svg width="50" height="24" viewBox="0 0 50 24" fill="none" xmlns="http://www.w3.org/2000/svg">
<g clip-path="url(#clip0_1_739)">
<path d="M3.48603 0.000488281C5.47194 0.000488281 6.69786 1.39432 6.69786 3.15065C6.69786 4.9084 5.47194 6.30184 3.48603 6.30184C1.50012 6.30184 0.273987 4.9084 0.273987 3.15065C0.273987 1.39432 1.50012 0.000488281 3.48603 0.000488281ZM35.2148 9.47412C35.8474 10.4942 37.106 12.7136 38.3808 14.9135C39.2047 16.3358 40.0924 17.9118 40.5734 18.8194C42.039 16.3365 43.683 12.3416 44.7634 8.78542C44.872 8.42914 45.0418 8.25644 45.3538 8.25644C45.5201 8.25644 45.8006 8.32498 46.5706 8.55797C47.034 8.69731 47.9588 8.97785 48.303 9.08571C48.6576 9.19644 48.806 9.37387 48.806 9.60006C48.806 9.82112 48.6782 10.1729 48.4974 10.6557C47.0577 14.5147 45.0585 18.7088 42.7138 22.2551C41.8194 23.6078 40.8269 24.0005 39.1746 24.0005C37.4286 24.0005 36.6485 23.5403 35.7915 22.288C35.2098 21.4374 34.6034 20.5031 33.7833 19.2467L33.7832 19.2468C31.9368 22.2389 28.7732 23.9994 24.4691 23.9994C21.2125 23.9994 18.2634 23.0107 16.6373 21.5466C14.9828 23.0587 12.1828 23.9993 9.49675 23.9993C6.80703 23.9993 3.97723 23.268 2.32039 21.6299C1.04641 20.37 0.316374 18.7707 0.316374 15.971V8.95594C0.316374 8.60912 0.440404 8.46382 0.815622 8.46382H6.14825C6.52822 8.46382 6.6558 8.61428 6.6558 8.95348V16.7132C6.6558 17.9541 6.92716 18.7939 7.50547 19.3982C8.06067 19.978 8.99172 20.324 10.0416 20.324C11.1173 20.324 12.0955 19.9659 12.7178 19.3048C13.4256 18.5521 13.7469 17.4783 13.7469 15.497L13.7466 3.58491C13.7466 3.00282 13.8998 2.59984 14.2313 2.30054C14.7207 1.85989 15.7111 1.64435 16.9164 1.64435C18.1045 1.64435 19.1121 1.85985 19.6013 2.30054C19.933 2.59981 20.0868 2.99993 20.0868 3.58447V8.4632H25.1012C25.481 8.4632 25.6136 8.61448 25.6136 8.95389V11.9367C25.6136 12.2763 25.481 12.4266 25.1012 12.4266H22.2859C21.4083 12.4266 20.6799 12.299 20.0869 12.0483V14.0495L20.0854 14.2259L20.0869 14.0497L20.0884 15.1457C20.0884 16.9922 20.4802 18.0975 21.2901 18.9191C22.1388 19.7814 23.4419 20.2554 25.129 20.2554C28.6851 20.2554 30.5268 18.0463 30.5268 15.6085C30.5268 14.6384 30.2403 13.8481 29.6694 12.8791L29.6533 12.8549C29.1431 11.9922 29.0065 11.6273 29.0065 11.1407C29.0065 9.70657 31.573 8.16881 33.3059 8.16881C33.925 8.16881 34.3198 8.31721 34.7397 8.80668C34.8547 8.94942 34.9908 9.11305 35.2145 9.47366L35.2148 9.47412Z" fill="#7B7B7B"/>
<path d="M3.48603 0.000488281C5.47194 0.000488281 6.69786 1.39432 6.69786 3.15065C6.69786 4.9084 5.47194 6.30184 3.48603 6.30184C1.50012 6.30184 0.273987 4.9084 0.273987 3.15065C0.273987 1.39432 1.50012 0.000488281 3.48603 0.000488281ZM35.2148 9.47412C35.8474 10.4942 37.106 12.7136 38.3808 14.9135C39.2047 16.3358 40.0924 17.9118 40.5734 18.8194C42.039 16.3365 43.683 12.3416 44.7634 8.78542C44.872 8.42914 45.0418 8.25644 45.3538 8.25644C45.5201 8.25644 45.8006 8.32498 46.5706 8.55797C47.034 8.69731 47.9588 8.97785 48.303 9.08571C48.6576 9.19644 48.806 9.37387 48.806 9.60006C48.806 9.82112 48.6782 10.1729 48.4974 10.6557C47.0577 14.5147 45.0585 18.7088 42.7138 22.2551C41.8194 23.6078 40.8269 24.0005 39.1746 24.0005C37.4286 24.0005 36.6485 23.5403 35.7915 22.288C35.2098 21.4374 34.6034 20.5031 33.7833 19.2467L33.7832 19.2468C31.9368 22.2389 28.7732 23.9994 24.4691 23.9994C21.2125 23.9994 18.2634 23.0107 16.6373 21.5466C14.9828 23.0587 12.1828 23.9993 9.49675 23.9993C6.80703 23.9993 3.97723 23.268 2.32039 21.6299C1.04641 20.37 0.316374 18.7707 0.316374 15.971V8.95594C0.316374 8.60912 0.440404 8.46382 0.815622 8.46382H6.14825C6.52822 8.46382 6.6558 8.61428 6.6558 8.95348V16.7132C6.6558 17.9541 6.92716 18.7939 7.50547 19.3982C8.06067 19.978 8.99172 20.324 10.0416 20.324C11.1173 20.324 12.0955 19.9659 12.7178 19.3048C13.4256 18.5521 13.7469 17.4783 13.7469 15.497L13.7466 3.58491C13.7466 3.00282 13.8998 2.59984 14.2313 2.30054C14.7207 1.85989 15.7111 1.64435 16.9164 1.64435C18.1045 1.64435 19.1121 1.85985 19.6013 2.30054C19.933 2.59981 20.0868 2.99993 20.0868 3.58447V8.4632H25.1012C25.481 8.4632 25.6136 8.61448 25.6136 8.95389V11.9367C25.6136 12.2763 25.481 12.4266 25.1012 12.4266H22.2859C21.4083 12.4266 20.6799 12.299 20.0869 12.0483V14.0495L20.0854 14.2259L20.0869 14.0497L20.0884 15.1457C20.0884 16.9922 20.4802 18.0975 21.2901 18.9191C22.1388 19.7814 23.4419 20.2554 25.129 20.2554C28.6851 20.2554 30.5268 18.0463 30.5268 15.6085C30.5268 14.6384 30.2403 13.8481 29.6694 12.8791L29.6533 12.8549C29.1431 11.9922 29.0065 11.6273 29.0065 11.1407C29.0065 9.70657 31.573 8.16881 33.3059 8.16881C33.925 8.16881 34.3198 8.31721 34.7397 8.80668C34.8547 8.94942 34.9908 9.11305 35.2145 9.47366L35.2148 9.47412Z" fill="#7B7B7B"/>
</g>
<defs>
<clipPath id="clip0_1_739">
<rect width="48.6" height="24" fill="white" transform="translate(0.426331)"/>
</clipPath>
</defs>
</svg>
