<svg width="88" height="24" viewBox="0 0 88 24" fill="none" xmlns="http://www.w3.org/2000/svg">
<g clip-path="url(#clip0_1_800)">
<path d="M36.4351 21.6313H36.6014C37.1339 21.6313 37.7111 21.5315 37.7111 20.8689C37.7111 20.2177 37.0891 20.141 36.5737 20.141H36.4351V21.6313ZM36.4351 23.8405H35.913V19.6758H36.5122C37.7998 19.6758 38.1993 20.1182 38.1993 20.8804C38.1993 21.7583 37.5285 22.0943 36.7337 22.0943H36.4351V23.8405Z" fill="#7B7B7B"/>
<path d="M41.2554 20.6373L40.5117 22.3204H41.999L41.2554 20.6373ZM40.2959 22.7964L39.8178 23.84H39.2568L41.2554 19.499L43.253 23.84H42.6923L42.2157 22.7964H40.2959Z" fill="#7B7B7B"/>
<path d="M45.5089 21.6474H45.6751C46.2087 21.6474 46.7855 21.5473 46.7855 20.885C46.7855 20.2335 46.1647 20.1405 45.6481 20.1405H45.5089V21.6474ZM47.5902 23.84H46.9579L45.7256 22.0778H45.5089V23.84H44.9872V19.6753H45.6208C45.9922 19.6753 46.3915 19.6813 46.7242 19.8685C47.0746 20.0741 47.2735 20.4654 47.2735 20.8635C47.2735 21.4601 46.8745 21.9569 46.2699 22.0276L47.5902 23.84Z" fill="#7B7B7B"/>
<path d="M49.6866 19.6753H50.2079V23.84H49.6866V19.6753Z" fill="#7B7B7B"/>
<path d="M54.4237 20.4656C54.2685 20.2065 54.0681 20.0743 53.7525 20.0743C53.4198 20.0743 53.0536 20.3002 53.0536 20.6646C53.0536 20.9909 53.3753 21.1612 53.6365 21.2607L53.9358 21.3774C54.5286 21.6084 54.9732 21.9343 54.9732 22.631C54.9732 23.3872 54.385 23.9288 53.6365 23.9288C52.9593 23.9288 52.4314 23.4319 52.3427 22.763L52.8703 22.6526C52.8642 23.1107 53.2309 23.4417 53.6807 23.4417C54.1296 23.4417 54.4511 23.0671 54.4511 22.631C54.4511 22.1826 54.091 21.9896 53.7308 21.8417L53.4414 21.7196C52.9646 21.5147 52.5317 21.2452 52.5317 20.6646C52.5317 19.991 53.1311 19.5869 53.764 19.5869C54.2298 19.5869 54.6129 19.8139 54.8406 20.2176L54.4237 20.4656Z" fill="#7B7B7B"/>
<path d="M13.6884 0.194192C13.5918 -0.0112199 13.471 -0.037514 13.2405 0.0420743L12.5695 0.267604C11.642 0.597427 10.8464 1.30719 10.1894 1.9259C7.08151 4.90154 2.54759 12.509 0.252435 18.2381C0.0917758 18.632 0.0536499 18.8164 0.0536499 18.9258C0.0536499 19.2301 0.343581 19.3527 0.845951 19.2751C2.87795 14.3891 7.17727 5.82431 11.1155 2.3256L11.6637 1.84684H11.7532V2.11507C11.7532 3.04084 11.5404 5.0916 11.2198 6.82472C10.7926 9.06572 10.1739 11.7574 9.97515 12.6643C9.72511 13.7796 9.63556 14.7745 9.63556 15.0474C9.63556 15.3343 9.70685 15.4109 10.0413 15.3728C10.544 15.3135 11.2555 14.9835 11.5023 14.7991C11.7532 14.6 12.0233 14.3717 12.5099 13.3746C13.185 11.9741 15.0584 7.9386 17.2385 5.26402L17.5598 4.86255H17.6419L17.5598 5.37943C17.4497 6.20884 17.2915 7.35907 17.2915 8.78072C17.2915 10.6859 17.4683 12.7413 17.9489 14.0263C18.3023 14.9466 18.7793 15.3343 19.3225 15.3343C19.805 15.3343 20.2087 15.1001 20.5356 14.6828C19.7071 13.5013 19.2499 10.8996 19.2499 8.47296C19.2499 7.12878 19.3022 5.95596 19.4383 4.94302C19.4794 4.64919 19.589 3.90166 19.589 3.51943C19.589 3.28878 19.5585 3.11213 19.3225 3.15713C19.0728 3.17478 18.4285 3.40313 18.1851 3.51943C17.4683 3.82366 17.0427 4.24437 16.0616 5.49749C15.192 6.59213 13.3164 9.57166 11.5848 13.3908H11.5023L12.0233 11.3567C13.2064 6.78537 13.8755 3.7259 13.8755 1.7279C13.8755 0.791016 13.721 0.310486 13.6884 0.194192Z" fill="#7B7B7B"/>
<path d="M26.7574 13.7213V11.4527L25.0823 11.6405C23.9239 11.7764 23.4374 12.0688 23.4374 12.7233C23.4374 13.4433 23.9395 13.8536 25.3084 13.8536C25.7744 13.8536 26.1967 13.7975 26.7574 13.7213ZM22.4758 7.8582C23.1277 7.53561 24.1274 7.37891 25.0403 7.37891C27.5474 7.37891 28.2617 8.74479 28.2617 10.2037V14.6225C27.3362 14.7984 26.1408 14.9101 24.9571 14.9101C23.5165 14.9101 21.8603 14.5445 21.8603 12.7233C21.8603 11.7764 22.3768 10.9507 24.5376 10.6849L26.7574 10.414V10.2443C26.7574 8.97279 26.1408 8.54855 24.8245 8.54855C24.1145 8.54855 23.1887 8.72079 22.4758 9.12296V7.8582Z" fill="#7B7B7B"/>
<path d="M33.1538 7.37891C33.4588 7.37891 34.0395 7.39779 34.41 7.51214V8.72097C33.9438 8.62267 33.5984 8.5482 32.9534 8.5482C32.3728 8.5482 31.9256 8.64685 31.3709 8.81485V14.7988H29.8564V8.08708C30.6091 7.74049 31.5653 7.37891 33.1538 7.37891Z" fill="#7B7B7B"/>
<path d="M39.9426 11.1051C39.9426 12.7408 40.8287 13.7317 42.4678 13.7317C43.5367 13.7317 44.8278 13.0849 44.8278 11.184C44.8278 9.55095 43.9403 8.54842 42.2999 8.54842C41.2132 8.54842 39.9426 9.20559 39.9426 11.1051ZM42.4919 7.37842C44.9091 7.37842 46.3871 9.03283 46.3871 11.1051C46.3871 13.3375 44.8654 14.9102 42.3564 14.9102C39.9529 14.9102 38.3954 13.2531 38.3954 11.1641C38.3954 8.93859 39.9529 7.37842 42.4919 7.37842Z" fill="#7B7B7B"/>
<path d="M51.0968 7.37891C53.4808 7.37891 54.5533 8.12891 54.5533 10.4747V14.7988H53.0522V10.5709C53.0522 8.89761 52.1463 8.5482 50.8269 8.5482C50.2701 8.5482 49.7493 8.66591 49.193 8.84273V14.7988H47.6806V8.07191C48.4351 7.68491 49.9018 7.37891 51.0968 7.37891Z" fill="#7B7B7B"/>
<path d="M59.5695 7.37891C61.9439 7.37891 63.027 8.12891 63.027 10.4747V14.7988H61.5172V10.5709C61.5172 8.89761 60.6288 8.5482 59.3184 8.5482C58.7538 8.5482 58.2152 8.66591 57.6554 8.84273V14.7988H56.1513V8.07191C56.9243 7.68491 58.3688 7.37891 59.5695 7.37891Z" fill="#7B7B7B"/>
<path d="M86.1431 13.5309V8.85968C85.6435 8.66539 85.1201 8.54909 84.5054 8.54909C83.29 8.54909 81.7251 8.92004 81.7251 11.1272C81.7251 13.0239 82.9769 13.7319 84.5994 13.7319C85.1201 13.7319 85.6038 13.6629 86.1431 13.5309ZM84.5054 14.9103C81.7824 14.9103 80.1767 13.5467 80.1767 11.2992C80.1767 8.61192 82.1346 7.37874 84.3664 7.37874C85.1201 7.37874 85.6854 7.49433 86.1431 7.68474V3.50098H87.6481V14.5447C86.5311 14.7988 85.5682 14.9103 84.5054 14.9103Z" fill="#7B7B7B"/>
<path d="M64.9208 7.85873C65.582 7.53596 66.5836 7.37891 67.487 7.37891C69.9952 7.37891 70.7105 8.74532 70.7105 10.2038V14.623C69.787 14.799 68.5962 14.9105 67.4083 14.9105C65.9585 14.9105 64.3056 14.5443 64.3056 12.7237C64.3056 11.7769 64.8236 10.951 66.9852 10.6858L69.2114 10.4147V10.2446C69.2114 8.97332 68.5962 8.54873 67.2776 8.54873C66.5628 8.54873 65.6388 8.72132 64.9208 9.12349V7.85873ZM69.1889 13.7216V11.4531L67.5133 11.641C66.3475 11.7769 65.8672 12.0691 65.8672 12.7237C65.8672 13.444 66.3855 13.854 67.7403 13.854C68.1992 13.854 68.629 13.7978 69.1889 13.7216Z" fill="#7B7B7B"/>
<path d="M35.5829 14.7985L35.5849 7.51172L37.0977 7.51212L37.0957 14.7989L35.5829 14.7985Z" fill="#7B7B7B"/>
<path d="M35.5854 4.42383H37.0927V5.84265H35.5854V4.42383Z" fill="#7B7B7B"/>
<path d="M75.5216 14.9305C73.1385 14.9305 72.1201 14.1805 72.1201 11.833V7.51172H73.6211V11.7387C73.6211 13.4106 74.473 13.7593 75.7906 13.7593C76.3479 13.7593 76.8157 13.643 77.3706 13.4651V7.51172H78.8828V14.2367C78.1262 14.6242 76.7178 14.9305 75.5216 14.9305Z" fill="#7B7B7B"/>
</g>
<defs>
<clipPath id="clip0_1_800">
<rect width="87.6" height="24" fill="white" transform="translate(0.0536499)"/>
</clipPath>
</defs>
</svg>
