<svg width="115" height="24" viewBox="0 0 115 24" fill="none" xmlns="http://www.w3.org/2000/svg">
<g clip-path="url(#clip0_1_798)">
<path d="M13.2842 10.6798C13.2842 8.79407 10.2442 8.60551 8.7812 8.60551C7.0522 8.60551 5.1902 8.93122 3.6512 9.46265C2.3972 9.89122 0.744202 10.6626 0.744202 12.0684C0.744202 13.9026 3.8222 14.8798 6.1212 15.5312C8.6862 16.2512 10.3962 16.9369 10.3962 17.5198C10.3962 18.5655 7.5462 18.5826 6.9002 18.5826C4.2212 18.5826 2.5302 18.0855 2.3022 18.0855C1.7892 18.0855 1.5042 19.3369 2.0172 19.4741C3.5752 19.8855 5.1142 20.0569 6.5962 20.0569C10.2062 20.0569 12.2012 19.1484 12.2012 17.4341C12.2012 16.0455 9.9592 15.0855 7.2422 14.2798C5.1712 13.6626 2.5492 13.1141 2.5492 12.0684C2.5492 11.4341 3.5372 11.0226 4.2972 10.7655C5.5892 10.3026 7.2042 10.0798 8.6482 10.0798C9.0852 10.0798 11.4982 10.0798 11.4982 10.7998C11.4982 10.9884 11.3462 11.1426 11.0422 11.4169C10.7192 11.7084 11.5362 12.6341 12.1062 12.3598C12.7332 12.0684 13.2842 11.4855 13.2842 10.6798ZM29.6622 18.9426C29.6812 19.2684 29.7002 19.6112 29.7002 19.9026V21.9426C29.7002 22.2855 29.5482 22.5084 28.7882 22.5084C28.1232 22.5084 28.0282 22.2169 28.0282 22.0284V16.7484C28.0282 16.4398 28.3702 16.1826 28.9402 16.1826C29.3012 16.1826 29.7002 16.3541 29.7002 16.9712C29.7002 17.6741 30.4222 18.2055 31.9992 18.2055C32.6452 18.2055 33.3862 18.2569 33.8422 17.9141C34.2412 17.6226 34.2602 17.0741 34.2602 16.2341C34.2602 14.6912 33.8802 14.1426 31.6572 14.1426C30.6502 14.1426 29.5292 14.0912 28.5792 14.5026C26.4892 15.4112 25.8242 19.5941 23.4302 19.5941C22.0242 19.5941 21.0742 18.0512 20.8652 15.7712H20.8082C20.1622 17.9655 19.2122 19.5941 17.4642 19.5941C14.8992 19.5941 14.1012 16.1998 13.8352 13.4569C13.7972 13.0969 13.8922 12.8569 14.8992 12.8055C15.2412 12.7884 15.5262 12.8398 15.5452 13.0969C15.7732 15.8569 16.2862 18.2055 17.5782 18.2055C18.9842 18.2055 19.8962 14.3998 20.2002 13.1998C20.3332 12.6512 21.9862 12.7198 22.0052 13.3198C22.0622 14.6055 22.3472 18.2398 23.6202 18.2398C24.6462 18.2398 25.6532 14.3998 28.0852 13.3198C28.7502 13.0284 29.5292 12.7884 31.5622 12.7884C32.4362 12.7884 33.9752 12.8398 34.9632 13.4226C35.6472 13.8341 35.9512 14.7255 35.9512 16.2169C35.9512 18.5484 34.9442 19.5598 32.3412 19.5598C31.0872 19.5598 30.2132 19.3712 29.6622 18.8912V18.9426ZM98.6322 21.9426C99.9812 21.9426 101.159 20.5541 101.311 19.3369C99.5442 19.2512 97.6252 20.0569 97.6252 21.1712C97.6252 21.5141 98.0242 21.9426 98.6322 21.9426ZM72.8872 14.5541C73.3242 14.5541 72.6022 19.5941 74.8822 19.5941C77.5042 19.5941 77.2762 14.2798 79.7462 14.2626C79.9932 14.2626 80.5442 14.2969 80.6012 14.2969C80.9242 14.2969 81.0382 14.0569 81.1522 13.5255C81.2852 12.9598 80.9242 12.7712 79.9742 12.7712C77.8272 12.7712 77.0862 14.2112 76.6112 15.1026C75.7372 16.7484 75.3762 18.2912 75.0532 18.2912C74.2362 18.2912 75.3762 12.9941 73.0772 12.9941C70.9872 12.9941 70.0562 18.1712 68.4982 18.1712C68.0422 18.1712 67.8332 17.0912 67.8332 15.8741V10.0112C67.8332 9.66836 67.6622 9.47979 66.9212 9.47979C66.2562 9.47979 66.1232 9.77122 66.1232 9.95979V12.1369C66.1232 12.5312 66.1422 13.1655 66.1802 13.4569L66.1422 13.4741C65.5722 13.0798 64.1852 12.8398 62.8362 12.8398C59.7202 12.8398 58.7132 13.5426 58.7132 16.1484C58.7132 17.8798 59.0362 18.3769 59.6252 18.8569C60.4612 19.5255 61.7342 19.5941 62.7602 19.6112C63.7292 19.6112 64.9832 19.5426 65.3822 19.3198C65.6292 19.1826 65.6292 19.0112 65.6292 18.8569C65.6292 18.4798 65.4582 18.0169 65.0592 18.0341C64.7932 18.0341 64.2042 18.2226 62.6652 18.2226C60.8222 18.2226 60.5372 17.8112 60.5372 16.2684C60.5372 14.5369 60.8982 14.2112 63.1212 14.2112C64.5082 14.2112 65.5152 14.4169 65.8382 14.8969C66.1422 15.3255 66.0852 15.4455 66.2372 17.1084C66.3702 18.4455 66.9972 19.6112 68.2132 19.6112C70.8732 19.5941 72.2222 14.5541 72.8872 14.5541ZM95.6492 17.8112C94.6802 17.6055 93.2172 17.1598 93.2172 15.4969C93.2172 13.5598 94.4902 12.8226 97.8912 12.8226C99.6962 12.8226 100.874 13.0798 101.805 13.6969C103.021 14.4855 103.135 16.7484 103.097 17.9998C103.686 17.9826 104.674 17.9998 105.168 17.9998C105.7 17.9998 105.757 18.3255 105.757 18.6169C105.757 18.9426 105.719 19.3884 105.244 19.3884C104.503 19.3884 103.04 19.3541 102.888 19.3712C102.356 21.4455 100.722 23.2284 98.5942 23.2284C97.2452 23.2284 95.9912 22.5426 95.9912 21.2398C95.9912 19.4055 98.5942 18.1369 101.444 18.0684C101.482 17.4169 101.387 15.9941 101.121 15.4112C100.57 14.2798 99.3542 14.1598 97.9102 14.1598C95.1552 14.1598 94.9652 14.6741 94.9652 15.6169C94.9652 17.1255 97.3212 16.7484 97.3212 17.7255C97.3212 18.8055 94.7942 19.4569 93.6922 19.4398C90.8422 19.4226 89.4362 17.7941 89.1702 15.5826H89.0942C88.4292 17.7941 87.3842 19.6284 85.5982 19.6284C83.2232 19.6284 82.2162 16.2855 82.1402 13.4912C82.1212 13.1312 82.2732 12.8912 82.9002 12.8569C83.5082 12.8226 83.8122 12.9769 83.8122 13.3541C83.8882 16.3026 84.7622 18.2398 85.8072 18.2398C86.8712 18.2398 87.7262 15.8912 88.4102 13.2512C88.5622 12.6855 90.0822 12.7541 90.1012 13.3541C90.1962 16.5598 91.2602 18.3084 93.5972 18.3084C94.4522 18.3084 94.9652 18.1712 95.6302 17.8798V17.8112H95.6492ZM50.4672 14.7941C50.8282 14.7941 49.7262 19.5941 52.0442 19.5941C54.7042 19.5941 54.6472 14.2455 56.8322 14.2455C57.2502 14.2455 57.4592 14.2798 57.6112 14.2798C58.1052 14.2798 58.2192 13.8684 58.2192 13.4055C58.2192 12.8398 58.0672 12.7369 57.1172 12.7369C55.0652 12.7369 54.2862 14.1769 53.9822 14.8455C53.4882 15.9084 52.6142 18.2912 52.2532 18.2912C51.8732 18.2912 51.8732 16.6969 51.8732 15.8226C51.8732 14.8969 51.9872 13.2684 50.6572 13.2684C49.0422 13.2684 48.7192 16.4741 46.2872 17.6741C45.3752 18.1369 44.0072 18.4284 42.3922 18.4284C39.6942 18.4284 39.2002 18.1026 39.2002 16.1312C39.2002 15.4626 39.1432 14.9998 39.4282 14.6398C39.8652 14.0912 41.3282 14.0741 42.0692 14.0741C43.8552 14.0741 44.0452 14.3484 44.0452 14.9655C44.0452 15.7026 43.8362 15.7712 42.8292 15.7712C42.4682 15.7712 41.8412 15.7369 41.8412 16.2512C41.8412 16.7826 42.0312 16.8512 42.7722 16.8512C44.2732 16.8512 45.7172 16.2855 45.7172 14.8626C45.7172 13.3884 45.1282 12.7712 41.9172 12.7712C40.2452 12.7712 38.0222 12.9941 37.6042 14.6569C37.4902 15.1369 37.4522 15.9598 37.4522 16.3884C37.4522 18.9598 38.9342 19.6112 42.5632 19.6112C44.5962 19.6112 46.0972 19.2684 47.1992 18.5655C49.4982 17.1598 50.1442 14.7941 50.4672 14.7941ZM108.151 1.95407C108.455 2.70836 109.215 4.21693 109.766 4.55979C110.26 4.86836 112.008 4.79979 112.996 4.7655C112.369 5.29693 110.982 5.99979 110.716 6.89122C110.507 7.62836 111.172 9.11979 111.476 9.82264C110.811 9.35979 109.272 8.45122 108.664 8.45122C107.885 8.45122 106.536 9.59979 105.985 10.0455C106.137 9.51408 106.726 7.79979 106.46 7.07979C106.194 6.35979 105.016 5.77693 103.781 5.00551C105.016 4.86836 106.688 4.95408 107.144 4.55979C107.6 4.18265 107.923 2.67407 108.151 1.95407ZM108.645 9.80551C108.626 9.78836 111.628 11.8112 112.692 11.3484C113.775 10.8684 112.274 7.54265 112.255 7.09693C113.053 6.41122 114.725 5.19407 114.725 4.33693C114.725 3.49693 113.338 3.30836 110.678 3.35979C110.241 2.53693 109.025 0.0683594 108.075 0.0683594C107.049 0.0683594 106.289 2.74265 106.137 3.41122C103.686 3.53122 101.805 3.71979 101.805 4.71407C101.805 5.58836 103.743 6.9255 104.902 7.47408C104.712 8.45122 104.104 10.9026 104.788 11.3998C105.662 12.0684 107.752 10.4398 108.645 9.80551Z" fill="#7B7B7B"/>
</g>
<defs>
<clipPath id="clip0_1_798">
<rect width="114" height="24" fill="white" transform="translate(0.744202)"/>
</clipPath>
</defs>
</svg>
