<svg width="103" height="24" viewBox="0 0 103 24" fill="none" xmlns="http://www.w3.org/2000/svg">
<g clip-path="url(#clip0_1_722)">
<path d="M88.0544 0.0327148C82.762 0.0327148 78.4035 4.22489 78.4035 9.48415C78.4035 14.6672 82.6841 18.9356 88.0544 18.9356C93.3468 18.9356 97.7053 14.7434 97.7053 9.48415C97.7053 4.22489 93.3468 0.0327148 88.0544 0.0327148ZM95.5261 4.22489C95.0591 4.52977 94.5143 4.83466 93.9695 5.13954C93.6582 4.52977 93.269 3.92 92.802 3.38645C93.1912 3.15779 93.5803 2.8529 93.8916 2.62424C94.5921 3.00535 95.1369 3.61512 95.5261 4.22489ZM91.4789 1.09981C92.2572 1.4047 92.9577 1.7858 93.6582 2.31935C93.3468 2.62424 92.9577 2.8529 92.5685 3.08157C92.1016 2.54802 91.5567 2.09069 91.0119 1.63336C91.1676 1.4047 91.3233 1.25226 91.4789 1.09981ZM92.2572 3.23401C91.7124 3.53889 91.1676 3.69134 90.6228 3.92C90.3893 3.38645 90.1558 2.8529 89.8445 2.39557C90.1558 2.24313 90.4671 2.09069 90.7006 1.86203C91.2454 2.24313 91.7902 2.70046 92.2572 3.23401ZM91.0898 0.94737C90.9341 1.09981 90.7784 1.25226 90.7006 1.4047C90.1558 1.09981 89.6888 0.794928 89.0662 0.566264C89.7667 0.566264 90.4671 0.718706 91.0898 0.94737ZM90.3893 1.63336C90.1558 1.7858 89.9223 1.93825 89.6888 2.01447C89.3775 1.55714 89.0662 1.17603 88.7549 0.718706C89.2997 0.94737 89.8445 1.25226 90.3893 1.63336ZM88.2101 0.794928C88.5992 1.17603 88.9105 1.63336 89.2219 2.16691C88.9105 2.24313 88.5992 2.31935 88.2101 2.31935V0.794928ZM88.2101 2.70046C88.5992 2.70046 89.0662 2.62424 89.4553 2.4718C89.7667 2.92912 90.0002 3.46267 90.2336 3.99622C89.611 4.14866 88.9105 4.22489 88.2101 4.30111V2.70046ZM87.8209 0.794928V2.31935C87.5096 2.31935 87.1983 2.24313 86.8091 2.16691C87.1983 1.70958 87.5096 1.25226 87.8209 0.794928ZM86.4978 2.01447C86.2643 1.93825 85.953 1.7858 85.7973 1.63336C86.3422 1.32848 86.887 1.02359 87.4318 0.794928C87.0426 1.17603 86.7313 1.55714 86.4978 2.01447ZM87.0426 0.490043C86.4978 0.718706 85.953 1.02359 85.4082 1.32848C85.2525 1.17603 85.0969 1.02359 85.019 0.871149C85.6417 0.718706 86.3421 0.566264 87.0426 0.490043ZM93.6582 16.649C92.4129 15.963 92.335 14.9721 92.4129 14.6672C92.4907 14.2861 92.7242 14.4385 92.8799 14.4385C93.736 14.4385 94.5921 14.2099 95.6817 13.0666C96.927 11.847 97.3162 9.10305 95.3704 7.34996C93.3468 5.44443 91.1676 5.74931 89.7667 7.5024C89.4553 7.88351 88.7549 8.11217 88.2101 8.11217C87.2761 8.11217 87.8987 8.79816 87.8987 8.95061C87.8987 9.10305 87.7431 9.17927 87.6653 9.17927C87.3539 9.10305 87.5096 9.56038 87.5096 9.6366C87.5096 9.71282 87.3539 9.86526 87.3539 9.86526C86.9648 9.86526 87.0426 10.1701 87.1204 10.3226C87.1204 10.3988 87.1205 10.5513 86.9648 10.6275C86.8091 10.7037 86.7313 11.0086 86.7313 11.2372C86.7313 11.6184 87.1204 11.9232 87.7431 12.3806C88.3657 12.8379 88.4436 13.2952 88.4436 13.6001C88.4436 13.905 88.5214 14.4385 88.5992 14.7434C88.7549 15.1245 88.7549 15.8867 87.8987 15.8867C86.8091 15.963 84.9412 16.7252 84.7856 16.8014C84.1629 17.0301 83.3846 17.1063 82.762 16.9538C82.4507 16.7252 82.1393 16.4965 81.828 16.1916C81.6724 15.8105 81.9058 15.3532 82.1393 15.0483C82.5285 15.4294 82.9955 15.3532 83.3068 15.3532C83.6181 15.3532 85.019 15.1245 85.2525 15.0483C85.486 14.9721 85.5638 14.9721 85.6417 15.0483C86.1865 15.277 86.9648 15.277 87.2761 14.2861C87.5874 13.219 86.887 13.5239 86.7313 13.6001C86.6535 13.6763 86.4978 13.6001 86.5756 13.5239C86.7313 13.2952 86.4978 13.2952 86.42 13.2952C86.1087 13.2952 85.7195 13.6001 85.6417 13.6763C85.486 13.7525 85.4082 13.7525 85.3304 13.7525C84.9412 13.5239 83.7738 13.8288 83.3846 13.219C83.3846 13.0666 83.0733 10.5513 82.9176 10.0939C82.9176 10.0177 82.8398 9.86526 82.9955 9.71282C83.3068 9.25549 84.0851 9.71282 84.5521 9.71282C85.0969 9.71282 85.1747 9.48415 85.3304 9.33171C85.486 9.17927 85.5638 9.25549 85.6417 9.17927C85.7195 9.10305 85.6417 9.02683 85.6417 8.95061C85.6417 8.87438 85.7195 8.95061 85.7973 8.87438C85.8752 8.79816 85.7973 8.64572 85.7973 8.5695C85.953 8.34083 86.2643 8.49328 86.1087 8.03595C86.0308 7.73106 86.1865 7.42618 86.3421 7.27374C86.5756 6.96885 87.5874 5.59687 85.8752 4.14866C84.2407 2.77668 82.5285 2.92912 81.4389 4.07244C80.3492 5.21576 80.8941 6.89263 80.9719 7.34996C81.0497 7.80729 80.7384 8.18839 80.3493 8.34083C80.0379 8.49328 79.3375 8.95061 78.8705 9.33171C78.9483 5.67309 81.2054 2.4718 84.6299 1.17603C84.7856 1.32848 84.9412 1.55714 85.0969 1.70958C84.7077 2.01447 83.8516 2.70046 83.8516 2.70046C83.8516 2.70046 83.9294 2.70046 84.0851 2.77668C84.1629 2.77668 84.3186 2.8529 84.3186 2.8529C84.3186 2.8529 85.019 2.24313 85.4082 2.01447C85.6417 2.24313 85.953 2.39557 86.2643 2.54802C86.1087 2.8529 85.6417 3.61512 85.6417 3.61512C85.6417 3.61512 85.7195 3.69134 85.7973 3.69134C85.8752 3.76756 85.953 3.76756 85.953 3.76756C85.953 3.76756 86.42 2.92912 86.5756 2.62424C86.9648 2.77668 87.3539 2.8529 87.7431 2.8529V4.37733C87.5096 4.37733 86.9648 4.37733 86.7313 4.30111H86.5756L86.6535 4.45355C86.7313 4.52977 86.7313 4.60599 86.8091 4.68221H87.7431V7.5024H88.1322V6.81641C88.7549 6.81641 89.2219 6.74019 89.7667 6.66397L90.3115 6.20664H90.0001C89.3775 6.28286 88.8327 6.35908 88.3657 6.35908H88.1322V4.60599C88.8327 4.60599 89.611 4.52977 90.3115 4.30111L90.8563 5.90175L91.2454 5.74931L90.7006 4.14866C91.3233 3.99622 91.8681 3.69134 92.4129 3.46267C92.8799 3.99622 93.269 4.60599 93.5803 5.21576C93.269 5.36821 92.802 5.52065 92.802 5.52065C93.1912 5.59687 93.5025 5.67309 93.5025 5.67309C93.5025 5.67309 93.6582 5.59687 93.736 5.59687C93.736 5.67309 93.8138 5.82553 93.8138 5.82553L94.3586 6.0542L94.2808 5.90175C94.2808 5.90175 94.1251 5.52065 94.0473 5.44443C94.5921 5.21576 95.1369 4.91088 95.6817 4.52977C96.6935 5.97798 97.1605 7.73106 97.1605 9.48415C97.3162 12.3806 95.8374 14.9721 93.6582 16.649ZM77.5474 2.54802L77.3917 2.70046C76.8469 3.15779 75.5238 4.45355 75.7573 5.90175V5.97798L75.8351 6.28286L75.9908 6.13042C76.7691 5.44443 77.3917 4.22489 77.6252 2.8529L77.703 2.4718L77.5474 2.54802ZM74.9012 4.9871L74.8233 5.13954C74.7455 5.3682 74.5898 5.90175 74.512 6.51152C74.3564 7.42618 74.4342 8.79816 75.2125 9.78904L75.2903 9.94148L75.3681 10.0939L75.5238 9.48415C75.6795 8.41706 75.446 6.20664 75.0568 5.21576L74.9012 4.91088V4.9871ZM73.9672 8.79816V8.95061C73.8894 9.86526 73.9672 12.2281 75.9129 13.5239L76.1464 13.6763V13.3714C76.1464 12.4568 75.0568 9.78904 74.2785 8.87438L74.045 8.5695L73.9672 8.79816ZM74.2785 12.9903V13.1428C74.5898 14.5148 75.8351 16.649 77.8587 17.3349L78.17 17.4112L78.0922 17.1063C77.703 16.1154 75.7573 13.7525 74.512 12.9903L74.2785 12.8379V12.9903ZM78.4035 4.60599L78.17 4.68221C76.6912 5.59687 75.9908 6.66397 75.9908 8.03595V8.34083L76.2243 8.18839C77.0026 7.5024 78.0922 5.82553 78.3257 4.91088L78.4035 4.52977V4.60599ZM77.4695 7.5024L77.3917 7.65484C77.0026 8.03595 75.7573 9.33171 75.8351 10.9324C75.8351 11.161 75.9129 11.4659 75.9908 11.6946L76.0686 11.9232L76.2243 11.6946C76.8469 10.8561 77.6252 8.72194 77.5474 7.73107V7.42618L77.4695 7.5024ZM77.5474 10.3226L77.4695 10.475C76.8469 11.3897 76.5356 12.3043 76.5356 13.219C76.5356 13.8288 76.7691 14.4385 77.1582 15.0483L77.3139 15.277L77.3917 15.0483C77.6252 14.5148 77.8587 12.9141 77.8587 11.6184C77.8587 11.161 77.7809 10.7799 77.703 10.5513L77.6252 10.2464L77.5474 10.3226ZM78.2478 13.2952L78.17 13.4477C78.0144 14.0574 77.8587 14.591 77.9365 15.2008C77.9365 16.4203 78.5592 17.4112 79.6488 18.0972L79.8044 18.1734L79.8823 17.9447V17.7161C79.8823 16.7252 79.104 14.1337 78.4813 13.3714L78.3257 13.1428L78.2478 13.2952ZM76.1464 17.2587L76.2243 17.4112C77.0026 18.7069 78.4035 20.46 80.9719 20.0027H81.2054L81.0497 19.8503C80.5827 19.1643 77.4695 17.4112 76.3799 17.2587L76.0686 17.1825L76.1464 17.2587ZM79.9601 20.6125L79.571 20.6887L79.9601 20.8411C81.5945 21.5271 83.6181 21.6796 84.8634 21.2985C85.3304 21.146 85.5639 20.9173 85.8752 20.6125C87.9766 20.8411 89.9223 22.518 91.0898 23.89L91.1676 23.9662H91.2454C91.4011 23.89 91.5568 23.7375 91.6346 23.6613L91.7124 23.5851L91.6346 23.5089C90.4671 21.9844 88.5992 21.0698 88.5214 20.9936C86.8091 20.2314 83.8516 19.6216 79.9601 20.6125Z" fill="#7B7B7B"/>
<path d="M80.0348 16.3444V16.4968C80.2683 18.0213 80.8909 20.003 83.5371 19.7744H83.6928L83.615 19.6219C83.4593 18.9359 81.0466 16.9542 80.1905 16.4206L79.957 16.2682L80.0348 16.3444ZM98.4026 2.39591L98.4805 2.77702C98.714 4.149 99.3366 5.36854 100.115 6.05453L100.271 6.20698L100.348 5.90209V5.82587C100.582 4.37767 99.2588 3.08191 98.714 2.62458L98.5583 2.47214L98.4026 2.39591ZM101.127 4.83499L100.971 5.13988C100.582 6.13076 100.426 8.34117 100.504 9.40827L100.66 10.018L100.738 9.94182L100.815 9.78938C101.672 8.7985 101.672 7.50274 101.516 6.51186C101.438 5.82587 101.282 5.36854 101.205 5.13988L101.127 4.98744V4.83499ZM102.138 8.64606L101.905 8.95094C101.127 9.94182 100.037 12.5333 100.037 13.448V13.7529L100.271 13.6004C102.216 12.3809 102.294 10.018 102.216 9.02716V8.87472L102.138 8.64606ZM101.827 12.8382L101.516 12.9907C100.271 13.7529 98.3248 16.1157 97.9357 17.1066L97.8578 17.4115L98.1692 17.3353C100.193 16.7255 101.516 14.5151 101.749 13.1431V12.9907L101.827 12.8382ZM97.7022 4.45389L97.78 4.83499C98.0913 5.82587 99.0253 7.50274 99.8814 8.18873L100.115 8.34117V8.03629C100.193 6.66431 99.4923 5.59721 98.0135 4.68255L97.8578 4.60633L97.7022 4.45389ZM98.5583 7.42652V7.7314C98.4805 8.72228 99.3366 10.9327 99.8814 11.6949L100.037 11.9236L100.115 11.6949C100.193 11.39 100.271 11.1614 100.271 10.9327C100.348 9.33205 99.1031 8.03629 98.714 7.65518L98.6361 7.57896L98.5583 7.42652ZM98.4805 10.1705L98.4026 10.4754C98.3248 10.704 98.247 11.0851 98.247 11.5425C98.247 12.8382 98.4026 14.4389 98.714 14.9724L98.7918 15.2011L98.9475 14.9724C99.3366 14.4389 99.5701 13.8291 99.5701 13.1431C99.5701 12.3047 99.2588 11.3138 98.6361 10.3991L98.5583 10.2467L98.4805 10.1705ZM97.78 13.1431L97.6244 13.3718C97.0017 14.134 96.2234 16.7255 96.2234 17.7164V17.9451L96.3012 18.1737L96.4569 18.0975C97.5465 17.4115 98.0913 16.4206 98.1692 15.2011C98.1692 14.6675 98.0913 14.0578 97.9357 13.448L97.8578 13.2956L97.78 13.1431ZM100.037 17.1066L99.7258 17.1828C98.6361 17.3353 95.5229 19.0884 95.056 19.7744L94.9003 19.9268H95.1338C97.7022 20.3841 99.1031 18.631 99.8814 17.3353L99.9592 17.1828L100.037 17.1066ZM87.6621 20.9939C87.5843 20.9939 85.7164 21.9848 84.5489 23.5092L84.4711 23.5854L84.5489 23.6616C84.6268 23.7379 84.8603 23.8903 84.9381 23.9665H85.0159L85.0937 23.8903C86.2612 22.5183 88.2069 20.7652 90.3083 20.6128C90.6197 20.9177 90.931 21.1463 91.3201 21.2988C92.4876 21.6799 94.589 21.5275 96.2234 20.8415L96.6126 20.689L96.2234 20.6128C92.2541 19.6219 89.2966 20.2317 87.6621 20.9939ZM96.0677 16.192L95.8343 16.3444C94.9781 16.878 92.6432 18.8597 92.4098 19.5457L92.3319 19.6981H92.4876C95.056 19.9268 95.6786 17.9451 95.9899 16.4206V16.2682L96.0677 16.192ZM30.3794 0.94771H33.6482V3.84412H30.3794V0.94771ZM30.6907 7.19785H33.4147V21.375H30.6907V7.19785ZM10.0658 7.19785H12.7898V21.375H10.1436V19.317H10.0658C8.97615 21.0701 7.10823 21.8323 5.08466 21.8323C2.04929 21.8323 0.337036 19.5457 0.337036 16.7255V7.19785H3.06108V15.5822C3.06108 18.0213 3.60589 19.8506 6.2521 19.8506C7.34172 19.8506 8.89832 19.317 9.44313 17.7926C9.98794 16.4968 9.98794 14.82 9.98794 14.4389V7.19785H10.0658ZM18.2379 9.25583C19.2497 7.50274 21.1954 6.74053 22.6742 6.74053C23.686 6.74053 28.1223 6.96919 28.1223 11.5425V21.2988H25.3982V12.3809C25.3982 10.018 24.3865 8.7985 22.0516 8.7985C22.0516 8.7985 20.5728 8.72228 19.4053 9.8656C19.0162 10.2467 18.2379 10.8565 18.2379 13.6767V21.375H15.5139V7.19785H18.2379V9.25583ZM44.8557 11.6949C44.7001 9.94182 43.8439 8.72228 41.8982 8.72228C39.3298 8.72228 38.318 10.9327 38.318 14.2102C38.318 17.4877 39.3298 19.6981 41.8982 19.6981C43.6883 19.6981 44.7779 18.5548 44.9335 16.4968H47.6576C47.4241 19.6981 45.0114 21.6037 41.8203 21.6037C37.2284 21.6037 35.3605 18.4024 35.3605 14.2864C35.3605 10.1705 37.4619 6.74053 42.0538 6.74053C45.0892 6.74053 47.3463 8.64606 47.5019 11.6949H44.8557ZM51.7047 14.7438C51.4712 17.1828 52.5609 19.7744 55.2849 19.7744C57.3863 19.7744 58.4759 18.9359 58.7873 16.878H61.667C61.2 20.0793 58.7094 21.6799 55.2849 21.6799C50.6929 21.6799 48.825 18.4786 48.825 14.3627C48.825 10.2467 50.9264 6.81675 55.5184 6.81675C59.799 6.89297 61.8226 9.56071 61.8226 13.448V14.7438H51.7047ZM59.0207 12.9144C59.0986 10.5516 58.009 8.72228 55.3627 8.72228C53.1057 8.72228 51.7826 10.6278 51.7826 12.9144H59.0207ZM64.9358 21.2226V9.02716H62.4453V7.19785H64.9358V4.149C65.0136 1.10015 67.4264 0.261719 69.4499 0.261719C70.0726 0.261719 70.7731 0.414161 71.3957 0.566604V2.77702C70.9287 2.77702 70.4617 2.7008 69.9948 2.7008C68.4382 2.7008 67.582 3.08191 67.6599 4.60633V7.19785H71.0065V9.02716H67.6599V21.2226H64.9358Z" fill="#7B7B7B"/>
</g>
<defs>
<clipPath id="clip0_1_722">
<rect width="102" height="24" fill="white" transform="translate(0.288208)"/>
</clipPath>
</defs>
</svg>
