<svg width="94" height="62" viewBox="0 0 94 62" fill="none" xmlns="http://www.w3.org/2000/svg">
<path d="M93.6838 46.7538C93.6968 46.478 93.4836 46.2439 93.2078 46.2309L88.7128 46.0199C88.4369 46.007 88.2028 46.2201 88.1899 46.4959C88.1769 46.7718 88.39 47.0059 88.6659 47.0188L92.6615 47.2064L92.4739 51.202C92.461 51.4778 92.6741 51.7119 92.9499 51.7249C93.2257 51.7378 93.4599 51.5247 93.4728 51.2489L93.6838 46.7538ZM0.227573 0.980815C2.53501 31.288 13.1062 48.9347 30.0363 55.5043L30.398 54.572C13.9955 48.2071 3.51973 31.0493 1.22469 0.9049L0.227573 0.980815ZM30.0363 55.5043C36.8589 58.1518 43.9752 54.4666 48.411 50.0472C50.6361 47.8303 52.2548 45.3661 52.8491 43.3038C53.1456 42.2748 53.2041 41.2859 52.887 40.469C52.5574 39.6198 51.8544 39.0393 50.8225 38.7988L50.5955 39.7727C51.3532 39.9493 51.7613 40.3325 51.9548 40.8309C52.1607 41.3616 52.1542 42.104 51.8882 43.0269C51.3575 44.8685 49.8611 47.1909 47.7052 49.3388C43.3792 53.6489 36.6704 57.006 30.398 54.572L30.0363 55.5043ZM50.8225 38.7988C49.849 38.572 49.0136 38.6652 48.4252 39.1826C47.8496 39.6886 47.6449 40.4852 47.6475 41.3493C47.6528 43.0799 48.4869 45.5075 49.8349 48.0434C51.1925 50.5974 53.1067 53.3272 55.3471 55.674C57.5842 58.0172 60.171 60.0041 62.88 61.0348L63.2356 60.1001C60.7145 59.1409 58.2479 57.2642 56.0704 54.9834C53.8963 52.7061 52.0348 50.0515 50.7179 47.5741C49.3914 45.0785 48.6521 42.8277 48.6475 41.3462C48.6452 40.6042 48.8264 40.1614 49.0854 39.9336C49.3315 39.7173 49.7793 39.5826 50.5955 39.7727L50.8225 38.7988ZM62.88 61.0348C68.3283 63.1077 74.2077 61.2146 79.5571 58.0666C84.9195 54.9109 89.8727 50.4212 93.521 47.1001L92.8478 46.3606C89.1892 49.6911 84.3092 54.1098 79.05 57.2047C73.7778 60.3073 68.2473 62.0069 63.2356 60.1001L62.88 61.0348Z" fill="#7B7B7B"/>
</svg>
