<svg width="111" height="55" viewBox="0 0 111 55" fill="none" xmlns="http://www.w3.org/2000/svg">
<path d="M57.69 31.4947L58.1899 31.5012L57.69 31.4947ZM66.7567 15.4565L67.1705 15.1759L66.7567 15.4565ZM0.887522 12.1084C0.887597 12.3845 1.11151 12.6083 1.38766 12.6082L5.88766 12.607C6.1638 12.6069 6.3876 12.383 6.38752 12.1069C6.38745 11.8307 6.16353 11.607 5.88739 11.607L1.88739 11.6081L1.8863 7.60811C1.88623 7.33197 1.66231 7.10817 1.38617 7.10824C1.11003 7.10832 0.88623 7.33223 0.886305 7.60838L0.887522 12.1084ZM110.025 54.0471C103.145 37.6348 90.0677 29.3876 78.6903 26.496C73.0073 25.0516 67.7218 24.9363 63.8226 25.8266C61.8746 26.2714 60.2422 26.9742 59.0819 27.9163C57.9132 28.8652 57.2084 30.0732 57.19 31.4882L58.1899 31.5012C58.2036 30.4477 58.7182 29.4997 59.7122 28.6926C60.7146 27.8788 62.1882 27.2255 64.0452 26.8015C67.7561 25.9542 72.8771 26.0503 78.4439 27.4651C89.5662 30.292 102.362 38.3547 109.103 54.4337L110.025 54.0471ZM57.19 31.4882C57.169 33.1006 57.5015 34.3928 58.1156 35.3608C58.7337 36.3352 59.6187 36.9507 60.6364 37.2282C62.6499 37.7773 65.1074 36.9954 67.0996 35.2835C69.108 33.5577 70.7048 30.843 71.0025 27.3914C71.3005 23.9373 70.2952 19.7845 67.1705 15.1759L66.3428 15.737C69.3656 20.1954 70.2807 24.1237 70.0062 27.3054C69.7315 30.4895 68.2632 32.9652 66.4479 34.5251C64.6165 36.0988 62.492 36.6977 60.8995 36.2634C60.1141 36.0493 59.4401 35.582 58.96 34.8252C58.4758 34.062 58.1708 32.9744 58.1899 31.5012L57.19 31.4882ZM67.1705 15.1759C64.6458 11.4522 60.4179 8.20935 55.2413 5.72874C50.0591 3.24546 43.8944 1.51033 37.4554 0.822492C24.5903 -0.551806 10.5346 2.2489 1.03387 11.7548L1.74117 12.4617C10.9569 3.24094 24.6678 0.462163 37.3492 1.81683C43.6835 2.49348 49.737 4.19995 54.8092 6.63055C59.887 9.06382 63.9496 12.2072 66.3428 15.737L67.1705 15.1759Z" fill="#7B7B7B"/>
</svg>
