<svg width="320" height="839" viewBox="0 0 320 839" fill="none" xmlns="http://www.w3.org/2000/svg">
<path d="M-509 92.7713C-509 91.9154 -508.51 91.1738 -507.697 90.9076C-493.403 86.23 -362.643 45.0721 -170.863 39.5587C-73.7269 36.7663 66.2538 44.7534 187.493 56.5508C328.516 70.2733 426.63 80.2862 546.198 79.0188C657.691 77.8371 808.89 59.3235 828.804 56.8282C830 56.6783 831 57.6182 831 58.8238V534.727C831 535.499 830.558 536.199 829.854 536.517C818.479 541.648 722.844 582.697 562.582 588.174C451.054 591.986 315.819 582.054 182.613 569.692C67.0298 558.966 -85.6288 545.996 -186.898 548.674C-365.675 553.401 -488.063 582.845 -506.562 587.543C-507.837 587.867 -509 586.881 -509 585.565V92.7713Z" fill="url(#paint0_linear_1_645)"/>
<circle opacity="0.24" cx="51" cy="111" r="12" fill="white"/>
<path opacity="0.16" fill-rule="evenodd" clip-rule="evenodd" d="M863.197 0.124089C877.661 0.468516 888.78 11.9818 888.03 25.8397C887.213 40.9629 886.78 58.2041 886.309 76.9301C884.905 132.823 883.169 201.945 869.878 267.458C851.952 355.823 811.795 445.482 717.108 495.88C633.086 540.601 556.341 534.403 491.236 526.516C486.94 525.996 482.719 525.476 478.571 524.965C417.527 517.443 372.041 511.837 328.991 535.021C287.043 557.612 249.705 606.293 223.139 662.514C196.681 718.509 183.64 776.181 185.614 811.84C186.378 825.658 175.273 837.755 160.809 838.859C146.346 839.963 134 829.656 133.236 815.838C130.667 769.414 146.858 703.36 175.445 642.86C203.926 582.585 247.448 522.001 304.213 491.431C363.532 459.485 426.619 467.51 483.563 474.754C488.83 475.424 494.043 476.087 499.197 476.711C562.484 484.378 624.467 488.408 692.566 452.162C766.85 412.624 801.775 341.113 818.398 259.174C830.755 198.262 832.332 135.889 833.724 80.8185C834.225 60.9939 834.702 42.1156 835.649 24.5924C836.399 10.7345 848.732 -0.22037 863.197 0.124089Z" fill="white"/>
<defs>
<linearGradient id="paint0_linear_1_645" x1="161" y1="39" x2="161" y2="589" gradientUnits="userSpaceOnUse">
<stop stop-color="#AD83FF"/>
<stop offset="1" stop-color="#9762FD"/>
</linearGradient>
</defs>
</svg>
