<svg width="1920" height="798" viewBox="0 0 1920 798" fill="none" xmlns="http://www.w3.org/2000/svg">
<path d="M-1 77.272C-1 76.4184 -0.595174 75.706 0.214598 75.4361C16.9669 69.8522 205.685 8.89307 484 0.809656C623.325 -3.23691 824.103 8.33717 998 25.4327C1200.27 45.3179 1341 59.8274 1512.5 57.9909C1674.47 56.2566 1894.85 28.7595 1918.85 25.7073C1920.05 25.5551 1921 26.502 1921 27.7087V718.926C1921 719.695 1920.66 720.35 1919.96 720.672C1906.77 726.751 1769 787.759 1536 795.803C1376.03 801.326 1182.06 786.935 991 769.021C825.216 753.478 606.253 734.684 461 738.564C200.957 745.51 24.0926 789.293 1.46286 795.155C0.186946 795.485 -1 794.505 -1 793.187V77.272Z" fill="url(#paint0_linear_2043_603)"/>
<g opacity="0.16">
<mask id="mask0_2043_603" style="mask-type:alpha" maskUnits="userSpaceOnUse" x="-1" y="0" width="1922" height="798">
<path d="M-1 77.3665C-1 76.5133 -0.595513 75.8011 0.213887 75.531C16.9615 69.9416 205.681 8.90435 484 0.810672C623.325 -3.24097 824.103 8.34763 998 25.4646C1200.27 45.3747 1341 59.9025 1512.5 58.0637C1674.46 56.3272 1894.85 28.7959 1918.85 25.7396C1920.05 25.5872 1921 26.5342 1921 27.741V719.831C1921 720.599 1920.66 721.253 1919.96 721.576C1906.77 727.66 1769.01 788.747 1536 796.802C1376.03 802.332 1182.06 787.922 991 769.986C825.216 754.424 606.253 735.605 461 739.49C200.959 746.445 24.0957 790.282 1.46345 796.152C0.187377 796.483 -1 795.503 -1 794.185V77.3665Z" fill="white"/>
</mask>
<g mask="url(#mask0_2043_603)">
<path fill-rule="evenodd" clip-rule="evenodd" d="M1958.2 40.2794C1972.66 40.6238 1983.78 52.1371 1983.03 65.995C1982.21 81.1182 1981.78 98.3594 1981.31 117.085C1979.91 172.979 1978.17 242.1 1964.88 307.614C1946.95 395.978 1906.8 485.637 1812.11 536.035C1728.09 580.756 1651.34 574.559 1586.24 566.672C1581.94 566.151 1577.72 565.631 1573.57 565.12C1512.53 557.598 1467.04 551.993 1423.99 575.177C1382.04 597.767 1344.7 646.448 1318.14 702.669C1291.68 758.664 1278.64 816.336 1280.61 851.995C1281.38 865.813 1270.27 877.91 1255.81 879.014C1241.35 880.118 1229 869.812 1228.24 855.994C1225.67 809.57 1241.86 743.516 1270.45 683.015C1298.93 622.741 1342.45 562.156 1399.21 531.586C1458.53 499.641 1521.62 507.666 1578.56 514.909C1583.83 515.579 1589.04 516.242 1594.2 516.867C1657.48 524.534 1719.47 528.564 1787.57 492.317C1861.85 452.779 1896.78 381.268 1913.4 299.33C1925.76 238.417 1927.33 176.044 1928.72 120.974C1929.22 101.149 1929.7 82.2708 1930.65 64.7476C1931.4 50.8897 1943.73 39.9349 1958.2 40.2794Z" fill="white"/>
</g>
</g>
<g opacity="0.24">
<path d="M269.999 586.358L230.004 586.358L230.008 597.639L270.003 597.639L269.999 586.358Z" fill="white"/>
<path d="M244.36 572.001L244.36 611.996L255.641 611.991L255.641 571.996L244.36 572.001Z" fill="white"/>
</g>
<path opacity="0.24" fill-rule="evenodd" clip-rule="evenodd" d="M1635 238.333C1644.57 238.333 1652.33 230.573 1652.33 221C1652.33 211.427 1644.57 203.667 1635 203.667C1625.43 203.667 1617.67 211.427 1617.67 221C1617.67 230.573 1625.43 238.333 1635 238.333ZM1635 245C1648.25 245 1659 234.255 1659 221C1659 207.745 1648.25 197 1635 197C1621.75 197 1611 207.745 1611 221C1611 234.255 1621.75 245 1635 245Z" fill="white"/>
<path opacity="0.24" fill-rule="evenodd" clip-rule="evenodd" d="M174 243.222C185.168 243.222 194.222 234.168 194.222 223C194.222 211.832 185.168 202.778 174 202.778C162.832 202.778 153.778 211.832 153.778 223C153.778 234.168 162.832 243.222 174 243.222ZM174 251C189.464 251 202 238.464 202 223C202 207.536 189.464 195 174 195C158.536 195 146 207.536 146 223C146 238.464 158.536 251 174 251Z" fill="white"/>
<circle opacity="0.24" cx="525" cy="172" r="12" fill="white"/>
<defs>
<linearGradient id="paint0_linear_2043_603" x1="960" y1="0" x2="960" y2="797" gradientUnits="userSpaceOnUse">
<stop stop-color="#AD83FF"/>
<stop offset="1" stop-color="#9762FD"/>
</linearGradient>
</defs>
</svg>
