<svg width="165" height="38" viewBox="0 0 165 38" fill="none" xmlns="http://www.w3.org/2000/svg">
<path d="M85.6532 31.7733L86.1166 31.5856L85.6532 31.7733ZM88.5937 6.28385L88.8667 5.86497L88.5937 6.28385ZM2.73405 37.5371C2.84176 37.7914 3.13521 37.9102 3.38948 37.8025L7.53301 36.0472C7.78728 35.9395 7.90608 35.646 7.79837 35.3918C7.69065 35.1375 7.3972 35.0187 7.14294 35.1264L3.4598 36.6867L1.89952 33.0035C1.7918 32.7493 1.49836 32.6305 1.24409 32.7382C0.98982 32.8459 0.871015 33.1393 0.97873 33.3936L2.73405 37.5371ZM164.612 32.5546C147.008 15.2598 125.899 11.7587 109.84 14.1932C101.816 15.4096 95.0253 18.1114 90.5498 21.3412C88.3134 22.9552 86.63 24.7192 85.6733 26.5208C84.7115 28.3318 84.4767 30.2013 85.1898 31.9611L86.1166 31.5856C85.5388 30.1596 85.7001 28.6024 86.5564 26.9898C87.4178 25.3677 88.9745 23.7113 91.135 22.1521C95.4536 19.0355 102.085 16.3802 109.99 15.1819C125.788 12.7871 146.565 16.2265 163.912 33.268L164.612 32.5546ZM85.1898 31.9611C86.0227 34.0164 87.1244 35.4603 88.3933 36.3437C89.6684 37.2314 91.0836 37.5322 92.489 37.3441C95.2769 36.971 97.9518 34.6958 99.557 31.4587C101.172 28.2023 101.744 23.9076 100.279 19.367C98.8125 14.8239 95.3197 10.0711 88.8667 5.86497L88.3206 6.70272C94.6212 10.8095 97.9445 15.3903 99.3269 19.6741C100.71 23.9602 100.163 27.9855 98.6611 31.0144C97.1497 34.0625 94.7103 36.0379 92.3563 36.353C91.1907 36.509 90.028 36.2633 88.9646 35.523C87.8949 34.7782 86.8974 33.5124 86.1166 31.5856L85.1898 31.9611ZM88.8667 5.86497C83.667 2.47578 76.5475 0.605553 68.6103 0.22245C60.6669 -0.16095 51.8692 0.942996 43.2835 3.53688C26.1241 8.72099 9.72143 19.8882 2.73098 37.1545L3.6579 37.5297C10.4972 20.6367 26.5913 9.62448 43.5727 4.49415C52.0573 1.93082 60.741 0.843787 68.5621 1.22129C76.3894 1.59908 83.3175 3.44163 88.3206 6.70272L88.8667 5.86497Z" fill="#7B7B7B"/>
</svg>
