<svg width="169" height="74" viewBox="0 0 169 74" fill="none" xmlns="http://www.w3.org/2000/svg">
<path d="M165.922 0.731092C165.773 0.498287 165.464 0.429955 165.231 0.578469L161.437 2.99864C161.204 3.14715 161.136 3.45627 161.285 3.68908C161.433 3.92188 161.742 3.99022 161.975 3.8417L165.347 1.69044L167.499 5.06269C167.647 5.29549 167.956 5.36383 168.189 5.21531C168.422 5.0668 168.49 4.75768 168.342 4.52487L165.922 0.731092ZM0.610554 26.8136C31.6602 65.3752 61.841 79.0551 90.1213 71.9851L89.8787 71.0149C62.159 77.9449 32.3398 64.6248 1.38945 26.1864L0.610554 26.8136ZM90.1213 71.9851C101.41 69.1628 107.355 57.6577 109.118 47.5862C110.001 42.539 109.854 37.76 108.755 34.4967C108.207 32.8678 107.401 31.5562 106.305 30.8095C105.179 30.0419 103.819 29.9204 102.311 30.5372L102.689 31.4628C103.931 30.9546 104.931 31.0831 105.742 31.6358C106.584 32.2094 107.293 33.2884 107.807 34.8158C108.834 37.865 108.999 42.461 108.132 47.4138C106.395 57.3423 100.59 68.3372 89.8787 71.0149L90.1213 71.9851ZM102.311 30.5372C100.858 31.1315 99.9489 31.9851 99.6846 33.0908C99.4247 34.1785 99.8313 35.3435 100.612 36.472C102.175 38.7306 105.467 41.1828 109.582 43.3188C113.715 45.4639 118.743 47.3239 123.845 48.3649C128.943 49.4049 134.15 49.6347 138.625 48.4842L138.375 47.5158C134.1 48.6153 129.057 48.4076 124.045 47.3851C119.038 46.3636 114.098 44.5361 110.043 42.4312C105.97 40.3172 102.856 37.9569 101.435 35.903C100.723 34.8753 100.493 34.009 100.657 33.3233C100.817 32.6556 101.392 31.9935 102.689 31.4628L102.311 30.5372ZM138.625 48.4842C147.603 46.1755 153.564 38.201 157.706 28.9544C161.855 19.6922 164.24 9.01777 165.988 1.10792L165.012 0.892079C163.26 8.81556 160.895 19.3911 156.794 28.5456C152.686 37.7156 146.897 45.3245 138.375 47.5158L138.625 48.4842Z" fill="#7B7B7B"/>
</svg>
