<svg width="16" height="16" viewBox="0 0 16 16" fill="none" xmlns="http://www.w3.org/2000/svg">
<g clip-path="url(#clip0_1_230)">
<path d="M0.334012 2.97362C2.52995 4.83334 6.38314 8.10516 7.51564 9.12531C7.66767 9.263 7.83073 9.333 8.00001 9.333C8.16895 9.333 8.33173 9.26366 8.48342 9.12663C9.61689 8.10547 13.4701 4.83334 15.666 2.97362C15.8028 2.85806 15.8236 2.65494 15.7129 2.51366C15.457 2.18719 15.0755 2 14.6667 2H1.33336C0.924512 2 0.542981 2.18719 0.287137 2.51369C0.17645 2.65494 0.197293 2.85806 0.334012 2.97362Z" fill="white"/>
<path d="M15.8067 3.98127C15.6885 3.92627 15.5495 3.94546 15.4512 4.02946C14.013 5.24852 12.1182 6.85921 10.6892 8.08837C10.614 8.15283 10.5717 8.24755 10.5733 8.34683C10.5749 8.4458 10.6208 8.53921 10.6983 8.60105C12.0261 9.66452 14.0271 11.1274 15.472 12.1671C15.5297 12.2088 15.598 12.23 15.6667 12.23C15.7188 12.23 15.7708 12.2179 15.8187 12.1932C15.9301 12.1362 16 12.0216 16 11.8966V4.28368C16 4.1538 15.9245 4.03565 15.8067 3.98127Z" fill="white"/>
<path d="M0.528 12.1673C1.97331 11.1276 3.97463 9.66475 5.30209 8.60125C5.37956 8.53941 5.42547 8.44597 5.42709 8.34704C5.42872 8.24775 5.38641 8.15304 5.31122 8.08857C3.88216 6.85941 1.98697 5.24872 0.548844 4.02966C0.449875 3.94566 0.310562 3.92713 0.193375 3.98147C0.0755313 4.03585 0 4.154 0 4.28388V11.8968C0 12.0218 0.07 12.1364 0.181313 12.1934C0.229156 12.2182 0.28125 12.2302 0.333344 12.2302C0.402031 12.2302 0.470375 12.209 0.528 12.1673Z" fill="white"/>
<path d="M15.5915 13.074C14.196 12.0756 11.6253 10.2143 10.0908 8.96887C9.9658 8.86699 9.7848 8.87024 9.66177 8.97637C9.36067 9.23906 9.10871 9.46043 8.92999 9.62121C8.38114 10.1166 7.61942 10.1167 7.0693 9.62056C6.89124 9.46009 6.6393 9.23806 6.33817 8.97634C6.21611 8.86956 6.0348 8.86631 5.90945 8.96884C4.38014 10.2101 1.80658 12.0736 0.408798 13.074C0.330986 13.13 0.280861 13.2162 0.271111 13.3116C0.261673 13.407 0.293236 13.5017 0.358673 13.572C0.610986 13.8439 0.966454 13.9998 1.33333 13.9998H14.6667C15.0336 13.9998 15.3887 13.8439 15.6416 13.5721C15.7067 13.5021 15.7386 13.4073 15.7292 13.312C15.7194 13.2166 15.6693 13.13 15.5915 13.074Z" fill="white"/>
</g>
<defs>
<clipPath id="clip0_1_230">
<rect width="16" height="16" fill="white"/>
</clipPath>
</defs>
</svg>
