<svg width="262" height="32" viewBox="0 0 262 32" fill="none" xmlns="http://www.w3.org/2000/svg">
<g clip-path="url(#clip0_2001_46)">
<path d="M26.0784 0.54248H27.9701V31.4577H21.7545V14.5086L14.0526 22.7798L6.3507 14.5086V31.5933H0V0.54248H1.8917L13.9175 13.9662L26.0784 0.54248Z" fill="#242627"/>
<path d="M51.6163 0.54248C72.5601 0.54248 72.5601 32.0001 51.6163 32.0001C30.6725 32.0001 30.6725 0.54248 51.6163 0.54248ZM51.6163 6.77977C39.4554 6.77977 39.4554 25.6272 51.6163 25.6272C63.7772 25.6272 63.9123 6.77977 51.6163 6.77977Z" fill="#242627"/>
<path d="M80.2621 31.4578V7.05106H72.6953V1.08496H94.0445V7.18666H86.4777V31.5934C86.3426 31.4578 80.2621 31.4578 80.2621 31.4578Z" fill="#242627"/>
<path d="M100.665 31.4578V1.08496H106.881V31.5934L100.665 31.4578Z" fill="#242627"/>
<path d="M130.392 0.54248C151.336 0.54248 151.336 32.0001 130.392 32.0001C109.448 32.0001 109.448 0.54248 130.392 0.54248ZM130.392 6.77977C118.231 6.77977 118.231 25.6272 130.392 25.6272C142.553 25.6272 142.553 6.77977 130.392 6.77977Z" fill="#242627"/>
<path d="M169.172 31.4578V19.39H160.119V31.4578H153.903V1.08496H160.119V13.2884H169.172V1.08496H175.387V31.5934L169.172 31.4578Z" fill="#242627"/>
<path d="M184.305 31.4578V1.08496H199.439V7.18666H190.251V13.2884H198.223V19.5256H190.251V25.6273H199.979V31.729C199.979 31.4578 184.305 31.4578 184.305 31.4578Z" fill="#242627"/>
<path d="M217.951 0H218.491L231.328 31.5932H224.436L223.22 28.339H213.221L212.005 31.5932H205.114L217.951 0ZM221.058 22.5085L218.356 14.6441L215.518 22.5085H221.058Z" fill="#242627"/>
<path d="M246.866 31.4578H237.813V1.08496H246.866C267.135 1.08496 267.135 31.4578 246.866 31.4578ZM243.894 7.18666V25.4917H246.866C258.757 25.4917 258.757 7.18666 246.866 7.18666H243.894Z" fill="#242627"/>
</g>
<defs>
<clipPath id="clip0_2001_46">
<rect width="262" height="32" fill="white"/>
</clipPath>
</defs>
</svg>
