<svg width="197" height="24" viewBox="0 0 197 24" fill="none" xmlns="http://www.w3.org/2000/svg">
<g clip-path="url(#clip0_1_277)">
<path d="M19.5588 0.406738H20.9776V23.5932H16.3159V10.8813L10.5395 17.0847L4.76302 10.8813V23.6949H0V0.406738H1.41877L10.4381 10.4745L19.5588 0.406738Z" fill="white"/>
<path d="M38.7122 0.406738C54.4201 0.406738 54.4201 24 38.7122 24C23.0044 24 23.0044 0.406738 38.7122 0.406738ZM38.7122 5.0847C29.5915 5.0847 29.5915 19.2203 38.7122 19.2203C47.8329 19.2203 47.9342 5.0847 38.7122 5.0847Z" fill="white"/>
<path d="M60.1965 23.5931V5.28805H54.5214V0.813477H70.5333V5.38975H64.8582V23.6948C64.7569 23.5931 60.1965 23.5931 60.1965 23.5931Z" fill="white"/>
<path d="M75.499 23.5931V0.813477H80.1606V23.6948L75.499 23.5931Z" fill="white"/>
<path d="M97.7939 0.406738C113.502 0.406738 113.502 24 97.7939 24C82.0861 24 82.0861 0.406738 97.7939 0.406738ZM97.7939 5.0847C88.6733 5.0847 88.6733 19.2203 97.7939 19.2203C106.915 19.2203 106.915 5.0847 97.7939 5.0847Z" fill="white"/>
<path d="M126.879 23.5931V14.5423H120.089V23.5931H115.427V0.813477H120.089V9.96602H126.879V0.813477H131.541V23.6948L126.879 23.5931Z" fill="white"/>
<path d="M138.229 23.5931V0.813477H149.579V5.38975H142.688V9.96602H148.667V14.644H142.688V19.2203H149.985V23.7965C149.985 23.5931 138.229 23.5931 138.229 23.5931Z" fill="white"/>
<path d="M163.463 0H163.868L173.496 23.6949H168.327L167.415 21.2542H159.916L159.004 23.6949H153.836L163.463 0ZM165.794 16.8814L163.767 10.9831L161.639 16.8814H165.794Z" fill="white"/>
<path d="M185.15 23.5931H178.36V0.813477H185.15C200.351 0.813477 200.351 23.5931 185.15 23.5931ZM182.92 5.38975V19.1186H185.15C194.068 19.1186 194.068 5.38975 185.15 5.38975H182.92Z" fill="white"/>
</g>
<defs>
<clipPath id="clip0_1_277">
<rect width="196.5" height="24" fill="white"/>
</clipPath>
</defs>
</svg>
