<svg width="16" height="16" viewBox="0 0 16 16" fill="none" xmlns="http://www.w3.org/2000/svg">
<g clip-path="url(#clip0_1_1421)">
<path d="M15.9954 0.399411C15.9892 0.182777 15.8159 0.00637458 15.5962 0.00018502C14.0643 -0.0245732 12.4116 0.3468 10.8147 1.08026C9.22402 1.80754 7.80352 2.84119 6.70487 4.06363C4.56638 4.11314 2.46812 5.01372 0.945493 6.53636C0.837176 6.64467 0.796944 6.8087 0.843366 6.95415C0.892882 7.1027 1.01667 7.20792 1.17141 7.22959L3.57296 7.57311L3.35632 7.81759C3.21396 7.97852 3.22015 8.2261 3.3718 8.37775L7.61474 12.6207C7.69211 12.6981 7.79424 12.7383 7.90255 12.7383C8.00468 12.7383 8.10062 12.7012 8.1718 12.6362L8.41629 12.4164L8.75981 14.818C8.77837 14.9603 8.88979 15.0841 9.04762 15.1367C9.08476 15.1491 9.12499 15.1553 9.16522 15.1553C9.27973 15.1553 9.39424 15.1058 9.4747 15.0253C10.985 13.5151 11.8762 11.4261 11.9258 9.28452C13.1544 8.18278 14.1911 6.76227 14.9184 5.17465C15.6612 3.57775 16.0325 1.92514 15.9954 0.399411ZM11.0561 10.0675C10.8766 11.4478 10.3227 12.7476 9.44994 13.84L9.15284 11.7665L11.0561 10.0675ZM5.92809 4.94254L4.22905 6.84583L2.15555 6.54873C3.22944 5.68839 4.56019 5.12204 5.92809 4.94254ZM4.64994 7.59786C4.68398 7.57001 4.71184 7.53906 4.7366 7.50193L7.15052 4.79709L7.17528 4.76924C7.19694 4.75067 7.21242 4.72901 7.22789 4.70734C9.2364 2.41411 12.3497 0.891481 15.1815 0.817206C15.1072 3.65202 13.5815 6.76846 11.2851 8.77697C11.2697 8.78935 11.2542 8.80173 11.2418 8.81411L11.2232 8.82959C11.2171 8.83578 11.2078 8.84196 11.1985 8.85125L8.49675 11.2621C8.46271 11.2837 8.42867 11.3116 8.40391 11.3456L7.92112 11.7758L4.22286 8.07446L4.64994 7.59786Z" fill="#9762FD"/>
<path d="M11.3847 6.33854C11.8458 6.33854 12.2822 6.15904 12.6071 5.83409C13.2787 5.15943 13.2787 4.06388 12.6071 3.38921C12.2822 3.06426 11.8458 2.88477 11.3847 2.88477C10.9236 2.88477 10.4872 3.06426 10.1622 3.38921C9.48758 4.06388 9.48758 5.15943 10.1622 5.83409C10.4903 6.15904 10.9236 6.33854 11.3847 6.33854ZM11.3847 3.69869C11.6292 3.69869 11.8582 3.79463 12.0315 3.96484C12.3874 4.32074 12.3874 4.89947 12.0315 5.25537C11.6756 5.61126 11.0969 5.61126 10.741 5.25537C10.3851 4.89947 10.3851 4.32074 10.741 3.96484C10.9112 3.79463 11.1402 3.69869 11.3847 3.69869Z" fill="#9762FD"/>
<path d="M3.31919 10.5659C2.75285 10.5659 2.22055 10.7856 1.82132 11.1849C1.10024 11.9029 0.125383 15.1121 0.0170657 15.4742C-0.0262612 15.6166 0.0139709 15.7744 0.119193 15.8797C0.196563 15.957 0.29869 15.9973 0.407008 15.9973C0.444145 15.9973 0.484377 15.9911 0.524609 15.9818C0.889793 15.8735 4.09908 14.8955 4.81707 14.1775C5.21629 13.7783 5.43602 13.246 5.43602 12.6797C5.43602 12.1133 5.21629 11.581 4.81707 11.1818C4.41474 10.7856 3.88554 10.5659 3.31919 10.5659ZM4.23834 13.6019C3.88863 13.9516 2.3103 14.5489 1.02906 14.9698C1.44685 13.6885 2.04724 12.1102 2.39695 11.7605C2.64453 11.516 2.96948 11.3798 3.31919 11.3798C3.66581 11.3798 3.99385 11.516 4.23834 11.7605C4.74589 12.268 4.74589 13.0944 4.23834 13.6019Z" fill="#9762FD"/>
</g>
<defs>
<clipPath id="clip0_1_1421">
<rect width="16" height="16" fill="white"/>
</clipPath>
</defs>
</svg>
